<?xml version="1.0" encoding="UTF-8" standalone="no"?>
<!DOCTYPE svg PUBLIC "-//W3C//DTD SVG 1.1//EN"
 "http://www.w3.org/Graphics/SVG/1.1/DTD/svg11.dtd">
<!-- Generated by graphviz version 2.43.0 (0)
 -->
<!-- Title: src/control.c Pages: 1 -->
<svg width="456pt" height="308pt"
 viewBox="0.00 0.00 455.50 308.00" xmlns="http://www.w3.org/2000/svg" xmlns:xlink="http://www.w3.org/1999/xlink">
<g id="graph0" class="graph" transform="scale(1 1) rotate(0) translate(4 304)">
<title>src/control.c</title>
<polygon fill="white" stroke="transparent" points="-4,4 -4,-304 451.5,-304 451.5,4 -4,4"/>
<!-- Node1 -->
<g id="node1" class="node">
<title>Node1</title>
<g id="a_node1"><a xlink:title="Implements vehicle control functions including both manual (keyboard) and autonomous (centerline base...">
<polygon fill="#bfbfbf" stroke="black" points="149,-280.5 149,-299.5 225,-299.5 225,-280.5 149,-280.5"/>
<text text-anchor="middle" x="187" y="-287.5" font-family="Helvetica,sans-Serif" font-size="10.00">src/control.c</text>
</a>
</g>
</g>
<!-- Node2 -->
<g id="node2" class="node">
<title>Node2</title>
<g id="a_node2"><a xlink:title=" ">
<polygon fill="white" stroke="#bfbfbf" points="0,-224.5 0,-243.5 50,-243.5 50,-224.5 0,-224.5"/>
<text text-anchor="middle" x="25" y="-231.5" font-family="Helvetica,sans-Serif" font-size="10.00">stdio.h</text>
</a>
</g>
</g>
<!-- Node1&#45;&gt;Node2 -->
<g id="edge1" class="edge">
<title>Node1&#45;&gt;Node2</title>
<path fill="none" stroke="midnightblue" d="M161.33,-280.44C133.92,-271.31 90.31,-256.77 59.81,-246.6"/>
<polygon fill="midnightblue" stroke="midnightblue" points="60.61,-243.18 50.02,-243.34 58.4,-249.82 60.61,-243.18"/>
</g>
<!-- Node3 -->
<g id="node3" class="node">
<title>Node3</title>
<g id="a_node3"><a xlink:title=" ">
<polygon fill="white" stroke="#bfbfbf" points="128.5,-56.5 128.5,-75.5 179.5,-75.5 179.5,-56.5 128.5,-56.5"/>
<text text-anchor="middle" x="154" y="-63.5" font-family="Helvetica,sans-Serif" font-size="10.00">math.h</text>
</a>
</g>
</g>
<!-- Node1&#45;&gt;Node3 -->
<g id="edge2" class="edge">
<title>Node1&#45;&gt;Node3</title>
<path fill="none" stroke="midnightblue" d="M183.05,-280.4C172.62,-257.11 144.46,-190.68 135,-132 133.58,-123.22 133.24,-120.71 135,-112 136.89,-102.65 140.79,-92.83 144.57,-84.75"/>
<polygon fill="midnightblue" stroke="midnightblue" points="147.79,-86.14 149.12,-75.63 141.53,-83.01 147.79,-86.14"/>
</g>
<!-- Node4 -->
<g id="node4" class="node">
<title>Node4</title>
<g id="a_node4"><a xlink:title=" ">
<polygon fill="white" stroke="#bfbfbf" points="90.5,-0.5 90.5,-19.5 149.5,-19.5 149.5,-0.5 90.5,-0.5"/>
<text text-anchor="middle" x="120" y="-7.5" font-family="Helvetica,sans-Serif" font-size="10.00">allegro.h</text>
</a>
</g>
</g>
<!-- Node1&#45;&gt;Node4 -->
<g id="edge3" class="edge">
<title>Node1&#45;&gt;Node4</title>
<path fill="none" stroke="midnightblue" d="M167.76,-280.42C136.47,-264.99 78,-229.41 78,-179 78,-179 78,-179 78,-121 78,-86.41 96.35,-49.49 108.79,-28.43"/>
<polygon fill="midnightblue" stroke="midnightblue" points="111.91,-30.04 114.16,-19.69 105.94,-26.38 111.91,-30.04"/>
</g>
<!-- Node5 -->
<g id="node5" class="node">
<title>Node5</title>
<g id="a_node5"><a xlink:href="trajectory_8h.html" target="_top" xlink:title="Provides declarations for trajectory planning based on cone detection.">
<polygon fill="white" stroke="black" points="258.5,-168.5 258.5,-187.5 329.5,-187.5 329.5,-168.5 258.5,-168.5"/>
<text text-anchor="middle" x="294" y="-175.5" font-family="Helvetica,sans-Serif" font-size="10.00">trajectory.h</text>
</a>
</g>
</g>
<!-- Node1&#45;&gt;Node5 -->
<g id="edge4" class="edge">
<title>Node1&#45;&gt;Node5</title>
<path fill="none" stroke="midnightblue" d="M206.67,-280.49C222.63,-272.81 244.88,-260.23 260,-244 272.59,-230.49 281.83,-211.42 287.47,-197.43"/>
<polygon fill="midnightblue" stroke="midnightblue" points="290.81,-198.49 291.08,-187.9 284.27,-196.02 290.81,-198.49"/>
</g>
<!-- Node6 -->
<g id="node6" class="node">
<title>Node6</title>
<g id="a_node6"><a xlink:href="perception_8h.html" target="_top" xlink:title="Header file for perception&#45;related types, constants, and function declarations.">
<polygon fill="white" stroke="black" points="144.5,-112.5 144.5,-131.5 221.5,-131.5 221.5,-112.5 144.5,-112.5"/>
<text text-anchor="middle" x="183" y="-119.5" font-family="Helvetica,sans-Serif" font-size="10.00">perception.h</text>
</a>
</g>
</g>
<!-- Node1&#45;&gt;Node6 -->
<g id="edge12" class="edge">
<title>Node1&#45;&gt;Node6</title>
<path fill="none" stroke="midnightblue" d="M186.01,-280.39C185.02,-271.34 183.56,-256.69 183,-244 181.39,-207.75 181.95,-165.33 182.49,-141.57"/>
<polygon fill="midnightblue" stroke="midnightblue" points="185.99,-141.6 182.74,-131.51 178.99,-141.42 185.99,-141.6"/>
</g>
<!-- Node7 -->
<g id="node7" class="node">
<title>Node7</title>
<g id="a_node7"><a xlink:href="globals_8h.html" target="_top" xlink:title="Global constants, variables, and structures for the simulation and visualization system.">
<polygon fill="white" stroke="black" points="219.5,-56.5 219.5,-75.5 280.5,-75.5 280.5,-56.5 219.5,-56.5"/>
<text text-anchor="middle" x="250" y="-63.5" font-family="Helvetica,sans-Serif" font-size="10.00">globals.h</text>
</a>
</g>
</g>
<!-- Node1&#45;&gt;Node7 -->
<g id="edge13" class="edge">
<title>Node1&#45;&gt;Node7</title>
<path fill="none" stroke="midnightblue" d="M216.51,-280.39C254.26,-267.49 317.33,-239.04 339,-188 357.35,-144.78 305.85,-102.49 273.69,-81.21"/>
<polygon fill="midnightblue" stroke="midnightblue" points="275.51,-78.22 265.2,-75.78 271.74,-84.12 275.51,-78.22"/>
</g>
<!-- Node10 -->
<g id="node10" class="node">
<title>Node10</title>
<g id="a_node10"><a xlink:href="control_8h.html" target="_top" xlink:title="Declarations for vehicle control functions and variables in the 2D simulator.">
<polygon fill="white" stroke="black" points="191.5,-224.5 191.5,-243.5 250.5,-243.5 250.5,-224.5 191.5,-224.5"/>
<text text-anchor="middle" x="221" y="-231.5" font-family="Helvetica,sans-Serif" font-size="10.00">control.h</text>
</a>
</g>
</g>
<!-- Node1&#45;&gt;Node10 -->
<g id="edge14" class="edge">
<title>Node1&#45;&gt;Node10</title>
<path fill="none" stroke="midnightblue" d="M192.61,-280.08C197.37,-272.53 204.32,-261.49 210.15,-252.23"/>
<polygon fill="midnightblue" stroke="midnightblue" points="213.12,-254.08 215.49,-243.75 207.2,-250.35 213.12,-254.08"/>
</g>
<!-- Node11 -->
<g id="node11" class="node">
<title>Node11</title>
<g id="a_node11"><a xlink:href="vehicle_8h.html" target="_top" xlink:title=" ">
<polygon fill="white" stroke="black" points="386.5,-224.5 386.5,-243.5 447.5,-243.5 447.5,-224.5 386.5,-224.5"/>
<text text-anchor="middle" x="417" y="-231.5" font-family="Helvetica,sans-Serif" font-size="10.00">vehicle.h</text>
</a>
</g>
</g>
<!-- Node1&#45;&gt;Node11 -->
<g id="edge18" class="edge">
<title>Node1&#45;&gt;Node11</title>
<path fill="none" stroke="midnightblue" d="M223.44,-280.44C265.07,-270.67 333.01,-254.72 376.33,-244.55"/>
<polygon fill="midnightblue" stroke="midnightblue" points="377.31,-247.91 386.25,-242.22 375.71,-241.1 377.31,-247.91"/>
</g>
<!-- Node5&#45;&gt;Node6 -->
<g id="edge5" class="edge">
<title>Node5&#45;&gt;Node6</title>
<path fill="none" stroke="midnightblue" d="M276.17,-168.32C258.28,-159.62 230.52,-146.12 209.95,-136.11"/>
<polygon fill="midnightblue" stroke="midnightblue" points="211.31,-132.88 200.79,-131.65 208.25,-139.18 211.31,-132.88"/>
</g>
<!-- Node5&#45;&gt;Node7 -->
<g id="edge11" class="edge">
<title>Node5&#45;&gt;Node7</title>
<path fill="none" stroke="midnightblue" d="M290.55,-168.37C283.38,-150.46 266.77,-108.92 257.18,-84.95"/>
<polygon fill="midnightblue" stroke="midnightblue" points="260.4,-83.58 253.44,-75.59 253.9,-86.18 260.4,-83.58"/>
</g>
<!-- Node6&#45;&gt;Node3 -->
<g id="edge6" class="edge">
<title>Node6&#45;&gt;Node3</title>
<path fill="none" stroke="midnightblue" d="M178.21,-112.08C174.24,-104.69 168.47,-93.95 163.57,-84.81"/>
<polygon fill="midnightblue" stroke="midnightblue" points="166.51,-82.91 158.7,-75.75 160.35,-86.22 166.51,-82.91"/>
</g>
<!-- Node6&#45;&gt;Node7 -->
<g id="edge7" class="edge">
<title>Node6&#45;&gt;Node7</title>
<path fill="none" stroke="midnightblue" d="M193.76,-112.32C203.77,-104.26 218.89,-92.08 230.93,-82.37"/>
<polygon fill="midnightblue" stroke="midnightblue" points="233.45,-84.83 239.04,-75.83 229.06,-79.38 233.45,-84.83"/>
</g>
<!-- Node7&#45;&gt;Node4 -->
<g id="edge8" class="edge">
<title>Node7&#45;&gt;Node4</title>
<path fill="none" stroke="midnightblue" d="M229.4,-56.44C208.01,-47.56 174.32,-33.56 149.98,-23.45"/>
<polygon fill="midnightblue" stroke="midnightblue" points="151.08,-20.12 140.5,-19.52 148.39,-26.58 151.08,-20.12"/>
</g>
<!-- Node8 -->
<g id="node8" class="node">
<title>Node8</title>
<g id="a_node8"><a xlink:title=" ">
<polygon fill="white" stroke="#bfbfbf" points="287.5,-0.5 287.5,-19.5 350.5,-19.5 350.5,-0.5 287.5,-0.5"/>
<text text-anchor="middle" x="319" y="-7.5" font-family="Helvetica,sans-Serif" font-size="10.00">pthread.h</text>
</a>
</g>
</g>
<!-- Node7&#45;&gt;Node8 -->
<g id="edge9" class="edge">
<title>Node7&#45;&gt;Node8</title>
<path fill="none" stroke="midnightblue" d="M261.09,-56.32C271.49,-48.18 287.26,-35.84 299.72,-26.09"/>
<polygon fill="midnightblue" stroke="midnightblue" points="301.99,-28.75 307.71,-19.83 297.68,-23.24 301.99,-28.75"/>
</g>
<!-- Node9 -->
<g id="node9" class="node">
<title>Node9</title>
<g id="a_node9"><a xlink:title=" ">
<polygon fill="white" stroke="#bfbfbf" points="189,-0.5 189,-19.5 269,-19.5 269,-0.5 189,-0.5"/>
<text text-anchor="middle" x="229" y="-7.5" font-family="Helvetica,sans-Serif" font-size="10.00">semaphore.h</text>
</a>
</g>
</g>
<!-- Node7&#45;&gt;Node9 -->
<g id="edge10" class="edge">
<title>Node7&#45;&gt;Node9</title>
<path fill="none" stroke="midnightblue" d="M246.53,-56.08C243.69,-48.77 239.57,-38.18 236.04,-29.1"/>
<polygon fill="midnightblue" stroke="midnightblue" points="239.29,-27.8 232.4,-19.75 232.77,-30.34 239.29,-27.8"/>
</g>
<!-- Node10&#45;&gt;Node5 -->
<g id="edge15" class="edge">
<title>Node10&#45;&gt;Node5</title>
<path fill="none" stroke="midnightblue" d="M232.73,-224.32C243.84,-216.11 260.74,-203.6 273.98,-193.81"/>
<polygon fill="midnightblue" stroke="midnightblue" points="276.1,-196.59 282.06,-187.83 271.94,-190.97 276.1,-196.59"/>
</g>
<!-- Node10&#45;&gt;Node6 -->
<g id="edge17" class="edge">
<title>Node10&#45;&gt;Node6</title>
<path fill="none" stroke="midnightblue" d="M218.02,-224.37C211.86,-206.54 197.61,-165.3 189.31,-141.27"/>
<polygon fill="midnightblue" stroke="midnightblue" points="192.54,-139.9 185.97,-131.59 185.93,-142.19 192.54,-139.9"/>
</g>
<!-- Node10&#45;&gt;Node7 -->
<g id="edge16" class="edge">
<title>Node10&#45;&gt;Node7</title>
<path fill="none" stroke="midnightblue" d="M222.56,-224.08C227.12,-197.95 240.53,-121.21 246.75,-85.58"/>
<polygon fill="midnightblue" stroke="midnightblue" points="250.23,-86.02 248.5,-75.57 243.33,-84.82 250.23,-86.02"/>
</g>
</g>
</svg>
