<?xml version="1.0" encoding="UTF-8" standalone="no"?>
<!DOCTYPE svg PUBLIC "-//W3C//DTD SVG 1.1//EN"
 "http://www.w3.org/Graphics/SVG/1.1/DTD/svg11.dtd">
<!-- Generated by graphviz version 2.43.0 (0)
 -->
<!-- Title: include/control.h Pages: 1 -->
<svg width="451pt" height="140pt"
 viewBox="0.00 0.00 451.00 140.00" xmlns="http://www.w3.org/2000/svg" xmlns:xlink="http://www.w3.org/1999/xlink">
<g id="graph0" class="graph" transform="scale(1 1) rotate(0) translate(4 136)">
<title>include/control.h</title>
<polygon fill="white" stroke="transparent" points="-4,4 -4,-136 447,-136 447,4 -4,4"/>
<!-- Node1 -->
<g id="node1" class="node">
<title>Node1</title>
<g id="a_node1"><a xlink:title="Declarations for vehicle control functions and variables in the 2D simulator.">
<polygon fill="#bfbfbf" stroke="black" points="133.5,-112.5 133.5,-131.5 231.5,-131.5 231.5,-112.5 133.5,-112.5"/>
<text text-anchor="middle" x="182.5" y="-119.5" font-family="Helvetica,sans-Serif" font-size="10.00">include/control.h</text>
</a>
</g>
</g>
<!-- Node2 -->
<g id="node2" class="node">
<title>Node2</title>
<g id="a_node2"><a xlink:href="tasks_8h.html" target="_top" xlink:title="Declaration of task thread functions for the simulation.">
<polygon fill="white" stroke="black" points="31.5,-56.5 31.5,-75.5 121.5,-75.5 121.5,-56.5 31.5,-56.5"/>
<text text-anchor="middle" x="76.5" y="-63.5" font-family="Helvetica,sans-Serif" font-size="10.00">include/tasks.h</text>
</a>
</g>
</g>
<!-- Node1&#45;&gt;Node2 -->
<g id="edge1" class="edge">
<title>Node1&#45;&gt;Node2</title>
<path fill="none" stroke="midnightblue" d="M156.44,-107.73C136.82,-97.73 110.47,-84.31 93.49,-75.65"/>
<polygon fill="midnightblue" stroke="midnightblue" points="154.97,-110.9 165.47,-112.32 158.15,-104.67 154.97,-110.9"/>
</g>
<!-- Node3 -->
<g id="node3" class="node">
<title>Node3</title>
<g id="a_node3"><a xlink:href="main_8c.html" target="_top" xlink:title="Main implementation of the 2D FSAE Simulation.">
<polygon fill="white" stroke="black" points="0,-0.5 0,-19.5 67,-19.5 67,-0.5 0,-0.5"/>
<text text-anchor="middle" x="33.5" y="-7.5" font-family="Helvetica,sans-Serif" font-size="10.00">src/main.c</text>
</a>
</g>
</g>
<!-- Node1&#45;&gt;Node3 -->
<g id="edge6" class="edge">
<title>Node1&#45;&gt;Node3</title>
<path fill="none" stroke="midnightblue" d="M123.3,-111.96C83.04,-104.46 34.91,-92.38 22.5,-76 9.78,-59.21 21.03,-32.98 28.36,-19.55"/>
<polygon fill="midnightblue" stroke="midnightblue" points="122.87,-115.44 133.34,-113.77 124.11,-108.55 122.87,-115.44"/>
</g>
<!-- Node4 -->
<g id="node4" class="node">
<title>Node4</title>
<g id="a_node4"><a xlink:href="tasks_8c.html" target="_top" xlink:title="Contains periodic task functions for LiDAR perception, trajectory planning, vehicle control,...">
<polygon fill="white" stroke="black" points="100.5,-0.5 100.5,-19.5 168.5,-19.5 168.5,-0.5 100.5,-0.5"/>
<text text-anchor="middle" x="134.5" y="-7.5" font-family="Helvetica,sans-Serif" font-size="10.00">src/tasks.c</text>
</a>
</g>
</g>
<!-- Node1&#45;&gt;Node4 -->
<g id="edge7" class="edge">
<title>Node1&#45;&gt;Node4</title>
<path fill="none" stroke="midnightblue" d="M174.64,-103C164.17,-79 146.05,-37.47 138.25,-19.59"/>
<polygon fill="midnightblue" stroke="midnightblue" points="171.53,-104.6 178.73,-112.37 177.94,-101.8 171.53,-104.6"/>
</g>
<!-- Node5 -->
<g id="node5" class="node">
<title>Node5</title>
<g id="a_node5"><a xlink:href="control_8c.html" target="_top" xlink:title="Implements vehicle control functions including both manual (keyboard) and autonomous (centerline base...">
<polygon fill="white" stroke="black" points="177.5,-56.5 177.5,-75.5 253.5,-75.5 253.5,-56.5 177.5,-56.5"/>
<text text-anchor="middle" x="215.5" y="-63.5" font-family="Helvetica,sans-Serif" font-size="10.00">src/control.c</text>
</a>
</g>
</g>
<!-- Node1&#45;&gt;Node5 -->
<g id="edge4" class="edge">
<title>Node1&#45;&gt;Node5</title>
<path fill="none" stroke="midnightblue" d="M193.33,-103.27C198.97,-94.05 205.62,-83.17 210.15,-75.75"/>
<polygon fill="midnightblue" stroke="midnightblue" points="190.18,-101.73 187.95,-112.08 196.15,-105.38 190.18,-101.73"/>
</g>
<!-- Node6 -->
<g id="node6" class="node">
<title>Node6</title>
<g id="a_node6"><a xlink:href="display_8c.html" target="_top" xlink:title="Rendering and display update functions for the 2D simulation using Allegro.">
<polygon fill="white" stroke="black" points="271.5,-56.5 271.5,-75.5 347.5,-75.5 347.5,-56.5 271.5,-56.5"/>
<text text-anchor="middle" x="309.5" y="-63.5" font-family="Helvetica,sans-Serif" font-size="10.00">src/display.c</text>
</a>
</g>
</g>
<!-- Node1&#45;&gt;Node6 -->
<g id="edge5" class="edge">
<title>Node1&#45;&gt;Node6</title>
<path fill="none" stroke="midnightblue" d="M211.89,-108.5C235.7,-98.38 268.61,-84.39 289.47,-75.52"/>
<polygon fill="midnightblue" stroke="midnightblue" points="210.46,-105.31 202.62,-112.44 213.2,-111.75 210.46,-105.31"/>
</g>
<!-- Node7 -->
<g id="node7" class="node">
<title>Node7</title>
<g id="a_node7"><a xlink:href="vehicle_8c.html" target="_top" xlink:title=" ">
<polygon fill="white" stroke="black" points="366,-56.5 366,-75.5 443,-75.5 443,-56.5 366,-56.5"/>
<text text-anchor="middle" x="404.5" y="-63.5" font-family="Helvetica,sans-Serif" font-size="10.00">src/vehicle.c</text>
</a>
</g>
</g>
<!-- Node1&#45;&gt;Node7 -->
<g id="edge8" class="edge">
<title>Node1&#45;&gt;Node7</title>
<path fill="none" stroke="midnightblue" d="M227.62,-110.02C269.56,-99.82 331.15,-84.84 369.49,-75.52"/>
<polygon fill="midnightblue" stroke="midnightblue" points="226.57,-106.68 217.68,-112.44 228.22,-113.48 226.57,-106.68"/>
</g>
<!-- Node2&#45;&gt;Node3 -->
<g id="edge2" class="edge">
<title>Node2&#45;&gt;Node3</title>
<path fill="none" stroke="midnightblue" d="M63.08,-48.14C55.59,-38.74 46.56,-27.4 40.47,-19.75"/>
<polygon fill="midnightblue" stroke="midnightblue" points="60.43,-50.44 69.4,-56.08 65.91,-46.08 60.43,-50.44"/>
</g>
<!-- Node2&#45;&gt;Node4 -->
<g id="edge3" class="edge">
<title>Node2&#45;&gt;Node4</title>
<path fill="none" stroke="midnightblue" d="M93.41,-49.25C103.7,-39.67 116.47,-27.79 125.01,-19.83"/>
<polygon fill="midnightblue" stroke="midnightblue" points="90.75,-46.95 85.82,-56.32 95.52,-52.07 90.75,-46.95"/>
</g>
</g>
</svg>
