<?xml version="1.0" encoding="UTF-8" standalone="no"?>
<!DOCTYPE svg PUBLIC "-//W3C//DTD SVG 1.1//EN"
 "http://www.w3.org/Graphics/SVG/1.1/DTD/svg11.dtd">
<!-- Generated by graphviz version 2.43.0 (0)
 -->
<!-- Title: include/control.h Pages: 1 -->
<svg width="248pt" height="252pt"
 viewBox="0.00 0.00 247.50 252.00" xmlns="http://www.w3.org/2000/svg" xmlns:xlink="http://www.w3.org/1999/xlink">
<g id="graph0" class="graph" transform="scale(1 1) rotate(0) translate(4 248)">
<title>include/control.h</title>
<polygon fill="white" stroke="transparent" points="-4,4 -4,-248 243.5,-248 243.5,4 -4,4"/>
<!-- Node1 -->
<g id="node1" class="node">
<title>Node1</title>
<g id="a_node1"><a xlink:title="Declarations for vehicle control functions and variables in the 2D simulator.">
<polygon fill="#bfbfbf" stroke="black" points="42.5,-224.5 42.5,-243.5 140.5,-243.5 140.5,-224.5 42.5,-224.5"/>
<text text-anchor="middle" x="91.5" y="-231.5" font-family="Helvetica,sans-Serif" font-size="10.00">include/control.h</text>
</a>
</g>
</g>
<!-- Node2 -->
<g id="node2" class="node">
<title>Node2</title>
<g id="a_node2"><a xlink:href="trajectory_8h.html" target="_top" xlink:title="Provides declarations for trajectory planning based on cone detection.">
<polygon fill="white" stroke="black" points="56,-168.5 56,-187.5 127,-187.5 127,-168.5 56,-168.5"/>
<text text-anchor="middle" x="91.5" y="-175.5" font-family="Helvetica,sans-Serif" font-size="10.00">trajectory.h</text>
</a>
</g>
</g>
<!-- Node1&#45;&gt;Node2 -->
<g id="edge1" class="edge">
<title>Node1&#45;&gt;Node2</title>
<path fill="none" stroke="midnightblue" d="M91.5,-224.08C91.5,-217.01 91.5,-206.86 91.5,-197.99"/>
<polygon fill="midnightblue" stroke="midnightblue" points="95,-197.75 91.5,-187.75 88,-197.75 95,-197.75"/>
</g>
<!-- Node3 -->
<g id="node3" class="node">
<title>Node3</title>
<g id="a_node3"><a xlink:href="perception_8h.html" target="_top" xlink:title="Header file for perception&#45;related types, constants, and function declarations.">
<polygon fill="white" stroke="black" points="0,-112.5 0,-131.5 77,-131.5 77,-112.5 0,-112.5"/>
<text text-anchor="middle" x="38.5" y="-119.5" font-family="Helvetica,sans-Serif" font-size="10.00">perception.h</text>
</a>
</g>
</g>
<!-- Node1&#45;&gt;Node3 -->
<g id="edge10" class="edge">
<title>Node1&#45;&gt;Node3</title>
<path fill="none" stroke="midnightblue" d="M78.9,-224.23C68.35,-216.13 53.86,-203.09 46.5,-188 39.49,-173.63 37.77,-155.43 37.64,-141.95"/>
<polygon fill="midnightblue" stroke="midnightblue" points="41.14,-141.98 37.82,-131.92 34.14,-141.85 41.14,-141.98"/>
</g>
<!-- Node5 -->
<g id="node5" class="node">
<title>Node5</title>
<g id="a_node5"><a xlink:href="globals_8h.html" target="_top" xlink:title="Global constants, variables, and structures for the simulation and visualization system.">
<polygon fill="white" stroke="black" points="79,-56.5 79,-75.5 140,-75.5 140,-56.5 79,-56.5"/>
<text text-anchor="middle" x="109.5" y="-63.5" font-family="Helvetica,sans-Serif" font-size="10.00">globals.h</text>
</a>
</g>
</g>
<!-- Node1&#45;&gt;Node5 -->
<g id="edge9" class="edge">
<title>Node1&#45;&gt;Node5</title>
<path fill="none" stroke="midnightblue" d="M104.56,-224.44C115.41,-216.47 130.07,-203.52 136.5,-188 151.06,-152.85 132.64,-108.56 119.85,-84.5"/>
<polygon fill="midnightblue" stroke="midnightblue" points="122.76,-82.54 114.82,-75.52 116.65,-85.95 122.76,-82.54"/>
</g>
<!-- Node2&#45;&gt;Node3 -->
<g id="edge2" class="edge">
<title>Node2&#45;&gt;Node3</title>
<path fill="none" stroke="midnightblue" d="M82.75,-168.08C75.03,-160.22 63.6,-148.57 54.28,-139.08"/>
<polygon fill="midnightblue" stroke="midnightblue" points="56.59,-136.44 47.09,-131.75 51.6,-141.34 56.59,-136.44"/>
</g>
<!-- Node2&#45;&gt;Node5 -->
<g id="edge8" class="edge">
<title>Node2&#45;&gt;Node5</title>
<path fill="none" stroke="midnightblue" d="M92.91,-168.37C95.82,-150.62 102.52,-109.67 106.46,-85.6"/>
<polygon fill="midnightblue" stroke="midnightblue" points="109.93,-86.03 108.09,-75.59 103.03,-84.89 109.93,-86.03"/>
</g>
<!-- Node4 -->
<g id="node4" class="node">
<title>Node4</title>
<g id="a_node4"><a xlink:title=" ">
<polygon fill="white" stroke="#bfbfbf" points="10,-56.5 10,-75.5 61,-75.5 61,-56.5 10,-56.5"/>
<text text-anchor="middle" x="35.5" y="-63.5" font-family="Helvetica,sans-Serif" font-size="10.00">math.h</text>
</a>
</g>
</g>
<!-- Node3&#45;&gt;Node4 -->
<g id="edge3" class="edge">
<title>Node3&#45;&gt;Node4</title>
<path fill="none" stroke="midnightblue" d="M38,-112.08C37.61,-105.01 37.05,-94.86 36.55,-85.99"/>
<polygon fill="midnightblue" stroke="midnightblue" points="40.04,-85.54 35.99,-75.75 33.05,-85.93 40.04,-85.54"/>
</g>
<!-- Node3&#45;&gt;Node5 -->
<g id="edge4" class="edge">
<title>Node3&#45;&gt;Node5</title>
<path fill="none" stroke="midnightblue" d="M49.91,-112.32C60.61,-104.18 76.84,-91.84 89.66,-82.09"/>
<polygon fill="midnightblue" stroke="midnightblue" points="92.04,-84.67 97.89,-75.83 87.81,-79.1 92.04,-84.67"/>
</g>
<!-- Node6 -->
<g id="node6" class="node">
<title>Node6</title>
<g id="a_node6"><a xlink:title=" ">
<polygon fill="white" stroke="#bfbfbf" points="1,-0.5 1,-19.5 60,-19.5 60,-0.5 1,-0.5"/>
<text text-anchor="middle" x="30.5" y="-7.5" font-family="Helvetica,sans-Serif" font-size="10.00">allegro.h</text>
</a>
</g>
</g>
<!-- Node5&#45;&gt;Node6 -->
<g id="edge5" class="edge">
<title>Node5&#45;&gt;Node6</title>
<path fill="none" stroke="midnightblue" d="M96.81,-56.32C84.6,-47.98 65.92,-35.21 51.5,-25.35"/>
<polygon fill="midnightblue" stroke="midnightblue" points="53.39,-22.41 43.16,-19.65 49.44,-28.19 53.39,-22.41"/>
</g>
<!-- Node7 -->
<g id="node7" class="node">
<title>Node7</title>
<g id="a_node7"><a xlink:title=" ">
<polygon fill="white" stroke="#bfbfbf" points="78,-0.5 78,-19.5 141,-19.5 141,-0.5 78,-0.5"/>
<text text-anchor="middle" x="109.5" y="-7.5" font-family="Helvetica,sans-Serif" font-size="10.00">pthread.h</text>
</a>
</g>
</g>
<!-- Node5&#45;&gt;Node7 -->
<g id="edge6" class="edge">
<title>Node5&#45;&gt;Node7</title>
<path fill="none" stroke="midnightblue" d="M109.5,-56.08C109.5,-49.01 109.5,-38.86 109.5,-29.99"/>
<polygon fill="midnightblue" stroke="midnightblue" points="113,-29.75 109.5,-19.75 106,-29.75 113,-29.75"/>
</g>
<!-- Node8 -->
<g id="node8" class="node">
<title>Node8</title>
<g id="a_node8"><a xlink:title=" ">
<polygon fill="white" stroke="#bfbfbf" points="159.5,-0.5 159.5,-19.5 239.5,-19.5 239.5,-0.5 159.5,-0.5"/>
<text text-anchor="middle" x="199.5" y="-7.5" font-family="Helvetica,sans-Serif" font-size="10.00">semaphore.h</text>
</a>
</g>
</g>
<!-- Node5&#45;&gt;Node8 -->
<g id="edge7" class="edge">
<title>Node5&#45;&gt;Node8</title>
<path fill="none" stroke="midnightblue" d="M123.96,-56.32C138,-47.9 159.55,-34.97 176.04,-25.07"/>
<polygon fill="midnightblue" stroke="midnightblue" points="178.3,-27.8 185.08,-19.65 174.7,-21.8 178.3,-27.8"/>
</g>
</g>
</svg>
