<?xml version="1.0" encoding="UTF-8" standalone="no"?>
<!DOCTYPE svg PUBLIC "-//W3C//DTD SVG 1.1//EN"
 "http://www.w3.org/Graphics/SVG/1.1/DTD/svg11.dtd">
<!-- Generated by graphviz version 2.43.0 (0)
 -->
<!-- Title: include/display.h Pages: 1 -->
<svg width="262pt" height="140pt"
 viewBox="0.00 0.00 261.50 140.00" xmlns="http://www.w3.org/2000/svg" xmlns:xlink="http://www.w3.org/1999/xlink">
<g id="graph0" class="graph" transform="scale(1 1) rotate(0) translate(4 136)">
<title>include/display.h</title>
<polygon fill="white" stroke="transparent" points="-4,4 -4,-136 257.5,-136 257.5,4 -4,4"/>
<!-- Node1 -->
<g id="node1" class="node">
<title>Node1</title>
<g id="a_node1"><a xlink:title="Header file declaring display rendering functions.">
<polygon fill="#bfbfbf" stroke="black" points="63.5,-112.5 63.5,-131.5 161.5,-131.5 161.5,-112.5 63.5,-112.5"/>
<text text-anchor="middle" x="112.5" y="-119.5" font-family="Helvetica,sans-Serif" font-size="10.00">include/display.h</text>
</a>
</g>
</g>
<!-- Node2 -->
<g id="node2" class="node">
<title>Node2</title>
<g id="a_node2"><a xlink:href="tasks_8h.html" target="_top" xlink:title="Declaration of task thread functions for the simulation.">
<polygon fill="white" stroke="black" points="31.5,-56.5 31.5,-75.5 121.5,-75.5 121.5,-56.5 31.5,-56.5"/>
<text text-anchor="middle" x="76.5" y="-63.5" font-family="Helvetica,sans-Serif" font-size="10.00">include/tasks.h</text>
</a>
</g>
</g>
<!-- Node1&#45;&gt;Node2 -->
<g id="edge1" class="edge">
<title>Node1&#45;&gt;Node2</title>
<path fill="none" stroke="midnightblue" d="M100.88,-103.57C94.68,-94.27 87.33,-83.25 82.33,-75.75"/>
<polygon fill="midnightblue" stroke="midnightblue" points="98.1,-105.7 106.56,-112.08 103.92,-101.82 98.1,-105.7"/>
</g>
<!-- Node3 -->
<g id="node3" class="node">
<title>Node3</title>
<g id="a_node3"><a xlink:href="main_8c.html" target="_top" xlink:title="Main implementation of the 2D FSAE Simulation.">
<polygon fill="white" stroke="black" points="0,-0.5 0,-19.5 67,-19.5 67,-0.5 0,-0.5"/>
<text text-anchor="middle" x="33.5" y="-7.5" font-family="Helvetica,sans-Serif" font-size="10.00">src/main.c</text>
</a>
</g>
</g>
<!-- Node1&#45;&gt;Node3 -->
<g id="edge5" class="edge">
<title>Node1&#45;&gt;Node3</title>
<path fill="none" stroke="midnightblue" d="M65.72,-108.85C49.12,-102.04 32.17,-91.65 22.5,-76 11.55,-58.28 21.73,-32.9 28.53,-19.71"/>
<polygon fill="midnightblue" stroke="midnightblue" points="64.81,-112.24 75.4,-112.46 67.25,-105.68 64.81,-112.24"/>
</g>
<!-- Node4 -->
<g id="node4" class="node">
<title>Node4</title>
<g id="a_node4"><a xlink:href="tasks_8c.html" target="_top" xlink:title="Contains periodic task functions for LiDAR perception, trajectory planning, vehicle control,...">
<polygon fill="white" stroke="black" points="100.5,-0.5 100.5,-19.5 168.5,-19.5 168.5,-0.5 100.5,-0.5"/>
<text text-anchor="middle" x="134.5" y="-7.5" font-family="Helvetica,sans-Serif" font-size="10.00">src/tasks.c</text>
</a>
</g>
</g>
<!-- Node1&#45;&gt;Node4 -->
<g id="edge6" class="edge">
<title>Node1&#45;&gt;Node4</title>
<path fill="none" stroke="midnightblue" d="M121.17,-103.14C124.7,-95.04 128.43,-85.24 130.5,-76 134.96,-56.14 135.13,-32.08 134.83,-19.53"/>
<polygon fill="midnightblue" stroke="midnightblue" points="117.95,-101.76 116.95,-112.3 124.31,-104.68 117.95,-101.76"/>
</g>
<!-- Node5 -->
<g id="node5" class="node">
<title>Node5</title>
<g id="a_node5"><a xlink:href="display_8c.html" target="_top" xlink:title="Rendering and display update functions for the 2D simulation using Allegro.">
<polygon fill="white" stroke="black" points="177.5,-56.5 177.5,-75.5 253.5,-75.5 253.5,-56.5 177.5,-56.5"/>
<text text-anchor="middle" x="215.5" y="-63.5" font-family="Helvetica,sans-Serif" font-size="10.00">src/display.c</text>
</a>
</g>
</g>
<!-- Node1&#45;&gt;Node5 -->
<g id="edge4" class="edge">
<title>Node1&#45;&gt;Node5</title>
<path fill="none" stroke="midnightblue" d="M138.08,-107.59C157.12,-97.61 182.56,-84.27 198.99,-75.65"/>
<polygon fill="midnightblue" stroke="midnightblue" points="136.28,-104.58 129.05,-112.32 139.53,-110.78 136.28,-104.58"/>
</g>
<!-- Node2&#45;&gt;Node3 -->
<g id="edge2" class="edge">
<title>Node2&#45;&gt;Node3</title>
<path fill="none" stroke="midnightblue" d="M63.08,-48.14C55.59,-38.74 46.56,-27.4 40.47,-19.75"/>
<polygon fill="midnightblue" stroke="midnightblue" points="60.43,-50.44 69.4,-56.08 65.91,-46.08 60.43,-50.44"/>
</g>
<!-- Node2&#45;&gt;Node4 -->
<g id="edge3" class="edge">
<title>Node2&#45;&gt;Node4</title>
<path fill="none" stroke="midnightblue" d="M93.41,-49.25C103.7,-39.67 116.47,-27.79 125.01,-19.83"/>
<polygon fill="midnightblue" stroke="midnightblue" points="90.75,-46.95 85.82,-56.32 95.52,-52.07 90.75,-46.95"/>
</g>
</g>
</svg>
