<?xml version="1.0" encoding="UTF-8" standalone="no"?>
<!DOCTYPE svg PUBLIC "-//W3C//DTD SVG 1.1//EN"
 "http://www.w3.org/Graphics/SVG/1.1/DTD/svg11.dtd">
<!-- Generated by graphviz version 2.43.0 (0)
 -->
<!-- Title: update_display Pages: 1 -->
<svg width="391pt" height="180pt"
 viewBox="0.00 0.00 391.00 180.00" xmlns="http://www.w3.org/2000/svg" xmlns:xlink="http://www.w3.org/1999/xlink">
<g id="graph0" class="graph" transform="scale(1 1) rotate(0) translate(4 176)">
<title>update_display</title>
<polygon fill="white" stroke="transparent" points="-4,4 -4,-176 387,-176 387,4 -4,4"/>
<!-- Node1 -->
<g id="node1" class="node">
<title>Node1</title>
<g id="a_node1"><a xlink:title="Updates the display.">
<polygon fill="#bfbfbf" stroke="black" points="0,-76.5 0,-95.5 91,-95.5 91,-76.5 0,-76.5"/>
<text text-anchor="middle" x="45.5" y="-83.5" font-family="Helvetica,sans-Serif" font-size="10.00">update_display</text>
</a>
</g>
</g>
<!-- Node2 -->
<g id="node2" class="node">
<title>Node2</title>
<g id="a_node2"><a xlink:href="display_8c.html#a01a4e859fcc5ddef923afe9a8a674826" target="_top" xlink:title="Renders the car sprite rotated to its current angle.">
<polygon fill="white" stroke="black" points="145.5,-152.5 145.5,-171.5 206.5,-171.5 206.5,-152.5 145.5,-152.5"/>
<text text-anchor="middle" x="176" y="-159.5" font-family="Helvetica,sans-Serif" font-size="10.00">draw_car</text>
</a>
</g>
</g>
<!-- Node1&#45;&gt;Node2 -->
<g id="edge1" class="edge">
<title>Node1&#45;&gt;Node2</title>
<path fill="none" stroke="midnightblue" d="M58.18,-95.64C73.35,-107.82 100.95,-128.89 127,-143 130.53,-144.91 134.3,-146.74 138.12,-148.45"/>
<polygon fill="midnightblue" stroke="midnightblue" points="137,-151.78 147.57,-152.45 139.73,-145.33 137,-151.78"/>
</g>
<!-- Node4 -->
<g id="node4" class="node">
<title>Node4</title>
<g id="a_node4"><a xlink:href="display_8c.html#a385702fb79f2c451da015c3147f80515" target="_top" xlink:title="Draws user control indicators.">
<polygon fill="white" stroke="black" points="133.5,-114.5 133.5,-133.5 218.5,-133.5 218.5,-114.5 133.5,-114.5"/>
<text text-anchor="middle" x="176" y="-121.5" font-family="Helvetica,sans-Serif" font-size="10.00">draw_controls</text>
</a>
</g>
</g>
<!-- Node1&#45;&gt;Node4 -->
<g id="edge3" class="edge">
<title>Node1&#45;&gt;Node4</title>
<path fill="none" stroke="midnightblue" d="M78.93,-95.59C95.21,-100.4 115.14,-106.3 132.62,-111.47"/>
<polygon fill="midnightblue" stroke="midnightblue" points="132,-114.93 142.58,-114.41 133.99,-108.22 132,-114.93"/>
</g>
<!-- Node5 -->
<g id="node5" class="node">
<title>Node5</title>
<g id="a_node5"><a xlink:href="display_8c.html#acd5437d29ba24cfc00dbd2f9f6b0cd28" target="_top" xlink:title="Renders the complete perception layer.">
<polygon fill="white" stroke="black" points="127,-76.5 127,-95.5 225,-95.5 225,-76.5 127,-76.5"/>
<text text-anchor="middle" x="176" y="-83.5" font-family="Helvetica,sans-Serif" font-size="10.00">draw_perception</text>
</a>
</g>
</g>
<!-- Node1&#45;&gt;Node5 -->
<g id="edge5" class="edge">
<title>Node1&#45;&gt;Node5</title>
<path fill="none" stroke="midnightblue" d="M91.08,-86C99.42,-86 108.24,-86 116.92,-86"/>
<polygon fill="midnightblue" stroke="midnightblue" points="116.99,-89.5 126.99,-86 116.99,-82.5 116.99,-89.5"/>
</g>
<!-- Node9 -->
<g id="node9" class="node">
<title>Node9</title>
<g id="a_node9"><a xlink:href="display_8c.html#a92e08b949df5d8a8e5edec1dd86bc360" target="_top" xlink:title="Draws the track.">
<polygon fill="white" stroke="black" points="140.5,-38.5 140.5,-57.5 211.5,-57.5 211.5,-38.5 140.5,-38.5"/>
<text text-anchor="middle" x="176" y="-45.5" font-family="Helvetica,sans-Serif" font-size="10.00">draw_track</text>
</a>
</g>
</g>
<!-- Node1&#45;&gt;Node9 -->
<g id="edge9" class="edge">
<title>Node1&#45;&gt;Node9</title>
<path fill="none" stroke="midnightblue" d="M78.93,-76.41C95.21,-71.6 115.14,-65.7 132.62,-60.53"/>
<polygon fill="midnightblue" stroke="midnightblue" points="133.99,-63.78 142.58,-57.59 132,-57.07 133.99,-63.78"/>
</g>
<!-- Node10 -->
<g id="node10" class="node">
<title>Node10</title>
<g id="a_node10"><a xlink:href="display_8c.html#a2d077fa92b741d504d6ef5c5f2fdd74c" target="_top" xlink:title="Draws the trajectory of the car.">
<polygon fill="white" stroke="black" points="129.5,-0.5 129.5,-19.5 222.5,-19.5 222.5,-0.5 129.5,-0.5"/>
<text text-anchor="middle" x="176" y="-7.5" font-family="Helvetica,sans-Serif" font-size="10.00">draw_trajectory</text>
</a>
</g>
</g>
<!-- Node1&#45;&gt;Node10 -->
<g id="edge10" class="edge">
<title>Node1&#45;&gt;Node10</title>
<path fill="none" stroke="midnightblue" d="M58.18,-76.36C73.35,-64.18 100.95,-43.11 127,-29 130.53,-27.09 134.3,-25.26 138.12,-23.55"/>
<polygon fill="midnightblue" stroke="midnightblue" points="139.73,-26.67 147.57,-19.55 137,-20.22 139.73,-26.67"/>
</g>
<!-- Node3 -->
<g id="node3" class="node">
<title>Node3</title>
<g id="a_node3"><a xlink:href="utilities_8h.html#a33090597864cdfd30d87ff99c14eeecb" target="_top" xlink:title=" ">
<polygon fill="white" stroke="black" points="262,-152.5 262,-171.5 382,-171.5 382,-152.5 262,-152.5"/>
<text text-anchor="middle" x="322" y="-159.5" font-family="Helvetica,sans-Serif" font-size="10.00">angle_rotation_sprite</text>
</a>
</g>
</g>
<!-- Node2&#45;&gt;Node3 -->
<g id="edge2" class="edge">
<title>Node2&#45;&gt;Node3</title>
<path fill="none" stroke="midnightblue" d="M206.84,-162C219.88,-162 235.77,-162 251.5,-162"/>
<polygon fill="midnightblue" stroke="midnightblue" points="251.79,-165.5 261.79,-162 251.79,-158.5 251.79,-165.5"/>
</g>
<!-- Node4&#45;&gt;Node3 -->
<g id="edge4" class="edge">
<title>Node4&#45;&gt;Node3</title>
<path fill="none" stroke="midnightblue" d="M213.34,-133.59C232.08,-138.54 255.14,-144.62 275.11,-149.89"/>
<polygon fill="midnightblue" stroke="midnightblue" points="274.36,-153.31 284.92,-152.48 276.15,-146.54 274.36,-153.31"/>
</g>
<!-- Node6 -->
<g id="node6" class="node">
<title>Node6</title>
<g id="a_node6"><a xlink:href="display_8c.html#aa45d316f5e50fa968e686d790d57457b" target="_top" xlink:title="Draws the cone map overlay.">
<polygon fill="white" stroke="black" points="274,-114.5 274,-133.5 370,-133.5 370,-114.5 274,-114.5"/>
<text text-anchor="middle" x="322" y="-121.5" font-family="Helvetica,sans-Serif" font-size="10.00">draw_cone_map</text>
</a>
</g>
</g>
<!-- Node5&#45;&gt;Node6 -->
<g id="edge6" class="edge">
<title>Node5&#45;&gt;Node6</title>
<path fill="none" stroke="midnightblue" d="M213.34,-95.59C232.08,-100.54 255.14,-106.62 275.11,-111.89"/>
<polygon fill="midnightblue" stroke="midnightblue" points="274.36,-115.31 284.92,-114.48 276.15,-108.54 274.36,-115.31"/>
</g>
<!-- Node7 -->
<g id="node7" class="node">
<title>Node7</title>
<g id="a_node7"><a xlink:href="display_8c.html#a298532c4740f2a6785e5c1b0ff7fea9a" target="_top" xlink:title="Renders the detected cones on the perception bitmap.">
<polygon fill="white" stroke="black" points="261,-76.5 261,-95.5 383,-95.5 383,-76.5 261,-76.5"/>
<text text-anchor="middle" x="322" y="-83.5" font-family="Helvetica,sans-Serif" font-size="10.00">draw_detected_cones</text>
</a>
</g>
</g>
<!-- Node5&#45;&gt;Node7 -->
<g id="edge7" class="edge">
<title>Node5&#45;&gt;Node7</title>
<path fill="none" stroke="midnightblue" d="M225.35,-86C233.51,-86 242.13,-86 250.72,-86"/>
<polygon fill="midnightblue" stroke="midnightblue" points="250.75,-89.5 260.75,-86 250.75,-82.5 250.75,-89.5"/>
</g>
<!-- Node8 -->
<g id="node8" class="node">
<title>Node8</title>
<g id="a_node8"><a xlink:href="display_8c.html#a5c07cb2dc1adb076383bced84f4a8154" target="_top" xlink:title="Draws the lidar/perception view.">
<polygon fill="white" stroke="black" points="288,-38.5 288,-57.5 356,-57.5 356,-38.5 288,-38.5"/>
<text text-anchor="middle" x="322" y="-45.5" font-family="Helvetica,sans-Serif" font-size="10.00">draw_lidar</text>
</a>
</g>
</g>
<!-- Node5&#45;&gt;Node8 -->
<g id="edge8" class="edge">
<title>Node5&#45;&gt;Node8</title>
<path fill="none" stroke="midnightblue" d="M213.34,-76.41C232.96,-71.23 257.3,-64.81 277.88,-59.38"/>
<polygon fill="midnightblue" stroke="midnightblue" points="278.86,-62.74 287.64,-56.8 277.07,-55.97 278.86,-62.74"/>
</g>
</g>
</svg>
