<?xml version="1.0" encoding="UTF-8" standalone="no"?>
<!DOCTYPE svg PUBLIC "-//W3C//DTD SVG 1.1//EN"
 "http://www.w3.org/Graphics/SVG/1.1/DTD/svg11.dtd">
<!-- Generated by graphviz version 2.43.0 (0)
 -->
<!-- Title: include/display.h Pages: 1 -->
<svg width="177pt" height="140pt"
 viewBox="0.00 0.00 176.50 140.00" xmlns="http://www.w3.org/2000/svg" xmlns:xlink="http://www.w3.org/1999/xlink">
<g id="graph0" class="graph" transform="scale(1 1) rotate(0) translate(4 136)">
<title>include/display.h</title>
<polygon fill="white" stroke="transparent" points="-4,4 -4,-136 172.5,-136 172.5,4 -4,4"/>
<!-- Node1 -->
<g id="node1" class="node">
<title>Node1</title>
<g id="a_node1"><a xlink:title="Header file declaring display rendering functions.">
<polygon fill="#bfbfbf" stroke="black" points="27.5,-112.5 27.5,-131.5 125.5,-131.5 125.5,-112.5 27.5,-112.5"/>
<text text-anchor="middle" x="76.5" y="-119.5" font-family="Helvetica,sans-Serif" font-size="10.00">include/display.h</text>
</a>
</g>
</g>
<!-- Node2 -->
<g id="node2" class="node">
<title>Node2</title>
<g id="a_node2"><a xlink:href="tasks_8h.html" target="_top" xlink:title="Declaration of task thread functions for the simulation.">
<polygon fill="white" stroke="black" points="31.5,-56.5 31.5,-75.5 121.5,-75.5 121.5,-56.5 31.5,-56.5"/>
<text text-anchor="middle" x="76.5" y="-63.5" font-family="Helvetica,sans-Serif" font-size="10.00">include/tasks.h</text>
</a>
</g>
</g>
<!-- Node1&#45;&gt;Node2 -->
<g id="edge1" class="edge">
<title>Node1&#45;&gt;Node2</title>
<path fill="none" stroke="midnightblue" d="M76.5,-101.8C76.5,-92.91 76.5,-82.78 76.5,-75.75"/>
<polygon fill="midnightblue" stroke="midnightblue" points="73,-102.08 76.5,-112.08 80,-102.08 73,-102.08"/>
</g>
<!-- Node3 -->
<g id="node3" class="node">
<title>Node3</title>
<g id="a_node3"><a xlink:href="main_8c.html" target="_top" xlink:title="Main implementation of the 2D FSAE Simulation.">
<polygon fill="white" stroke="black" points="0,-0.5 0,-19.5 67,-19.5 67,-0.5 0,-0.5"/>
<text text-anchor="middle" x="33.5" y="-7.5" font-family="Helvetica,sans-Serif" font-size="10.00">src/main.c</text>
</a>
</g>
</g>
<!-- Node1&#45;&gt;Node3 -->
<g id="edge4" class="edge">
<title>Node1&#45;&gt;Node3</title>
<path fill="none" stroke="midnightblue" d="M51.32,-107C40.31,-99.4 28.54,-88.91 22.5,-76 13.76,-57.34 22.75,-32.79 28.86,-19.85"/>
<polygon fill="midnightblue" stroke="midnightblue" points="49.56,-110.03 59.87,-112.46 53.33,-104.13 49.56,-110.03"/>
</g>
<!-- Node4 -->
<g id="node4" class="node">
<title>Node4</title>
<g id="a_node4"><a xlink:href="tasks_8c.html" target="_top" xlink:title="Contains periodic task functions for LiDAR perception, trajectory planning, vehicle control,...">
<polygon fill="white" stroke="black" points="100.5,-0.5 100.5,-19.5 168.5,-19.5 168.5,-0.5 100.5,-0.5"/>
<text text-anchor="middle" x="134.5" y="-7.5" font-family="Helvetica,sans-Serif" font-size="10.00">src/tasks.c</text>
</a>
</g>
</g>
<!-- Node1&#45;&gt;Node4 -->
<g id="edge5" class="edge">
<title>Node1&#45;&gt;Node4</title>
<path fill="none" stroke="midnightblue" d="M101.11,-106.98C112.1,-99.33 124.02,-88.8 130.5,-76 139.8,-57.64 137.9,-32.53 136.02,-19.55"/>
<polygon fill="midnightblue" stroke="midnightblue" points="99.1,-104.11 92.61,-112.49 102.91,-109.99 99.1,-104.11"/>
</g>
<!-- Node2&#45;&gt;Node3 -->
<g id="edge2" class="edge">
<title>Node2&#45;&gt;Node3</title>
<path fill="none" stroke="midnightblue" d="M63.08,-48.14C55.59,-38.74 46.56,-27.4 40.47,-19.75"/>
<polygon fill="midnightblue" stroke="midnightblue" points="60.43,-50.44 69.4,-56.08 65.91,-46.08 60.43,-50.44"/>
</g>
<!-- Node2&#45;&gt;Node4 -->
<g id="edge3" class="edge">
<title>Node2&#45;&gt;Node4</title>
<path fill="none" stroke="midnightblue" d="M93.41,-49.25C103.7,-39.67 116.47,-27.79 125.01,-19.83"/>
<polygon fill="midnightblue" stroke="midnightblue" points="90.75,-46.95 85.82,-56.32 95.52,-52.07 90.75,-46.95"/>
</g>
</g>
</svg>
