<?xml version="1.0" encoding="UTF-8" standalone="no"?>
<!DOCTYPE svg PUBLIC "-//W3C//DTD SVG 1.1//EN"
 "http://www.w3.org/Graphics/SVG/1.1/DTD/svg11.dtd">
<!-- Generated by graphviz version 2.43.0 (0)
 -->
<!-- Title: src/display.c Pages: 1 -->
<svg width="449pt" height="308pt"
 viewBox="0.00 0.00 449.02 308.00" xmlns="http://www.w3.org/2000/svg" xmlns:xlink="http://www.w3.org/1999/xlink">
<g id="graph0" class="graph" transform="scale(1 1) rotate(0) translate(4 304)">
<title>src/display.c</title>
<polygon fill="white" stroke="transparent" points="-4,4 -4,-304 445.02,-304 445.02,4 -4,4"/>
<!-- Node1 -->
<g id="node1" class="node">
<title>Node1</title>
<g id="a_node1"><a xlink:title="Rendering and display update functions for the 2D simulation using Allegro.">
<polygon fill="#bfbfbf" stroke="black" points="178,-280.5 178,-299.5 254,-299.5 254,-280.5 178,-280.5"/>
<text text-anchor="middle" x="216" y="-287.5" font-family="Helvetica,sans-Serif" font-size="10.00">src/display.c</text>
</a>
</g>
</g>
<!-- Node2 -->
<g id="node2" class="node">
<title>Node2</title>
<g id="a_node2"><a xlink:title=" ">
<polygon fill="white" stroke="#bfbfbf" points="93.5,-0.5 93.5,-19.5 152.5,-19.5 152.5,-0.5 93.5,-0.5"/>
<text text-anchor="middle" x="123" y="-7.5" font-family="Helvetica,sans-Serif" font-size="10.00">allegro.h</text>
</a>
</g>
</g>
<!-- Node1&#45;&gt;Node2 -->
<g id="edge1" class="edge">
<title>Node1&#45;&gt;Node2</title>
<path fill="none" stroke="midnightblue" d="M177.88,-286.54C115.87,-280.24 0,-257.91 0,-179 0,-179 0,-179 0,-121 0,-72.48 53.84,-40.01 90.27,-23.6"/>
<polygon fill="midnightblue" stroke="midnightblue" points="91.78,-26.76 99.58,-19.58 89.01,-20.33 91.78,-26.76"/>
</g>
<!-- Node3 -->
<g id="node3" class="node">
<title>Node3</title>
<g id="a_node3"><a xlink:title=" ">
<polygon fill="white" stroke="#bfbfbf" points="153.5,-56.5 153.5,-75.5 204.5,-75.5 204.5,-56.5 153.5,-56.5"/>
<text text-anchor="middle" x="179" y="-63.5" font-family="Helvetica,sans-Serif" font-size="10.00">math.h</text>
</a>
</g>
</g>
<!-- Node1&#45;&gt;Node3 -->
<g id="edge2" class="edge">
<title>Node1&#45;&gt;Node3</title>
<path fill="none" stroke="midnightblue" d="M177.71,-283.52C135.47,-276.59 71.54,-263.22 57,-244 12.47,-185.12 109.6,-111.55 156.05,-81.15"/>
<polygon fill="midnightblue" stroke="midnightblue" points="158.08,-84.01 164.61,-75.66 154.31,-78.11 158.08,-84.01"/>
</g>
<!-- Node4 -->
<g id="node4" class="node">
<title>Node4</title>
<g id="a_node4"><a xlink:title=" ">
<polygon fill="white" stroke="#bfbfbf" points="66,-224.5 66,-243.5 116,-243.5 116,-224.5 66,-224.5"/>
<text text-anchor="middle" x="91" y="-231.5" font-family="Helvetica,sans-Serif" font-size="10.00">stdio.h</text>
</a>
</g>
</g>
<!-- Node1&#45;&gt;Node4 -->
<g id="edge3" class="edge">
<title>Node1&#45;&gt;Node4</title>
<path fill="none" stroke="midnightblue" d="M196.19,-280.44C175.71,-271.6 143.52,-257.69 120.14,-247.59"/>
<polygon fill="midnightblue" stroke="midnightblue" points="121.28,-244.27 110.71,-243.52 118.51,-250.7 121.28,-244.27"/>
</g>
<!-- Node5 -->
<g id="node5" class="node">
<title>Node5</title>
<g id="a_node5"><a xlink:title=" ">
<polygon fill="white" stroke="#bfbfbf" points="134.5,-224.5 134.5,-243.5 187.5,-243.5 187.5,-224.5 134.5,-224.5"/>
<text text-anchor="middle" x="161" y="-231.5" font-family="Helvetica,sans-Serif" font-size="10.00">stdlib.h</text>
</a>
</g>
</g>
<!-- Node1&#45;&gt;Node5 -->
<g id="edge4" class="edge">
<title>Node1&#45;&gt;Node5</title>
<path fill="none" stroke="midnightblue" d="M206.92,-280.08C198.83,-272.14 186.8,-260.34 177.09,-250.8"/>
<polygon fill="midnightblue" stroke="midnightblue" points="179.5,-248.26 169.91,-243.75 174.6,-253.25 179.5,-248.26"/>
</g>
<!-- Node6 -->
<g id="node6" class="node">
<title>Node6</title>
<g id="a_node6"><a xlink:href="globals_8h.html" target="_top" xlink:title="Global constants, variables, and structures for the simulation and visualization system.">
<polygon fill="white" stroke="black" points="312.5,-56.5 312.5,-75.5 373.5,-75.5 373.5,-56.5 312.5,-56.5"/>
<text text-anchor="middle" x="343" y="-63.5" font-family="Helvetica,sans-Serif" font-size="10.00">globals.h</text>
</a>
</g>
</g>
<!-- Node1&#45;&gt;Node6 -->
<g id="edge5" class="edge">
<title>Node1&#45;&gt;Node6</title>
<path fill="none" stroke="midnightblue" d="M254.3,-285.99C309.01,-279.26 406.42,-257.6 438,-188 447.89,-166.22 427.01,-118.38 422,-112 410.7,-97.61 393.43,-87.02 377.92,-79.75"/>
<polygon fill="midnightblue" stroke="midnightblue" points="379.12,-76.45 368.56,-75.64 376.31,-82.86 379.12,-76.45"/>
</g>
<!-- Node9 -->
<g id="node9" class="node">
<title>Node9</title>
<g id="a_node9"><a xlink:href="perception_8h.html" target="_top" xlink:title="Header file for perception&#45;related types, constants, and function declarations.">
<polygon fill="white" stroke="black" points="271.5,-112.5 271.5,-131.5 348.5,-131.5 348.5,-112.5 271.5,-112.5"/>
<text text-anchor="middle" x="310" y="-119.5" font-family="Helvetica,sans-Serif" font-size="10.00">perception.h</text>
</a>
</g>
</g>
<!-- Node1&#45;&gt;Node9 -->
<g id="edge9" class="edge">
<title>Node1&#45;&gt;Node9</title>
<path fill="none" stroke="midnightblue" d="M212.72,-280.21C205.38,-258.97 190.04,-203.95 213,-168 223.89,-150.94 243.09,-140.25 261.55,-133.6"/>
<polygon fill="midnightblue" stroke="midnightblue" points="262.68,-136.92 271.09,-130.48 260.5,-130.26 262.68,-136.92"/>
</g>
<!-- Node10 -->
<g id="node10" class="node">
<title>Node10</title>
<g id="a_node10"><a xlink:href="trajectory_8h.html" target="_top" xlink:title="Provides declarations for trajectory planning based on cone detection.">
<polygon fill="white" stroke="black" points="340.5,-168.5 340.5,-187.5 411.5,-187.5 411.5,-168.5 340.5,-168.5"/>
<text text-anchor="middle" x="376" y="-175.5" font-family="Helvetica,sans-Serif" font-size="10.00">trajectory.h</text>
</a>
</g>
</g>
<!-- Node1&#45;&gt;Node10 -->
<g id="edge12" class="edge">
<title>Node1&#45;&gt;Node10</title>
<path fill="none" stroke="midnightblue" d="M254.18,-285.82C284.93,-281.31 327.3,-270.4 354,-244 366.3,-231.84 371.72,-212.56 374.12,-198.16"/>
<polygon fill="midnightblue" stroke="midnightblue" points="377.63,-198.24 375.46,-187.87 370.69,-197.34 377.63,-198.24"/>
</g>
<!-- Node11 -->
<g id="node11" class="node">
<title>Node11</title>
<g id="a_node11"><a xlink:href="utilities_8h.html" target="_top" xlink:title="Utility function prototypes for cone management and runtime tasks.">
<polygon fill="white" stroke="black" points="222,-168.5 222,-187.5 284,-187.5 284,-168.5 222,-168.5"/>
<text text-anchor="middle" x="253" y="-175.5" font-family="Helvetica,sans-Serif" font-size="10.00">utilities.h</text>
</a>
</g>
</g>
<!-- Node1&#45;&gt;Node11 -->
<g id="edge15" class="edge">
<title>Node1&#45;&gt;Node11</title>
<path fill="none" stroke="midnightblue" d="M218.9,-280.37C224.9,-262.54 238.77,-221.3 246.85,-197.27"/>
<polygon fill="midnightblue" stroke="midnightblue" points="250.24,-198.19 250.11,-187.59 243.6,-195.95 250.24,-198.19"/>
</g>
<!-- Node12 -->
<g id="node12" class="node">
<title>Node12</title>
<g id="a_node12"><a xlink:href="control_8h.html" target="_top" xlink:title="Declarations for vehicle control functions and variables in the 2D simulator.">
<polygon fill="white" stroke="black" points="285.5,-224.5 285.5,-243.5 344.5,-243.5 344.5,-224.5 285.5,-224.5"/>
<text text-anchor="middle" x="315" y="-231.5" font-family="Helvetica,sans-Serif" font-size="10.00">control.h</text>
</a>
</g>
</g>
<!-- Node1&#45;&gt;Node12 -->
<g id="edge18" class="edge">
<title>Node1&#45;&gt;Node12</title>
<path fill="none" stroke="midnightblue" d="M231.91,-280.32C247.64,-271.74 271.94,-258.49 290.21,-248.52"/>
<polygon fill="midnightblue" stroke="midnightblue" points="292.03,-251.52 299.13,-243.65 288.68,-245.37 292.03,-251.52"/>
</g>
<!-- Node6&#45;&gt;Node2 -->
<g id="edge6" class="edge">
<title>Node6&#45;&gt;Node2</title>
<path fill="none" stroke="midnightblue" d="M312.41,-57.49C273.28,-47.89 205.44,-31.24 162.46,-20.69"/>
<polygon fill="midnightblue" stroke="midnightblue" points="163.17,-17.26 152.63,-18.27 161.5,-24.06 163.17,-17.26"/>
</g>
<!-- Node7 -->
<g id="node7" class="node">
<title>Node7</title>
<g id="a_node7"><a xlink:title=" ">
<polygon fill="white" stroke="#bfbfbf" points="356.5,-0.5 356.5,-19.5 419.5,-19.5 419.5,-0.5 356.5,-0.5"/>
<text text-anchor="middle" x="388" y="-7.5" font-family="Helvetica,sans-Serif" font-size="10.00">pthread.h</text>
</a>
</g>
</g>
<!-- Node6&#45;&gt;Node7 -->
<g id="edge7" class="edge">
<title>Node6&#45;&gt;Node7</title>
<path fill="none" stroke="midnightblue" d="M350.43,-56.08C356.85,-48.38 366.31,-37.03 374.12,-27.65"/>
<polygon fill="midnightblue" stroke="midnightblue" points="376.99,-29.67 380.71,-19.75 371.62,-25.19 376.99,-29.67"/>
</g>
<!-- Node8 -->
<g id="node8" class="node">
<title>Node8</title>
<g id="a_node8"><a xlink:title=" ">
<polygon fill="white" stroke="#bfbfbf" points="258,-0.5 258,-19.5 338,-19.5 338,-0.5 258,-0.5"/>
<text text-anchor="middle" x="298" y="-7.5" font-family="Helvetica,sans-Serif" font-size="10.00">semaphore.h</text>
</a>
</g>
</g>
<!-- Node6&#45;&gt;Node8 -->
<g id="edge8" class="edge">
<title>Node6&#45;&gt;Node8</title>
<path fill="none" stroke="midnightblue" d="M335.57,-56.08C329.15,-48.38 319.69,-37.03 311.88,-27.65"/>
<polygon fill="midnightblue" stroke="midnightblue" points="314.38,-25.19 305.29,-19.75 309.01,-29.67 314.38,-25.19"/>
</g>
<!-- Node9&#45;&gt;Node3 -->
<g id="edge10" class="edge">
<title>Node9&#45;&gt;Node3</title>
<path fill="none" stroke="midnightblue" d="M289.24,-112.44C267.68,-103.56 233.74,-89.56 209.21,-79.45"/>
<polygon fill="midnightblue" stroke="midnightblue" points="210.24,-76.09 199.66,-75.52 207.57,-82.56 210.24,-76.09"/>
</g>
<!-- Node9&#45;&gt;Node6 -->
<g id="edge11" class="edge">
<title>Node9&#45;&gt;Node6</title>
<path fill="none" stroke="midnightblue" d="M315.45,-112.08C320.01,-104.61 326.67,-93.72 332.29,-84.52"/>
<polygon fill="midnightblue" stroke="midnightblue" points="335.42,-86.11 337.65,-75.75 329.45,-82.46 335.42,-86.11"/>
</g>
<!-- Node10&#45;&gt;Node6 -->
<g id="edge14" class="edge">
<title>Node10&#45;&gt;Node6</title>
<path fill="none" stroke="midnightblue" d="M373.7,-168.13C370.41,-155.57 364.08,-131.94 358,-112 355.29,-103.13 352.07,-93.35 349.3,-85.18"/>
<polygon fill="midnightblue" stroke="midnightblue" points="352.56,-83.91 346.01,-75.58 345.94,-86.18 352.56,-83.91"/>
</g>
<!-- Node10&#45;&gt;Node9 -->
<g id="edge13" class="edge">
<title>Node10&#45;&gt;Node9</title>
<path fill="none" stroke="midnightblue" d="M365.4,-168.32C355.54,-160.26 340.65,-148.08 328.78,-138.37"/>
<polygon fill="midnightblue" stroke="midnightblue" points="330.75,-135.46 320.8,-131.83 326.32,-140.88 330.75,-135.46"/>
</g>
<!-- Node11&#45;&gt;Node6 -->
<g id="edge17" class="edge">
<title>Node11&#45;&gt;Node6</title>
<path fill="none" stroke="midnightblue" d="M252.06,-168.13C251.11,-154.73 251.17,-129.09 263,-112 273.22,-97.24 289.93,-86.76 305.44,-79.65"/>
<polygon fill="midnightblue" stroke="midnightblue" points="307.04,-82.77 314.88,-75.65 304.3,-76.33 307.04,-82.77"/>
</g>
<!-- Node11&#45;&gt;Node9 -->
<g id="edge16" class="edge">
<title>Node11&#45;&gt;Node9</title>
<path fill="none" stroke="midnightblue" d="M262.16,-168.32C270.5,-160.42 283.03,-148.55 293.18,-138.94"/>
<polygon fill="midnightblue" stroke="midnightblue" points="295.82,-141.25 300.68,-131.83 291.01,-136.17 295.82,-141.25"/>
</g>
<!-- Node12&#45;&gt;Node6 -->
<g id="edge20" class="edge">
<title>Node12&#45;&gt;Node6</title>
<path fill="none" stroke="midnightblue" d="M344.96,-229.3C370,-224.45 404.23,-213.34 421,-188 446.24,-149.87 395.57,-104.45 364.6,-81.62"/>
<polygon fill="midnightblue" stroke="midnightblue" points="366.27,-78.51 356.09,-75.55 362.2,-84.21 366.27,-78.51"/>
</g>
<!-- Node12&#45;&gt;Node9 -->
<g id="edge21" class="edge">
<title>Node12&#45;&gt;Node9</title>
<path fill="none" stroke="midnightblue" d="M314.61,-224.37C313.8,-206.62 311.94,-165.67 310.85,-141.6"/>
<polygon fill="midnightblue" stroke="midnightblue" points="314.34,-141.42 310.39,-131.59 307.35,-141.74 314.34,-141.42"/>
</g>
<!-- Node12&#45;&gt;Node10 -->
<g id="edge19" class="edge">
<title>Node12&#45;&gt;Node10</title>
<path fill="none" stroke="midnightblue" d="M324.8,-224.32C333.82,-216.34 347.41,-204.31 358.32,-194.65"/>
<polygon fill="midnightblue" stroke="midnightblue" points="360.85,-197.08 366.02,-187.83 356.21,-191.84 360.85,-197.08"/>
</g>
</g>
</svg>
