<?xml version="1.0" encoding="UTF-8" standalone="no"?>
<!DOCTYPE svg PUBLIC "-//W3C//DTD SVG 1.1//EN"
 "http://www.w3.org/Graphics/SVG/1.1/DTD/svg11.dtd">
<!-- Generated by graphviz version 2.43.0 (0)
 -->
<!-- Title: draw_perception Pages: 1 -->
<svg width="264pt" height="104pt"
 viewBox="0.00 0.00 264.00 104.00" xmlns="http://www.w3.org/2000/svg" xmlns:xlink="http://www.w3.org/1999/xlink">
<g id="graph0" class="graph" transform="scale(1 1) rotate(0) translate(4 100)">
<title>draw_perception</title>
<polygon fill="white" stroke="transparent" points="-4,4 -4,-100 260,-100 260,4 -4,4"/>
<!-- Node1 -->
<g id="node1" class="node">
<title>Node1</title>
<g id="a_node1"><a xlink:title="Draws perception results.">
<polygon fill="#bfbfbf" stroke="black" points="0,-38.5 0,-57.5 98,-57.5 98,-38.5 0,-38.5"/>
<text text-anchor="middle" x="49" y="-45.5" font-family="Helvetica,sans-Serif" font-size="10.00">draw_perception</text>
</a>
</g>
</g>
<!-- Node2 -->
<g id="node2" class="node">
<title>Node2</title>
<g id="a_node2"><a xlink:href="display_8c.html#aa45d316f5e50fa968e686d790d57457b" target="_top" xlink:title="Draws the cone map overlay.">
<polygon fill="white" stroke="black" points="147,-76.5 147,-95.5 243,-95.5 243,-76.5 147,-76.5"/>
<text text-anchor="middle" x="195" y="-83.5" font-family="Helvetica,sans-Serif" font-size="10.00">draw_cone_map</text>
</a>
</g>
</g>
<!-- Node1&#45;&gt;Node2 -->
<g id="edge1" class="edge">
<title>Node1&#45;&gt;Node2</title>
<path fill="none" stroke="midnightblue" d="M86.34,-57.59C105.08,-62.54 128.14,-68.62 148.11,-73.89"/>
<polygon fill="midnightblue" stroke="midnightblue" points="147.36,-77.31 157.92,-76.48 149.15,-70.54 147.36,-77.31"/>
</g>
<!-- Node3 -->
<g id="node3" class="node">
<title>Node3</title>
<g id="a_node3"><a xlink:href="display_8c.html#a298532c4740f2a6785e5c1b0ff7fea9a" target="_top" xlink:title="Renders the detected cones on the perception bitmap.">
<polygon fill="white" stroke="black" points="134,-38.5 134,-57.5 256,-57.5 256,-38.5 134,-38.5"/>
<text text-anchor="middle" x="195" y="-45.5" font-family="Helvetica,sans-Serif" font-size="10.00">draw_detected_cones</text>
</a>
</g>
</g>
<!-- Node1&#45;&gt;Node3 -->
<g id="edge2" class="edge">
<title>Node1&#45;&gt;Node3</title>
<path fill="none" stroke="midnightblue" d="M98.35,-48C106.51,-48 115.13,-48 123.72,-48"/>
<polygon fill="midnightblue" stroke="midnightblue" points="123.75,-51.5 133.75,-48 123.75,-44.5 123.75,-51.5"/>
</g>
<!-- Node4 -->
<g id="node4" class="node">
<title>Node4</title>
<g id="a_node4"><a xlink:href="display_8c.html#a5c07cb2dc1adb076383bced84f4a8154" target="_top" xlink:title="Draws the lidar/perception view.">
<polygon fill="white" stroke="black" points="161,-0.5 161,-19.5 229,-19.5 229,-0.5 161,-0.5"/>
<text text-anchor="middle" x="195" y="-7.5" font-family="Helvetica,sans-Serif" font-size="10.00">draw_lidar</text>
</a>
</g>
</g>
<!-- Node1&#45;&gt;Node4 -->
<g id="edge3" class="edge">
<title>Node1&#45;&gt;Node4</title>
<path fill="none" stroke="midnightblue" d="M86.34,-38.41C105.96,-33.23 130.3,-26.81 150.88,-21.38"/>
<polygon fill="midnightblue" stroke="midnightblue" points="151.86,-24.74 160.64,-18.8 150.07,-17.97 151.86,-24.74"/>
</g>
</g>
</svg>
