<?xml version="1.0" encoding="UTF-8" standalone="no"?>
<!DOCTYPE svg PUBLIC "-//W3C//DTD SVG 1.1//EN"
 "http://www.w3.org/Graphics/SVG/1.1/DTD/svg11.dtd">
<!-- Generated by graphviz version 2.43.0 (0)
 -->
<!-- Title: draw_dir_arrow Pages: 1 -->
<svg width="515pt" height="47pt"
 viewBox="0.00 0.00 515.00 47.00" xmlns="http://www.w3.org/2000/svg" xmlns:xlink="http://www.w3.org/1999/xlink">
<g id="graph0" class="graph" transform="scale(1 1) rotate(0) translate(4 43)">
<title>draw_dir_arrow</title>
<polygon fill="white" stroke="transparent" points="-4,4 -4,-43 511,-43 511,4 -4,4"/>
<!-- Node1 -->
<g id="node1" class="node">
<title>Node1</title>
<g id="a_node1"><a xlink:title="Draws a directional arrow.">
<polygon fill="#bfbfbf" stroke="black" points="415,-0.5 415,-19.5 507,-19.5 507,-0.5 415,-0.5"/>
<text text-anchor="middle" x="461" y="-7.5" font-family="Helvetica,sans-Serif" font-size="10.00">draw_dir_arrow</text>
</a>
</g>
</g>
<!-- Node2 -->
<g id="node2" class="node">
<title>Node2</title>
<g id="a_node2"><a xlink:href="display_8h.html#a01a4e859fcc5ddef923afe9a8a674826" target="_top" xlink:title="Draws a car shape on the display.">
<polygon fill="white" stroke="black" points="318,-0.5 318,-19.5 379,-19.5 379,-0.5 318,-0.5"/>
<text text-anchor="middle" x="348.5" y="-7.5" font-family="Helvetica,sans-Serif" font-size="10.00">draw_car</text>
</a>
</g>
</g>
<!-- Node1&#45;&gt;Node2 -->
<g id="edge1" class="edge">
<title>Node1&#45;&gt;Node2</title>
<path fill="none" stroke="midnightblue" d="M404.48,-10C395.69,-10 386.92,-10 379.05,-10"/>
<polygon fill="midnightblue" stroke="midnightblue" points="404.74,-13.5 414.74,-10 404.74,-6.5 404.74,-13.5"/>
</g>
<!-- Node3 -->
<g id="node3" class="node">
<title>Node3</title>
<g id="a_node3"><a xlink:href="display_8h.html#aa2eb9ba074b23fc3b4a91c98e0c83c8b" target="_top" xlink:title="Updates the display.">
<polygon fill="white" stroke="black" points="191,-0.5 191,-19.5 282,-19.5 282,-0.5 191,-0.5"/>
<text text-anchor="middle" x="236.5" y="-7.5" font-family="Helvetica,sans-Serif" font-size="10.00">update_display</text>
</a>
</g>
</g>
<!-- Node2&#45;&gt;Node3 -->
<g id="edge2" class="edge">
<title>Node2&#45;&gt;Node3</title>
<path fill="none" stroke="midnightblue" d="M307.6,-10C299.34,-10 290.59,-10 282.17,-10"/>
<polygon fill="midnightblue" stroke="midnightblue" points="307.73,-13.5 317.73,-10 307.73,-6.5 307.73,-13.5"/>
</g>
<!-- Node4 -->
<g id="node4" class="node">
<title>Node4</title>
<g id="a_node4"><a xlink:href="tasks_8h.html#a16cbac3bef85b555e76fe999965c1b7e" target="_top" xlink:title=" ">
<polygon fill="white" stroke="black" points="77,-19.5 77,-38.5 155,-38.5 155,-19.5 77,-19.5"/>
<text text-anchor="middle" x="116" y="-26.5" font-family="Helvetica,sans-Serif" font-size="10.00">display_task</text>
</a>
</g>
</g>
<!-- Node3&#45;&gt;Node4 -->
<g id="edge3" class="edge">
<title>Node3&#45;&gt;Node4</title>
<path fill="none" stroke="midnightblue" d="M180.71,-18.78C172.12,-20.16 163.39,-21.56 155.28,-22.86"/>
<polygon fill="midnightblue" stroke="midnightblue" points="181.38,-22.22 190.7,-17.18 180.27,-15.31 181.38,-22.22"/>
</g>
<!-- Node5 -->
<g id="node5" class="node">
<title>Node5</title>
<g id="a_node5"><a xlink:href="main_8c.html#a840291bc02cba5474a4cb46a9b9566fe" target="_top" xlink:title=" ">
<polygon fill="white" stroke="black" points="0,-0.5 0,-19.5 41,-19.5 41,-0.5 0,-0.5"/>
<text text-anchor="middle" x="20.5" y="-7.5" font-family="Helvetica,sans-Serif" font-size="10.00">main</text>
</a>
</g>
</g>
<!-- Node3&#45;&gt;Node5 -->
<g id="edge5" class="edge">
<title>Node3&#45;&gt;Node5</title>
<path fill="none" stroke="midnightblue" d="M180.85,-10C135.21,-10 72.7,-10 41.26,-10"/>
<polygon fill="midnightblue" stroke="midnightblue" points="180.9,-13.5 190.9,-10 180.9,-6.5 180.9,-13.5"/>
</g>
<!-- Node4&#45;&gt;Node5 -->
<g id="edge4" class="edge">
<title>Node4&#45;&gt;Node5</title>
<path fill="none" stroke="midnightblue" d="M67.03,-19.25C57.83,-17.38 48.69,-15.53 41.04,-13.97"/>
<polygon fill="midnightblue" stroke="midnightblue" points="66.47,-22.71 76.97,-21.27 67.87,-15.85 66.47,-22.71"/>
</g>
</g>
</svg>
