<?xml version="1.0" encoding="UTF-8" standalone="no"?>
<!DOCTYPE svg PUBLIC "-//W3C//DTD SVG 1.1//EN"
 "http://www.w3.org/Graphics/SVG/1.1/DTD/svg11.dtd">
<!-- Generated by graphviz version 2.43.0 (0)
 -->
<!-- Title: src/display.c Pages: 1 -->
<svg width="618pt" height="308pt"
 viewBox="0.00 0.00 617.50 308.00" xmlns="http://www.w3.org/2000/svg" xmlns:xlink="http://www.w3.org/1999/xlink">
<g id="graph0" class="graph" transform="scale(1 1) rotate(0) translate(4 304)">
<title>src/display.c</title>
<polygon fill="white" stroke="transparent" points="-4,4 -4,-304 613.5,-304 613.5,4 -4,4"/>
<!-- Node1 -->
<g id="node1" class="node">
<title>Node1</title>
<g id="a_node1"><a xlink:title="Rendering and display update functions for the 2D simulation using Allegro.">
<polygon fill="#bfbfbf" stroke="black" points="216,-280.5 216,-299.5 292,-299.5 292,-280.5 216,-280.5"/>
<text text-anchor="middle" x="254" y="-287.5" font-family="Helvetica,sans-Serif" font-size="10.00">src/display.c</text>
</a>
</g>
</g>
<!-- Node2 -->
<g id="node2" class="node">
<title>Node2</title>
<g id="a_node2"><a xlink:title=" ">
<polygon fill="white" stroke="#bfbfbf" points="89.5,-0.5 89.5,-19.5 148.5,-19.5 148.5,-0.5 89.5,-0.5"/>
<text text-anchor="middle" x="119" y="-7.5" font-family="Helvetica,sans-Serif" font-size="10.00">allegro.h</text>
</a>
</g>
</g>
<!-- Node1&#45;&gt;Node2 -->
<g id="edge1" class="edge">
<title>Node1&#45;&gt;Node2</title>
<path fill="none" stroke="midnightblue" d="M215.97,-289.16C145.12,-287.25 0,-271.99 0,-179 0,-179 0,-179 0,-121 0,-73.3 52.2,-40.53 87.46,-23.84"/>
<polygon fill="midnightblue" stroke="midnightblue" points="89.23,-26.88 96.9,-19.56 86.34,-20.5 89.23,-26.88"/>
</g>
<!-- Node3 -->
<g id="node3" class="node">
<title>Node3</title>
<g id="a_node3"><a xlink:title=" ">
<polygon fill="white" stroke="#bfbfbf" points="150.5,-56.5 150.5,-75.5 201.5,-75.5 201.5,-56.5 150.5,-56.5"/>
<text text-anchor="middle" x="176" y="-63.5" font-family="Helvetica,sans-Serif" font-size="10.00">math.h</text>
</a>
</g>
</g>
<!-- Node1&#45;&gt;Node3 -->
<g id="edge2" class="edge">
<title>Node1&#45;&gt;Node3</title>
<path fill="none" stroke="midnightblue" d="M215.7,-285.81C164.1,-280.63 76.47,-268.41 57,-244 11.23,-186.59 107.75,-111.93 153.6,-81.18"/>
<polygon fill="midnightblue" stroke="midnightblue" points="155.6,-84.05 162.04,-75.63 151.76,-78.2 155.6,-84.05"/>
</g>
<!-- Node4 -->
<g id="node4" class="node">
<title>Node4</title>
<g id="a_node4"><a xlink:title=" ">
<polygon fill="white" stroke="#bfbfbf" points="66,-224.5 66,-243.5 116,-243.5 116,-224.5 66,-224.5"/>
<text text-anchor="middle" x="91" y="-231.5" font-family="Helvetica,sans-Serif" font-size="10.00">stdio.h</text>
</a>
</g>
</g>
<!-- Node1&#45;&gt;Node4 -->
<g id="edge3" class="edge">
<title>Node1&#45;&gt;Node4</title>
<path fill="none" stroke="midnightblue" d="M228.17,-280.44C200.59,-271.31 156.71,-256.77 126.03,-246.6"/>
<polygon fill="midnightblue" stroke="midnightblue" points="126.76,-243.16 116.17,-243.34 124.56,-249.81 126.76,-243.16"/>
</g>
<!-- Node5 -->
<g id="node5" class="node">
<title>Node5</title>
<g id="a_node5"><a xlink:title=" ">
<polygon fill="white" stroke="#bfbfbf" points="134.5,-224.5 134.5,-243.5 187.5,-243.5 187.5,-224.5 134.5,-224.5"/>
<text text-anchor="middle" x="161" y="-231.5" font-family="Helvetica,sans-Serif" font-size="10.00">stdlib.h</text>
</a>
</g>
</g>
<!-- Node1&#45;&gt;Node5 -->
<g id="edge4" class="edge">
<title>Node1&#45;&gt;Node5</title>
<path fill="none" stroke="midnightblue" d="M239.06,-280.32C224.41,-271.82 201.87,-258.73 184.76,-248.8"/>
<polygon fill="midnightblue" stroke="midnightblue" points="186.31,-245.65 175.9,-243.65 182.8,-251.7 186.31,-245.65"/>
</g>
<!-- Node6 -->
<g id="node6" class="node">
<title>Node6</title>
<g id="a_node6"><a xlink:href="globals_8h.html" target="_top" xlink:title="Global constants, variables, and structures for the simulation and visualization system.">
<polygon fill="white" stroke="black" points="277.5,-56.5 277.5,-75.5 338.5,-75.5 338.5,-56.5 277.5,-56.5"/>
<text text-anchor="middle" x="308" y="-63.5" font-family="Helvetica,sans-Serif" font-size="10.00">globals.h</text>
</a>
</g>
</g>
<!-- Node1&#45;&gt;Node6 -->
<g id="edge5" class="edge">
<title>Node1&#45;&gt;Node6</title>
<path fill="none" stroke="midnightblue" d="M292.08,-280.46C315.67,-273.66 345.48,-262.21 367,-244 389.23,-225.2 393.15,-216.04 401,-188 410.66,-153.48 397.39,-139.17 374,-112 363.08,-99.31 347.78,-88.59 334.67,-80.79"/>
<polygon fill="midnightblue" stroke="midnightblue" points="336.02,-77.54 325.59,-75.65 332.57,-83.63 336.02,-77.54"/>
</g>
<!-- Node9 -->
<g id="node9" class="node">
<title>Node9</title>
<g id="a_node9"><a xlink:href="perception_8h.html" target="_top" xlink:title="Header file for perception&#45;related types, constants, and function declarations.">
<polygon fill="white" stroke="black" points="236.5,-112.5 236.5,-131.5 313.5,-131.5 313.5,-112.5 236.5,-112.5"/>
<text text-anchor="middle" x="275" y="-119.5" font-family="Helvetica,sans-Serif" font-size="10.00">perception.h</text>
</a>
</g>
</g>
<!-- Node1&#45;&gt;Node9 -->
<g id="edge9" class="edge">
<title>Node1&#45;&gt;Node9</title>
<path fill="none" stroke="midnightblue" d="M246.22,-280.22C228.28,-259.75 185.03,-209.02 178,-188 175.18,-179.57 173.22,-175.49 178,-168 188.89,-150.94 208.09,-140.25 226.55,-133.6"/>
<polygon fill="midnightblue" stroke="midnightblue" points="227.68,-136.92 236.09,-130.48 225.5,-130.26 227.68,-136.92"/>
</g>
<!-- Node10 -->
<g id="node10" class="node">
<title>Node10</title>
<g id="a_node10"><a xlink:href="trajectory_8h.html" target="_top" xlink:title="Provides declarations for trajectory planning based on cone detection.">
<polygon fill="white" stroke="black" points="305.5,-168.5 305.5,-187.5 376.5,-187.5 376.5,-168.5 305.5,-168.5"/>
<text text-anchor="middle" x="341" y="-175.5" font-family="Helvetica,sans-Serif" font-size="10.00">trajectory.h</text>
</a>
</g>
</g>
<!-- Node1&#45;&gt;Node10 -->
<g id="edge12" class="edge">
<title>Node1&#45;&gt;Node10</title>
<path fill="none" stroke="midnightblue" d="M292.42,-281.67C313.58,-275.45 338.11,-264.18 351,-244 359.91,-230.04 355.52,-211.04 350.03,-197.18"/>
<polygon fill="midnightblue" stroke="midnightblue" points="353.1,-195.47 345.83,-187.76 346.71,-198.32 353.1,-195.47"/>
</g>
<!-- Node11 -->
<g id="node11" class="node">
<title>Node11</title>
<g id="a_node11"><a xlink:href="utilities_8h.html" target="_top" xlink:title="Utility function prototypes for cone management and runtime tasks.">
<polygon fill="white" stroke="black" points="187,-168.5 187,-187.5 249,-187.5 249,-168.5 187,-168.5"/>
<text text-anchor="middle" x="218" y="-175.5" font-family="Helvetica,sans-Serif" font-size="10.00">utilities.h</text>
</a>
</g>
</g>
<!-- Node1&#45;&gt;Node11 -->
<g id="edge15" class="edge">
<title>Node1&#45;&gt;Node11</title>
<path fill="none" stroke="midnightblue" d="M251.18,-280.37C245.34,-262.54 231.84,-221.3 223.98,-197.27"/>
<polygon fill="midnightblue" stroke="midnightblue" points="227.25,-196.01 220.81,-187.59 220.6,-198.18 227.25,-196.01"/>
</g>
<!-- Node12 -->
<g id="node12" class="node">
<title>Node12</title>
<g id="a_node12"><a xlink:href="control_8h.html" target="_top" xlink:title="Declarations for vehicle control functions and variables in the 2D simulator.">
<polygon fill="white" stroke="black" points="282.5,-224.5 282.5,-243.5 341.5,-243.5 341.5,-224.5 282.5,-224.5"/>
<text text-anchor="middle" x="312" y="-231.5" font-family="Helvetica,sans-Serif" font-size="10.00">control.h</text>
</a>
</g>
</g>
<!-- Node1&#45;&gt;Node12 -->
<g id="edge18" class="edge">
<title>Node1&#45;&gt;Node12</title>
<path fill="none" stroke="midnightblue" d="M263.32,-280.32C271.89,-272.34 284.81,-260.31 295.19,-250.65"/>
<polygon fill="midnightblue" stroke="midnightblue" points="297.58,-253.21 302.51,-243.83 292.81,-248.09 297.58,-253.21"/>
</g>
<!-- Node13 -->
<g id="node13" class="node">
<title>Node13</title>
<g id="a_node13"><a xlink:href="vehicle_8h.html" target="_top" xlink:title=" ">
<polygon fill="white" stroke="black" points="471.5,-224.5 471.5,-243.5 532.5,-243.5 532.5,-224.5 471.5,-224.5"/>
<text text-anchor="middle" x="502" y="-231.5" font-family="Helvetica,sans-Serif" font-size="10.00">vehicle.h</text>
</a>
</g>
</g>
<!-- Node1&#45;&gt;Node13 -->
<g id="edge22" class="edge">
<title>Node1&#45;&gt;Node13</title>
<path fill="none" stroke="midnightblue" d="M292.21,-280.68C338.03,-270.7 414.51,-254.05 461.38,-243.84"/>
<polygon fill="midnightblue" stroke="midnightblue" points="462.17,-247.25 471.2,-241.71 460.68,-240.42 462.17,-247.25"/>
</g>
<!-- Node14 -->
<g id="node14" class="node">
<title>Node14</title>
<g id="a_node14"><a xlink:href="display_8h.html" target="_top" xlink:title="Header file declaring display rendering functions.">
<polygon fill="white" stroke="black" points="550.5,-224.5 550.5,-243.5 609.5,-243.5 609.5,-224.5 550.5,-224.5"/>
<text text-anchor="middle" x="580" y="-231.5" font-family="Helvetica,sans-Serif" font-size="10.00">display.h</text>
</a>
</g>
</g>
<!-- Node1&#45;&gt;Node14 -->
<g id="edge23" class="edge">
<title>Node1&#45;&gt;Node14</title>
<path fill="none" stroke="midnightblue" d="M292.37,-283.97C345.83,-276.75 445.96,-262.46 540.2,-244.24"/>
<polygon fill="midnightblue" stroke="midnightblue" points="541.03,-247.65 550.18,-242.29 539.69,-240.78 541.03,-247.65"/>
</g>
<!-- Node6&#45;&gt;Node2 -->
<g id="edge6" class="edge">
<title>Node6&#45;&gt;Node2</title>
<path fill="none" stroke="midnightblue" d="M278.05,-56.44C245.84,-47.24 194.47,-32.56 158.86,-22.39"/>
<polygon fill="midnightblue" stroke="midnightblue" points="159.38,-18.9 148.81,-19.52 157.46,-25.63 159.38,-18.9"/>
</g>
<!-- Node7 -->
<g id="node7" class="node">
<title>Node7</title>
<g id="a_node7"><a xlink:title=" ">
<polygon fill="white" stroke="#bfbfbf" points="321.5,-0.5 321.5,-19.5 384.5,-19.5 384.5,-0.5 321.5,-0.5"/>
<text text-anchor="middle" x="353" y="-7.5" font-family="Helvetica,sans-Serif" font-size="10.00">pthread.h</text>
</a>
</g>
</g>
<!-- Node6&#45;&gt;Node7 -->
<g id="edge7" class="edge">
<title>Node6&#45;&gt;Node7</title>
<path fill="none" stroke="midnightblue" d="M315.43,-56.08C321.85,-48.38 331.31,-37.03 339.12,-27.65"/>
<polygon fill="midnightblue" stroke="midnightblue" points="341.99,-29.67 345.71,-19.75 336.62,-25.19 341.99,-29.67"/>
</g>
<!-- Node8 -->
<g id="node8" class="node">
<title>Node8</title>
<g id="a_node8"><a xlink:title=" ">
<polygon fill="white" stroke="#bfbfbf" points="223,-0.5 223,-19.5 303,-19.5 303,-0.5 223,-0.5"/>
<text text-anchor="middle" x="263" y="-7.5" font-family="Helvetica,sans-Serif" font-size="10.00">semaphore.h</text>
</a>
</g>
</g>
<!-- Node6&#45;&gt;Node8 -->
<g id="edge8" class="edge">
<title>Node6&#45;&gt;Node8</title>
<path fill="none" stroke="midnightblue" d="M300.57,-56.08C294.15,-48.38 284.69,-37.03 276.88,-27.65"/>
<polygon fill="midnightblue" stroke="midnightblue" points="279.38,-25.19 270.29,-19.75 274.01,-29.67 279.38,-25.19"/>
</g>
<!-- Node9&#45;&gt;Node3 -->
<g id="edge10" class="edge">
<title>Node9&#45;&gt;Node3</title>
<path fill="none" stroke="midnightblue" d="M259.09,-112.32C243.36,-103.74 219.06,-90.49 200.79,-80.52"/>
<polygon fill="midnightblue" stroke="midnightblue" points="202.32,-77.37 191.87,-75.65 198.97,-83.52 202.32,-77.37"/>
</g>
<!-- Node9&#45;&gt;Node6 -->
<g id="edge11" class="edge">
<title>Node9&#45;&gt;Node6</title>
<path fill="none" stroke="midnightblue" d="M280.45,-112.08C285.01,-104.61 291.67,-93.72 297.29,-84.52"/>
<polygon fill="midnightblue" stroke="midnightblue" points="300.42,-86.11 302.65,-75.75 294.45,-82.46 300.42,-86.11"/>
</g>
<!-- Node10&#45;&gt;Node6 -->
<g id="edge14" class="edge">
<title>Node10&#45;&gt;Node6</title>
<path fill="none" stroke="midnightblue" d="M338.7,-168.13C335.41,-155.57 329.08,-131.94 323,-112 320.29,-103.13 317.07,-93.35 314.3,-85.18"/>
<polygon fill="midnightblue" stroke="midnightblue" points="317.56,-83.91 311.01,-75.58 310.94,-86.18 317.56,-83.91"/>
</g>
<!-- Node10&#45;&gt;Node9 -->
<g id="edge13" class="edge">
<title>Node10&#45;&gt;Node9</title>
<path fill="none" stroke="midnightblue" d="M330.4,-168.32C320.54,-160.26 305.65,-148.08 293.78,-138.37"/>
<polygon fill="midnightblue" stroke="midnightblue" points="295.75,-135.46 285.8,-131.83 291.32,-140.88 295.75,-135.46"/>
</g>
<!-- Node11&#45;&gt;Node6 -->
<g id="edge17" class="edge">
<title>Node11&#45;&gt;Node6</title>
<path fill="none" stroke="midnightblue" d="M217.06,-168.13C216.11,-154.73 216.17,-129.09 228,-112 238.22,-97.24 254.93,-86.76 270.44,-79.65"/>
<polygon fill="midnightblue" stroke="midnightblue" points="272.04,-82.77 279.88,-75.65 269.3,-76.33 272.04,-82.77"/>
</g>
<!-- Node11&#45;&gt;Node9 -->
<g id="edge16" class="edge">
<title>Node11&#45;&gt;Node9</title>
<path fill="none" stroke="midnightblue" d="M227.16,-168.32C235.5,-160.42 248.03,-148.55 258.18,-138.94"/>
<polygon fill="midnightblue" stroke="midnightblue" points="260.82,-141.25 265.68,-131.83 256.01,-136.17 260.82,-141.25"/>
</g>
<!-- Node12&#45;&gt;Node6 -->
<g id="edge20" class="edge">
<title>Node12&#45;&gt;Node6</title>
<path fill="none" stroke="midnightblue" d="M338.93,-224.36C355.72,-217.41 375.98,-205.82 386,-188 390.36,-180.25 388.87,-176.41 386,-168 374.11,-133.14 344.76,-100.96 325.65,-82.68"/>
<polygon fill="midnightblue" stroke="midnightblue" points="327.88,-79.97 318.17,-75.73 323.12,-85.1 327.88,-79.97"/>
</g>
<!-- Node12&#45;&gt;Node9 -->
<g id="edge21" class="edge">
<title>Node12&#45;&gt;Node9</title>
<path fill="none" stroke="midnightblue" d="M309.1,-224.37C303.1,-206.54 289.23,-165.3 281.15,-141.27"/>
<polygon fill="midnightblue" stroke="midnightblue" points="284.4,-139.95 277.89,-131.59 277.76,-142.19 284.4,-139.95"/>
</g>
<!-- Node12&#45;&gt;Node10 -->
<g id="edge19" class="edge">
<title>Node12&#45;&gt;Node10</title>
<path fill="none" stroke="midnightblue" d="M316.79,-224.08C320.76,-216.69 326.53,-205.95 331.43,-196.81"/>
<polygon fill="midnightblue" stroke="midnightblue" points="334.65,-198.22 336.3,-187.75 328.49,-194.91 334.65,-198.22"/>
</g>
</g>
</svg>
