<?xml version="1.0" encoding="UTF-8" standalone="no"?>
<!DOCTYPE svg PUBLIC "-//W3C//DTD SVG 1.1//EN"
 "http://www.w3.org/Graphics/SVG/1.1/DTD/svg11.dtd">
<!-- Generated by graphviz version 2.43.0 (0)
 -->
<!-- Title: update_display Pages: 1 -->
<svg width="391pt" height="256pt"
 viewBox="0.00 0.00 391.00 256.00" xmlns="http://www.w3.org/2000/svg" xmlns:xlink="http://www.w3.org/1999/xlink">
<g id="graph0" class="graph" transform="scale(1 1) rotate(0) translate(4 252)">
<title>update_display</title>
<polygon fill="white" stroke="transparent" points="-4,4 -4,-252 387,-252 387,4 -4,4"/>
<!-- Node1 -->
<g id="node1" class="node">
<title>Node1</title>
<g id="a_node1"><a xlink:title="Updates the display.">
<polygon fill="#bfbfbf" stroke="black" points="0,-114.5 0,-133.5 91,-133.5 91,-114.5 0,-114.5"/>
<text text-anchor="middle" x="45.5" y="-121.5" font-family="Helvetica,sans-Serif" font-size="10.00">update_display</text>
</a>
</g>
</g>
<!-- Node2 -->
<g id="node2" class="node">
<title>Node2</title>
<g id="a_node2"><a xlink:href="group__VehicleModule.html#gaafbbdba8ad9bfb6108f0238653806062" target="_top" xlink:title=" ">
<polygon fill="white" stroke="black" points="128,-223.5 128,-242.5 224,-242.5 224,-223.5 128,-223.5"/>
<text text-anchor="middle" x="176" y="-230.5" font-family="Helvetica,sans-Serif" font-size="10.00">check_collisions</text>
</a>
</g>
</g>
<!-- Node1&#45;&gt;Node2 -->
<g id="edge1" class="edge">
<title>Node1&#45;&gt;Node2</title>
<path fill="none" stroke="midnightblue" d="M52.89,-133.75C65.21,-151.86 93.99,-190.98 127,-214 129.68,-215.87 132.58,-217.6 135.57,-219.18"/>
<polygon fill="midnightblue" stroke="midnightblue" points="134.17,-222.39 144.71,-223.49 137.16,-216.06 134.17,-222.39"/>
</g>
<!-- Node3 -->
<g id="node3" class="node">
<title>Node3</title>
<g id="a_node3"><a xlink:href="display_8c.html#a01a4e859fcc5ddef923afe9a8a674826" target="_top" xlink:title="Renders the car sprite rotated to its current angle.">
<polygon fill="white" stroke="black" points="145.5,-185.5 145.5,-204.5 206.5,-204.5 206.5,-185.5 145.5,-185.5"/>
<text text-anchor="middle" x="176" y="-192.5" font-family="Helvetica,sans-Serif" font-size="10.00">draw_car</text>
</a>
</g>
</g>
<!-- Node1&#45;&gt;Node3 -->
<g id="edge2" class="edge">
<title>Node1&#45;&gt;Node3</title>
<path fill="none" stroke="midnightblue" d="M62.36,-133.67C78.48,-143.4 104.23,-158.68 127,-171 133.17,-174.34 139.85,-177.79 146.23,-180.99"/>
<polygon fill="midnightblue" stroke="midnightblue" points="144.72,-184.15 155.23,-185.48 147.84,-177.89 144.72,-184.15"/>
</g>
<!-- Node6 -->
<g id="node6" class="node">
<title>Node6</title>
<g id="a_node6"><a xlink:href="display_8c.html#a385702fb79f2c451da015c3147f80515" target="_top" xlink:title="Draws user control indicators.">
<polygon fill="white" stroke="black" points="133.5,-142.5 133.5,-161.5 218.5,-161.5 218.5,-142.5 133.5,-142.5"/>
<text text-anchor="middle" x="176" y="-149.5" font-family="Helvetica,sans-Serif" font-size="10.00">draw_controls</text>
</a>
</g>
</g>
<!-- Node1&#45;&gt;Node6 -->
<g id="edge5" class="edge">
<title>Node1&#45;&gt;Node6</title>
<path fill="none" stroke="midnightblue" d="M90.36,-133.56C100.94,-135.86 112.34,-138.35 123.24,-140.72"/>
<polygon fill="midnightblue" stroke="midnightblue" points="122.55,-144.15 133.07,-142.86 124.04,-137.31 122.55,-144.15"/>
</g>
<!-- Node9 -->
<g id="node9" class="node">
<title>Node9</title>
<g id="a_node9"><a xlink:href="display_8c.html#acd5437d29ba24cfc00dbd2f9f6b0cd28" target="_top" xlink:title="Renders the complete perception layer.">
<polygon fill="white" stroke="black" points="127,-95.5 127,-114.5 225,-114.5 225,-95.5 127,-95.5"/>
<text text-anchor="middle" x="176" y="-102.5" font-family="Helvetica,sans-Serif" font-size="10.00">draw_perception</text>
</a>
</g>
</g>
<!-- Node1&#45;&gt;Node9 -->
<g id="edge9" class="edge">
<title>Node1&#45;&gt;Node9</title>
<path fill="none" stroke="midnightblue" d="M91.08,-117.41C99.42,-116.18 108.24,-114.87 116.92,-113.59"/>
<polygon fill="midnightblue" stroke="midnightblue" points="117.61,-117.02 126.99,-112.1 116.59,-110.1 117.61,-117.02"/>
</g>
<!-- Node13 -->
<g id="node13" class="node">
<title>Node13</title>
<g id="a_node13"><a xlink:href="display_8c.html#a92e08b949df5d8a8e5edec1dd86bc360" target="_top" xlink:title="Draws the track.">
<polygon fill="white" stroke="black" points="140.5,-57.5 140.5,-76.5 211.5,-76.5 211.5,-57.5 140.5,-57.5"/>
<text text-anchor="middle" x="176" y="-64.5" font-family="Helvetica,sans-Serif" font-size="10.00">draw_track</text>
</a>
</g>
</g>
<!-- Node1&#45;&gt;Node13 -->
<g id="edge13" class="edge">
<title>Node1&#45;&gt;Node13</title>
<path fill="none" stroke="midnightblue" d="M65.86,-114.43C82.07,-106.53 105.87,-95.16 127,-86 131.39,-84.1 136.05,-82.16 140.66,-80.28"/>
<polygon fill="midnightblue" stroke="midnightblue" points="141.98,-83.53 149.96,-76.56 139.38,-77.03 141.98,-83.53"/>
</g>
<!-- Node14 -->
<g id="node14" class="node">
<title>Node14</title>
<g id="a_node14"><a xlink:href="display_8c.html#a2d077fa92b741d504d6ef5c5f2fdd74c" target="_top" xlink:title="Draws the trajectory of the car.">
<polygon fill="white" stroke="black" points="129.5,-19.5 129.5,-38.5 222.5,-38.5 222.5,-19.5 129.5,-19.5"/>
<text text-anchor="middle" x="176" y="-26.5" font-family="Helvetica,sans-Serif" font-size="10.00">draw_trajectory</text>
</a>
</g>
</g>
<!-- Node1&#45;&gt;Node14 -->
<g id="edge14" class="edge">
<title>Node1&#45;&gt;Node14</title>
<path fill="none" stroke="midnightblue" d="M54.5,-114.37C68.01,-98.62 96.84,-67.19 127,-48 129.96,-46.11 133.14,-44.36 136.41,-42.74"/>
<polygon fill="midnightblue" stroke="midnightblue" points="138.03,-45.85 145.7,-38.55 135.15,-39.47 138.03,-45.85"/>
</g>
<!-- Node4 -->
<g id="node4" class="node">
<title>Node4</title>
<g id="a_node4"><a xlink:href="utilities_8h.html#a33090597864cdfd30d87ff99c14eeecb" target="_top" xlink:title=" ">
<polygon fill="white" stroke="black" points="262,-190.5 262,-209.5 382,-209.5 382,-190.5 262,-190.5"/>
<text text-anchor="middle" x="322" y="-197.5" font-family="Helvetica,sans-Serif" font-size="10.00">angle_rotation_sprite</text>
</a>
</g>
</g>
<!-- Node3&#45;&gt;Node4 -->
<g id="edge3" class="edge">
<title>Node3&#45;&gt;Node4</title>
<path fill="none" stroke="midnightblue" d="M206.84,-196.04C219.88,-196.49 235.77,-197.04 251.5,-197.59"/>
<polygon fill="midnightblue" stroke="midnightblue" points="251.67,-201.09 261.79,-197.94 251.92,-194.1 251.67,-201.09"/>
</g>
<!-- Node5 -->
<g id="node5" class="node">
<title>Node5</title>
<g id="a_node5"><a xlink:href="display_8c.html#a264238ff7dcf301bbc2f190ea7dcea4c" target="_top" xlink:title="Draws a directional arrow representing the car&#39;s orientation.">
<polygon fill="white" stroke="black" points="276,-228.5 276,-247.5 368,-247.5 368,-228.5 276,-228.5"/>
<text text-anchor="middle" x="322" y="-235.5" font-family="Helvetica,sans-Serif" font-size="10.00">draw_dir_arrow</text>
</a>
</g>
</g>
<!-- Node3&#45;&gt;Node5 -->
<g id="edge4" class="edge">
<title>Node3&#45;&gt;Node5</title>
<path fill="none" stroke="midnightblue" d="M206.84,-203.91C227.81,-210.17 256.16,-218.64 279.36,-225.57"/>
<polygon fill="midnightblue" stroke="midnightblue" points="278.37,-228.92 288.95,-228.43 280.37,-222.21 278.37,-228.92"/>
</g>
<!-- Node6&#45;&gt;Node4 -->
<g id="edge6" class="edge">
<title>Node6&#45;&gt;Node4</title>
<path fill="none" stroke="midnightblue" d="M204.18,-161.58C220.6,-167.32 241.96,-174.7 261,-181 267.41,-183.12 274.23,-185.33 280.87,-187.45"/>
<polygon fill="midnightblue" stroke="midnightblue" points="279.84,-190.79 290.43,-190.49 281.96,-184.12 279.84,-190.79"/>
</g>
<!-- Node7 -->
<g id="node7" class="node">
<title>Node7</title>
<g id="a_node7"><a xlink:href="display_8c.html#abdb9fae5dfda6a7b08efb162b243c776" target="_top" xlink:title=" ">
<polygon fill="white" stroke="black" points="280,-152.5 280,-171.5 364,-171.5 364,-152.5 280,-152.5"/>
<text text-anchor="middle" x="322" y="-159.5" font-family="Helvetica,sans-Serif" font-size="10.00">display_pedal</text>
</a>
</g>
</g>
<!-- Node6&#45;&gt;Node7 -->
<g id="edge7" class="edge">
<title>Node6&#45;&gt;Node7</title>
<path fill="none" stroke="midnightblue" d="M218.65,-154.89C234.61,-156 253,-157.28 269.76,-158.44"/>
<polygon fill="midnightblue" stroke="midnightblue" points="269.72,-161.95 279.94,-159.15 270.21,-154.96 269.72,-161.95"/>
</g>
<!-- Node8 -->
<g id="node8" class="node">
<title>Node8</title>
<g id="a_node8"><a xlink:href="display_8c.html#a5bcee09191f66649a2968b6f2ba32935" target="_top" xlink:title=" ">
<polygon fill="white" stroke="black" points="283.5,-114.5 283.5,-133.5 360.5,-133.5 360.5,-114.5 283.5,-114.5"/>
<text text-anchor="middle" x="322" y="-121.5" font-family="Helvetica,sans-Serif" font-size="10.00">draw_button</text>
</a>
</g>
</g>
<!-- Node6&#45;&gt;Node8 -->
<g id="edge8" class="edge">
<title>Node6&#45;&gt;Node8</title>
<path fill="none" stroke="midnightblue" d="M218.65,-143.9C235.73,-140.58 255.6,-136.72 273.27,-133.28"/>
<polygon fill="midnightblue" stroke="midnightblue" points="274.23,-136.66 283.37,-131.32 272.89,-129.79 274.23,-136.66"/>
</g>
<!-- Node10 -->
<g id="node10" class="node">
<title>Node10</title>
<g id="a_node10"><a xlink:href="display_8c.html#aa45d316f5e50fa968e686d790d57457b" target="_top" xlink:title="Draws the cone map overlay.">
<polygon fill="white" stroke="black" points="274,-76.5 274,-95.5 370,-95.5 370,-76.5 274,-76.5"/>
<text text-anchor="middle" x="322" y="-83.5" font-family="Helvetica,sans-Serif" font-size="10.00">draw_cone_map</text>
</a>
</g>
</g>
<!-- Node9&#45;&gt;Node10 -->
<g id="edge10" class="edge">
<title>Node9&#45;&gt;Node10</title>
<path fill="none" stroke="midnightblue" d="M225.35,-98.62C237.73,-96.99 251.16,-95.22 263.93,-93.53"/>
<polygon fill="midnightblue" stroke="midnightblue" points="264.54,-96.98 274,-92.2 263.63,-90.04 264.54,-96.98"/>
</g>
<!-- Node11 -->
<g id="node11" class="node">
<title>Node11</title>
<g id="a_node11"><a xlink:href="display_8c.html#a298532c4740f2a6785e5c1b0ff7fea9a" target="_top" xlink:title="Renders the detected cones on the perception bitmap.">
<polygon fill="white" stroke="black" points="261,-38.5 261,-57.5 383,-57.5 383,-38.5 261,-38.5"/>
<text text-anchor="middle" x="322" y="-45.5" font-family="Helvetica,sans-Serif" font-size="10.00">draw_detected_cones</text>
</a>
</g>
</g>
<!-- Node9&#45;&gt;Node11 -->
<g id="edge11" class="edge">
<title>Node9&#45;&gt;Node11</title>
<path fill="none" stroke="midnightblue" d="M202.63,-95.45C209.92,-92.57 217.84,-89.3 225,-86 241.44,-78.44 244.31,-73.98 261,-67 266.36,-64.76 272.08,-62.63 277.78,-60.66"/>
<polygon fill="midnightblue" stroke="midnightblue" points="278.9,-63.98 287.29,-57.51 276.7,-57.33 278.9,-63.98"/>
</g>
<!-- Node12 -->
<g id="node12" class="node">
<title>Node12</title>
<g id="a_node12"><a xlink:href="display_8c.html#a5c07cb2dc1adb076383bced84f4a8154" target="_top" xlink:title="Draws the lidar/perception view.">
<polygon fill="white" stroke="black" points="288,-0.5 288,-19.5 356,-19.5 356,-0.5 288,-0.5"/>
<text text-anchor="middle" x="322" y="-7.5" font-family="Helvetica,sans-Serif" font-size="10.00">draw_lidar</text>
</a>
</g>
</g>
<!-- Node9&#45;&gt;Node12 -->
<g id="edge12" class="edge">
<title>Node9&#45;&gt;Node12</title>
<path fill="none" stroke="midnightblue" d="M209.3,-95.49C214.89,-92.96 220.38,-89.83 225,-86 248.07,-66.88 237.28,-47.3 261,-29 266.11,-25.06 272.06,-21.92 278.18,-19.43"/>
<polygon fill="midnightblue" stroke="midnightblue" points="279.58,-22.65 287.85,-16.03 277.26,-16.05 279.58,-22.65"/>
</g>
</g>
</svg>
