<?xml version="1.0" encoding="UTF-8" standalone="no"?>
<!DOCTYPE svg PUBLIC "-//W3C//DTD SVG 1.1//EN"
 "http://www.w3.org/Graphics/SVG/1.1/DTD/svg11.dtd">
<!-- Generated by graphviz version 2.43.0 (0)
 -->
<!-- Title: draw_controls Pages: 1 -->
<svg width="411pt" height="28pt"
 viewBox="0.00 0.00 411.00 28.00" xmlns="http://www.w3.org/2000/svg" xmlns:xlink="http://www.w3.org/1999/xlink">
<g id="graph0" class="graph" transform="scale(1 1) rotate(0) translate(4 24)">
<title>draw_controls</title>
<polygon fill="white" stroke="transparent" points="-4,4 -4,-24 407,-24 407,4 -4,4"/>
<!-- Node1 -->
<g id="node1" class="node">
<title>Node1</title>
<g id="a_node1"><a xlink:title="Draws user control indicators.">
<polygon fill="#bfbfbf" stroke="black" points="318,-0.5 318,-19.5 403,-19.5 403,-0.5 318,-0.5"/>
<text text-anchor="middle" x="360.5" y="-7.5" font-family="Helvetica,sans-Serif" font-size="10.00">draw_controls</text>
</a>
</g>
</g>
<!-- Node2 -->
<g id="node2" class="node">
<title>Node2</title>
<g id="a_node2"><a xlink:href="display_8h.html#aa2eb9ba074b23fc3b4a91c98e0c83c8b" target="_top" xlink:title="Updates the display.">
<polygon fill="white" stroke="black" points="191,-0.5 191,-19.5 282,-19.5 282,-0.5 191,-0.5"/>
<text text-anchor="middle" x="236.5" y="-7.5" font-family="Helvetica,sans-Serif" font-size="10.00">update_display</text>
</a>
</g>
</g>
<!-- Node1&#45;&gt;Node2 -->
<g id="edge1" class="edge">
<title>Node1&#45;&gt;Node2</title>
<path fill="none" stroke="midnightblue" d="M307.71,-10C299.26,-10 290.56,-10 282.29,-10"/>
<polygon fill="midnightblue" stroke="midnightblue" points="307.86,-13.5 317.86,-10 307.86,-6.5 307.86,-13.5"/>
</g>
<!-- Node3 -->
<g id="node3" class="node">
<title>Node3</title>
<g id="a_node3"><a xlink:href="tasks_8h.html#a16cbac3bef85b555e76fe999965c1b7e" target="_top" xlink:title=" ">
<polygon fill="white" stroke="black" points="77,-0.5 77,-19.5 155,-19.5 155,-0.5 77,-0.5"/>
<text text-anchor="middle" x="116" y="-7.5" font-family="Helvetica,sans-Serif" font-size="10.00">display_task</text>
</a>
</g>
</g>
<!-- Node2&#45;&gt;Node3 -->
<g id="edge2" class="edge">
<title>Node2&#45;&gt;Node3</title>
<path fill="none" stroke="midnightblue" d="M180.43,-10C171.93,-10 163.31,-10 155.28,-10"/>
<polygon fill="midnightblue" stroke="midnightblue" points="180.7,-13.5 190.7,-10 180.7,-6.5 180.7,-13.5"/>
</g>
<!-- Node4 -->
<g id="node4" class="node">
<title>Node4</title>
<g id="a_node4"><a xlink:href="main_8c.html#a840291bc02cba5474a4cb46a9b9566fe" target="_top" xlink:title=" ">
<polygon fill="white" stroke="black" points="0,-0.5 0,-19.5 41,-19.5 41,-0.5 0,-0.5"/>
<text text-anchor="middle" x="20.5" y="-7.5" font-family="Helvetica,sans-Serif" font-size="10.00">main</text>
</a>
</g>
</g>
<!-- Node3&#45;&gt;Node4 -->
<g id="edge3" class="edge">
<title>Node3&#45;&gt;Node4</title>
<path fill="none" stroke="midnightblue" d="M66.74,-10C57.63,-10 48.61,-10 41.04,-10"/>
<polygon fill="midnightblue" stroke="midnightblue" points="66.97,-13.5 76.97,-10 66.97,-6.5 66.97,-13.5"/>
</g>
</g>
</svg>
