<?xml version="1.0" encoding="UTF-8" standalone="no"?>
<!DOCTYPE svg PUBLIC "-//W3C//DTD SVG 1.1//EN"
 "http://www.w3.org/Graphics/SVG/1.1/DTD/svg11.dtd">
<!-- Generated by graphviz version 2.43.0 (0)
 -->
<!-- Title: include/globals.h Pages: 1 -->
<svg width="1081pt" height="308pt"
 viewBox="0.00 0.00 1080.50 308.00" xmlns="http://www.w3.org/2000/svg" xmlns:xlink="http://www.w3.org/1999/xlink">
<g id="graph0" class="graph" transform="scale(1 1) rotate(0) translate(4 304)">
<title>include/globals.h</title>
<polygon fill="white" stroke="transparent" points="-4,4 -4,-304 1076.5,-304 1076.5,4 -4,4"/>
<!-- Node1 -->
<g id="node1" class="node">
<title>Node1</title>
<g id="a_node1"><a xlink:title="Global constants, variables, and structures for the simulation and visualization system.">
<polygon fill="#bfbfbf" stroke="black" points="617.5,-280.5 617.5,-299.5 716.5,-299.5 716.5,-280.5 617.5,-280.5"/>
<text text-anchor="middle" x="667" y="-287.5" font-family="Helvetica,sans-Serif" font-size="10.00">include/globals.h</text>
</a>
</g>
</g>
<!-- Node2 -->
<g id="node2" class="node">
<title>Node2</title>
<g id="a_node2"><a xlink:href="control_8h.html" target="_top" xlink:title="Declarations for vehicle control functions and variables in the 2D simulator.">
<polygon fill="white" stroke="black" points="330,-112.5 330,-131.5 428,-131.5 428,-112.5 330,-112.5"/>
<text text-anchor="middle" x="379" y="-119.5" font-family="Helvetica,sans-Serif" font-size="10.00">include/control.h</text>
</a>
</g>
</g>
<!-- Node1&#45;&gt;Node2 -->
<g id="edge1" class="edge">
<title>Node1&#45;&gt;Node2</title>
<path fill="none" stroke="midnightblue" d="M607.11,-285.82C550.24,-281.28 463.11,-270.32 392,-244 347.11,-227.38 323.45,-229.73 300,-188 285.38,-161.99 323.97,-142.12 352.23,-131.54"/>
<polygon fill="midnightblue" stroke="midnightblue" points="607.13,-289.33 617.36,-286.6 607.66,-282.35 607.13,-289.33"/>
</g>
<!-- Node4 -->
<g id="node4" class="node">
<title>Node4</title>
<g id="a_node4"><a xlink:href="main_8c.html" target="_top" xlink:title="Main implementation of the 2D FSAE Simulation.">
<polygon fill="white" stroke="black" points="564.5,-0.5 564.5,-19.5 631.5,-19.5 631.5,-0.5 564.5,-0.5"/>
<text text-anchor="middle" x="598" y="-7.5" font-family="Helvetica,sans-Serif" font-size="10.00">src/main.c</text>
</a>
</g>
</g>
<!-- Node1&#45;&gt;Node4 -->
<g id="edge34" class="edge">
<title>Node1&#45;&gt;Node4</title>
<path fill="none" stroke="midnightblue" d="M726.86,-282.35C787.37,-271.91 872,-245.44 872,-179 872,-179 872,-179 872,-121 872,-69.74 704.76,-31.44 631.6,-17.13"/>
<polygon fill="midnightblue" stroke="midnightblue" points="725.94,-278.95 716.62,-284 727.06,-285.86 725.94,-278.95"/>
</g>
<!-- Node5 -->
<g id="node5" class="node">
<title>Node5</title>
<g id="a_node5"><a xlink:href="tasks_8c.html" target="_top" xlink:title="Contains periodic task functions for LiDAR perception, trajectory planning, vehicle control,...">
<polygon fill="white" stroke="black" points="202,-0.5 202,-19.5 270,-19.5 270,-0.5 202,-0.5"/>
<text text-anchor="middle" x="236" y="-7.5" font-family="Helvetica,sans-Serif" font-size="10.00">src/tasks.c</text>
</a>
</g>
</g>
<!-- Node1&#45;&gt;Node5 -->
<g id="edge36" class="edge">
<title>Node1&#45;&gt;Node5</title>
<path fill="none" stroke="midnightblue" d="M607.07,-289.45C511.08,-288.89 317.56,-282.5 159,-244 84.81,-225.99 0,-255.34 0,-179 0,-179 0,-179 0,-121 0,-32.96 136.58,-15.21 201.94,-11.76"/>
<polygon fill="midnightblue" stroke="midnightblue" points="607.15,-292.95 617.16,-289.49 607.18,-285.95 607.15,-292.95"/>
</g>
<!-- Node6 -->
<g id="node6" class="node">
<title>Node6</title>
<g id="a_node6"><a xlink:href="control_8c.html" target="_top" xlink:title="Implements vehicle control functions including both manual (keyboard) and autonomous (centerline base...">
<polygon fill="white" stroke="black" points="198,-56.5 198,-75.5 274,-75.5 274,-56.5 198,-56.5"/>
<text text-anchor="middle" x="236" y="-63.5" font-family="Helvetica,sans-Serif" font-size="10.00">src/control.c</text>
</a>
</g>
</g>
<!-- Node1&#45;&gt;Node6 -->
<g id="edge31" class="edge">
<title>Node1&#45;&gt;Node6</title>
<path fill="none" stroke="midnightblue" d="M607.26,-286.04C503.36,-280.38 293.77,-266.53 224,-244 138.96,-216.53 95.71,-212.55 57,-132 30.29,-76.43 137.5,-67.33 197.68,-66.48"/>
<polygon fill="midnightblue" stroke="midnightblue" points="607.11,-289.54 617.28,-286.58 607.49,-282.55 607.11,-289.54"/>
</g>
<!-- Node7 -->
<g id="node7" class="node">
<title>Node7</title>
<g id="a_node7"><a xlink:href="display_8c.html" target="_top" xlink:title="Rendering and display update functions for the 2D simulation using Allegro.">
<polygon fill="white" stroke="black" points="600,-56.5 600,-75.5 676,-75.5 676,-56.5 600,-56.5"/>
<text text-anchor="middle" x="638" y="-63.5" font-family="Helvetica,sans-Serif" font-size="10.00">src/display.c</text>
</a>
</g>
</g>
<!-- Node1&#45;&gt;Node7 -->
<g id="edge32" class="edge">
<title>Node1&#45;&gt;Node7</title>
<path fill="none" stroke="midnightblue" d="M719.31,-277.1C737.24,-270.37 755.64,-259.97 767,-244 801.11,-196.06 811.61,-159.58 777,-112 754.17,-80.62 708.98,-70.67 676.31,-67.75"/>
<polygon fill="midnightblue" stroke="midnightblue" points="717.77,-273.93 709.44,-280.47 720.04,-280.55 717.77,-273.93"/>
</g>
<!-- Node8 -->
<g id="node8" class="node">
<title>Node8</title>
<g id="a_node8"><a xlink:href="perception_8h.html" target="_top" xlink:title="Header file for perception&#45;related types, constants, and function declarations.">
<polygon fill="white" stroke="black" points="427,-224.5 427,-243.5 543,-243.5 543,-224.5 427,-224.5"/>
<text text-anchor="middle" x="485" y="-231.5" font-family="Helvetica,sans-Serif" font-size="10.00">include/perception.h</text>
</a>
</g>
</g>
<!-- Node1&#45;&gt;Node8 -->
<g id="edge8" class="edge">
<title>Node1&#45;&gt;Node8</title>
<path fill="none" stroke="midnightblue" d="M628.47,-277.57C594.14,-267.38 544.67,-252.7 513.7,-243.52"/>
<polygon fill="midnightblue" stroke="midnightblue" points="627.58,-280.95 638.16,-280.44 629.57,-274.24 627.58,-280.95"/>
</g>
<!-- Node9 -->
<g id="node9" class="node">
<title>Node9</title>
<g id="a_node9"><a xlink:href="trajectory_8h.html" target="_top" xlink:title="Provides declarations for trajectory planning based on cone detection.">
<polygon fill="white" stroke="black" points="309,-168.5 309,-187.5 419,-187.5 419,-168.5 309,-168.5"/>
<text text-anchor="middle" x="364" y="-175.5" font-family="Helvetica,sans-Serif" font-size="10.00">include/trajectory.h</text>
</a>
</g>
</g>
<!-- Node1&#45;&gt;Node9 -->
<g id="edge29" class="edge">
<title>Node1&#45;&gt;Node9</title>
<path fill="none" stroke="midnightblue" d="M607,-289.47C553.94,-287.37 476.16,-277.93 418,-244 394.43,-230.25 376.6,-202.17 368.62,-187.84"/>
<polygon fill="midnightblue" stroke="midnightblue" points="607.16,-292.98 617.26,-289.8 607.38,-285.98 607.16,-292.98"/>
</g>
<!-- Node10 -->
<g id="node10" class="node">
<title>Node10</title>
<g id="a_node10"><a xlink:href="perception_8c.html" target="_top" xlink:title="Implements LiDAR&#45;based cone detection and mapping using circle Hough transform.">
<polygon fill="white" stroke="black" points="66,-112.5 66,-131.5 160,-131.5 160,-112.5 66,-112.5"/>
<text text-anchor="middle" x="113" y="-119.5" font-family="Helvetica,sans-Serif" font-size="10.00">src/perception.c</text>
</a>
</g>
</g>
<!-- Node1&#45;&gt;Node10 -->
<g id="edge35" class="edge">
<title>Node1&#45;&gt;Node10</title>
<path fill="none" stroke="midnightblue" d="M607.11,-284.51C485.79,-274.29 216.61,-245.62 147,-188 128.75,-172.9 119.07,-145.43 115.14,-131.53"/>
<polygon fill="midnightblue" stroke="midnightblue" points="607.08,-288.02 617.33,-285.35 607.65,-281.04 607.08,-288.02"/>
</g>
<!-- Node11 -->
<g id="node11" class="node">
<title>Node11</title>
<g id="a_node11"><a xlink:href="trajectory_8c.html" target="_top" xlink:title="Implements trajectory planning based on detected cones.">
<polygon fill="white" stroke="black" points="522,-112.5 522,-131.5 610,-131.5 610,-112.5 522,-112.5"/>
<text text-anchor="middle" x="566" y="-119.5" font-family="Helvetica,sans-Serif" font-size="10.00">src/trajectory.c</text>
</a>
</g>
</g>
<!-- Node1&#45;&gt;Node11 -->
<g id="edge37" class="edge">
<title>Node1&#45;&gt;Node11</title>
<path fill="none" stroke="midnightblue" d="M682.95,-272.96C705.32,-248.49 740.67,-201.16 716,-168 703.26,-150.88 649.73,-137.83 610.23,-130.3"/>
<polygon fill="midnightblue" stroke="midnightblue" points="680.3,-270.67 675.96,-280.33 685.38,-275.48 680.3,-270.67"/>
</g>
<!-- Node12 -->
<g id="node12" class="node">
<title>Node12</title>
<g id="a_node12"><a xlink:href="utilities_8h.html" target="_top" xlink:title="Utility function prototypes for cone management and runtime tasks.">
<polygon fill="white" stroke="black" points="666.5,-112.5 666.5,-131.5 767.5,-131.5 767.5,-112.5 666.5,-112.5"/>
<text text-anchor="middle" x="717" y="-119.5" font-family="Helvetica,sans-Serif" font-size="10.00">include/utilities.h</text>
</a>
</g>
</g>
<!-- Node1&#45;&gt;Node12 -->
<g id="edge30" class="edge">
<title>Node1&#45;&gt;Node12</title>
<path fill="none" stroke="midnightblue" d="M708.37,-276.5C723.93,-269.55 740.03,-259.16 749,-244 766.21,-214.93 759.27,-200.18 749,-168 744.45,-153.75 733.56,-140.16 725.75,-131.71"/>
<polygon fill="midnightblue" stroke="midnightblue" points="706.75,-273.37 698.81,-280.38 709.39,-279.86 706.75,-273.37"/>
</g>
<!-- Node13 -->
<g id="node13" class="node">
<title>Node13</title>
<g id="a_node13"><a xlink:href="utilities_8c.html" target="_top" xlink:title="Utility functions for cone initialization, YAML cone loading, angle rotation conversion,...">
<polygon fill="white" stroke="black" points="627.5,-168.5 627.5,-187.5 706.5,-187.5 706.5,-168.5 627.5,-168.5"/>
<text text-anchor="middle" x="667" y="-175.5" font-family="Helvetica,sans-Serif" font-size="10.00">src/utilities.c</text>
</a>
</g>
</g>
<!-- Node1&#45;&gt;Node13 -->
<g id="edge38" class="edge">
<title>Node1&#45;&gt;Node13</title>
<path fill="none" stroke="midnightblue" d="M667,-270.35C667,-246.25 667,-205.31 667,-187.59"/>
<polygon fill="midnightblue" stroke="midnightblue" points="663.5,-270.37 667,-280.37 670.5,-270.37 663.5,-270.37"/>
</g>
<!-- Node14 -->
<g id="node14" class="node">
<title>Node14</title>
<g id="a_node14"><a xlink:href="globals_8c.html" target="_top" xlink:title="Global definitions and state variables for the 2D FSAE simulation.">
<polygon fill="white" stroke="black" points="900.5,-224.5 900.5,-243.5 977.5,-243.5 977.5,-224.5 900.5,-224.5"/>
<text text-anchor="middle" x="939" y="-231.5" font-family="Helvetica,sans-Serif" font-size="10.00">src/globals.c</text>
</a>
</g>
</g>
<!-- Node1&#45;&gt;Node14 -->
<g id="edge33" class="edge">
<title>Node1&#45;&gt;Node14</title>
<path fill="none" stroke="midnightblue" d="M719.97,-278.48C772.82,-267.99 852.79,-252.12 900.07,-242.73"/>
<polygon fill="midnightblue" stroke="midnightblue" points="719.23,-275.06 710.1,-280.44 720.59,-281.93 719.23,-275.06"/>
</g>
<!-- Node15 -->
<g id="node15" class="node">
<title>Node15</title>
<g id="a_node15"><a xlink:href="vehicle_8c.html" target="_top" xlink:title=" ">
<polygon fill="white" stroke="black" points="995.5,-224.5 995.5,-243.5 1072.5,-243.5 1072.5,-224.5 995.5,-224.5"/>
<text text-anchor="middle" x="1034" y="-231.5" font-family="Helvetica,sans-Serif" font-size="10.00">src/vehicle.c</text>
</a>
</g>
</g>
<!-- Node1&#45;&gt;Node15 -->
<g id="edge39" class="edge">
<title>Node1&#45;&gt;Node15</title>
<path fill="none" stroke="midnightblue" d="M726.7,-281.5C791.07,-273.21 896.51,-259.02 987,-244 989.7,-243.55 992.49,-243.07 995.3,-242.57"/>
<polygon fill="midnightblue" stroke="midnightblue" points="726.2,-278.04 716.73,-282.78 727.09,-284.98 726.2,-278.04"/>
</g>
<!-- Node3 -->
<g id="node3" class="node">
<title>Node3</title>
<g id="a_node3"><a xlink:href="tasks_8h.html" target="_top" xlink:title="Declaration of task thread functions for the simulation.">
<polygon fill="white" stroke="black" points="330,-56.5 330,-75.5 420,-75.5 420,-56.5 330,-56.5"/>
<text text-anchor="middle" x="375" y="-63.5" font-family="Helvetica,sans-Serif" font-size="10.00">include/tasks.h</text>
</a>
</g>
</g>
<!-- Node2&#45;&gt;Node3 -->
<g id="edge2" class="edge">
<title>Node2&#45;&gt;Node3</title>
<path fill="none" stroke="midnightblue" d="M377.6,-102.1C376.94,-93.14 376.17,-82.86 375.65,-75.75"/>
<polygon fill="midnightblue" stroke="midnightblue" points="374.11,-102.37 378.34,-112.08 381.09,-101.85 374.11,-102.37"/>
</g>
<!-- Node2&#45;&gt;Node4 -->
<g id="edge7" class="edge">
<title>Node2&#45;&gt;Node4</title>
<path fill="none" stroke="midnightblue" d="M397.25,-106.03C415.35,-91.72 444.32,-70.29 472,-56 502.96,-40.02 540.9,-27.32 567.01,-19.54"/>
<polygon fill="midnightblue" stroke="midnightblue" points="394.9,-103.43 389.29,-112.41 399.28,-108.89 394.9,-103.43"/>
</g>
<!-- Node2&#45;&gt;Node6 -->
<g id="edge5" class="edge">
<title>Node2&#45;&gt;Node6</title>
<path fill="none" stroke="midnightblue" d="M346.97,-108.91C320.09,-98.75 282.36,-84.51 258.55,-75.52"/>
<polygon fill="midnightblue" stroke="midnightblue" points="345.75,-112.19 356.34,-112.44 348.22,-105.64 345.75,-112.19"/>
</g>
<!-- Node2&#45;&gt;Node7 -->
<g id="edge6" class="edge">
<title>Node2&#45;&gt;Node7</title>
<path fill="none" stroke="midnightblue" d="M429.97,-110.37C479.85,-99.97 554.68,-84.37 599.69,-74.99"/>
<polygon fill="midnightblue" stroke="midnightblue" points="429.11,-106.98 420.04,-112.44 430.54,-113.83 429.11,-106.98"/>
</g>
<!-- Node3&#45;&gt;Node4 -->
<g id="edge3" class="edge">
<title>Node3&#45;&gt;Node4</title>
<path fill="none" stroke="midnightblue" d="M420.18,-54.06C462.84,-43.73 525.86,-28.47 564.29,-19.16"/>
<polygon fill="midnightblue" stroke="midnightblue" points="419.23,-50.69 410.34,-56.44 420.88,-57.49 419.23,-50.69"/>
</g>
<!-- Node3&#45;&gt;Node5 -->
<g id="edge4" class="edge">
<title>Node3&#45;&gt;Node5</title>
<path fill="none" stroke="midnightblue" d="M343.52,-52.77C317.41,-42.63 280.96,-28.47 257.92,-19.52"/>
<polygon fill="midnightblue" stroke="midnightblue" points="342.39,-56.08 352.98,-56.44 344.92,-49.56 342.39,-56.08"/>
</g>
<!-- Node8&#45;&gt;Node2 -->
<g id="edge9" class="edge">
<title>Node8&#45;&gt;Node2</title>
<path fill="none" stroke="midnightblue" d="M471.34,-216.44C460.07,-203.04 443.49,-183.85 428,-168 415.08,-154.78 399.17,-140.51 389.05,-131.66"/>
<polygon fill="midnightblue" stroke="midnightblue" points="468.81,-218.88 477.9,-224.32 474.19,-214.4 468.81,-218.88"/>
</g>
<!-- Node8&#45;&gt;Node4 -->
<g id="edge24" class="edge">
<title>Node8&#45;&gt;Node4</title>
<path fill="none" stroke="midnightblue" d="M513,-220.29C532.24,-211.45 558.3,-199.29 581,-188 598.09,-179.5 601.1,-174.62 619,-168 686.55,-143.02 732.08,-188.3 777,-132 822.5,-74.97 695.53,-34.75 631.91,-18.72"/>
<polygon fill="midnightblue" stroke="midnightblue" points="511.52,-217.12 503.89,-224.46 514.44,-223.48 511.52,-217.12"/>
</g>
<!-- Node8&#45;&gt;Node5 -->
<g id="edge26" class="edge">
<title>Node8&#45;&gt;Node5</title>
<path fill="none" stroke="midnightblue" d="M416.76,-230.14C373.59,-225.6 318.18,-214.52 276,-188 222.64,-154.45 209.44,-135.63 189,-76 186.12,-67.59 185.51,-64.17 189,-56 195.65,-40.42 210.65,-27.65 221.92,-19.74"/>
<polygon fill="midnightblue" stroke="midnightblue" points="416.61,-233.64 426.89,-231.11 417.27,-226.67 416.61,-233.64"/>
</g>
<!-- Node8&#45;&gt;Node6 -->
<g id="edge22" class="edge">
<title>Node8&#45;&gt;Node6</title>
<path fill="none" stroke="midnightblue" d="M416.58,-228.85C379.21,-223.69 333.8,-212.41 300,-188 260.31,-159.34 243.06,-98.45 237.83,-75.76"/>
<polygon fill="midnightblue" stroke="midnightblue" points="416.53,-232.37 426.89,-230.15 417.41,-225.43 416.53,-232.37"/>
</g>
<!-- Node8&#45;&gt;Node7 -->
<g id="edge23" class="edge">
<title>Node8&#45;&gt;Node7</title>
<path fill="none" stroke="midnightblue" d="M497.58,-216.57C509.05,-202.39 527.05,-182.04 546,-168 575.07,-146.46 595.74,-159.7 619,-132 632.91,-115.43 636.64,-89.1 637.64,-75.6"/>
<polygon fill="midnightblue" stroke="midnightblue" points="494.78,-214.47 491.33,-224.49 500.27,-218.81 494.78,-214.47"/>
</g>
<!-- Node8&#45;&gt;Node9 -->
<g id="edge10" class="edge">
<title>Node8&#45;&gt;Node9</title>
<path fill="none" stroke="midnightblue" d="M456.69,-220.37C434.03,-210.26 402.87,-196.35 383.08,-187.52"/>
<polygon fill="midnightblue" stroke="midnightblue" points="455.27,-223.56 465.83,-224.44 458.12,-217.17 455.27,-223.56"/>
</g>
<!-- Node8&#45;&gt;Node10 -->
<g id="edge25" class="edge">
<title>Node8&#45;&gt;Node10</title>
<path fill="none" stroke="midnightblue" d="M416.54,-228.19C338.61,-221.81 216.82,-208.88 176,-188 149.98,-174.69 128.51,-146.41 118.72,-131.94"/>
<polygon fill="midnightblue" stroke="midnightblue" points="416.51,-231.7 426.76,-229.01 417.07,-224.72 416.51,-231.7"/>
</g>
<!-- Node8&#45;&gt;Node11 -->
<g id="edge27" class="edge">
<title>Node8&#45;&gt;Node11</title>
<path fill="none" stroke="midnightblue" d="M488.95,-214.5C492.53,-200.73 498.85,-181.98 509,-168 520.26,-152.49 538.24,-139.54 551,-131.57"/>
<polygon fill="midnightblue" stroke="midnightblue" points="485.53,-213.75 486.63,-224.29 492.34,-215.36 485.53,-213.75"/>
</g>
<!-- Node8&#45;&gt;Node12 -->
<g id="edge18" class="edge">
<title>Node8&#45;&gt;Node12</title>
<path fill="none" stroke="midnightblue" d="M504.23,-218.43C523.76,-204.13 555.29,-182.44 585,-168 617.77,-152.07 657.63,-139.32 684.92,-131.51"/>
<polygon fill="midnightblue" stroke="midnightblue" points="502.1,-215.65 496.15,-224.42 506.27,-221.27 502.1,-215.65"/>
</g>
<!-- Node8&#45;&gt;Node13 -->
<g id="edge28" class="edge">
<title>Node8&#45;&gt;Node13</title>
<path fill="none" stroke="midnightblue" d="M523.53,-221.57C557.86,-211.38 607.33,-196.7 638.3,-187.52"/>
<polygon fill="midnightblue" stroke="midnightblue" points="522.43,-218.24 513.84,-224.44 524.42,-224.95 522.43,-218.24"/>
</g>
<!-- Node9&#45;&gt;Node2 -->
<g id="edge11" class="edge">
<title>Node9&#45;&gt;Node2</title>
<path fill="none" stroke="midnightblue" d="M369.17,-158.4C371.68,-149.36 374.57,-138.94 376.57,-131.75"/>
<polygon fill="midnightblue" stroke="midnightblue" points="365.78,-157.51 366.48,-168.08 372.53,-159.38 365.78,-157.51"/>
</g>
<!-- Node9&#45;&gt;Node4 -->
<g id="edge14" class="edge">
<title>Node9&#45;&gt;Node4</title>
<path fill="none" stroke="midnightblue" d="M387.61,-163.2C402.08,-154.56 420.86,-143.01 437,-132 495.35,-92.21 561.86,-39.88 587.32,-19.57"/>
<polygon fill="midnightblue" stroke="midnightblue" points="385.61,-160.31 378.79,-168.42 389.18,-166.34 385.61,-160.31"/>
</g>
<!-- Node9&#45;&gt;Node5 -->
<g id="edge16" class="edge">
<title>Node9&#45;&gt;Node5</title>
<path fill="none" stroke="midnightblue" d="M346.75,-161.32C338.33,-153.11 328.45,-142.58 321,-132 299.27,-101.11 305.41,-86.39 283,-56 272.54,-41.82 257.38,-28.21 247.12,-19.74"/>
<polygon fill="midnightblue" stroke="midnightblue" points="344.57,-164.07 354.24,-168.4 349.38,-158.99 344.57,-164.07"/>
</g>
<!-- Node9&#45;&gt;Node6 -->
<g id="edge12" class="edge">
<title>Node9&#45;&gt;Node6</title>
<path fill="none" stroke="midnightblue" d="M336.65,-163.91C321.43,-155.89 302.67,-144.74 288,-132 268.15,-114.75 250.24,-89.17 241.55,-75.83"/>
<polygon fill="midnightblue" stroke="midnightblue" points="335.09,-167.05 345.59,-168.48 338.28,-160.81 335.09,-167.05"/>
</g>
<!-- Node9&#45;&gt;Node7 -->
<g id="edge13" class="edge">
<title>Node9&#45;&gt;Node7</title>
<path fill="none" stroke="midnightblue" d="M394.28,-164.47C415.54,-155.59 444.61,-143.29 470,-132 489.26,-123.44 493.51,-120.02 513,-112 546.7,-98.13 586.42,-84.24 611.89,-75.64"/>
<polygon fill="midnightblue" stroke="midnightblue" points="392.69,-161.34 384.81,-168.41 395.38,-167.8 392.69,-161.34"/>
</g>
<!-- Node9&#45;&gt;Node10 -->
<g id="edge15" class="edge">
<title>Node9&#45;&gt;Node10</title>
<path fill="none" stroke="midnightblue" d="M314.18,-166.28C266.75,-156.08 196.3,-140.92 152.59,-131.52"/>
<polygon fill="midnightblue" stroke="midnightblue" points="313.72,-169.76 324.23,-168.44 315.19,-162.92 313.72,-169.76"/>
</g>
<!-- Node9&#45;&gt;Node11 -->
<g id="edge17" class="edge">
<title>Node9&#45;&gt;Node11</title>
<path fill="none" stroke="midnightblue" d="M405.79,-165.83C443.93,-155.63 499.48,-140.78 534.14,-131.52"/>
<polygon fill="midnightblue" stroke="midnightblue" points="404.76,-162.48 396.01,-168.44 406.57,-169.24 404.76,-162.48"/>
</g>
<!-- Node12&#45;&gt;Node3 -->
<g id="edge19" class="edge">
<title>Node12&#45;&gt;Node3</title>
<path fill="none" stroke="midnightblue" d="M656.07,-111.38C588.37,-100.69 480.63,-83.68 420.1,-74.12"/>
<polygon fill="midnightblue" stroke="midnightblue" points="655.74,-114.87 666.17,-112.97 656.84,-107.96 655.74,-114.87"/>
</g>
<!-- Node12&#45;&gt;Node4 -->
<g id="edge21" class="edge">
<title>Node12&#45;&gt;Node4</title>
<path fill="none" stroke="midnightblue" d="M711.54,-102.76C706.53,-88.58 697.91,-69.17 685,-56 668.1,-38.76 643.18,-26.8 624.34,-19.57"/>
<polygon fill="midnightblue" stroke="midnightblue" points="708.25,-103.96 714.67,-112.39 714.91,-101.8 708.25,-103.96"/>
</g>
<!-- Node12&#45;&gt;Node7 -->
<g id="edge20" class="edge">
<title>Node12&#45;&gt;Node7</title>
<path fill="none" stroke="midnightblue" d="M695.97,-106.62C681.53,-96.76 662.86,-83.99 650.66,-75.65"/>
<polygon fill="midnightblue" stroke="midnightblue" points="694.08,-109.57 704.31,-112.32 698.03,-103.79 694.08,-109.57"/>
</g>
</g>
</svg>
