<?xml version="1.0" encoding="UTF-8" standalone="no"?>
<!DOCTYPE svg PUBLIC "-//W3C//DTD SVG 1.1//EN"
 "http://www.w3.org/Graphics/SVG/1.1/DTD/svg11.dtd">
<!-- Generated by graphviz version 2.43.0 (0)
 -->
<!-- Title: include/globals.h Pages: 1 -->
<svg width="1135pt" height="308pt"
 viewBox="0.00 0.00 1134.50 308.00" xmlns="http://www.w3.org/2000/svg" xmlns:xlink="http://www.w3.org/1999/xlink">
<g id="graph0" class="graph" transform="scale(1 1) rotate(0) translate(4 304)">
<title>include/globals.h</title>
<polygon fill="white" stroke="transparent" points="-4,4 -4,-304 1130.5,-304 1130.5,4 -4,4"/>
<!-- Node1 -->
<g id="node1" class="node">
<title>Node1</title>
<g id="a_node1"><a xlink:title="Global constants, variables, and structures for the simulation and visualization system.">
<polygon fill="#bfbfbf" stroke="black" points="627.5,-280.5 627.5,-299.5 726.5,-299.5 726.5,-280.5 627.5,-280.5"/>
<text text-anchor="middle" x="677" y="-287.5" font-family="Helvetica,sans-Serif" font-size="10.00">include/globals.h</text>
</a>
</g>
</g>
<!-- Node2 -->
<g id="node2" class="node">
<title>Node2</title>
<g id="a_node2"><a xlink:href="control_8h.html" target="_top" xlink:title="Declarations for vehicle control functions and variables in the 2D simulator.">
<polygon fill="white" stroke="black" points="218,-112.5 218,-131.5 316,-131.5 316,-112.5 218,-112.5"/>
<text text-anchor="middle" x="267" y="-119.5" font-family="Helvetica,sans-Serif" font-size="10.00">include/control.h</text>
</a>
</g>
</g>
<!-- Node1&#45;&gt;Node2 -->
<g id="edge1" class="edge">
<title>Node1&#45;&gt;Node2</title>
<path fill="none" stroke="midnightblue" d="M617.34,-284.11C558.98,-278.27 468.05,-266.36 392,-244 332.82,-226.6 298.69,-239.68 265,-188 253.78,-170.79 259.52,-145.2 263.78,-131.84"/>
<polygon fill="midnightblue" stroke="midnightblue" points="617.19,-287.61 627.49,-285.09 617.87,-280.64 617.19,-287.61"/>
</g>
<!-- Node4 -->
<g id="node4" class="node">
<title>Node4</title>
<g id="a_node4"><a xlink:href="main_8c.html" target="_top" xlink:title="Main implementation of the 2D FSAE Simulation.">
<polygon fill="white" stroke="black" points="452.5,-0.5 452.5,-19.5 519.5,-19.5 519.5,-0.5 452.5,-0.5"/>
<text text-anchor="middle" x="486" y="-7.5" font-family="Helvetica,sans-Serif" font-size="10.00">src/main.c</text>
</a>
</g>
</g>
<!-- Node1&#45;&gt;Node4 -->
<g id="edge33" class="edge">
<title>Node1&#45;&gt;Node4</title>
<path fill="none" stroke="midnightblue" d="M736.89,-287.71C810.57,-282.57 926,-261.37 926,-179 926,-179 926,-179 926,-121 926,-37.34 622.83,-16.78 519.8,-12.2"/>
<polygon fill="midnightblue" stroke="midnightblue" points="736.56,-284.22 726.79,-288.33 736.99,-291.21 736.56,-284.22"/>
</g>
<!-- Node5 -->
<g id="node5" class="node">
<title>Node5</title>
<g id="a_node5"><a xlink:href="tasks_8c.html" target="_top" xlink:title="Contains periodic task functions for LiDAR perception, trajectory planning, vehicle control,...">
<polygon fill="white" stroke="black" points="80,-0.5 80,-19.5 148,-19.5 148,-0.5 80,-0.5"/>
<text text-anchor="middle" x="114" y="-7.5" font-family="Helvetica,sans-Serif" font-size="10.00">src/tasks.c</text>
</a>
</g>
</g>
<!-- Node1&#45;&gt;Node5 -->
<g id="edge35" class="edge">
<title>Node1&#45;&gt;Node5</title>
<path fill="none" stroke="midnightblue" d="M617.5,-285.57C452.29,-275.24 0,-241.29 0,-179 0,-179 0,-179 0,-121 0,-69.71 60.5,-34.77 93.36,-19.58"/>
<polygon fill="midnightblue" stroke="midnightblue" points="617.3,-289.06 627.49,-286.18 617.73,-282.07 617.3,-289.06"/>
</g>
<!-- Node6 -->
<g id="node6" class="node">
<title>Node6</title>
<g id="a_node6"><a xlink:href="control_8c.html" target="_top" xlink:title="Implements vehicle control functions including both manual (keyboard) and autonomous (centerline base...">
<polygon fill="white" stroke="black" points="81,-56.5 81,-75.5 157,-75.5 157,-56.5 81,-56.5"/>
<text text-anchor="middle" x="119" y="-63.5" font-family="Helvetica,sans-Serif" font-size="10.00">src/control.c</text>
</a>
</g>
</g>
<!-- Node1&#45;&gt;Node6 -->
<g id="edge30" class="edge">
<title>Node1&#45;&gt;Node6</title>
<path fill="none" stroke="midnightblue" d="M617.01,-288.57C541.75,-286.51 409.53,-277.82 302,-244 215.69,-216.86 177.62,-210.13 132,-132 121.44,-113.91 119.32,-88.69 118.98,-75.62"/>
<polygon fill="midnightblue" stroke="midnightblue" points="617.16,-292.07 627.24,-288.82 617.33,-285.08 617.16,-292.07"/>
</g>
<!-- Node7 -->
<g id="node7" class="node">
<title>Node7</title>
<g id="a_node7"><a xlink:href="display_8c.html" target="_top" xlink:title="Rendering and display update functions for the 2D simulation using Allegro.">
<polygon fill="white" stroke="black" points="488,-56.5 488,-75.5 564,-75.5 564,-56.5 488,-56.5"/>
<text text-anchor="middle" x="526" y="-63.5" font-family="Helvetica,sans-Serif" font-size="10.00">src/display.c</text>
</a>
</g>
</g>
<!-- Node1&#45;&gt;Node7 -->
<g id="edge31" class="edge">
<title>Node1&#45;&gt;Node7</title>
<path fill="none" stroke="midnightblue" d="M736.68,-281.02C764.51,-274.78 796.58,-263.69 820,-244 847.68,-220.74 870.41,-197.13 849,-168 814.72,-121.37 641.93,-86.7 564.1,-73.19"/>
<polygon fill="midnightblue" stroke="midnightblue" points="735.72,-277.65 726.64,-283.11 737.14,-284.5 735.72,-277.65"/>
</g>
<!-- Node8 -->
<g id="node8" class="node">
<title>Node8</title>
<g id="a_node8"><a xlink:href="perception_8h.html" target="_top" xlink:title="Header file for perception&#45;related types, constants, and function declarations.">
<polygon fill="white" stroke="black" points="478,-224.5 478,-243.5 594,-243.5 594,-224.5 478,-224.5"/>
<text text-anchor="middle" x="536" y="-231.5" font-family="Helvetica,sans-Serif" font-size="10.00">include/perception.h</text>
</a>
</g>
</g>
<!-- Node1&#45;&gt;Node8 -->
<g id="edge8" class="edge">
<title>Node1&#45;&gt;Node8</title>
<path fill="none" stroke="midnightblue" d="M645.07,-276.77C618.59,-266.63 581.61,-252.47 558.24,-243.52"/>
<polygon fill="midnightblue" stroke="midnightblue" points="644.07,-280.14 654.66,-280.44 646.57,-273.6 644.07,-280.14"/>
</g>
<!-- Node9 -->
<g id="node9" class="node">
<title>Node9</title>
<g id="a_node9"><a xlink:href="trajectory_8h.html" target="_top" xlink:title="Provides declarations for trajectory planning based on cone detection.">
<polygon fill="white" stroke="black" points="274,-168.5 274,-187.5 384,-187.5 384,-168.5 274,-168.5"/>
<text text-anchor="middle" x="329" y="-175.5" font-family="Helvetica,sans-Serif" font-size="10.00">include/trajectory.h</text>
</a>
</g>
</g>
<!-- Node1&#45;&gt;Node9 -->
<g id="edge28" class="edge">
<title>Node1&#45;&gt;Node9</title>
<path fill="none" stroke="midnightblue" d="M617.15,-283.88C567.37,-278.21 495.32,-266.69 436,-244 398.24,-229.56 358.86,-201.79 340.16,-187.68"/>
<polygon fill="midnightblue" stroke="midnightblue" points="616.79,-287.37 627.11,-284.97 617.55,-280.41 616.79,-287.37"/>
</g>
<!-- Node10 -->
<g id="node10" class="node">
<title>Node10</title>
<g id="a_node10"><a xlink:href="trajectory_8c.html" target="_top" xlink:title="Implements trajectory planning based on detected cones.">
<polygon fill="white" stroke="black" points="410,-112.5 410,-131.5 498,-131.5 498,-112.5 410,-112.5"/>
<text text-anchor="middle" x="454" y="-119.5" font-family="Helvetica,sans-Serif" font-size="10.00">src/trajectory.c</text>
</a>
</g>
</g>
<!-- Node1&#45;&gt;Node10 -->
<g id="edge36" class="edge">
<title>Node1&#45;&gt;Node10</title>
<path fill="none" stroke="midnightblue" d="M616.89,-283.66C562.7,-277.54 488.61,-265.46 469,-244 439.72,-211.97 447.72,-153.65 452.06,-131.68"/>
<polygon fill="midnightblue" stroke="midnightblue" points="616.78,-287.17 627.1,-284.77 617.53,-280.21 616.78,-287.17"/>
</g>
<!-- Node11 -->
<g id="node11" class="node">
<title>Node11</title>
<g id="a_node11"><a xlink:href="utilities_8h.html" target="_top" xlink:title="Utility function prototypes for cone management and runtime tasks.">
<polygon fill="white" stroke="black" points="554.5,-112.5 554.5,-131.5 655.5,-131.5 655.5,-112.5 554.5,-112.5"/>
<text text-anchor="middle" x="605" y="-119.5" font-family="Helvetica,sans-Serif" font-size="10.00">include/utilities.h</text>
</a>
</g>
</g>
<!-- Node1&#45;&gt;Node11 -->
<g id="edge29" class="edge">
<title>Node1&#45;&gt;Node11</title>
<path fill="none" stroke="midnightblue" d="M715.79,-277.25C773.41,-257.87 870.76,-216.45 831,-168 809.24,-141.48 715.21,-130.3 655.5,-125.8"/>
<polygon fill="midnightblue" stroke="midnightblue" points="714.64,-273.95 706.23,-280.39 716.82,-280.6 714.64,-273.95"/>
</g>
<!-- Node12 -->
<g id="node12" class="node">
<title>Node12</title>
<g id="a_node12"><a xlink:href="perception_8c.html" target="_top" xlink:title="Implements LiDAR&#45;based cone detection and mapping using circle Hough transform.">
<polygon fill="white" stroke="black" points="630,-168.5 630,-187.5 724,-187.5 724,-168.5 630,-168.5"/>
<text text-anchor="middle" x="677" y="-175.5" font-family="Helvetica,sans-Serif" font-size="10.00">src/perception.c</text>
</a>
</g>
</g>
<!-- Node1&#45;&gt;Node12 -->
<g id="edge34" class="edge">
<title>Node1&#45;&gt;Node12</title>
<path fill="none" stroke="midnightblue" d="M677,-270.35C677,-246.25 677,-205.31 677,-187.59"/>
<polygon fill="midnightblue" stroke="midnightblue" points="673.5,-270.37 677,-280.37 680.5,-270.37 673.5,-270.37"/>
</g>
<!-- Node13 -->
<g id="node13" class="node">
<title>Node13</title>
<g id="a_node13"><a xlink:href="utilities_8c.html" target="_top" xlink:title="Utility functions for cone initialization, YAML cone loading, angle rotation conversion,...">
<polygon fill="white" stroke="black" points="742.5,-168.5 742.5,-187.5 821.5,-187.5 821.5,-168.5 742.5,-168.5"/>
<text text-anchor="middle" x="782" y="-175.5" font-family="Helvetica,sans-Serif" font-size="10.00">src/utilities.c</text>
</a>
</g>
</g>
<!-- Node1&#45;&gt;Node13 -->
<g id="edge37" class="edge">
<title>Node1&#45;&gt;Node13</title>
<path fill="none" stroke="midnightblue" d="M692.37,-272.9C714.94,-249.25 756.28,-205.95 773.8,-187.59"/>
<polygon fill="midnightblue" stroke="midnightblue" points="689.61,-270.72 685.24,-280.37 694.68,-275.55 689.61,-270.72"/>
</g>
<!-- Node14 -->
<g id="node14" class="node">
<title>Node14</title>
<g id="a_node14"><a xlink:href="globals_8c.html" target="_top" xlink:title="Global definitions and state variables for the 2D FSAE simulation.">
<polygon fill="white" stroke="black" points="954.5,-224.5 954.5,-243.5 1031.5,-243.5 1031.5,-224.5 954.5,-224.5"/>
<text text-anchor="middle" x="993" y="-231.5" font-family="Helvetica,sans-Serif" font-size="10.00">src/globals.c</text>
</a>
</g>
</g>
<!-- Node1&#45;&gt;Node14 -->
<g id="edge32" class="edge">
<title>Node1&#45;&gt;Node14</title>
<path fill="none" stroke="midnightblue" d="M736.64,-278.81C800.39,-267.92 899.61,-250.96 954.03,-241.66"/>
<polygon fill="midnightblue" stroke="midnightblue" points="735.99,-275.37 726.72,-280.5 737.17,-282.27 735.99,-275.37"/>
</g>
<!-- Node15 -->
<g id="node15" class="node">
<title>Node15</title>
<g id="a_node15"><a xlink:href="vehicle_8c.html" target="_top" xlink:title=" ">
<polygon fill="white" stroke="black" points="1049.5,-224.5 1049.5,-243.5 1126.5,-243.5 1126.5,-224.5 1049.5,-224.5"/>
<text text-anchor="middle" x="1088" y="-231.5" font-family="Helvetica,sans-Serif" font-size="10.00">src/vehicle.c</text>
</a>
</g>
</g>
<!-- Node1&#45;&gt;Node15 -->
<g id="edge38" class="edge">
<title>Node1&#45;&gt;Node15</title>
<path fill="none" stroke="midnightblue" d="M736.87,-282.83C809.15,-275.09 934.28,-260.8 1041,-244 1043.71,-243.57 1046.5,-243.11 1049.31,-242.62"/>
<polygon fill="midnightblue" stroke="midnightblue" points="736.17,-279.38 726.6,-283.92 736.92,-286.34 736.17,-279.38"/>
</g>
<!-- Node3 -->
<g id="node3" class="node">
<title>Node3</title>
<g id="a_node3"><a xlink:href="tasks_8h.html" target="_top" xlink:title="Declaration of task thread functions for the simulation.">
<polygon fill="white" stroke="black" points="256,-56.5 256,-75.5 346,-75.5 346,-56.5 256,-56.5"/>
<text text-anchor="middle" x="301" y="-63.5" font-family="Helvetica,sans-Serif" font-size="10.00">include/tasks.h</text>
</a>
</g>
</g>
<!-- Node2&#45;&gt;Node3 -->
<g id="edge2" class="edge">
<title>Node2&#45;&gt;Node3</title>
<path fill="none" stroke="midnightblue" d="M277.98,-103.57C283.83,-94.27 290.77,-83.25 295.49,-75.75"/>
<polygon fill="midnightblue" stroke="midnightblue" points="274.98,-101.76 272.61,-112.08 280.9,-105.49 274.98,-101.76"/>
</g>
<!-- Node2&#45;&gt;Node4 -->
<g id="edge7" class="edge">
<title>Node2&#45;&gt;Node4</title>
<path fill="none" stroke="midnightblue" d="M253.91,-104.07C244.62,-89.86 235.62,-69.72 247,-56 272.67,-25.04 392.48,-15.24 452.11,-12.25"/>
<polygon fill="midnightblue" stroke="midnightblue" points="251.21,-106.31 259.85,-112.44 256.91,-102.26 251.21,-106.31"/>
</g>
<!-- Node2&#45;&gt;Node6 -->
<g id="edge5" class="edge">
<title>Node2&#45;&gt;Node6</title>
<path fill="none" stroke="midnightblue" d="M233.85,-108.91C206.03,-98.75 166.98,-84.51 142.34,-75.52"/>
<polygon fill="midnightblue" stroke="midnightblue" points="232.96,-112.3 243.55,-112.44 235.35,-105.73 232.96,-112.3"/>
</g>
<!-- Node2&#45;&gt;Node7 -->
<g id="edge6" class="edge">
<title>Node2&#45;&gt;Node7</title>
<path fill="none" stroke="midnightblue" d="M317.97,-110.37C367.85,-99.97 442.68,-84.37 487.69,-74.99"/>
<polygon fill="midnightblue" stroke="midnightblue" points="317.11,-106.98 308.04,-112.44 318.54,-113.83 317.11,-106.98"/>
</g>
<!-- Node3&#45;&gt;Node4 -->
<g id="edge3" class="edge">
<title>Node3&#45;&gt;Node4</title>
<path fill="none" stroke="midnightblue" d="M340.17,-53.57C375.07,-43.38 425.35,-28.7 456.82,-19.52"/>
<polygon fill="midnightblue" stroke="midnightblue" points="338.93,-50.28 330.31,-56.44 340.89,-57 338.93,-50.28"/>
</g>
<!-- Node3&#45;&gt;Node5 -->
<g id="edge4" class="edge">
<title>Node3&#45;&gt;Node5</title>
<path fill="none" stroke="midnightblue" d="M261.41,-53.57C226.13,-43.38 175.31,-28.7 143.49,-19.52"/>
<polygon fill="midnightblue" stroke="midnightblue" points="260.79,-57.03 271.37,-56.44 262.73,-50.31 260.79,-57.03"/>
</g>
<!-- Node8&#45;&gt;Node2 -->
<g id="edge9" class="edge">
<title>Node8&#45;&gt;Node2</title>
<path fill="none" stroke="midnightblue" d="M508.83,-219.83C480.28,-206.18 433.92,-184.58 393,-168 358.77,-154.14 318.45,-140.13 292.82,-131.51"/>
<polygon fill="midnightblue" stroke="midnightblue" points="507.62,-223.13 518.15,-224.3 510.65,-216.82 507.62,-223.13"/>
</g>
<!-- Node8&#45;&gt;Node4 -->
<g id="edge23" class="edge">
<title>Node8&#45;&gt;Node4</title>
<path fill="none" stroke="midnightblue" d="M555.35,-218.08C590.76,-190.73 662.51,-135.07 664,-132 667.88,-124 667.82,-120.03 664,-112 637.19,-55.7 563.48,-29.13 519.78,-17.98"/>
<polygon fill="midnightblue" stroke="midnightblue" points="552.97,-215.49 547.2,-224.37 557.25,-221.03 552.97,-215.49"/>
</g>
<!-- Node8&#45;&gt;Node5 -->
<g id="edge25" class="edge">
<title>Node8&#45;&gt;Node5</title>
<path fill="none" stroke="midnightblue" d="M467.64,-228.55C382.92,-222.25 243.98,-209.07 197,-188 128.94,-157.48 101.73,-144.41 72,-76 62.52,-54.19 86.23,-31.47 101.76,-19.52"/>
<polygon fill="midnightblue" stroke="midnightblue" points="467.46,-232.05 477.69,-229.29 467.97,-225.07 467.46,-232.05"/>
</g>
<!-- Node8&#45;&gt;Node6 -->
<g id="edge21" class="edge">
<title>Node8&#45;&gt;Node6</title>
<path fill="none" stroke="midnightblue" d="M467.7,-227.1C412.13,-221.02 332.19,-209.31 265,-188 210.43,-170.69 189.13,-172.83 149,-132 132.97,-115.69 124.49,-89.25 120.98,-75.66"/>
<polygon fill="midnightblue" stroke="midnightblue" points="467.47,-230.6 477.78,-228.17 468.21,-223.64 467.47,-230.6"/>
</g>
<!-- Node8&#45;&gt;Node7 -->
<g id="edge22" class="edge">
<title>Node8&#45;&gt;Node7</title>
<path fill="none" stroke="midnightblue" d="M534.85,-213.93C532.68,-177.92 528.06,-101.23 526.52,-75.57"/>
<polygon fill="midnightblue" stroke="midnightblue" points="531.37,-214.3 535.46,-224.08 538.35,-213.88 531.37,-214.3"/>
</g>
<!-- Node8&#45;&gt;Node9 -->
<g id="edge10" class="edge">
<title>Node8&#45;&gt;Node9</title>
<path fill="none" stroke="midnightblue" d="M493.18,-221.83C454.09,-211.63 397.17,-196.78 361.65,-187.52"/>
<polygon fill="midnightblue" stroke="midnightblue" points="492.64,-225.31 503.2,-224.44 494.41,-218.53 492.64,-225.31"/>
</g>
<!-- Node8&#45;&gt;Node10 -->
<g id="edge26" class="edge">
<title>Node8&#45;&gt;Node10</title>
<path fill="none" stroke="midnightblue" d="M523.53,-216.27C505.8,-192.49 473.97,-149.79 460.4,-131.59"/>
<polygon fill="midnightblue" stroke="midnightblue" points="520.78,-218.44 529.57,-224.37 526.4,-214.26 520.78,-218.44"/>
</g>
<!-- Node8&#45;&gt;Node11 -->
<g id="edge17" class="edge">
<title>Node8&#45;&gt;Node11</title>
<path fill="none" stroke="midnightblue" d="M546.89,-215.64C561.88,-191.74 588.3,-149.63 599.61,-131.59"/>
<polygon fill="midnightblue" stroke="midnightblue" points="543.76,-214.04 541.41,-224.37 549.69,-217.76 543.76,-214.04"/>
</g>
<!-- Node8&#45;&gt;Node12 -->
<g id="edge24" class="edge">
<title>Node8&#45;&gt;Node12</title>
<path fill="none" stroke="midnightblue" d="M567.93,-220.77C594.41,-210.63 631.39,-196.47 654.76,-187.52"/>
<polygon fill="midnightblue" stroke="midnightblue" points="566.43,-217.6 558.34,-224.44 568.93,-224.14 566.43,-217.6"/>
</g>
<!-- Node8&#45;&gt;Node13 -->
<g id="edge27" class="edge">
<title>Node8&#45;&gt;Node13</title>
<path fill="none" stroke="midnightblue" d="M584.83,-222.28C631.32,-212.08 700.36,-196.92 743.2,-187.52"/>
<polygon fill="midnightblue" stroke="midnightblue" points="584,-218.88 574.98,-224.44 585.5,-225.72 584,-218.88"/>
</g>
<!-- Node9&#45;&gt;Node2 -->
<g id="edge11" class="edge">
<title>Node9&#45;&gt;Node2</title>
<path fill="none" stroke="midnightblue" d="M311.25,-161.54C300.19,-151.91 286.37,-139.87 277.14,-131.83"/>
<polygon fill="midnightblue" stroke="midnightblue" points="309.2,-164.4 319.04,-168.32 313.8,-159.12 309.2,-164.4"/>
</g>
<!-- Node9&#45;&gt;Node4 -->
<g id="edge14" class="edge">
<title>Node9&#45;&gt;Node4</title>
<path fill="none" stroke="midnightblue" d="M339.01,-159.25C347.08,-145.66 359.15,-126.8 372,-112 405.29,-73.67 452.77,-36.02 474.43,-19.59"/>
<polygon fill="midnightblue" stroke="midnightblue" points="335.88,-157.67 333.9,-168.08 341.94,-161.18 335.88,-157.67"/>
</g>
<!-- Node9&#45;&gt;Node5 -->
<g id="edge15" class="edge">
<title>Node9&#45;&gt;Node5</title>
<path fill="none" stroke="midnightblue" d="M275.75,-165.66C253.25,-158.82 227.93,-148.18 209,-132 179.5,-106.78 190.59,-86.03 166,-56 154.2,-41.59 137.47,-28.03 126.2,-19.64"/>
<polygon fill="midnightblue" stroke="midnightblue" points="274.95,-169.07 285.52,-168.46 276.87,-162.34 274.95,-169.07"/>
</g>
<!-- Node9&#45;&gt;Node6 -->
<g id="edge12" class="edge">
<title>Node9&#45;&gt;Node6</title>
<path fill="none" stroke="midnightblue" d="M263.92,-166.36C235.36,-159.61 202.4,-148.87 176,-132 152.47,-116.97 133.04,-89.47 124.18,-75.55"/>
<polygon fill="midnightblue" stroke="midnightblue" points="263.29,-169.8 273.81,-168.58 264.82,-162.97 263.29,-169.8"/>
</g>
<!-- Node9&#45;&gt;Node7 -->
<g id="edge13" class="edge">
<title>Node9&#45;&gt;Node7</title>
<path fill="none" stroke="midnightblue" d="M343.64,-160.56C357.27,-146.1 378.78,-125.32 401,-112 429.39,-94.98 465.23,-82.91 491.24,-75.58"/>
<polygon fill="midnightblue" stroke="midnightblue" points="340.77,-158.52 336.58,-168.25 345.92,-163.25 340.77,-158.52"/>
</g>
<!-- Node9&#45;&gt;Node10 -->
<g id="edge16" class="edge">
<title>Node9&#45;&gt;Node10</title>
<path fill="none" stroke="midnightblue" d="M358.24,-164.37C381.65,-154.26 413.84,-140.35 434.29,-131.52"/>
<polygon fill="midnightblue" stroke="midnightblue" points="356.6,-161.26 348.81,-168.44 359.37,-167.69 356.6,-161.26"/>
</g>
<!-- Node11&#45;&gt;Node3 -->
<g id="edge18" class="edge">
<title>Node11&#45;&gt;Node3</title>
<path fill="none" stroke="midnightblue" d="M546.66,-110.64C488.31,-100.27 399.79,-84.55 346.46,-75.08"/>
<polygon fill="midnightblue" stroke="midnightblue" points="546.37,-114.14 556.83,-112.44 547.6,-107.25 546.37,-114.14"/>
</g>
<!-- Node11&#45;&gt;Node4 -->
<g id="edge20" class="edge">
<title>Node11&#45;&gt;Node4</title>
<path fill="none" stroke="midnightblue" d="M599.54,-102.76C594.53,-88.58 585.91,-69.17 573,-56 556.1,-38.76 531.18,-26.8 512.34,-19.57"/>
<polygon fill="midnightblue" stroke="midnightblue" points="596.25,-103.96 602.67,-112.39 602.91,-101.8 596.25,-103.96"/>
</g>
<!-- Node11&#45;&gt;Node7 -->
<g id="edge19" class="edge">
<title>Node11&#45;&gt;Node7</title>
<path fill="none" stroke="midnightblue" d="M583.97,-106.62C569.53,-96.76 550.86,-83.99 538.66,-75.65"/>
<polygon fill="midnightblue" stroke="midnightblue" points="582.08,-109.57 592.31,-112.32 586.03,-103.79 582.08,-109.57"/>
</g>
</g>
</svg>
