<?xml version="1.0" encoding="UTF-8" standalone="no"?>
<!DOCTYPE svg PUBLIC "-//W3C//DTD SVG 1.1//EN"
 "http://www.w3.org/Graphics/SVG/1.1/DTD/svg11.dtd">
<!-- Generated by graphviz version 2.43.0 (0)
 -->
<!-- Title: init_bitmaps Pages: 1 -->
<svg width="382pt" height="180pt"
 viewBox="0.00 0.00 382.00 180.00" xmlns="http://www.w3.org/2000/svg" xmlns:xlink="http://www.w3.org/1999/xlink">
<g id="graph0" class="graph" transform="scale(1 1) rotate(0) translate(4 176)">
<title>init_bitmaps</title>
<polygon fill="white" stroke="transparent" points="-4,4 -4,-176 378,-176 378,4 -4,4"/>
<!-- Node1 -->
<g id="node1" class="node">
<title>Node1</title>
<g id="a_node1"><a xlink:title=" ">
<polygon fill="#bfbfbf" stroke="black" points="0,-76.5 0,-95.5 77,-95.5 77,-76.5 0,-76.5"/>
<text text-anchor="middle" x="38.5" y="-83.5" font-family="Helvetica,sans-Serif" font-size="10.00">init_bitmaps</text>
</a>
</g>
</g>
<!-- Node2 -->
<g id="node2" class="node">
<title>Node2</title>
<g id="a_node2"><a xlink:href="main_8c.html#a7cb642cbefeb5eca23c4a56384ce8b6b" target="_top" xlink:title=" ">
<polygon fill="white" stroke="black" points="138.5,-152.5 138.5,-171.5 191.5,-171.5 191.5,-152.5 138.5,-152.5"/>
<text text-anchor="middle" x="165" y="-159.5" font-family="Helvetica,sans-Serif" font-size="10.00">init_car</text>
</a>
</g>
</g>
<!-- Node1&#45;&gt;Node2 -->
<g id="edge1" class="edge">
<title>Node1&#45;&gt;Node2</title>
<path fill="none" stroke="midnightblue" d="M49.74,-95.59C63.32,-107.91 88.45,-129.33 113,-143 117.95,-145.76 123.39,-148.27 128.8,-150.49"/>
<polygon fill="midnightblue" stroke="midnightblue" points="127.83,-153.87 138.42,-154.18 130.34,-147.33 127.83,-153.87"/>
</g>
<!-- Node3 -->
<g id="node3" class="node">
<title>Node3</title>
<g id="a_node3"><a xlink:href="main_8c.html#a123ba10a236b41c94b5da809a6db6528" target="_top" xlink:title=" ">
<polygon fill="white" stroke="black" points="113,-114.5 113,-133.5 217,-133.5 217,-114.5 113,-114.5"/>
<text text-anchor="middle" x="165" y="-121.5" font-family="Helvetica,sans-Serif" font-size="10.00">init_control_panel</text>
</a>
</g>
</g>
<!-- Node1&#45;&gt;Node3 -->
<g id="edge2" class="edge">
<title>Node1&#45;&gt;Node3</title>
<path fill="none" stroke="midnightblue" d="M70.92,-95.59C86.69,-100.4 106.01,-106.3 122.94,-111.47"/>
<polygon fill="midnightblue" stroke="midnightblue" points="122.01,-114.84 132.59,-114.41 124.05,-108.15 122.01,-114.84"/>
</g>
<!-- Node4 -->
<g id="node4" class="node">
<title>Node4</title>
<g id="a_node4"><a xlink:href="main_8c.html#a8a4df149a98808357f97ece821bc653a" target="_top" xlink:title=" ">
<polygon fill="white" stroke="black" points="120.5,-76.5 120.5,-95.5 209.5,-95.5 209.5,-76.5 120.5,-76.5"/>
<text text-anchor="middle" x="165" y="-83.5" font-family="Helvetica,sans-Serif" font-size="10.00">init_perception</text>
</a>
</g>
</g>
<!-- Node1&#45;&gt;Node4 -->
<g id="edge3" class="edge">
<title>Node1&#45;&gt;Node4</title>
<path fill="none" stroke="midnightblue" d="M77.19,-86C87.6,-86 99.11,-86 110.24,-86"/>
<polygon fill="midnightblue" stroke="midnightblue" points="110.32,-89.5 120.32,-86 110.32,-82.5 110.32,-89.5"/>
</g>
<!-- Node5 -->
<g id="node5" class="node">
<title>Node5</title>
<g id="a_node5"><a xlink:href="main_8c.html#a7f21658ab78ff07401a1c66eba62c0dd" target="_top" xlink:title=" ">
<polygon fill="white" stroke="black" points="134,-38.5 134,-57.5 196,-57.5 196,-38.5 134,-38.5"/>
<text text-anchor="middle" x="165" y="-45.5" font-family="Helvetica,sans-Serif" font-size="10.00">init_track</text>
</a>
</g>
</g>
<!-- Node1&#45;&gt;Node5 -->
<g id="edge4" class="edge">
<title>Node1&#45;&gt;Node5</title>
<path fill="none" stroke="midnightblue" d="M70.92,-76.41C87.05,-71.49 106.89,-65.43 124.1,-60.18"/>
<polygon fill="midnightblue" stroke="midnightblue" points="125.34,-63.46 133.88,-57.19 123.3,-56.76 125.34,-63.46"/>
</g>
<!-- Node8 -->
<g id="node8" class="node">
<title>Node8</title>
<g id="a_node8"><a xlink:href="main_8c.html#af157d4a7f2f1670050ead305cbe70248" target="_top" xlink:title=" ">
<polygon fill="white" stroke="black" points="122.5,-0.5 122.5,-19.5 207.5,-19.5 207.5,-0.5 122.5,-0.5"/>
<text text-anchor="middle" x="165" y="-7.5" font-family="Helvetica,sans-Serif" font-size="10.00">init_trajectory</text>
</a>
</g>
</g>
<!-- Node1&#45;&gt;Node8 -->
<g id="edge7" class="edge">
<title>Node1&#45;&gt;Node8</title>
<path fill="none" stroke="midnightblue" d="M49.74,-76.41C63.32,-64.09 88.45,-42.67 113,-29 116.52,-27.04 120.28,-25.2 124.11,-23.51"/>
<polygon fill="midnightblue" stroke="midnightblue" points="125.74,-26.62 133.66,-19.58 123.08,-20.15 125.74,-26.62"/>
</g>
<!-- Node6 -->
<g id="node6" class="node">
<title>Node6</title>
<g id="a_node6"><a xlink:href="utilities_8h.html#a5297509bfed850c9f8cb92b994b7fd75" target="_top" xlink:title="Initializes an array of cone structures.">
<polygon fill="white" stroke="black" points="280.5,-57.5 280.5,-76.5 346.5,-76.5 346.5,-57.5 280.5,-57.5"/>
<text text-anchor="middle" x="313.5" y="-64.5" font-family="Helvetica,sans-Serif" font-size="10.00">init_cones</text>
</a>
</g>
</g>
<!-- Node5&#45;&gt;Node6 -->
<g id="edge5" class="edge">
<title>Node5&#45;&gt;Node6</title>
<path fill="none" stroke="midnightblue" d="M196.35,-51.94C217.75,-54.71 246.67,-58.46 270.31,-61.53"/>
<polygon fill="midnightblue" stroke="midnightblue" points="270.04,-65.02 280.41,-62.84 270.94,-58.08 270.04,-65.02"/>
</g>
<!-- Node7 -->
<g id="node7" class="node">
<title>Node7</title>
<g id="a_node7"><a xlink:href="utilities_8h.html#a77d50bbb4a4844ce7ddab4a7b3d52d24" target="_top" xlink:title=" ">
<polygon fill="white" stroke="black" points="253,-19.5 253,-38.5 374,-38.5 374,-19.5 253,-19.5"/>
<text text-anchor="middle" x="313.5" y="-26.5" font-family="Helvetica,sans-Serif" font-size="10.00">load_cones_positions</text>
</a>
</g>
</g>
<!-- Node5&#45;&gt;Node7 -->
<g id="edge6" class="edge">
<title>Node5&#45;&gt;Node7</title>
<path fill="none" stroke="midnightblue" d="M196.35,-44.06C209.89,-42.31 226.44,-40.16 242.76,-38.05"/>
<polygon fill="midnightblue" stroke="midnightblue" points="243.39,-41.49 252.86,-36.74 242.49,-34.55 243.39,-41.49"/>
</g>
</g>
</svg>
