<?xml version="1.0" encoding="UTF-8" standalone="no"?>
<!DOCTYPE svg PUBLIC "-//W3C//DTD SVG 1.1//EN"
 "http://www.w3.org/Graphics/SVG/1.1/DTD/svg11.dtd">
<!-- Generated by graphviz version 2.43.0 (0)
 -->
<!-- Title: main Pages: 1 -->
<svg width="669pt" height="598pt"
 viewBox="0.00 0.00 669.00 598.00" xmlns="http://www.w3.org/2000/svg" xmlns:xlink="http://www.w3.org/1999/xlink">
<g id="graph0" class="graph" transform="scale(1 1) rotate(0) translate(4 594)">
<title>main</title>
<polygon fill="white" stroke="transparent" points="-4,4 -4,-594 665,-594 665,4 -4,4"/>
<!-- Node1 -->
<g id="node1" class="node">
<title>Node1</title>
<g id="a_node1"><a xlink:title=" ">
<polygon fill="#bfbfbf" stroke="black" points="0,-247.5 0,-266.5 41,-266.5 41,-247.5 0,-247.5"/>
<text text-anchor="middle" x="20.5" y="-254.5" font-family="Helvetica,sans-Serif" font-size="10.00">main</text>
</a>
</g>
</g>
<!-- Node2 -->
<g id="node2" class="node">
<title>Node2</title>
<g id="a_node2"><a xlink:href="tasks_8h.html#a91e3918bad881fbf7304d534268de11d" target="_top" xlink:title=" ">
<polygon fill="white" stroke="black" points="91.5,-437.5 91.5,-456.5 168.5,-456.5 168.5,-437.5 91.5,-437.5"/>
<text text-anchor="middle" x="130" y="-444.5" font-family="Helvetica,sans-Serif" font-size="10.00">control_task</text>
</a>
</g>
</g>
<!-- Node1&#45;&gt;Node2 -->
<g id="edge1" class="edge">
<title>Node1&#45;&gt;Node2</title>
<path fill="none" stroke="midnightblue" d="M21.8,-266.6C23.23,-295.17 31.29,-380.59 77,-428 78.63,-429.69 80.41,-431.22 82.32,-432.63"/>
<polygon fill="midnightblue" stroke="midnightblue" points="80.88,-435.85 91.27,-437.94 84.46,-429.83 80.88,-435.85"/>
</g>
<!-- Node10 -->
<g id="node10" class="node">
<title>Node10</title>
<g id="a_node10"><a xlink:href="tasks_8h.html#a16cbac3bef85b555e76fe999965c1b7e" target="_top" xlink:title=" ">
<polygon fill="white" stroke="black" points="91,-323.5 91,-342.5 169,-342.5 169,-323.5 91,-323.5"/>
<text text-anchor="middle" x="130" y="-330.5" font-family="Helvetica,sans-Serif" font-size="10.00">display_task</text>
</a>
</g>
</g>
<!-- Node1&#45;&gt;Node10 -->
<g id="edge10" class="edge">
<title>Node1&#45;&gt;Node10</title>
<path fill="none" stroke="midnightblue" d="M28.73,-266.78C38.44,-279.3 56.83,-300.94 77,-314 80.09,-316 83.41,-317.82 86.83,-319.48"/>
<polygon fill="midnightblue" stroke="midnightblue" points="85.46,-322.7 96.03,-323.49 88.26,-316.29 85.46,-322.7"/>
</g>
<!-- Node11 -->
<g id="node11" class="node">
<title>Node11</title>
<g id="a_node11"><a xlink:href="display_8h.html#aa2eb9ba074b23fc3b4a91c98e0c83c8b" target="_top" xlink:title="Updates the display.">
<polygon fill="white" stroke="black" points="237,-190.5 237,-209.5 328,-209.5 328,-190.5 237,-190.5"/>
<text text-anchor="middle" x="282.5" y="-197.5" font-family="Helvetica,sans-Serif" font-size="10.00">update_display</text>
</a>
</g>
</g>
<!-- Node1&#45;&gt;Node11 -->
<g id="edge62" class="edge">
<title>Node1&#45;&gt;Node11</title>
<path fill="none" stroke="midnightblue" d="M41.12,-256.99C72,-256.47 133.53,-253.38 183,-238 200.28,-232.63 202.27,-225.88 219,-219 224.44,-216.76 230.25,-214.65 236.04,-212.7"/>
<polygon fill="midnightblue" stroke="midnightblue" points="237.27,-215.99 245.72,-209.6 235.13,-209.32 237.27,-215.99"/>
</g>
<!-- Node25 -->
<g id="node25" class="node">
<title>Node25</title>
<g id="a_node25"><a xlink:href="main_8c.html#a56e75a6913a3cb4da05b9f7d02116e7a" target="_top" xlink:title=" ">
<polygon fill="white" stroke="black" points="94.5,-209.5 94.5,-228.5 165.5,-228.5 165.5,-209.5 94.5,-209.5"/>
<text text-anchor="middle" x="130" y="-216.5" font-family="Helvetica,sans-Serif" font-size="10.00">init_allegro</text>
</a>
</g>
</g>
<!-- Node1&#45;&gt;Node25 -->
<g id="edge30" class="edge">
<title>Node1&#45;&gt;Node25</title>
<path fill="none" stroke="midnightblue" d="M41.22,-250.03C55.51,-244.98 75.25,-238 92.39,-231.94"/>
<polygon fill="midnightblue" stroke="midnightblue" points="93.86,-235.13 102.12,-228.5 91.53,-228.53 93.86,-235.13"/>
</g>
<!-- Node26 -->
<g id="node26" class="node">
<title>Node26</title>
<g id="a_node26"><a xlink:href="main_8c.html#a6ba20fd6daf4d6ab1e47675b3c1f1ca6" target="_top" xlink:title=" ">
<polygon fill="white" stroke="black" points="91.5,-152.5 91.5,-171.5 168.5,-171.5 168.5,-152.5 91.5,-152.5"/>
<text text-anchor="middle" x="130" y="-159.5" font-family="Helvetica,sans-Serif" font-size="10.00">init_bitmaps</text>
</a>
</g>
</g>
<!-- Node1&#45;&gt;Node26 -->
<g id="edge31" class="edge">
<title>Node1&#45;&gt;Node26</title>
<path fill="none" stroke="midnightblue" d="M30.08,-247.24C40.61,-235.48 59.27,-215.39 77,-200 86.09,-192.11 96.72,-184.14 106,-177.55"/>
<polygon fill="midnightblue" stroke="midnightblue" points="108.18,-180.3 114.38,-171.7 104.18,-174.55 108.18,-180.3"/>
</g>
<!-- Node34 -->
<g id="node34" class="node">
<title>Node34</title>
<g id="a_node34"><a xlink:href="tasks_8h.html#a746b11c2b14e499dab89746ee003716d" target="_top" xlink:title="Perception task.">
<polygon fill="white" stroke="black" points="82.5,-285.5 82.5,-304.5 177.5,-304.5 177.5,-285.5 82.5,-285.5"/>
<text text-anchor="middle" x="130" y="-292.5" font-family="Helvetica,sans-Serif" font-size="10.00">perception_task</text>
</a>
</g>
</g>
<!-- Node1&#45;&gt;Node34 -->
<g id="edge39" class="edge">
<title>Node1&#45;&gt;Node34</title>
<path fill="none" stroke="midnightblue" d="M41.22,-263.97C55.51,-269.02 75.25,-276 92.39,-282.06"/>
<polygon fill="midnightblue" stroke="midnightblue" points="91.53,-285.47 102.12,-285.5 93.86,-278.87 91.53,-285.47"/>
</g>
<!-- Node39 -->
<g id="node39" class="node">
<title>Node39</title>
<g id="a_node39"><a xlink:href="ptask_8h.html#a16dc5b4ee9790f380821701ff6865e90" target="_top" xlink:title=" ">
<polygon fill="white" stroke="black" points="97.5,-114.5 97.5,-133.5 162.5,-133.5 162.5,-114.5 97.5,-114.5"/>
<text text-anchor="middle" x="130" y="-121.5" font-family="Helvetica,sans-Serif" font-size="10.00">ptask_init</text>
</a>
</g>
</g>
<!-- Node1&#45;&gt;Node39 -->
<g id="edge48" class="edge">
<title>Node1&#45;&gt;Node39</title>
<path fill="none" stroke="midnightblue" d="M23.61,-247.25C28.82,-225.48 44.31,-172.49 77,-143 80.34,-139.99 84.2,-137.44 88.28,-135.29"/>
<polygon fill="midnightblue" stroke="midnightblue" points="89.73,-138.47 97.43,-131.19 86.87,-132.08 89.73,-138.47"/>
</g>
<!-- Node40 -->
<g id="node40" class="node">
<title>Node40</title>
<g id="a_node40"><a xlink:href="tasks_8h.html#a0fc6c027e96e920540028bd808a43c5f" target="_top" xlink:title=" ">
<polygon fill="white" stroke="black" points="89,-361.5 89,-380.5 171,-380.5 171,-361.5 89,-361.5"/>
<text text-anchor="middle" x="130" y="-368.5" font-family="Helvetica,sans-Serif" font-size="10.00">settings_task</text>
</a>
</g>
</g>
<!-- Node1&#45;&gt;Node40 -->
<g id="edge49" class="edge">
<title>Node1&#45;&gt;Node40</title>
<path fill="none" stroke="midnightblue" d="M24.58,-266.54C31.18,-285.5 48.42,-328.11 77,-352 79,-353.67 81.16,-355.2 83.42,-356.6"/>
<polygon fill="midnightblue" stroke="midnightblue" points="82.07,-359.84 92.55,-361.39 85.32,-353.64 82.07,-359.84"/>
</g>
<!-- Node42 -->
<g id="node42" class="node">
<title>Node42</title>
<g id="a_node42"><a xlink:href="ptask_8h.html#a88099c7c946b1d8c34a3717e5d3b8b83" target="_top" xlink:title=" ">
<polygon fill="white" stroke="black" points="93,-76.5 93,-95.5 167,-95.5 167,-76.5 93,-76.5"/>
<text text-anchor="middle" x="130" y="-83.5" font-family="Helvetica,sans-Serif" font-size="10.00">task_create</text>
</a>
</g>
</g>
<!-- Node1&#45;&gt;Node42 -->
<g id="edge55" class="edge">
<title>Node1&#45;&gt;Node42</title>
<path fill="none" stroke="midnightblue" d="M22.26,-247.33C24.87,-220.84 35.69,-146.32 77,-105 79.1,-102.9 81.46,-101.03 83.97,-99.36"/>
<polygon fill="midnightblue" stroke="midnightblue" points="85.89,-102.3 93,-94.45 82.54,-96.15 85.89,-102.3"/>
</g>
<!-- Node43 -->
<g id="node43" class="node">
<title>Node43</title>
<g id="a_node43"><a xlink:href="tasks_8h.html#ad095128da13e00a037e732dd25ffcbf6" target="_top" xlink:title=" ">
<polygon fill="white" stroke="black" points="85,-399.5 85,-418.5 175,-418.5 175,-399.5 85,-399.5"/>
<text text-anchor="middle" x="130" y="-406.5" font-family="Helvetica,sans-Serif" font-size="10.00">trajectory_task</text>
</a>
</g>
</g>
<!-- Node1&#45;&gt;Node43 -->
<g id="edge56" class="edge">
<title>Node1&#45;&gt;Node43</title>
<path fill="none" stroke="midnightblue" d="M22.82,-266.51C26.64,-290.59 39.92,-354.56 77,-390 78.64,-391.56 80.41,-393 82.29,-394.32"/>
<polygon fill="midnightblue" stroke="midnightblue" points="80.62,-397.4 91.03,-399.4 84.14,-391.35 80.62,-397.4"/>
</g>
<!-- Node45 -->
<g id="node45" class="node">
<title>Node45</title>
<g id="a_node45"><a xlink:href="ptask_8h.html#a9142a39d7c9be6b98ce01f0c7541d8f7" target="_top" xlink:title=" ">
<polygon fill="white" stroke="black" points="77,-38.5 77,-57.5 183,-57.5 183,-38.5 77,-38.5"/>
<text text-anchor="middle" x="130" y="-45.5" font-family="Helvetica,sans-Serif" font-size="10.00">wait_for_task_end</text>
</a>
</g>
</g>
<!-- Node1&#45;&gt;Node45 -->
<g id="edge63" class="edge">
<title>Node1&#45;&gt;Node45</title>
<path fill="none" stroke="midnightblue" d="M21.44,-247.24C21.78,-216.49 26.98,-120.44 77,-67 78.35,-65.55 79.83,-64.22 81.39,-62.98"/>
<polygon fill="midnightblue" stroke="midnightblue" points="83.29,-65.92 89.85,-57.61 79.53,-60.02 83.29,-65.92"/>
</g>
<!-- Node3 -->
<g id="node3" class="node">
<title>Node3</title>
<g id="a_node3"><a xlink:href="control_8h.html#ae3c1be6c75e99edd3ab89b0d2f6c4b0d" target="_top" xlink:title="Autonomous control routine using centerline waypoints.">
<polygon fill="white" stroke="black" points="224.5,-570.5 224.5,-589.5 340.5,-589.5 340.5,-570.5 224.5,-570.5"/>
<text text-anchor="middle" x="282.5" y="-577.5" font-family="Helvetica,sans-Serif" font-size="10.00">autonomous_control</text>
</a>
</g>
</g>
<!-- Node2&#45;&gt;Node3 -->
<g id="edge2" class="edge">
<title>Node2&#45;&gt;Node3</title>
<path fill="none" stroke="midnightblue" d="M135.71,-456.57C146.98,-478.45 177.64,-532.45 219,-561 221.89,-562.99 224.99,-564.78 228.21,-566.39"/>
<polygon fill="midnightblue" stroke="midnightblue" points="226.97,-569.66 237.54,-570.44 229.76,-563.24 226.97,-569.66"/>
</g>
<!-- Node5 -->
<g id="node5" class="node">
<title>Node5</title>
<g id="a_node5"><a xlink:href="ptask_8h.html#a55744cf37a298cca48b46a38ecd1cbd7" target="_top" xlink:title=" ">
<polygon fill="white" stroke="black" points="237,-304.5 237,-323.5 328,-323.5 328,-304.5 237,-304.5"/>
<text text-anchor="middle" x="282.5" y="-311.5" font-family="Helvetica,sans-Serif" font-size="10.00">get_task_index</text>
</a>
</g>
</g>
<!-- Node2&#45;&gt;Node5 -->
<g id="edge4" class="edge">
<title>Node2&#45;&gt;Node5</title>
<path fill="none" stroke="midnightblue" d="M168.56,-437.77C173.86,-435.25 178.9,-432.05 183,-428 215.12,-396.26 186.02,-363.84 219,-333 221.61,-330.56 224.51,-328.44 227.61,-326.59"/>
<polygon fill="midnightblue" stroke="midnightblue" points="229.35,-329.63 236.75,-322.05 226.24,-323.36 229.35,-329.63"/>
</g>
<!-- Node6 -->
<g id="node6" class="node">
<title>Node6</title>
<g id="a_node6"><a xlink:href="control_8h.html#aa7d41004f6e6355c5dd871a9a8c8a59d" target="_top" xlink:title="Adjusts vehicle controls based on keyboard input.">
<polygon fill="white" stroke="black" points="232,-532.5 232,-551.5 333,-551.5 333,-532.5 232,-532.5"/>
<text text-anchor="middle" x="282.5" y="-539.5" font-family="Helvetica,sans-Serif" font-size="10.00">keyboard_control</text>
</a>
</g>
</g>
<!-- Node2&#45;&gt;Node6 -->
<g id="edge5" class="edge">
<title>Node2&#45;&gt;Node6</title>
<path fill="none" stroke="midnightblue" d="M139.53,-456.62C154.22,-472.62 185.94,-504.78 219,-523 222.96,-525.18 227.21,-527.15 231.55,-528.91"/>
<polygon fill="midnightblue" stroke="midnightblue" points="230.55,-532.27 241.14,-532.44 232.97,-525.7 230.55,-532.27"/>
</g>
<!-- Node7 -->
<g id="node7" class="node">
<title>Node7</title>
<g id="a_node7"><a xlink:href="utilities_8h.html#a28b6717d007598c8d776ee5b8652be51" target="_top" xlink:title=" ">
<polygon fill="white" stroke="black" points="255,-456.5 255,-475.5 310,-475.5 310,-456.5 255,-456.5"/>
<text text-anchor="middle" x="282.5" y="-463.5" font-family="Helvetica,sans-Serif" font-size="10.00">runtime</text>
</a>
</g>
</g>
<!-- Node2&#45;&gt;Node7 -->
<g id="edge7" class="edge">
<title>Node2&#45;&gt;Node7</title>
<path fill="none" stroke="midnightblue" d="M168.59,-451.75C191.84,-454.68 221.56,-458.43 244.67,-461.35"/>
<polygon fill="midnightblue" stroke="midnightblue" points="244.42,-464.85 254.78,-462.63 245.3,-457.9 244.42,-464.85"/>
</g>
<!-- Node8 -->
<g id="node8" class="node">
<title>Node8</title>
<g id="a_node8"><a xlink:href="ptask_8h.html#ac5a989242ff00476f314f92395f23252" target="_top" xlink:title=" ">
<polygon fill="white" stroke="black" points="227.5,-418.5 227.5,-437.5 337.5,-437.5 337.5,-418.5 227.5,-418.5"/>
<text text-anchor="middle" x="282.5" y="-425.5" font-family="Helvetica,sans-Serif" font-size="10.00">wait_for_activation</text>
</a>
</g>
</g>
<!-- Node2&#45;&gt;Node8 -->
<g id="edge8" class="edge">
<title>Node2&#45;&gt;Node8</title>
<path fill="none" stroke="midnightblue" d="M168.59,-442.25C183.3,-440.4 200.59,-438.21 217.17,-436.12"/>
<polygon fill="midnightblue" stroke="midnightblue" points="217.88,-439.56 227.36,-434.83 217,-432.61 217.88,-439.56"/>
</g>
<!-- Node9 -->
<g id="node9" class="node">
<title>Node9</title>
<g id="a_node9"><a xlink:href="ptask_8h.html#afd8a4ae978d1068cb18f8e5fc03a1f0c" target="_top" xlink:title=" ">
<polygon fill="white" stroke="black" points="236.5,-380.5 236.5,-399.5 328.5,-399.5 328.5,-380.5 236.5,-380.5"/>
<text text-anchor="middle" x="282.5" y="-387.5" font-family="Helvetica,sans-Serif" font-size="10.00">wait_for_period</text>
</a>
</g>
</g>
<!-- Node2&#45;&gt;Node9 -->
<g id="edge9" class="edge">
<title>Node2&#45;&gt;Node9</title>
<path fill="none" stroke="midnightblue" d="M159.34,-437.43C167.1,-434.6 175.45,-431.36 183,-428 199.53,-420.66 202.27,-415.88 219,-409 224.44,-406.76 230.25,-404.65 236.04,-402.7"/>
<polygon fill="midnightblue" stroke="midnightblue" points="237.27,-405.99 245.72,-399.6 235.13,-399.32 237.27,-405.99"/>
</g>
<!-- Node4 -->
<g id="node4" class="node">
<title>Node4</title>
<g id="a_node4"><a xlink:href="group__VehicleModule.html#ga4a1f78c4260229ebd2850350d181cc86" target="_top" xlink:title="Simulates the vehicle&#39;s movement by updating its position and orientation.">
<polygon fill="white" stroke="black" points="398.5,-551.5 398.5,-570.5 486.5,-570.5 486.5,-551.5 398.5,-551.5"/>
<text text-anchor="middle" x="442.5" y="-558.5" font-family="Helvetica,sans-Serif" font-size="10.00">vehicle_model</text>
</a>
</g>
</g>
<!-- Node3&#45;&gt;Node4 -->
<g id="edge3" class="edge">
<title>Node3&#45;&gt;Node4</title>
<path fill="none" stroke="midnightblue" d="M340.54,-573.14C356.05,-571.28 372.79,-569.26 388.1,-567.42"/>
<polygon fill="midnightblue" stroke="midnightblue" points="388.92,-570.85 398.43,-566.18 388.08,-563.9 388.92,-570.85"/>
</g>
<!-- Node6&#45;&gt;Node4 -->
<g id="edge6" class="edge">
<title>Node6&#45;&gt;Node4</title>
<path fill="none" stroke="midnightblue" d="M333.06,-547.96C350.53,-550.06 370.25,-552.43 388.04,-554.57"/>
<polygon fill="midnightblue" stroke="midnightblue" points="387.91,-558.08 398.25,-555.8 388.74,-551.13 387.91,-558.08"/>
</g>
<!-- Node10&#45;&gt;Node5 -->
<g id="edge11" class="edge">
<title>Node10&#45;&gt;Node5</title>
<path fill="none" stroke="midnightblue" d="M169.37,-328.16C186.79,-325.96 207.71,-323.32 226.75,-320.91"/>
<polygon fill="midnightblue" stroke="midnightblue" points="227.31,-324.37 236.79,-319.64 226.43,-317.42 227.31,-324.37"/>
</g>
<!-- Node10&#45;&gt;Node7 -->
<g id="edge12" class="edge">
<title>Node10&#45;&gt;Node7</title>
<path fill="none" stroke="midnightblue" d="M169.09,-342.48C174.2,-344.96 179.03,-348.08 183,-352 215.12,-383.74 186.02,-416.16 219,-447 226.12,-453.66 235.5,-457.98 244.82,-460.8"/>
<polygon fill="midnightblue" stroke="midnightblue" points="244.25,-464.26 254.8,-463.29 245.95,-457.47 244.25,-464.26"/>
</g>
<!-- Node10&#45;&gt;Node8 -->
<g id="edge28" class="edge">
<title>Node10&#45;&gt;Node8</title>
<path fill="none" stroke="midnightblue" d="M166.8,-342.51C172.57,-345.02 178.21,-348.14 183,-352 206.32,-370.81 195.17,-390.84 219,-409 221.45,-410.86 224.08,-412.55 226.82,-414.07"/>
<polygon fill="midnightblue" stroke="midnightblue" points="225.38,-417.25 235.91,-418.38 228.38,-410.93 225.38,-417.25"/>
</g>
<!-- Node10&#45;&gt;Node9 -->
<g id="edge29" class="edge">
<title>Node10&#45;&gt;Node9</title>
<path fill="none" stroke="midnightblue" d="M159.34,-342.57C167.1,-345.4 175.45,-348.64 183,-352 199.53,-359.34 202.27,-364.12 219,-371 224.44,-373.24 230.25,-375.35 236.04,-377.3"/>
<polygon fill="midnightblue" stroke="midnightblue" points="235.13,-380.68 245.72,-380.4 237.27,-374.01 235.13,-380.68"/>
</g>
<!-- Node10&#45;&gt;Node11 -->
<g id="edge13" class="edge">
<title>Node10&#45;&gt;Node11</title>
<path fill="none" stroke="midnightblue" d="M169.09,-323.52C174.2,-321.04 179.03,-317.92 183,-314 215.12,-282.26 186.02,-249.84 219,-219 221.61,-216.56 224.51,-214.44 227.61,-212.59"/>
<polygon fill="midnightblue" stroke="midnightblue" points="229.35,-215.63 236.75,-208.05 226.24,-209.36 229.35,-215.63"/>
</g>
<!-- Node12 -->
<g id="node12" class="node">
<title>Node12</title>
<g id="a_node12"><a xlink:href="group__VehicleModule.html#gaafbbdba8ad9bfb6108f0238653806062" target="_top" xlink:title=" ">
<polygon fill="white" stroke="black" points="394.5,-247.5 394.5,-266.5 490.5,-266.5 490.5,-247.5 394.5,-247.5"/>
<text text-anchor="middle" x="442.5" y="-254.5" font-family="Helvetica,sans-Serif" font-size="10.00">check_collisions</text>
</a>
</g>
</g>
<!-- Node11&#45;&gt;Node12 -->
<g id="edge14" class="edge">
<title>Node11&#45;&gt;Node12</title>
<path fill="none" stroke="midnightblue" d="M319.28,-209.6C328.13,-212.32 337.5,-215.5 346,-219 362.73,-225.88 365.32,-231 382,-238 387.19,-240.18 392.71,-242.25 398.23,-244.18"/>
<polygon fill="midnightblue" stroke="midnightblue" points="397.48,-247.62 408.08,-247.47 399.7,-240.98 397.48,-247.62"/>
</g>
<!-- Node13 -->
<g id="node13" class="node">
<title>Node13</title>
<g id="a_node13"><a xlink:href="display_8c.html#a01a4e859fcc5ddef923afe9a8a674826" target="_top" xlink:title="Renders the car sprite rotated to its current angle.">
<polygon fill="white" stroke="black" points="412,-171.5 412,-190.5 473,-190.5 473,-171.5 412,-171.5"/>
<text text-anchor="middle" x="442.5" y="-178.5" font-family="Helvetica,sans-Serif" font-size="10.00">draw_car</text>
</a>
</g>
</g>
<!-- Node11&#45;&gt;Node13 -->
<g id="edge15" class="edge">
<title>Node11&#45;&gt;Node13</title>
<path fill="none" stroke="midnightblue" d="M328.35,-194.61C351.35,-191.84 379.13,-188.5 401.41,-185.82"/>
<polygon fill="midnightblue" stroke="midnightblue" points="402.03,-189.27 411.54,-184.6 401.19,-182.32 402.03,-189.27"/>
</g>
<!-- Node16 -->
<g id="node16" class="node">
<title>Node16</title>
<g id="a_node16"><a xlink:href="display_8c.html#a385702fb79f2c451da015c3147f80515" target="_top" xlink:title="Draws user control indicators.">
<polygon fill="white" stroke="black" points="400,-209.5 400,-228.5 485,-228.5 485,-209.5 400,-209.5"/>
<text text-anchor="middle" x="442.5" y="-216.5" font-family="Helvetica,sans-Serif" font-size="10.00">draw_controls</text>
</a>
</g>
</g>
<!-- Node11&#45;&gt;Node16 -->
<g id="edge18" class="edge">
<title>Node11&#45;&gt;Node16</title>
<path fill="none" stroke="midnightblue" d="M328.35,-205.39C347.47,-207.69 369.88,-210.39 389.69,-212.77"/>
<polygon fill="midnightblue" stroke="midnightblue" points="389.44,-216.26 399.79,-213.98 390.28,-209.31 389.44,-216.26"/>
</g>
<!-- Node19 -->
<g id="node19" class="node">
<title>Node19</title>
<g id="a_node19"><a xlink:href="display_8c.html#acd5437d29ba24cfc00dbd2f9f6b0cd28" target="_top" xlink:title="Renders the complete perception layer.">
<polygon fill="white" stroke="black" points="393.5,-133.5 393.5,-152.5 491.5,-152.5 491.5,-133.5 393.5,-133.5"/>
<text text-anchor="middle" x="442.5" y="-140.5" font-family="Helvetica,sans-Serif" font-size="10.00">draw_perception</text>
</a>
</g>
</g>
<!-- Node11&#45;&gt;Node19 -->
<g id="edge22" class="edge">
<title>Node11&#45;&gt;Node19</title>
<path fill="none" stroke="midnightblue" d="M319.28,-190.4C328.13,-187.68 337.5,-184.5 346,-181 362.73,-174.12 365.32,-169 382,-162 387.19,-159.82 392.71,-157.75 398.23,-155.82"/>
<polygon fill="midnightblue" stroke="midnightblue" points="399.7,-159.02 408.08,-152.53 397.48,-152.38 399.7,-159.02"/>
</g>
<!-- Node23 -->
<g id="node23" class="node">
<title>Node23</title>
<g id="a_node23"><a xlink:href="display_8c.html#a92e08b949df5d8a8e5edec1dd86bc360" target="_top" xlink:title="Draws the track.">
<polygon fill="white" stroke="black" points="407,-95.5 407,-114.5 478,-114.5 478,-95.5 407,-95.5"/>
<text text-anchor="middle" x="442.5" y="-102.5" font-family="Helvetica,sans-Serif" font-size="10.00">draw_track</text>
</a>
</g>
</g>
<!-- Node11&#45;&gt;Node23 -->
<g id="edge26" class="edge">
<title>Node11&#45;&gt;Node23</title>
<path fill="none" stroke="midnightblue" d="M328.12,-190.77C334.49,-188.25 340.68,-185.06 346,-181 369.83,-162.84 358.3,-142.33 382,-124 386.5,-120.52 391.66,-117.66 397.02,-115.33"/>
<polygon fill="midnightblue" stroke="midnightblue" points="398.64,-118.46 406.77,-111.66 396.18,-111.9 398.64,-118.46"/>
</g>
<!-- Node24 -->
<g id="node24" class="node">
<title>Node24</title>
<g id="a_node24"><a xlink:href="display_8c.html#a2d077fa92b741d504d6ef5c5f2fdd74c" target="_top" xlink:title="Draws the trajectory of the car.">
<polygon fill="white" stroke="black" points="396,-285.5 396,-304.5 489,-304.5 489,-285.5 396,-285.5"/>
<text text-anchor="middle" x="442.5" y="-292.5" font-family="Helvetica,sans-Serif" font-size="10.00">draw_trajectory</text>
</a>
</g>
</g>
<!-- Node11&#45;&gt;Node24 -->
<g id="edge27" class="edge">
<title>Node11&#45;&gt;Node24</title>
<path fill="none" stroke="midnightblue" d="M328.12,-209.23C334.49,-211.75 340.68,-214.94 346,-219 369.83,-237.16 358.3,-257.67 382,-276 384.33,-277.8 386.84,-279.44 389.46,-280.92"/>
<polygon fill="midnightblue" stroke="midnightblue" points="388.18,-284.19 398.71,-285.39 391.23,-277.89 388.18,-284.19"/>
</g>
<!-- Node14 -->
<g id="node14" class="node">
<title>Node14</title>
<g id="a_node14"><a xlink:href="utilities_8h.html#a33090597864cdfd30d87ff99c14eeecb" target="_top" xlink:title=" ">
<polygon fill="white" stroke="black" points="540,-209.5 540,-228.5 660,-228.5 660,-209.5 540,-209.5"/>
<text text-anchor="middle" x="600" y="-216.5" font-family="Helvetica,sans-Serif" font-size="10.00">angle_rotation_sprite</text>
</a>
</g>
</g>
<!-- Node13&#45;&gt;Node14 -->
<g id="edge16" class="edge">
<title>Node13&#45;&gt;Node14</title>
<path fill="none" stroke="midnightblue" d="M473.11,-188.24C494.9,-193.56 524.99,-200.91 550.29,-207.1"/>
<polygon fill="midnightblue" stroke="midnightblue" points="549.54,-210.52 560.08,-209.49 551.2,-203.72 549.54,-210.52"/>
</g>
<!-- Node15 -->
<g id="node15" class="node">
<title>Node15</title>
<g id="a_node15"><a xlink:href="display_8c.html#a264238ff7dcf301bbc2f190ea7dcea4c" target="_top" xlink:title="Draws a directional arrow representing the car&#39;s orientation.">
<polygon fill="white" stroke="black" points="554,-171.5 554,-190.5 646,-190.5 646,-171.5 554,-171.5"/>
<text text-anchor="middle" x="600" y="-178.5" font-family="Helvetica,sans-Serif" font-size="10.00">draw_dir_arrow</text>
</a>
</g>
</g>
<!-- Node13&#45;&gt;Node15 -->
<g id="edge17" class="edge">
<title>Node13&#45;&gt;Node15</title>
<path fill="none" stroke="midnightblue" d="M473.11,-181C493,-181 519.8,-181 543.56,-181"/>
<polygon fill="midnightblue" stroke="midnightblue" points="543.88,-184.5 553.88,-181 543.88,-177.5 543.88,-184.5"/>
</g>
<!-- Node16&#45;&gt;Node14 -->
<g id="edge19" class="edge">
<title>Node16&#45;&gt;Node14</title>
<path fill="none" stroke="midnightblue" d="M485.17,-219C498.84,-219 514.42,-219 529.57,-219"/>
<polygon fill="midnightblue" stroke="midnightblue" points="529.97,-222.5 539.97,-219 529.97,-215.5 529.97,-222.5"/>
</g>
<!-- Node17 -->
<g id="node17" class="node">
<title>Node17</title>
<g id="a_node17"><a xlink:href="display_8c.html#abdb9fae5dfda6a7b08efb162b243c776" target="_top" xlink:title=" ">
<polygon fill="white" stroke="black" points="558,-247.5 558,-266.5 642,-266.5 642,-247.5 558,-247.5"/>
<text text-anchor="middle" x="600" y="-254.5" font-family="Helvetica,sans-Serif" font-size="10.00">display_pedal</text>
</a>
</g>
</g>
<!-- Node16&#45;&gt;Node17 -->
<g id="edge20" class="edge">
<title>Node16&#45;&gt;Node17</title>
<path fill="none" stroke="midnightblue" d="M482.74,-228.59C503.26,-233.6 528.57,-239.79 550.33,-245.11"/>
<polygon fill="midnightblue" stroke="midnightblue" points="549.5,-248.51 560.04,-247.48 551.16,-241.71 549.5,-248.51"/>
</g>
<!-- Node18 -->
<g id="node18" class="node">
<title>Node18</title>
<g id="a_node18"><a xlink:href="display_8c.html#a5bcee09191f66649a2968b6f2ba32935" target="_top" xlink:title=" ">
<polygon fill="white" stroke="black" points="561.5,-285.5 561.5,-304.5 638.5,-304.5 638.5,-285.5 561.5,-285.5"/>
<text text-anchor="middle" x="600" y="-292.5" font-family="Helvetica,sans-Serif" font-size="10.00">draw_button</text>
</a>
</g>
</g>
<!-- Node16&#45;&gt;Node18 -->
<g id="edge21" class="edge">
<title>Node16&#45;&gt;Node18</title>
<path fill="none" stroke="midnightblue" d="M483.16,-228.57C490.05,-231.09 496.94,-234.19 503,-238 522.7,-250.37 519.28,-263.65 539,-276 542.91,-278.45 547.16,-280.6 551.53,-282.5"/>
<polygon fill="midnightblue" stroke="midnightblue" points="550.63,-285.9 561.22,-286.24 553.15,-279.37 550.63,-285.9"/>
</g>
<!-- Node20 -->
<g id="node20" class="node">
<title>Node20</title>
<g id="a_node20"><a xlink:href="display_8c.html#aa45d316f5e50fa968e686d790d57457b" target="_top" xlink:title="Draws the cone map overlay.">
<polygon fill="white" stroke="black" points="552,-133.5 552,-152.5 648,-152.5 648,-133.5 552,-133.5"/>
<text text-anchor="middle" x="600" y="-140.5" font-family="Helvetica,sans-Serif" font-size="10.00">draw_cone_map</text>
</a>
</g>
</g>
<!-- Node19&#45;&gt;Node20 -->
<g id="edge23" class="edge">
<title>Node19&#45;&gt;Node20</title>
<path fill="none" stroke="midnightblue" d="M491.85,-143C507.65,-143 525.35,-143 541.74,-143"/>
<polygon fill="midnightblue" stroke="midnightblue" points="541.75,-146.5 551.75,-143 541.75,-139.5 541.75,-146.5"/>
</g>
<!-- Node21 -->
<g id="node21" class="node">
<title>Node21</title>
<g id="a_node21"><a xlink:href="display_8c.html#a298532c4740f2a6785e5c1b0ff7fea9a" target="_top" xlink:title="Renders the detected cones on the perception bitmap.">
<polygon fill="white" stroke="black" points="539,-95.5 539,-114.5 661,-114.5 661,-95.5 539,-95.5"/>
<text text-anchor="middle" x="600" y="-102.5" font-family="Helvetica,sans-Serif" font-size="10.00">draw_detected_cones</text>
</a>
</g>
</g>
<!-- Node19&#45;&gt;Node21 -->
<g id="edge24" class="edge">
<title>Node19&#45;&gt;Node21</title>
<path fill="none" stroke="midnightblue" d="M482.74,-133.41C503.26,-128.4 528.57,-122.21 550.33,-116.89"/>
<polygon fill="midnightblue" stroke="midnightblue" points="551.16,-120.29 560.04,-114.52 549.5,-113.49 551.16,-120.29"/>
</g>
<!-- Node22 -->
<g id="node22" class="node">
<title>Node22</title>
<g id="a_node22"><a xlink:href="display_8c.html#a5c07cb2dc1adb076383bced84f4a8154" target="_top" xlink:title="Draws the lidar/perception view.">
<polygon fill="white" stroke="black" points="566,-57.5 566,-76.5 634,-76.5 634,-57.5 566,-57.5"/>
<text text-anchor="middle" x="600" y="-64.5" font-family="Helvetica,sans-Serif" font-size="10.00">draw_lidar</text>
</a>
</g>
</g>
<!-- Node19&#45;&gt;Node22 -->
<g id="edge25" class="edge">
<title>Node19&#45;&gt;Node22</title>
<path fill="none" stroke="midnightblue" d="M483.16,-133.43C490.05,-130.91 496.94,-127.81 503,-124 522.7,-111.63 519.28,-98.35 539,-86 544.35,-82.65 550.34,-79.85 556.4,-77.51"/>
<polygon fill="midnightblue" stroke="midnightblue" points="557.62,-80.79 565.92,-74.21 555.33,-74.18 557.62,-80.79"/>
</g>
<!-- Node27 -->
<g id="node27" class="node">
<title>Node27</title>
<g id="a_node27"><a xlink:href="main_8c.html#a7cb642cbefeb5eca23c4a56384ce8b6b" target="_top" xlink:title=" ">
<polygon fill="white" stroke="black" points="256,-38.5 256,-57.5 309,-57.5 309,-38.5 256,-38.5"/>
<text text-anchor="middle" x="282.5" y="-45.5" font-family="Helvetica,sans-Serif" font-size="10.00">init_car</text>
</a>
</g>
</g>
<!-- Node26&#45;&gt;Node27 -->
<g id="edge32" class="edge">
<title>Node26&#45;&gt;Node27</title>
<path fill="none" stroke="midnightblue" d="M168.28,-152.48C173.62,-149.99 178.74,-146.89 183,-143 210.62,-117.82 190.7,-91.41 219,-67 226.58,-60.46 236.37,-56.17 245.95,-53.36"/>
<polygon fill="midnightblue" stroke="midnightblue" points="246.88,-56.73 255.74,-50.93 245.19,-49.94 246.88,-56.73"/>
</g>
<!-- Node28 -->
<g id="node28" class="node">
<title>Node28</title>
<g id="a_node28"><a xlink:href="main_8c.html#a123ba10a236b41c94b5da809a6db6528" target="_top" xlink:title=" ">
<polygon fill="white" stroke="black" points="230.5,-0.5 230.5,-19.5 334.5,-19.5 334.5,-0.5 230.5,-0.5"/>
<text text-anchor="middle" x="282.5" y="-7.5" font-family="Helvetica,sans-Serif" font-size="10.00">init_control_panel</text>
</a>
</g>
</g>
<!-- Node26&#45;&gt;Node28 -->
<g id="edge33" class="edge">
<title>Node26&#45;&gt;Node28</title>
<path fill="none" stroke="midnightblue" d="M168.76,-152.97C174.04,-150.43 179.01,-147.17 183,-143 219.73,-104.6 181.23,-66.37 219,-29 220.48,-27.53 222.07,-26.18 223.75,-24.93"/>
<polygon fill="midnightblue" stroke="midnightblue" points="225.98,-27.67 232.74,-19.51 222.37,-21.68 225.98,-27.67"/>
</g>
<!-- Node29 -->
<g id="node29" class="node">
<title>Node29</title>
<g id="a_node29"><a xlink:href="main_8c.html#a8a4df149a98808357f97ece821bc653a" target="_top" xlink:title=" ">
<polygon fill="white" stroke="black" points="238,-152.5 238,-171.5 327,-171.5 327,-152.5 238,-152.5"/>
<text text-anchor="middle" x="282.5" y="-159.5" font-family="Helvetica,sans-Serif" font-size="10.00">init_perception</text>
</a>
</g>
</g>
<!-- Node26&#45;&gt;Node29 -->
<g id="edge34" class="edge">
<title>Node26&#45;&gt;Node29</title>
<path fill="none" stroke="midnightblue" d="M168.59,-162C186.53,-162 208.32,-162 227.96,-162"/>
<polygon fill="midnightblue" stroke="midnightblue" points="228,-165.5 238,-162 228,-158.5 228,-165.5"/>
</g>
<!-- Node30 -->
<g id="node30" class="node">
<title>Node30</title>
<g id="a_node30"><a xlink:href="main_8c.html#a7f21658ab78ff07401a1c66eba62c0dd" target="_top" xlink:title=" ">
<polygon fill="white" stroke="black" points="251.5,-114.5 251.5,-133.5 313.5,-133.5 313.5,-114.5 251.5,-114.5"/>
<text text-anchor="middle" x="282.5" y="-121.5" font-family="Helvetica,sans-Serif" font-size="10.00">init_track</text>
</a>
</g>
</g>
<!-- Node26&#45;&gt;Node30 -->
<g id="edge35" class="edge">
<title>Node26&#45;&gt;Node30</title>
<path fill="none" stroke="midnightblue" d="M168.59,-152.51C190.79,-146.9 218.87,-139.81 241.48,-134.1"/>
<polygon fill="midnightblue" stroke="midnightblue" points="242.6,-137.43 251.44,-131.59 240.89,-130.64 242.6,-137.43"/>
</g>
<!-- Node33 -->
<g id="node33" class="node">
<title>Node33</title>
<g id="a_node33"><a xlink:href="main_8c.html#af157d4a7f2f1670050ead305cbe70248" target="_top" xlink:title=" ">
<polygon fill="white" stroke="black" points="240,-76.5 240,-95.5 325,-95.5 325,-76.5 240,-76.5"/>
<text text-anchor="middle" x="282.5" y="-83.5" font-family="Helvetica,sans-Serif" font-size="10.00">init_trajectory</text>
</a>
</g>
</g>
<!-- Node26&#45;&gt;Node33 -->
<g id="edge38" class="edge">
<title>Node26&#45;&gt;Node33</title>
<path fill="none" stroke="midnightblue" d="M164.28,-152.45C170.76,-149.88 177.3,-146.75 183,-143 202.44,-130.22 199.21,-117.23 219,-105 222.58,-102.79 226.44,-100.81 230.42,-99.06"/>
<polygon fill="midnightblue" stroke="midnightblue" points="231.81,-102.27 239.84,-95.36 229.25,-95.76 231.81,-102.27"/>
</g>
<!-- Node31 -->
<g id="node31" class="node">
<title>Node31</title>
<g id="a_node31"><a xlink:href="utilities_8h.html#a5297509bfed850c9f8cb92b994b7fd75" target="_top" xlink:title="Initializes an array of cone structures.">
<polygon fill="white" stroke="black" points="409.5,-19.5 409.5,-38.5 475.5,-38.5 475.5,-19.5 409.5,-19.5"/>
<text text-anchor="middle" x="442.5" y="-26.5" font-family="Helvetica,sans-Serif" font-size="10.00">init_cones</text>
</a>
</g>
</g>
<!-- Node30&#45;&gt;Node31 -->
<g id="edge36" class="edge">
<title>Node30&#45;&gt;Node31</title>
<path fill="none" stroke="midnightblue" d="M313.52,-119.42C324.55,-116.63 336.62,-112.15 346,-105 369.83,-86.84 358.3,-66.33 382,-48 387.18,-43.99 393.22,-40.82 399.44,-38.31"/>
<polygon fill="midnightblue" stroke="midnightblue" points="400.96,-41.49 409.25,-34.89 398.65,-34.88 400.96,-41.49"/>
</g>
<!-- Node32 -->
<g id="node32" class="node">
<title>Node32</title>
<g id="a_node32"><a xlink:href="utilities_8h.html#a77d50bbb4a4844ce7ddab4a7b3d52d24" target="_top" xlink:title=" ">
<polygon fill="white" stroke="black" points="382,-57.5 382,-76.5 503,-76.5 503,-57.5 382,-57.5"/>
<text text-anchor="middle" x="442.5" y="-64.5" font-family="Helvetica,sans-Serif" font-size="10.00">load_cones_positions</text>
</a>
</g>
</g>
<!-- Node30&#45;&gt;Node32 -->
<g id="edge37" class="edge">
<title>Node30&#45;&gt;Node32</title>
<path fill="none" stroke="midnightblue" d="M313.79,-116.05C324.15,-113 335.72,-109.23 346,-105 362.73,-98.12 365.32,-93 382,-86 387.19,-83.82 392.71,-81.75 398.23,-79.82"/>
<polygon fill="midnightblue" stroke="midnightblue" points="399.7,-83.02 408.08,-76.53 397.48,-76.38 399.7,-83.02"/>
</g>
<!-- Node34&#45;&gt;Node5 -->
<g id="edge40" class="edge">
<title>Node34&#45;&gt;Node5</title>
<path fill="none" stroke="midnightblue" d="M177.79,-300.91C193.22,-302.86 210.53,-305.04 226.51,-307.06"/>
<polygon fill="midnightblue" stroke="midnightblue" points="226.43,-310.58 236.79,-308.36 227.31,-303.63 226.43,-310.58"/>
</g>
<!-- Node34&#45;&gt;Node7 -->
<g id="edge45" class="edge">
<title>Node34&#45;&gt;Node7</title>
<path fill="none" stroke="midnightblue" d="M170.22,-304.54C174.99,-307.01 179.43,-310.1 183,-314 224.4,-359.12 176.37,-403.04 219,-447 225.91,-454.13 235.41,-458.61 244.92,-461.41"/>
<polygon fill="midnightblue" stroke="midnightblue" points="244.18,-464.83 254.72,-463.76 245.81,-458.02 244.18,-464.83"/>
</g>
<!-- Node34&#45;&gt;Node8 -->
<g id="edge46" class="edge">
<title>Node34&#45;&gt;Node8</title>
<path fill="none" stroke="midnightblue" d="M169.35,-304.61C174.36,-307.07 179.1,-310.15 183,-314 215.12,-345.74 186.02,-378.16 219,-409 220.68,-410.57 222.49,-412.02 224.4,-413.34"/>
<polygon fill="midnightblue" stroke="midnightblue" points="222.85,-416.49 233.27,-418.41 226.32,-410.41 222.85,-416.49"/>
</g>
<!-- Node34&#45;&gt;Node9 -->
<g id="edge47" class="edge">
<title>Node34&#45;&gt;Node9</title>
<path fill="none" stroke="midnightblue" d="M166.8,-304.51C172.57,-307.02 178.21,-310.14 183,-314 206.32,-332.81 195.17,-352.84 219,-371 221.49,-372.9 224.17,-374.61 226.97,-376.15"/>
<polygon fill="midnightblue" stroke="midnightblue" points="225.7,-379.42 236.24,-380.51 228.68,-373.08 225.7,-379.42"/>
</g>
<!-- Node35 -->
<g id="node35" class="node">
<title>Node35</title>
<g id="a_node35"><a xlink:href="group__PerceptionModule.html#gad42bf825ec1093bf25b80bc192f3f952" target="_top" xlink:title=" ">
<polygon fill="white" stroke="black" points="263.5,-266.5 263.5,-285.5 301.5,-285.5 301.5,-266.5 263.5,-266.5"/>
<text text-anchor="middle" x="282.5" y="-273.5" font-family="Helvetica,sans-Serif" font-size="10.00">lidar</text>
</a>
</g>
</g>
<!-- Node34&#45;&gt;Node35 -->
<g id="edge41" class="edge">
<title>Node34&#45;&gt;Node35</title>
<path fill="none" stroke="midnightblue" d="M177.79,-289.09C202.6,-285.96 232.24,-282.22 253.46,-279.54"/>
<polygon fill="midnightblue" stroke="midnightblue" points="253.96,-283.01 263.44,-278.28 253.08,-276.06 253.96,-283.01"/>
</g>
<!-- Node36 -->
<g id="node36" class="node">
<title>Node36</title>
<g id="a_node36"><a xlink:href="group__PerceptionModule.html#ga9c68a3d545ebb7bb3092f88b7e10084a" target="_top" xlink:title=" ">
<polygon fill="white" stroke="black" points="253,-228.5 253,-247.5 312,-247.5 312,-228.5 253,-228.5"/>
<text text-anchor="middle" x="282.5" y="-235.5" font-family="Helvetica,sans-Serif" font-size="10.00">mapping</text>
</a>
</g>
</g>
<!-- Node34&#45;&gt;Node36 -->
<g id="edge42" class="edge">
<title>Node34&#45;&gt;Node36</title>
<path fill="none" stroke="midnightblue" d="M151.36,-285.43C169.03,-277.32 195.41,-265.65 219,-257 226.8,-254.14 235.25,-251.36 243.34,-248.85"/>
<polygon fill="midnightblue" stroke="midnightblue" points="244.41,-252.19 252.96,-245.94 242.38,-245.49 244.41,-252.19"/>
</g>
<!-- Node37 -->
<g id="node37" class="node">
<title>Node37</title>
<g id="a_node37"><a xlink:href="group__PerceptionModule.html#gaf16a2babc7e4a480309f889a0e848c72" target="_top" xlink:title=" ">
<polygon fill="white" stroke="black" points="384,-323.5 384,-342.5 501,-342.5 501,-323.5 384,-323.5"/>
<text text-anchor="middle" x="442.5" y="-330.5" font-family="Helvetica,sans-Serif" font-size="10.00">check_nearest_point</text>
</a>
</g>
</g>
<!-- Node36&#45;&gt;Node37 -->
<g id="edge43" class="edge">
<title>Node36&#45;&gt;Node37</title>
<path fill="none" stroke="midnightblue" d="M312.25,-242.26C323.61,-245.03 336.26,-249.57 346,-257 369.83,-275.16 358.3,-295.67 382,-314 384.33,-315.8 386.84,-317.44 389.46,-318.92"/>
<polygon fill="midnightblue" stroke="midnightblue" points="388.18,-322.19 398.71,-323.39 391.23,-315.89 388.18,-322.19"/>
</g>
<!-- Node38 -->
<g id="node38" class="node">
<title>Node38</title>
<g id="a_node38"><a xlink:href="group__PerceptionModule.html#ga697c64eba1fb6796e0e5ccc17dc578dd" target="_top" xlink:title=" ">
<polygon fill="white" stroke="black" points="404,-361.5 404,-380.5 481,-380.5 481,-361.5 404,-361.5"/>
<text text-anchor="middle" x="442.5" y="-368.5" font-family="Helvetica,sans-Serif" font-size="10.00">update_map</text>
</a>
</g>
</g>
<!-- Node36&#45;&gt;Node38 -->
<g id="edge44" class="edge">
<title>Node36&#45;&gt;Node38</title>
<path fill="none" stroke="midnightblue" d="M312.09,-241.11C323.83,-243.69 336.8,-248.4 346,-257 378.98,-287.84 349.24,-320.93 382,-352 385.6,-355.41 389.81,-358.21 394.3,-360.51"/>
<polygon fill="midnightblue" stroke="midnightblue" points="393.23,-363.85 403.8,-364.55 395.97,-357.41 393.23,-363.85"/>
</g>
<!-- Node40&#45;&gt;Node5 -->
<g id="edge50" class="edge">
<title>Node40&#45;&gt;Node5</title>
<path fill="none" stroke="midnightblue" d="M159.34,-361.43C167.1,-358.6 175.45,-355.36 183,-352 199.53,-344.66 202.27,-339.88 219,-333 224.44,-330.76 230.25,-328.65 236.04,-326.7"/>
<polygon fill="midnightblue" stroke="midnightblue" points="237.27,-329.99 245.72,-323.6 235.13,-323.32 237.27,-329.99"/>
</g>
<!-- Node40&#45;&gt;Node7 -->
<g id="edge52" class="edge">
<title>Node40&#45;&gt;Node7</title>
<path fill="none" stroke="midnightblue" d="M166.8,-380.51C172.57,-383.02 178.21,-386.14 183,-390 206.32,-408.81 195.17,-428.84 219,-447 226.62,-452.81 236.01,-456.85 245.18,-459.66"/>
<polygon fill="midnightblue" stroke="midnightblue" points="244.38,-463.07 254.95,-462.25 246.18,-456.3 244.38,-463.07"/>
</g>
<!-- Node40&#45;&gt;Node8 -->
<g id="edge53" class="edge">
<title>Node40&#45;&gt;Node8</title>
<path fill="none" stroke="midnightblue" d="M159.34,-380.57C167.1,-383.4 175.45,-386.64 183,-390 199.53,-397.34 202.27,-402.12 219,-409 224.44,-411.24 230.25,-413.35 236.04,-415.3"/>
<polygon fill="midnightblue" stroke="midnightblue" points="235.13,-418.68 245.72,-418.4 237.27,-412.01 235.13,-418.68"/>
</g>
<!-- Node40&#45;&gt;Node9 -->
<g id="edge54" class="edge">
<title>Node40&#45;&gt;Node9</title>
<path fill="none" stroke="midnightblue" d="M171.33,-376.09C188.15,-378.21 207.96,-380.72 226.11,-383.01"/>
<polygon fill="midnightblue" stroke="midnightblue" points="225.92,-386.51 236.28,-384.29 226.8,-379.57 225.92,-386.51"/>
</g>
<!-- Node41 -->
<g id="node41" class="node">
<title>Node41</title>
<g id="a_node41"><a xlink:href="tasks_8c.html#af9fa55a7948b658713df46fd22608bfd" target="_top" xlink:title=" ">
<polygon fill="white" stroke="black" points="219,-342.5 219,-361.5 346,-361.5 346,-342.5 219,-342.5"/>
<text text-anchor="middle" x="282.5" y="-349.5" font-family="Helvetica,sans-Serif" font-size="10.00">is_mouse_over_button</text>
</a>
</g>
</g>
<!-- Node40&#45;&gt;Node41 -->
<g id="edge51" class="edge">
<title>Node40&#45;&gt;Node41</title>
<path fill="none" stroke="midnightblue" d="M171.33,-365.91C182.87,-364.45 195.82,-362.82 208.68,-361.19"/>
<polygon fill="midnightblue" stroke="midnightblue" points="209.46,-364.62 218.94,-359.9 208.58,-357.68 209.46,-364.62"/>
</g>
<!-- Node43&#45;&gt;Node5 -->
<g id="edge57" class="edge">
<title>Node43&#45;&gt;Node5</title>
<path fill="none" stroke="midnightblue" d="M166.8,-399.49C172.57,-396.98 178.21,-393.86 183,-390 206.32,-371.19 195.17,-351.16 219,-333 221.66,-330.97 224.54,-329.16 227.55,-327.54"/>
<polygon fill="midnightblue" stroke="midnightblue" points="229.27,-330.6 236.88,-323.23 226.34,-324.24 229.27,-330.6"/>
</g>
<!-- Node43&#45;&gt;Node7 -->
<g id="edge58" class="edge">
<title>Node43&#45;&gt;Node7</title>
<path fill="none" stroke="midnightblue" d="M159.34,-418.57C167.1,-421.4 175.45,-424.64 183,-428 199.53,-435.34 202.27,-440.12 219,-447 227.38,-450.45 236.62,-453.6 245.37,-456.29"/>
<polygon fill="midnightblue" stroke="midnightblue" points="244.38,-459.65 254.96,-459.14 246.37,-452.94 244.38,-459.65"/>
</g>
<!-- Node43&#45;&gt;Node8 -->
<g id="edge60" class="edge">
<title>Node43&#45;&gt;Node8</title>
<path fill="none" stroke="midnightblue" d="M175.34,-414.6C188.46,-416.25 203.09,-418.1 217.2,-419.88"/>
<polygon fill="midnightblue" stroke="midnightblue" points="216.99,-423.38 227.35,-421.16 217.87,-416.44 216.99,-423.38"/>
</g>
<!-- Node43&#45;&gt;Node9 -->
<g id="edge61" class="edge">
<title>Node43&#45;&gt;Node9</title>
<path fill="none" stroke="midnightblue" d="M175.34,-403.4C191.28,-401.39 209.46,-399.09 226.22,-396.98"/>
<polygon fill="midnightblue" stroke="midnightblue" points="226.95,-400.41 236.43,-395.69 226.07,-393.47 226.95,-400.41"/>
</g>
<!-- Node44 -->
<g id="node44" class="node">
<title>Node44</title>
<g id="a_node44"><a xlink:href="trajectory_8h.html#a919f2f0e87ab763cdae69585d089d23d" target="_top" xlink:title=" ">
<polygon fill="white" stroke="black" points="227,-494.5 227,-513.5 338,-513.5 338,-494.5 227,-494.5"/>
<text text-anchor="middle" x="282.5" y="-501.5" font-family="Helvetica,sans-Serif" font-size="10.00">trajectory_planning</text>
</a>
</g>
</g>
<!-- Node43&#45;&gt;Node44 -->
<g id="edge59" class="edge">
<title>Node43&#45;&gt;Node44</title>
<path fill="none" stroke="midnightblue" d="M166.8,-418.51C172.57,-421.02 178.21,-424.14 183,-428 206.32,-446.81 195.17,-466.84 219,-485 221.45,-486.86 224.08,-488.55 226.82,-490.07"/>
<polygon fill="midnightblue" stroke="midnightblue" points="225.38,-493.25 235.91,-494.38 228.38,-486.93 225.38,-493.25"/>
</g>
</g>
</svg>
