<?xml version="1.0" encoding="UTF-8" standalone="no"?>
<!DOCTYPE svg PUBLIC "-//W3C//DTD SVG 1.1//EN"
 "http://www.w3.org/Graphics/SVG/1.1/DTD/svg11.dtd">
<!-- Generated by graphviz version 2.43.0 (0)
 -->
<!-- Title: src/main.c Pages: 1 -->
<svg width="636pt" height="364pt"
 viewBox="0.00 0.00 636.50 364.00" xmlns="http://www.w3.org/2000/svg" xmlns:xlink="http://www.w3.org/1999/xlink">
<g id="graph0" class="graph" transform="scale(1 1) rotate(0) translate(4 360)">
<title>src/main.c</title>
<polygon fill="white" stroke="transparent" points="-4,4 -4,-360 632.5,-360 632.5,4 -4,4"/>
<!-- Node1 -->
<g id="node1" class="node">
<title>Node1</title>
<g id="a_node1"><a xlink:title="Main implementation of the 2D FSAE Simulation.">
<polygon fill="#bfbfbf" stroke="black" points="216.5,-336.5 216.5,-355.5 283.5,-355.5 283.5,-336.5 216.5,-336.5"/>
<text text-anchor="middle" x="250" y="-343.5" font-family="Helvetica,sans-Serif" font-size="10.00">src/main.c</text>
</a>
</g>
</g>
<!-- Node2 -->
<g id="node2" class="node">
<title>Node2</title>
<g id="a_node2"><a xlink:title=" ">
<polygon fill="white" stroke="#bfbfbf" points="374,-224.5 374,-243.5 424,-243.5 424,-224.5 374,-224.5"/>
<text text-anchor="middle" x="399" y="-231.5" font-family="Helvetica,sans-Serif" font-size="10.00">stdio.h</text>
</a>
</g>
</g>
<!-- Node1&#45;&gt;Node2 -->
<g id="edge1" class="edge">
<title>Node1&#45;&gt;Node2</title>
<path fill="none" stroke="midnightblue" d="M283.79,-337.24C307.24,-330.51 338.08,-318.82 360,-300 374.79,-287.31 385.51,-267.55 391.93,-253.15"/>
<polygon fill="midnightblue" stroke="midnightblue" points="395.22,-254.37 395.84,-243.79 388.76,-251.67 395.22,-254.37"/>
</g>
<!-- Node3 -->
<g id="node3" class="node">
<title>Node3</title>
<g id="a_node3"><a xlink:title=" ">
<polygon fill="white" stroke="#bfbfbf" points="127.5,-0.5 127.5,-19.5 186.5,-19.5 186.5,-0.5 127.5,-0.5"/>
<text text-anchor="middle" x="157" y="-7.5" font-family="Helvetica,sans-Serif" font-size="10.00">allegro.h</text>
</a>
</g>
</g>
<!-- Node1&#45;&gt;Node3 -->
<g id="edge2" class="edge">
<title>Node1&#45;&gt;Node3</title>
<path fill="none" stroke="midnightblue" d="M216.28,-345.05C148.04,-343.2 0,-328.41 0,-235 0,-235 0,-235 0,-121 0,-63.64 71.16,-33.65 117.67,-20.18"/>
<polygon fill="midnightblue" stroke="midnightblue" points="118.76,-23.51 127.47,-17.48 116.9,-16.77 118.76,-23.51"/>
</g>
<!-- Node4 -->
<g id="node4" class="node">
<title>Node4</title>
<g id="a_node4"><a xlink:href="control_8h.html" target="_top" xlink:title="Declarations for vehicle control functions and variables in the 2D simulator.">
<polygon fill="white" stroke="black" points="104.5,-224.5 104.5,-243.5 163.5,-243.5 163.5,-224.5 104.5,-224.5"/>
<text text-anchor="middle" x="134" y="-231.5" font-family="Helvetica,sans-Serif" font-size="10.00">control.h</text>
</a>
</g>
</g>
<!-- Node1&#45;&gt;Node4 -->
<g id="edge3" class="edge">
<title>Node1&#45;&gt;Node4</title>
<path fill="none" stroke="midnightblue" d="M219.84,-336.43C200.19,-329.47 175.27,-317.84 159,-300 147.17,-287.03 140.72,-267.86 137.35,-253.7"/>
<polygon fill="midnightblue" stroke="midnightblue" points="140.72,-252.71 135.26,-243.63 133.86,-254.13 140.72,-252.71"/>
</g>
<!-- Node5 -->
<g id="node5" class="node">
<title>Node5</title>
<g id="a_node5"><a xlink:href="trajectory_8h.html" target="_top" xlink:title="Provides declarations for trajectory planning based on cone detection.">
<polygon fill="white" stroke="black" points="104.5,-168.5 104.5,-187.5 175.5,-187.5 175.5,-168.5 104.5,-168.5"/>
<text text-anchor="middle" x="140" y="-175.5" font-family="Helvetica,sans-Serif" font-size="10.00">trajectory.h</text>
</a>
</g>
</g>
<!-- Node1&#45;&gt;Node5 -->
<g id="edge23" class="edge">
<title>Node1&#45;&gt;Node5</title>
<path fill="none" stroke="midnightblue" d="M217.81,-336.46C178.42,-323.89 114.65,-296.08 96,-244 93,-235.63 92.64,-232.23 96,-224 100.8,-212.23 110.33,-201.86 119.29,-194.05"/>
<polygon fill="midnightblue" stroke="midnightblue" points="121.65,-196.64 127.22,-187.63 117.25,-191.2 121.65,-196.64"/>
</g>
<!-- Node6 -->
<g id="node6" class="node">
<title>Node6</title>
<g id="a_node6"><a xlink:href="perception_8h.html" target="_top" xlink:title="Header file for perception&#45;related types, constants, and function declarations.">
<polygon fill="white" stroke="black" points="60.5,-112.5 60.5,-131.5 137.5,-131.5 137.5,-112.5 60.5,-112.5"/>
<text text-anchor="middle" x="99" y="-119.5" font-family="Helvetica,sans-Serif" font-size="10.00">perception.h</text>
</a>
</g>
</g>
<!-- Node1&#45;&gt;Node6 -->
<g id="edge16" class="edge">
<title>Node1&#45;&gt;Node6</title>
<path fill="none" stroke="midnightblue" d="M216.26,-341.22C186.65,-336.3 144.07,-325.12 116,-300 71.18,-259.89 84.74,-178.3 93.77,-141.61"/>
<polygon fill="midnightblue" stroke="midnightblue" points="97.21,-142.32 96.36,-131.76 90.44,-140.54 97.21,-142.32"/>
</g>
<!-- Node8 -->
<g id="node8" class="node">
<title>Node8</title>
<g id="a_node8"><a xlink:href="globals_8h.html" target="_top" xlink:title="Global constants, variables, and structures for the simulation and visualization system.">
<polygon fill="white" stroke="black" points="197.5,-56.5 197.5,-75.5 258.5,-75.5 258.5,-56.5 197.5,-56.5"/>
<text text-anchor="middle" x="228" y="-63.5" font-family="Helvetica,sans-Serif" font-size="10.00">globals.h</text>
</a>
</g>
</g>
<!-- Node1&#45;&gt;Node8 -->
<g id="edge15" class="edge">
<title>Node1&#45;&gt;Node8</title>
<path fill="none" stroke="midnightblue" d="M265.85,-336.44C293.12,-320.43 346,-283.16 346,-235 346,-235 346,-235 346,-177 346,-129.51 294.23,-96.67 259.28,-79.91"/>
<polygon fill="midnightblue" stroke="midnightblue" points="260.47,-76.61 249.92,-75.61 257.54,-82.97 260.47,-76.61"/>
</g>
<!-- Node11 -->
<g id="node11" class="node">
<title>Node11</title>
<g id="a_node11"><a xlink:href="display_8h.html" target="_top" xlink:title="Header file declaring display rendering functions.">
<polygon fill="white" stroke="black" points="220.5,-224.5 220.5,-243.5 279.5,-243.5 279.5,-224.5 220.5,-224.5"/>
<text text-anchor="middle" x="250" y="-231.5" font-family="Helvetica,sans-Serif" font-size="10.00">display.h</text>
</a>
</g>
</g>
<!-- Node1&#45;&gt;Node11 -->
<g id="edge14" class="edge">
<title>Node1&#45;&gt;Node11</title>
<path fill="none" stroke="midnightblue" d="M250,-336.37C250,-318.62 250,-277.67 250,-253.6"/>
<polygon fill="midnightblue" stroke="midnightblue" points="253.5,-253.59 250,-243.59 246.5,-253.59 253.5,-253.59"/>
</g>
<!-- Node12 -->
<g id="node12" class="node">
<title>Node12</title>
<g id="a_node12"><a xlink:href="tasks_8h.html" target="_top" xlink:title="Declaration of task thread functions for the simulation.">
<polygon fill="white" stroke="black" points="168,-280.5 168,-299.5 220,-299.5 220,-280.5 168,-280.5"/>
<text text-anchor="middle" x="194" y="-287.5" font-family="Helvetica,sans-Serif" font-size="10.00">tasks.h</text>
</a>
</g>
</g>
<!-- Node1&#45;&gt;Node12 -->
<g id="edge17" class="edge">
<title>Node1&#45;&gt;Node12</title>
<path fill="none" stroke="midnightblue" d="M241,-336.32C232.81,-328.42 220.49,-316.55 210.53,-306.94"/>
<polygon fill="midnightblue" stroke="midnightblue" points="212.79,-304.26 203.16,-299.83 207.93,-309.29 212.79,-304.26"/>
</g>
<!-- Node13 -->
<g id="node13" class="node">
<title>Node13</title>
<g id="a_node13"><a xlink:href="utilities_8h.html" target="_top" xlink:title="Utility function prototypes for cone management and runtime tasks.">
<polygon fill="white" stroke="black" points="232,-168.5 232,-187.5 294,-187.5 294,-168.5 232,-168.5"/>
<text text-anchor="middle" x="263" y="-175.5" font-family="Helvetica,sans-Serif" font-size="10.00">utilities.h</text>
</a>
</g>
</g>
<!-- Node1&#45;&gt;Node13 -->
<g id="edge24" class="edge">
<title>Node1&#45;&gt;Node13</title>
<path fill="none" stroke="midnightblue" d="M254.58,-336.41C263.37,-319.37 282.32,-279.85 289,-244 290.63,-235.26 291.3,-232.59 289,-224 286.35,-214.1 280.93,-204.13 275.73,-196.1"/>
<polygon fill="midnightblue" stroke="midnightblue" points="278.46,-193.91 269.89,-187.68 272.71,-197.89 278.46,-193.91"/>
</g>
<!-- Node14 -->
<g id="node14" class="node">
<title>Node14</title>
<g id="a_node14"><a xlink:href="vehicle_8h.html" target="_top" xlink:title=" ">
<polygon fill="white" stroke="black" points="513.5,-280.5 513.5,-299.5 574.5,-299.5 574.5,-280.5 513.5,-280.5"/>
<text text-anchor="middle" x="544" y="-287.5" font-family="Helvetica,sans-Serif" font-size="10.00">vehicle.h</text>
</a>
</g>
</g>
<!-- Node1&#45;&gt;Node14 -->
<g id="edge25" class="edge">
<title>Node1&#45;&gt;Node14</title>
<path fill="none" stroke="midnightblue" d="M283.52,-339.66C330.51,-332.04 418.86,-317.27 503.36,-300.26"/>
<polygon fill="midnightblue" stroke="midnightblue" points="504.27,-303.64 513.38,-298.23 502.88,-296.78 504.27,-303.64"/>
</g>
<!-- Node15 -->
<g id="node15" class="node">
<title>Node15</title>
<g id="a_node15"><a xlink:href="ptask_8h.html" target="_top" xlink:title="Interface for managing periodic tasks and time utilities.">
<polygon fill="white" stroke="black" points="442.5,-280.5 442.5,-299.5 495.5,-299.5 495.5,-280.5 442.5,-280.5"/>
<text text-anchor="middle" x="469" y="-287.5" font-family="Helvetica,sans-Serif" font-size="10.00">ptask.h</text>
</a>
</g>
</g>
<!-- Node1&#45;&gt;Node15 -->
<g id="edge26" class="edge">
<title>Node1&#45;&gt;Node15</title>
<path fill="none" stroke="midnightblue" d="M283.74,-336.68C324,-326.75 391.07,-310.22 432.51,-300"/>
<polygon fill="midnightblue" stroke="midnightblue" points="433.59,-303.34 442.46,-297.54 431.91,-296.54 433.59,-303.34"/>
</g>
<!-- Node4&#45;&gt;Node5 -->
<g id="edge4" class="edge">
<title>Node4&#45;&gt;Node5</title>
<path fill="none" stroke="midnightblue" d="M134.99,-224.08C135.79,-216.93 136.93,-206.64 137.92,-197.69"/>
<polygon fill="midnightblue" stroke="midnightblue" points="141.4,-198.08 139.03,-187.75 134.44,-197.3 141.4,-198.08"/>
</g>
<!-- Node4&#45;&gt;Node6 -->
<g id="edge13" class="edge">
<title>Node4&#45;&gt;Node6</title>
<path fill="none" stroke="midnightblue" d="M123.29,-224.3C114.06,-216.07 101.41,-202.79 96,-188 90.54,-173.08 91.99,-154.94 94.4,-141.62"/>
<polygon fill="midnightblue" stroke="midnightblue" points="97.84,-142.25 96.52,-131.74 91,-140.78 97.84,-142.25"/>
</g>
<!-- Node4&#45;&gt;Node8 -->
<g id="edge12" class="edge">
<title>Node4&#45;&gt;Node8</title>
<path fill="none" stroke="midnightblue" d="M146.99,-224.44C158.43,-216.29 174.81,-203.06 185,-188 206.99,-155.49 219.07,-110.47 224.47,-85.53"/>
<polygon fill="midnightblue" stroke="midnightblue" points="227.93,-86.09 226.49,-75.59 221.07,-84.69 227.93,-86.09"/>
</g>
<!-- Node5&#45;&gt;Node6 -->
<g id="edge5" class="edge">
<title>Node5&#45;&gt;Node6</title>
<path fill="none" stroke="midnightblue" d="M133.23,-168.08C127.44,-160.46 118.94,-149.26 111.86,-139.94"/>
<polygon fill="midnightblue" stroke="midnightblue" points="114.48,-137.6 105.64,-131.75 108.9,-141.83 114.48,-137.6"/>
</g>
<!-- Node5&#45;&gt;Node8 -->
<g id="edge11" class="edge">
<title>Node5&#45;&gt;Node8</title>
<path fill="none" stroke="midnightblue" d="M146.35,-168.49C155.73,-155.98 173.92,-131.95 190,-112 197.8,-102.33 206.75,-91.7 214.01,-83.2"/>
<polygon fill="midnightblue" stroke="midnightblue" points="216.74,-85.4 220.6,-75.53 211.43,-80.84 216.74,-85.4"/>
</g>
<!-- Node7 -->
<g id="node7" class="node">
<title>Node7</title>
<g id="a_node7"><a xlink:title=" ">
<polygon fill="white" stroke="#bfbfbf" points="73.5,-56.5 73.5,-75.5 124.5,-75.5 124.5,-56.5 73.5,-56.5"/>
<text text-anchor="middle" x="99" y="-63.5" font-family="Helvetica,sans-Serif" font-size="10.00">math.h</text>
</a>
</g>
</g>
<!-- Node6&#45;&gt;Node7 -->
<g id="edge6" class="edge">
<title>Node6&#45;&gt;Node7</title>
<path fill="none" stroke="midnightblue" d="M99,-112.08C99,-105.01 99,-94.86 99,-85.99"/>
<polygon fill="midnightblue" stroke="midnightblue" points="102.5,-85.75 99,-75.75 95.5,-85.75 102.5,-85.75"/>
</g>
<!-- Node6&#45;&gt;Node8 -->
<g id="edge7" class="edge">
<title>Node6&#45;&gt;Node8</title>
<path fill="none" stroke="midnightblue" d="M119.44,-112.44C140.67,-103.56 174.1,-89.56 198.25,-79.45"/>
<polygon fill="midnightblue" stroke="midnightblue" points="199.78,-82.61 207.66,-75.52 197.08,-76.15 199.78,-82.61"/>
</g>
<!-- Node8&#45;&gt;Node3 -->
<g id="edge8" class="edge">
<title>Node8&#45;&gt;Node3</title>
<path fill="none" stroke="midnightblue" d="M216.59,-56.32C205.89,-48.18 189.66,-35.84 176.84,-26.09"/>
<polygon fill="midnightblue" stroke="midnightblue" points="178.69,-23.1 168.61,-19.83 174.46,-28.67 178.69,-23.1"/>
</g>
<!-- Node9 -->
<g id="node9" class="node">
<title>Node9</title>
<g id="a_node9"><a xlink:title=" ">
<polygon fill="white" stroke="#bfbfbf" points="266.5,-0.5 266.5,-19.5 329.5,-19.5 329.5,-0.5 266.5,-0.5"/>
<text text-anchor="middle" x="298" y="-7.5" font-family="Helvetica,sans-Serif" font-size="10.00">pthread.h</text>
</a>
</g>
</g>
<!-- Node8&#45;&gt;Node9 -->
<g id="edge9" class="edge">
<title>Node8&#45;&gt;Node9</title>
<path fill="none" stroke="midnightblue" d="M239.25,-56.32C249.8,-48.18 265.8,-35.84 278.44,-26.09"/>
<polygon fill="midnightblue" stroke="midnightblue" points="280.77,-28.71 286.55,-19.83 276.49,-23.17 280.77,-28.71"/>
</g>
<!-- Node10 -->
<g id="node10" class="node">
<title>Node10</title>
<g id="a_node10"><a xlink:title=" ">
<polygon fill="white" stroke="#bfbfbf" points="515,-0.5 515,-19.5 595,-19.5 595,-0.5 515,-0.5"/>
<text text-anchor="middle" x="555" y="-7.5" font-family="Helvetica,sans-Serif" font-size="10.00">semaphore.h</text>
</a>
</g>
</g>
<!-- Node8&#45;&gt;Node10 -->
<g id="edge10" class="edge">
<title>Node8&#45;&gt;Node10</title>
<path fill="none" stroke="midnightblue" d="M258.76,-59.92C315.32,-50.58 436.29,-30.6 504.87,-19.28"/>
<polygon fill="midnightblue" stroke="midnightblue" points="505.7,-22.69 515,-17.61 504.56,-15.78 505.7,-22.69"/>
</g>
<!-- Node12&#45;&gt;Node4 -->
<g id="edge21" class="edge">
<title>Node12&#45;&gt;Node4</title>
<path fill="none" stroke="midnightblue" d="M184.36,-280.32C175.49,-272.34 162.13,-260.31 151.39,-250.65"/>
<polygon fill="midnightblue" stroke="midnightblue" points="153.59,-247.92 143.82,-243.83 148.91,-253.13 153.59,-247.92"/>
</g>
<!-- Node12&#45;&gt;Node11 -->
<g id="edge22" class="edge">
<title>Node12&#45;&gt;Node11</title>
<path fill="none" stroke="midnightblue" d="M203,-280.32C211.19,-272.42 223.51,-260.55 233.47,-250.94"/>
<polygon fill="midnightblue" stroke="midnightblue" points="236.07,-253.29 240.84,-243.83 231.21,-248.26 236.07,-253.29"/>
</g>
<!-- Node12&#45;&gt;Node13 -->
<g id="edge18" class="edge">
<title>Node12&#45;&gt;Node13</title>
<path fill="none" stroke="midnightblue" d="M194.81,-280.38C196.37,-267.3 200.7,-242.07 212,-224 219.44,-212.11 230.95,-201.57 241.15,-193.68"/>
<polygon fill="midnightblue" stroke="midnightblue" points="243.3,-196.45 249.3,-187.71 239.17,-190.8 243.3,-196.45"/>
</g>
<!-- Node13&#45;&gt;Node6 -->
<g id="edge19" class="edge">
<title>Node13&#45;&gt;Node6</title>
<path fill="none" stroke="midnightblue" d="M237.01,-168.44C209.3,-159.32 165.25,-144.81 134.38,-134.65"/>
<polygon fill="midnightblue" stroke="midnightblue" points="135.46,-131.32 124.86,-131.52 133.27,-137.97 135.46,-131.32"/>
</g>
<!-- Node13&#45;&gt;Node8 -->
<g id="edge20" class="edge">
<title>Node13&#45;&gt;Node8</title>
<path fill="none" stroke="midnightblue" d="M260.25,-168.37C254.58,-150.54 241.46,-109.3 233.81,-85.27"/>
<polygon fill="midnightblue" stroke="midnightblue" points="237.1,-84.06 230.73,-75.59 230.43,-86.18 237.1,-84.06"/>
</g>
<!-- Node15&#45;&gt;Node2 -->
<g id="edge29" class="edge">
<title>Node15&#45;&gt;Node2</title>
<path fill="none" stroke="midnightblue" d="M457.75,-280.32C447.2,-272.18 431.2,-259.84 418.56,-250.09"/>
<polygon fill="midnightblue" stroke="midnightblue" points="420.51,-247.17 410.45,-243.83 416.23,-252.71 420.51,-247.17"/>
</g>
<!-- Node15&#45;&gt;Node9 -->
<g id="edge27" class="edge">
<title>Node15&#45;&gt;Node9</title>
<path fill="none" stroke="midnightblue" d="M477.58,-280.43C485.7,-271.88 497.71,-258.02 505,-244 518.89,-217.3 524,-209.1 524,-179 524,-179 524,-179 524,-121 524,-40.02 405.24,-18.64 339.9,-13.01"/>
<polygon fill="midnightblue" stroke="midnightblue" points="340.14,-9.52 329.9,-12.23 339.6,-16.5 340.14,-9.52"/>
</g>
<!-- Node15&#45;&gt;Node10 -->
<g id="edge28" class="edge">
<title>Node15&#45;&gt;Node10</title>
<path fill="none" stroke="midnightblue" d="M495.62,-281.89C533.92,-271.45 600.92,-252.3 609,-244 630,-222.44 628,-209.1 628,-179 628,-179 628,-179 628,-121 628,-81.78 595.38,-45.84 573.75,-26.32"/>
<polygon fill="midnightblue" stroke="midnightblue" points="575.93,-23.58 566.09,-19.67 571.35,-28.87 575.93,-23.58"/>
</g>
<!-- Node16 -->
<g id="node16" class="node">
<title>Node16</title>
<g id="a_node16"><a xlink:title=" ">
<polygon fill="white" stroke="#bfbfbf" points="552,-224.5 552,-243.5 600,-243.5 600,-224.5 552,-224.5"/>
<text text-anchor="middle" x="576" y="-231.5" font-family="Helvetica,sans-Serif" font-size="10.00">time.h</text>
</a>
</g>
</g>
<!-- Node15&#45;&gt;Node16 -->
<g id="edge30" class="edge">
<title>Node15&#45;&gt;Node16</title>
<path fill="none" stroke="midnightblue" d="M486.19,-280.32C503.35,-271.66 529.95,-258.24 549.75,-248.25"/>
<polygon fill="midnightblue" stroke="midnightblue" points="551.5,-251.28 558.85,-243.65 548.35,-245.04 551.5,-251.28"/>
</g>
<!-- Node17 -->
<g id="node17" class="node">
<title>Node17</title>
<g id="a_node17"><a xlink:title=" ">
<polygon fill="white" stroke="#bfbfbf" points="442.5,-224.5 442.5,-243.5 495.5,-243.5 495.5,-224.5 442.5,-224.5"/>
<text text-anchor="middle" x="469" y="-231.5" font-family="Helvetica,sans-Serif" font-size="10.00">string.h</text>
</a>
</g>
</g>
<!-- Node15&#45;&gt;Node17 -->
<g id="edge31" class="edge">
<title>Node15&#45;&gt;Node17</title>
<path fill="none" stroke="midnightblue" d="M469,-280.08C469,-273.01 469,-262.86 469,-253.99"/>
<polygon fill="midnightblue" stroke="midnightblue" points="472.5,-253.75 469,-243.75 465.5,-253.75 472.5,-253.75"/>
</g>
</g>
</svg>
