<?xml version="1.0" encoding="UTF-8" standalone="no"?>
<!DOCTYPE svg PUBLIC "-//W3C//DTD SVG 1.1//EN"
 "http://www.w3.org/Graphics/SVG/1.1/DTD/svg11.dtd">
<!-- Generated by graphviz version 2.43.0 (0)
 -->
<!-- Title: init_bitmaps Pages: 1 -->
<svg width="389pt" height="180pt"
 viewBox="0.00 0.00 389.00 180.00" xmlns="http://www.w3.org/2000/svg" xmlns:xlink="http://www.w3.org/1999/xlink">
<g id="graph0" class="graph" transform="scale(1 1) rotate(0) translate(4 176)">
<title>init_bitmaps</title>
<polygon fill="white" stroke="transparent" points="-4,4 -4,-176 385,-176 385,4 -4,4"/>
<!-- Node1 -->
<g id="node1" class="node">
<title>Node1</title>
<g id="a_node1"><a xlink:title=" ">
<polygon fill="#bfbfbf" stroke="black" points="0,-76.5 0,-95.5 77,-95.5 77,-76.5 0,-76.5"/>
<text text-anchor="middle" x="38.5" y="-83.5" font-family="Helvetica,sans-Serif" font-size="10.00">init_bitmaps</text>
</a>
</g>
</g>
<!-- Node2 -->
<g id="node2" class="node">
<title>Node2</title>
<g id="a_node2"><a xlink:href="main_8c.html#a7cb642cbefeb5eca23c4a56384ce8b6b" target="_top" xlink:title=" ">
<polygon fill="white" stroke="black" points="142,-152.5 142,-171.5 195,-171.5 195,-152.5 142,-152.5"/>
<text text-anchor="middle" x="168.5" y="-159.5" font-family="Helvetica,sans-Serif" font-size="10.00">init_car</text>
</a>
</g>
</g>
<!-- Node1&#45;&gt;Node2 -->
<g id="edge1" class="edge">
<title>Node1&#45;&gt;Node2</title>
<path fill="none" stroke="midnightblue" d="M49.69,-95.67C63.23,-108.08 88.31,-129.59 113,-143 119.03,-146.28 125.74,-149.16 132.33,-151.63"/>
<polygon fill="midnightblue" stroke="midnightblue" points="131.22,-154.95 141.81,-154.94 133.53,-148.34 131.22,-154.95"/>
</g>
<!-- Node3 -->
<g id="node3" class="node">
<title>Node3</title>
<g id="a_node3"><a xlink:href="main_8c.html#a8a4df149a98808357f97ece821bc653a" target="_top" xlink:title=" ">
<polygon fill="white" stroke="black" points="124,-114.5 124,-133.5 213,-133.5 213,-114.5 124,-114.5"/>
<text text-anchor="middle" x="168.5" y="-121.5" font-family="Helvetica,sans-Serif" font-size="10.00">init_perception</text>
</a>
</g>
</g>
<!-- Node1&#45;&gt;Node3 -->
<g id="edge2" class="edge">
<title>Node1&#45;&gt;Node3</title>
<path fill="none" stroke="midnightblue" d="M71.8,-95.59C88.02,-100.4 107.88,-106.3 125.29,-111.47"/>
<polygon fill="midnightblue" stroke="midnightblue" points="124.63,-114.92 135.21,-114.41 126.62,-108.21 124.63,-114.92"/>
</g>
<!-- Node4 -->
<g id="node4" class="node">
<title>Node4</title>
<g id="a_node4"><a xlink:href="main_8c.html#a7f21658ab78ff07401a1c66eba62c0dd" target="_top" xlink:title=" ">
<polygon fill="white" stroke="black" points="137.5,-76.5 137.5,-95.5 199.5,-95.5 199.5,-76.5 137.5,-76.5"/>
<text text-anchor="middle" x="168.5" y="-83.5" font-family="Helvetica,sans-Serif" font-size="10.00">init_track</text>
</a>
</g>
</g>
<!-- Node1&#45;&gt;Node4 -->
<g id="edge3" class="edge">
<title>Node1&#45;&gt;Node4</title>
<path fill="none" stroke="midnightblue" d="M77.21,-86C92.94,-86 111.23,-86 127.22,-86"/>
<polygon fill="midnightblue" stroke="midnightblue" points="127.35,-89.5 137.35,-86 127.35,-82.5 127.35,-89.5"/>
</g>
<!-- Node7 -->
<g id="node7" class="node">
<title>Node7</title>
<g id="a_node7"><a xlink:href="main_8c.html#af157d4a7f2f1670050ead305cbe70248" target="_top" xlink:title=" ">
<polygon fill="white" stroke="black" points="126,-38.5 126,-57.5 211,-57.5 211,-38.5 126,-38.5"/>
<text text-anchor="middle" x="168.5" y="-45.5" font-family="Helvetica,sans-Serif" font-size="10.00">init_trajectory</text>
</a>
</g>
</g>
<!-- Node1&#45;&gt;Node7 -->
<g id="edge6" class="edge">
<title>Node1&#45;&gt;Node7</title>
<path fill="none" stroke="midnightblue" d="M71.8,-76.41C88.02,-71.6 107.88,-65.7 125.29,-60.53"/>
<polygon fill="midnightblue" stroke="midnightblue" points="126.62,-63.79 135.21,-57.59 124.63,-57.08 126.62,-63.79"/>
</g>
<!-- Node8 -->
<g id="node8" class="node">
<title>Node8</title>
<g id="a_node8"><a xlink:href="main_8c.html#a632e1b0925c0e3555aa4bfda0ebf5375" target="_top" xlink:title=" ">
<polygon fill="white" stroke="black" points="113,-0.5 113,-19.5 224,-19.5 224,-0.5 113,-0.5"/>
<text text-anchor="middle" x="168.5" y="-7.5" font-family="Helvetica,sans-Serif" font-size="10.00">init_visual_controls</text>
</a>
</g>
</g>
<!-- Node1&#45;&gt;Node8 -->
<g id="edge7" class="edge">
<title>Node1&#45;&gt;Node8</title>
<path fill="none" stroke="midnightblue" d="M49.69,-76.33C63.23,-63.92 88.31,-42.41 113,-29 116.76,-26.96 120.79,-25.06 124.89,-23.33"/>
<polygon fill="midnightblue" stroke="midnightblue" points="126.44,-26.48 134.48,-19.58 123.9,-19.96 126.44,-26.48"/>
</g>
<!-- Node5 -->
<g id="node5" class="node">
<title>Node5</title>
<g id="a_node5"><a xlink:href="utilities_8h.html#a5297509bfed850c9f8cb92b994b7fd75" target="_top" xlink:title="Initializes an array of cone structures.">
<polygon fill="white" stroke="black" points="287.5,-95.5 287.5,-114.5 353.5,-114.5 353.5,-95.5 287.5,-95.5"/>
<text text-anchor="middle" x="320.5" y="-102.5" font-family="Helvetica,sans-Serif" font-size="10.00">init_cones</text>
</a>
</g>
</g>
<!-- Node4&#45;&gt;Node5 -->
<g id="edge4" class="edge">
<title>Node4&#45;&gt;Node5</title>
<path fill="none" stroke="midnightblue" d="M199.85,-89.84C222.1,-92.66 252.59,-96.52 277.22,-99.64"/>
<polygon fill="midnightblue" stroke="midnightblue" points="277.02,-103.15 287.38,-100.93 277.9,-96.2 277.02,-103.15"/>
</g>
<!-- Node6 -->
<g id="node6" class="node">
<title>Node6</title>
<g id="a_node6"><a xlink:href="utilities_8h.html#a77d50bbb4a4844ce7ddab4a7b3d52d24" target="_top" xlink:title=" ">
<polygon fill="white" stroke="black" points="260,-57.5 260,-76.5 381,-76.5 381,-57.5 260,-57.5"/>
<text text-anchor="middle" x="320.5" y="-64.5" font-family="Helvetica,sans-Serif" font-size="10.00">load_cones_positions</text>
</a>
</g>
</g>
<!-- Node4&#45;&gt;Node6 -->
<g id="edge5" class="edge">
<title>Node4&#45;&gt;Node6</title>
<path fill="none" stroke="midnightblue" d="M199.85,-82.16C214.24,-80.33 232.07,-78.07 249.53,-75.86"/>
<polygon fill="midnightblue" stroke="midnightblue" points="250.26,-79.3 259.74,-74.57 249.38,-72.35 250.26,-79.3"/>
</g>
</g>
</svg>
