<?xml version="1.0" encoding="UTF-8" standalone="no"?>
<!DOCTYPE svg PUBLIC "-//W3C//DTD SVG 1.1//EN"
 "http://www.w3.org/Graphics/SVG/1.1/DTD/svg11.dtd">
<!-- Generated by graphviz version 2.43.0 (0)
 -->
<!-- Title: init_track Pages: 1 -->
<svg width="227pt" height="66pt"
 viewBox="0.00 0.00 227.00 66.00" xmlns="http://www.w3.org/2000/svg" xmlns:xlink="http://www.w3.org/1999/xlink">
<g id="graph0" class="graph" transform="scale(1 1) rotate(0) translate(4 62)">
<title>init_track</title>
<polygon fill="white" stroke="transparent" points="-4,4 -4,-62 223,-62 223,4 -4,4"/>
<!-- Node1 -->
<g id="node1" class="node">
<title>Node1</title>
<g id="a_node1"><a xlink:title=" ">
<polygon fill="#bfbfbf" stroke="black" points="0,-19.5 0,-38.5 62,-38.5 62,-19.5 0,-19.5"/>
<text text-anchor="middle" x="31" y="-26.5" font-family="Helvetica,sans-Serif" font-size="10.00">init_track</text>
</a>
</g>
</g>
<!-- Node2 -->
<g id="node2" class="node">
<title>Node2</title>
<g id="a_node2"><a xlink:href="utilities_8h.html#a5297509bfed850c9f8cb92b994b7fd75" target="_top" xlink:title="Initializes an array of cone structures.">
<polygon fill="white" stroke="black" points="125.5,-38.5 125.5,-57.5 191.5,-57.5 191.5,-38.5 125.5,-38.5"/>
<text text-anchor="middle" x="158.5" y="-45.5" font-family="Helvetica,sans-Serif" font-size="10.00">init_cones</text>
</a>
</g>
</g>
<!-- Node1&#45;&gt;Node2 -->
<g id="edge1" class="edge">
<title>Node1&#45;&gt;Node2</title>
<path fill="none" stroke="midnightblue" d="M62.06,-33.55C78.06,-35.97 98,-38.99 115.51,-41.64"/>
<polygon fill="midnightblue" stroke="midnightblue" points="115.08,-45.12 125.49,-43.15 116.13,-38.2 115.08,-45.12"/>
</g>
<!-- Node3 -->
<g id="node3" class="node">
<title>Node3</title>
<g id="a_node3"><a xlink:href="utilities_8h.html#a77d50bbb4a4844ce7ddab4a7b3d52d24" target="_top" xlink:title=" ">
<polygon fill="white" stroke="black" points="98,-0.5 98,-19.5 219,-19.5 219,-0.5 98,-0.5"/>
<text text-anchor="middle" x="158.5" y="-7.5" font-family="Helvetica,sans-Serif" font-size="10.00">load_cones_positions</text>
</a>
</g>
</g>
<!-- Node1&#45;&gt;Node3 -->
<g id="edge2" class="edge">
<title>Node1&#45;&gt;Node3</title>
<path fill="none" stroke="midnightblue" d="M62.06,-24.45C70,-23.25 78.9,-21.9 87.99,-20.52"/>
<polygon fill="midnightblue" stroke="midnightblue" points="88.53,-23.98 97.9,-19.02 87.49,-17.06 88.53,-23.98"/>
</g>
</g>
</svg>
