<?xml version="1.0" encoding="UTF-8" standalone="no"?>
<!DOCTYPE svg PUBLIC "-//W3C//DTD SVG 1.1//EN"
 "http://www.w3.org/Graphics/SVG/1.1/DTD/svg11.dtd">
<!-- Generated by graphviz version 2.43.0 (0)
 -->
<!-- Title: main Pages: 1 -->
<svg width="658pt" height="584pt"
 viewBox="0.00 0.00 658.00 584.13" xmlns="http://www.w3.org/2000/svg" xmlns:xlink="http://www.w3.org/1999/xlink">
<g id="graph0" class="graph" transform="scale(1 1) rotate(0) translate(4 580.13)">
<title>main</title>
<polygon fill="white" stroke="transparent" points="-4,4 -4,-580.13 654,-580.13 654,4 -4,4"/>
<!-- Node1 -->
<g id="node1" class="node">
<title>Node1</title>
<g id="a_node1"><a xlink:title=" ">
<polygon fill="#bfbfbf" stroke="black" points="0,-323.5 0,-342.5 41,-342.5 41,-323.5 0,-323.5"/>
<text text-anchor="middle" x="20.5" y="-330.5" font-family="Helvetica,sans-Serif" font-size="10.00">main</text>
</a>
</g>
</g>
<!-- Node2 -->
<g id="node2" class="node">
<title>Node2</title>
<g id="a_node2"><a xlink:href="tasks_8h.html#a91e3918bad881fbf7304d534268de11d" target="_top" xlink:title=" ">
<polygon fill="white" stroke="black" points="91.5,-456.5 91.5,-475.5 168.5,-475.5 168.5,-456.5 91.5,-456.5"/>
<text text-anchor="middle" x="130" y="-463.5" font-family="Helvetica,sans-Serif" font-size="10.00">control_task</text>
</a>
</g>
</g>
<!-- Node1&#45;&gt;Node2 -->
<g id="edge1" class="edge">
<title>Node1&#45;&gt;Node2</title>
<path fill="none" stroke="midnightblue" d="M23.61,-342.75C28.82,-364.52 44.31,-417.51 77,-447 78.74,-448.57 80.62,-450.01 82.6,-451.34"/>
<polygon fill="midnightblue" stroke="midnightblue" points="81.32,-454.63 91.76,-456.44 84.72,-448.52 81.32,-454.63"/>
</g>
<!-- Node10 -->
<g id="node10" class="node">
<title>Node10</title>
<g id="a_node10"><a xlink:href="tasks_8h.html#a16cbac3bef85b555e76fe999965c1b7e" target="_top" xlink:title=" ">
<polygon fill="white" stroke="black" points="91,-380.5 91,-399.5 169,-399.5 169,-380.5 91,-380.5"/>
<text text-anchor="middle" x="130" y="-387.5" font-family="Helvetica,sans-Serif" font-size="10.00">display_task</text>
</a>
</g>
</g>
<!-- Node1&#45;&gt;Node10 -->
<g id="edge10" class="edge">
<title>Node1&#45;&gt;Node10</title>
<path fill="none" stroke="midnightblue" d="M33.72,-342.7C44.61,-351 61.22,-362.88 77,-371 81,-373.06 85.28,-375 89.6,-376.8"/>
<polygon fill="midnightblue" stroke="midnightblue" points="88.44,-380.11 99.03,-380.5 91,-373.59 88.44,-380.11"/>
</g>
<!-- Node21 -->
<g id="node21" class="node">
<title>Node21</title>
<g id="a_node21"><a xlink:href="main_8c.html#a56e75a6913a3cb4da05b9f7d02116e7a" target="_top" xlink:title=" ">
<polygon fill="white" stroke="black" points="94.5,-418.5 94.5,-437.5 165.5,-437.5 165.5,-418.5 94.5,-418.5"/>
<text text-anchor="middle" x="130" y="-425.5" font-family="Helvetica,sans-Serif" font-size="10.00">init_allegro</text>
</a>
</g>
</g>
<!-- Node1&#45;&gt;Node21 -->
<g id="edge26" class="edge">
<title>Node1&#45;&gt;Node21</title>
<path fill="none" stroke="midnightblue" d="M26.1,-342.58C34.23,-358.54 52.59,-390.63 77,-409 79.49,-410.88 82.19,-412.58 85,-414.13"/>
<polygon fill="midnightblue" stroke="midnightblue" points="83.7,-417.39 94.23,-418.56 86.73,-411.08 83.7,-417.39"/>
</g>
<!-- Node22 -->
<g id="node22" class="node">
<title>Node22</title>
<g id="a_node22"><a xlink:href="main_8c.html#a6ba20fd6daf4d6ab1e47675b3c1f1ca6" target="_top" xlink:title=" ">
<polygon fill="white" stroke="black" points="91.5,-114.5 91.5,-133.5 168.5,-133.5 168.5,-114.5 91.5,-114.5"/>
<text text-anchor="middle" x="130" y="-121.5" font-family="Helvetica,sans-Serif" font-size="10.00">init_bitmaps</text>
</a>
</g>
</g>
<!-- Node1&#45;&gt;Node22 -->
<g id="edge27" class="edge">
<title>Node1&#45;&gt;Node22</title>
<path fill="none" stroke="midnightblue" d="M25.95,-323.47C35.18,-303.79 57.19,-257.33 77,-219 90.89,-192.12 107.87,-161.49 118.56,-142.45"/>
<polygon fill="midnightblue" stroke="midnightblue" points="121.67,-144.06 123.53,-133.63 115.57,-140.62 121.67,-144.06"/>
</g>
<!-- Node30 -->
<g id="node30" class="node">
<title>Node30</title>
<g id="a_node30"><a xlink:href="tasks_8h.html#a746b11c2b14e499dab89746ee003716d" target="_top" xlink:title="Perception task.">
<polygon fill="white" stroke="black" points="82.5,-228.5 82.5,-247.5 177.5,-247.5 177.5,-228.5 82.5,-228.5"/>
<text text-anchor="middle" x="130" y="-235.5" font-family="Helvetica,sans-Serif" font-size="10.00">perception_task</text>
</a>
</g>
</g>
<!-- Node1&#45;&gt;Node30 -->
<g id="edge35" class="edge">
<title>Node1&#45;&gt;Node30</title>
<path fill="none" stroke="midnightblue" d="M26.1,-323.42C34.23,-307.46 52.59,-275.37 77,-257 79.46,-255.15 82.11,-253.47 84.87,-251.94"/>
<polygon fill="midnightblue" stroke="midnightblue" points="86.47,-255.05 93.96,-247.56 83.43,-248.75 86.47,-255.05"/>
</g>
<!-- Node35 -->
<g id="node35" class="node">
<title>Node35</title>
<g id="a_node35"><a xlink:href="ptask_8h.html#a16dc5b4ee9790f380821701ff6865e90" target="_top" xlink:title=" ">
<polygon fill="white" stroke="black" points="97.5,-304.5 97.5,-323.5 162.5,-323.5 162.5,-304.5 97.5,-304.5"/>
<text text-anchor="middle" x="130" y="-311.5" font-family="Helvetica,sans-Serif" font-size="10.00">ptask_init</text>
</a>
</g>
</g>
<!-- Node1&#45;&gt;Node35 -->
<g id="edge44" class="edge">
<title>Node1&#45;&gt;Node35</title>
<path fill="none" stroke="midnightblue" d="M41.22,-329.52C54.05,-327.25 71.27,-324.2 87.06,-321.41"/>
<polygon fill="midnightblue" stroke="midnightblue" points="87.93,-324.81 97.17,-319.63 86.71,-317.92 87.93,-324.81"/>
</g>
<!-- Node36 -->
<g id="node36" class="node">
<title>Node36</title>
<g id="a_node36"><a xlink:href="ptask_8h.html#a88099c7c946b1d8c34a3717e5d3b8b83" target="_top" xlink:title=" ">
<polygon fill="white" stroke="black" points="93,-266.5 93,-285.5 167,-285.5 167,-266.5 93,-266.5"/>
<text text-anchor="middle" x="130" y="-273.5" font-family="Helvetica,sans-Serif" font-size="10.00">task_create</text>
</a>
</g>
</g>
<!-- Node1&#45;&gt;Node36 -->
<g id="edge45" class="edge">
<title>Node1&#45;&gt;Node36</title>
<path fill="none" stroke="midnightblue" d="M33.72,-323.3C44.61,-315 61.22,-303.12 77,-295 81,-292.94 85.28,-291 89.6,-289.2"/>
<polygon fill="midnightblue" stroke="midnightblue" points="91,-292.41 99.03,-285.5 88.44,-285.89 91,-292.41"/>
</g>
<!-- Node37 -->
<g id="node37" class="node">
<title>Node37</title>
<g id="a_node37"><a xlink:href="tasks_8h.html#ad095128da13e00a037e732dd25ffcbf6" target="_top" xlink:title=" ">
<polygon fill="white" stroke="black" points="85,-342.5 85,-361.5 175,-361.5 175,-342.5 85,-342.5"/>
<text text-anchor="middle" x="130" y="-349.5" font-family="Helvetica,sans-Serif" font-size="10.00">trajectory_task</text>
</a>
</g>
</g>
<!-- Node1&#45;&gt;Node37 -->
<g id="edge46" class="edge">
<title>Node1&#45;&gt;Node37</title>
<path fill="none" stroke="midnightblue" d="M41.22,-336.48C50.78,-338.18 62.79,-340.3 74.83,-342.43"/>
<polygon fill="midnightblue" stroke="midnightblue" points="74.44,-345.91 84.89,-344.2 75.65,-339.02 74.44,-345.91"/>
</g>
<!-- Node39 -->
<g id="node39" class="node">
<title>Node39</title>
<g id="a_node39"><a xlink:href="main_8c.html#a10da25e92e69613be93d099bb029feb2" target="_top" xlink:title=" ">
<polygon fill="white" stroke="black" points="86,-532.5 86,-551.5 174,-551.5 174,-532.5 86,-532.5"/>
<text text-anchor="middle" x="130" y="-539.5" font-family="Helvetica,sans-Serif" font-size="10.00">update_screen</text>
</a>
</g>
</g>
<!-- Node1&#45;&gt;Node39 -->
<g id="edge52" class="edge">
<title>Node1&#45;&gt;Node39</title>
<path fill="none" stroke="midnightblue" d="M23.68,-342.83C29.52,-367.91 47.15,-435.75 77,-485 86.16,-500.12 99.7,-514.8 110.66,-525.47"/>
<polygon fill="midnightblue" stroke="midnightblue" points="108.42,-528.17 118.09,-532.49 113.22,-523.08 108.42,-528.17"/>
</g>
<!-- Node40 -->
<g id="node40" class="node">
<title>Node40</title>
<g id="a_node40"><a xlink:href="ptask_8h.html#a9142a39d7c9be6b98ce01f0c7541d8f7" target="_top" xlink:title=" ">
<polygon fill="white" stroke="black" points="77,-76.5 77,-95.5 183,-95.5 183,-76.5 77,-76.5"/>
<text text-anchor="middle" x="130" y="-83.5" font-family="Helvetica,sans-Serif" font-size="10.00">wait_for_task_end</text>
</a>
</g>
</g>
<!-- Node1&#45;&gt;Node40 -->
<g id="edge54" class="edge">
<title>Node1&#45;&gt;Node40</title>
<path fill="none" stroke="midnightblue" d="M22.65,-323.26C27.43,-284.09 46.99,-138.56 77,-105 78.19,-103.67 79.48,-102.43 80.85,-101.28"/>
<polygon fill="midnightblue" stroke="midnightblue" points="83.03,-104.04 89.43,-95.59 79.16,-98.2 83.03,-104.04"/>
</g>
<!-- Node3 -->
<g id="node3" class="node">
<title>Node3</title>
<g id="a_node3"><a xlink:href="control_8h.html#ae3c1be6c75e99edd3ab89b0d2f6c4b0d" target="_top" xlink:title="Autonomous control routine using centerline waypoints.">
<polygon fill="white" stroke="black" points="219,-532.5 219,-551.5 335,-551.5 335,-532.5 219,-532.5"/>
<text text-anchor="middle" x="277" y="-539.5" font-family="Helvetica,sans-Serif" font-size="10.00">autonomous_control</text>
</a>
</g>
</g>
<!-- Node2&#45;&gt;Node3 -->
<g id="edge2" class="edge">
<title>Node2&#45;&gt;Node3</title>
<path fill="none" stroke="midnightblue" d="M143.52,-475.57C160.06,-487.87 190.46,-509.27 219,-523 223.41,-525.12 228.12,-527.1 232.86,-528.92"/>
<polygon fill="midnightblue" stroke="midnightblue" points="231.99,-532.33 242.58,-532.43 234.37,-525.75 231.99,-532.33"/>
</g>
<!-- Node5 -->
<g id="node5" class="node">
<title>Node5</title>
<g id="a_node5"><a xlink:href="ptask_8h.html#a55744cf37a298cca48b46a38ecd1cbd7" target="_top" xlink:title=" ">
<polygon fill="white" stroke="black" points="231.5,-304.5 231.5,-323.5 322.5,-323.5 322.5,-304.5 231.5,-304.5"/>
<text text-anchor="middle" x="277" y="-311.5" font-family="Helvetica,sans-Serif" font-size="10.00">get_task_index</text>
</a>
</g>
</g>
<!-- Node2&#45;&gt;Node5 -->
<g id="edge4" class="edge">
<title>Node2&#45;&gt;Node5</title>
<path fill="none" stroke="midnightblue" d="M168.76,-456.97C174.04,-454.43 179.01,-451.17 183,-447 219.73,-408.6 181.73,-370.87 219,-333 220.43,-331.55 221.97,-330.21 223.6,-328.97"/>
<polygon fill="midnightblue" stroke="midnightblue" points="225.66,-331.82 232.35,-323.6 221.99,-325.85 225.66,-331.82"/>
</g>
<!-- Node6 -->
<g id="node6" class="node">
<title>Node6</title>
<g id="a_node6"><a xlink:href="control_8h.html#aa7d41004f6e6355c5dd871a9a8c8a59d" target="_top" xlink:title="Adjusts vehicle controls based on keyboard input.">
<polygon fill="white" stroke="black" points="226.5,-494.5 226.5,-513.5 327.5,-513.5 327.5,-494.5 226.5,-494.5"/>
<text text-anchor="middle" x="277" y="-501.5" font-family="Helvetica,sans-Serif" font-size="10.00">keyboard_control</text>
</a>
</g>
</g>
<!-- Node2&#45;&gt;Node6 -->
<g id="edge5" class="edge">
<title>Node2&#45;&gt;Node6</title>
<path fill="none" stroke="midnightblue" d="M167.59,-475.59C186.47,-480.54 209.69,-486.62 229.79,-491.89"/>
<polygon fill="midnightblue" stroke="midnightblue" points="229.11,-495.33 239.67,-494.48 230.89,-488.56 229.11,-495.33"/>
</g>
<!-- Node7 -->
<g id="node7" class="node">
<title>Node7</title>
<g id="a_node7"><a xlink:href="utilities_8h.html#a28b6717d007598c8d776ee5b8652be51" target="_top" xlink:title=" ">
<polygon fill="white" stroke="black" points="249.5,-418.5 249.5,-437.5 304.5,-437.5 304.5,-418.5 249.5,-418.5"/>
<text text-anchor="middle" x="277" y="-425.5" font-family="Helvetica,sans-Serif" font-size="10.00">runtime</text>
</a>
</g>
</g>
<!-- Node2&#45;&gt;Node7 -->
<g id="edge7" class="edge">
<title>Node2&#45;&gt;Node7</title>
<path fill="none" stroke="midnightblue" d="M167.59,-456.41C189.61,-450.64 217.54,-443.32 239.53,-437.56"/>
<polygon fill="midnightblue" stroke="midnightblue" points="240.7,-440.87 249.49,-434.95 238.93,-434.1 240.7,-440.87"/>
</g>
<!-- Node8 -->
<g id="node8" class="node">
<title>Node8</title>
<g id="a_node8"><a xlink:href="ptask_8h.html#ac5a989242ff00476f314f92395f23252" target="_top" xlink:title=" ">
<polygon fill="white" stroke="black" points="222,-380.5 222,-399.5 332,-399.5 332,-380.5 222,-380.5"/>
<text text-anchor="middle" x="277" y="-387.5" font-family="Helvetica,sans-Serif" font-size="10.00">wait_for_activation</text>
</a>
</g>
</g>
<!-- Node2&#45;&gt;Node8 -->
<g id="edge8" class="edge">
<title>Node2&#45;&gt;Node8</title>
<path fill="none" stroke="midnightblue" d="M164.28,-456.45C170.76,-453.88 177.3,-450.75 183,-447 202.44,-434.22 199.38,-421.5 219,-409 222.18,-406.98 225.59,-405.14 229.12,-403.49"/>
<polygon fill="midnightblue" stroke="midnightblue" points="230.73,-406.61 238.61,-399.53 228.03,-400.15 230.73,-406.61"/>
</g>
<!-- Node9 -->
<g id="node9" class="node">
<title>Node9</title>
<g id="a_node9"><a xlink:href="ptask_8h.html#afd8a4ae978d1068cb18f8e5fc03a1f0c" target="_top" xlink:title=" ">
<polygon fill="white" stroke="black" points="231,-342.5 231,-361.5 323,-361.5 323,-342.5 231,-342.5"/>
<text text-anchor="middle" x="277" y="-349.5" font-family="Helvetica,sans-Serif" font-size="10.00">wait_for_period</text>
</a>
</g>
</g>
<!-- Node2&#45;&gt;Node9 -->
<g id="edge9" class="edge">
<title>Node2&#45;&gt;Node9</title>
<path fill="none" stroke="midnightblue" d="M168.28,-456.48C173.62,-453.99 178.74,-450.89 183,-447 210.62,-421.82 191.03,-395.79 219,-371 220.91,-369.31 222.98,-367.76 225.16,-366.35"/>
<polygon fill="midnightblue" stroke="midnightblue" points="226.86,-369.41 233.99,-361.58 223.53,-363.25 226.86,-369.41"/>
</g>
<!-- Node4 -->
<g id="node4" class="node">
<title>Node4</title>
<g id="a_node4"><a xlink:href="group__VehicleModule.html#ga4a1f78c4260229ebd2850350d181cc86" target="_top" xlink:title="Simulates the vehicle&#39;s movement by updating its position and orientation.">
<polygon fill="white" stroke="black" points="387.5,-532.5 387.5,-551.5 475.5,-551.5 475.5,-532.5 387.5,-532.5"/>
<text text-anchor="middle" x="431.5" y="-539.5" font-family="Helvetica,sans-Serif" font-size="10.00">vehicle_model</text>
</a>
</g>
</g>
<!-- Node3&#45;&gt;Node4 -->
<g id="edge3" class="edge">
<title>Node3&#45;&gt;Node4</title>
<path fill="none" stroke="midnightblue" d="M335.22,-542C348.96,-542 363.58,-542 377.13,-542"/>
<polygon fill="midnightblue" stroke="midnightblue" points="377.26,-545.5 387.26,-542 377.26,-538.5 377.26,-545.5"/>
</g>
<!-- Node6&#45;&gt;Node4 -->
<g id="edge6" class="edge">
<title>Node6&#45;&gt;Node4</title>
<path fill="none" stroke="midnightblue" d="M316.48,-513.59C336.52,-518.58 361.2,-524.73 382.48,-530.03"/>
<polygon fill="midnightblue" stroke="midnightblue" points="381.74,-533.46 392.29,-532.48 383.44,-526.67 381.74,-533.46"/>
</g>
<!-- Node10&#45;&gt;Node5 -->
<g id="edge11" class="edge">
<title>Node10&#45;&gt;Node5</title>
<path fill="none" stroke="midnightblue" d="M164.28,-380.45C170.76,-377.88 177.3,-374.75 183,-371 202.44,-358.22 199.38,-345.5 219,-333 222.18,-330.98 225.59,-329.14 229.12,-327.49"/>
<polygon fill="midnightblue" stroke="midnightblue" points="230.73,-330.61 238.61,-323.53 228.03,-324.15 230.73,-330.61"/>
</g>
<!-- Node10&#45;&gt;Node7 -->
<g id="edge12" class="edge">
<title>Node10&#45;&gt;Node7</title>
<path fill="none" stroke="midnightblue" d="M167.59,-399.59C189.61,-405.36 217.54,-412.68 239.53,-418.44"/>
<polygon fill="midnightblue" stroke="midnightblue" points="238.93,-421.9 249.49,-421.05 240.7,-415.13 238.93,-421.9"/>
</g>
<!-- Node10&#45;&gt;Node8 -->
<g id="edge24" class="edge">
<title>Node10&#45;&gt;Node8</title>
<path fill="none" stroke="midnightblue" d="M169.1,-390C182.06,-390 196.94,-390 211.39,-390"/>
<polygon fill="midnightblue" stroke="midnightblue" points="211.8,-393.5 221.8,-390 211.8,-386.5 211.8,-393.5"/>
</g>
<!-- Node10&#45;&gt;Node9 -->
<g id="edge25" class="edge">
<title>Node10&#45;&gt;Node9</title>
<path fill="none" stroke="midnightblue" d="M167.59,-380.41C186.47,-375.46 209.69,-369.38 229.79,-364.11"/>
<polygon fill="midnightblue" stroke="midnightblue" points="230.89,-367.44 239.67,-361.52 229.11,-360.67 230.89,-367.44"/>
</g>
<!-- Node11 -->
<g id="node11" class="node">
<title>Node11</title>
<g id="a_node11"><a xlink:href="display_8h.html#aa2eb9ba074b23fc3b4a91c98e0c83c8b" target="_top" xlink:title="Updates the display.">
<polygon fill="white" stroke="black" points="231.5,-456.5 231.5,-475.5 322.5,-475.5 322.5,-456.5 231.5,-456.5"/>
<text text-anchor="middle" x="277" y="-463.5" font-family="Helvetica,sans-Serif" font-size="10.00">update_display</text>
</a>
</g>
</g>
<!-- Node10&#45;&gt;Node11 -->
<g id="edge13" class="edge">
<title>Node10&#45;&gt;Node11</title>
<path fill="none" stroke="midnightblue" d="M164.28,-399.55C170.76,-402.12 177.3,-405.25 183,-409 202.44,-421.78 199.38,-434.5 219,-447 222.18,-449.02 225.59,-450.86 229.12,-452.51"/>
<polygon fill="midnightblue" stroke="midnightblue" points="228.03,-455.85 238.61,-456.47 230.73,-449.39 228.03,-455.85"/>
</g>
<!-- Node12 -->
<g id="node12" class="node">
<title>Node12</title>
<g id="a_node12"><a xlink:href="display_8c.html#a01a4e859fcc5ddef923afe9a8a674826" target="_top" xlink:title="Renders the car sprite rotated to its current angle.">
<polygon fill="white" stroke="black" points="401,-494.5 401,-513.5 462,-513.5 462,-494.5 401,-494.5"/>
<text text-anchor="middle" x="431.5" y="-501.5" font-family="Helvetica,sans-Serif" font-size="10.00">draw_car</text>
</a>
</g>
</g>
<!-- Node11&#45;&gt;Node12 -->
<g id="edge14" class="edge">
<title>Node11&#45;&gt;Node12</title>
<path fill="none" stroke="midnightblue" d="M316.48,-475.59C339.23,-481.26 367.99,-488.42 390.93,-494.14"/>
<polygon fill="midnightblue" stroke="midnightblue" points="390.14,-497.55 400.69,-496.57 391.83,-490.76 390.14,-497.55"/>
</g>
<!-- Node14 -->
<g id="node14" class="node">
<title>Node14</title>
<g id="a_node14"><a xlink:href="display_8c.html#a385702fb79f2c451da015c3147f80515" target="_top" xlink:title="Draws user control indicators.">
<polygon fill="white" stroke="black" points="389,-456.5 389,-475.5 474,-475.5 474,-456.5 389,-456.5"/>
<text text-anchor="middle" x="431.5" y="-463.5" font-family="Helvetica,sans-Serif" font-size="10.00">draw_controls</text>
</a>
</g>
</g>
<!-- Node11&#45;&gt;Node14 -->
<g id="edge16" class="edge">
<title>Node11&#45;&gt;Node14</title>
<path fill="none" stroke="midnightblue" d="M322.52,-466C340.09,-466 360.4,-466 378.63,-466"/>
<polygon fill="midnightblue" stroke="midnightblue" points="378.8,-469.5 388.8,-466 378.8,-462.5 378.8,-469.5"/>
</g>
<!-- Node15 -->
<g id="node15" class="node">
<title>Node15</title>
<g id="a_node15"><a xlink:href="display_8c.html#acd5437d29ba24cfc00dbd2f9f6b0cd28" target="_top" xlink:title="Renders the complete perception layer.">
<polygon fill="white" stroke="black" points="382.5,-342.5 382.5,-361.5 480.5,-361.5 480.5,-342.5 382.5,-342.5"/>
<text text-anchor="middle" x="431.5" y="-349.5" font-family="Helvetica,sans-Serif" font-size="10.00">draw_perception</text>
</a>
</g>
</g>
<!-- Node11&#45;&gt;Node15 -->
<g id="edge18" class="edge">
<title>Node11&#45;&gt;Node15</title>
<path fill="none" stroke="midnightblue" d="M320.01,-456.42C325.44,-453.96 330.63,-450.87 335,-447 362.97,-422.21 342.87,-395.61 371,-371 372.93,-369.31 375.01,-367.78 377.19,-366.37"/>
<polygon fill="midnightblue" stroke="midnightblue" points="378.9,-369.43 386.06,-361.62 375.59,-363.26 378.9,-369.43"/>
</g>
<!-- Node19 -->
<g id="node19" class="node">
<title>Node19</title>
<g id="a_node19"><a xlink:href="display_8c.html#a92e08b949df5d8a8e5edec1dd86bc360" target="_top" xlink:title="Draws the track.">
<polygon fill="white" stroke="black" points="396,-418.5 396,-437.5 467,-437.5 467,-418.5 396,-418.5"/>
<text text-anchor="middle" x="431.5" y="-425.5" font-family="Helvetica,sans-Serif" font-size="10.00">draw_track</text>
</a>
</g>
</g>
<!-- Node11&#45;&gt;Node19 -->
<g id="edge22" class="edge">
<title>Node11&#45;&gt;Node19</title>
<path fill="none" stroke="midnightblue" d="M316.48,-456.41C337.68,-451.13 364.08,-444.55 386.14,-439.05"/>
<polygon fill="midnightblue" stroke="midnightblue" points="387.08,-442.43 395.94,-436.61 385.39,-435.63 387.08,-442.43"/>
</g>
<!-- Node20 -->
<g id="node20" class="node">
<title>Node20</title>
<g id="a_node20"><a xlink:href="display_8c.html#a2d077fa92b741d504d6ef5c5f2fdd74c" target="_top" xlink:title="Draws the trajectory of the car.">
<polygon fill="white" stroke="black" points="385,-380.5 385,-399.5 478,-399.5 478,-380.5 385,-380.5"/>
<text text-anchor="middle" x="431.5" y="-387.5" font-family="Helvetica,sans-Serif" font-size="10.00">draw_trajectory</text>
</a>
</g>
</g>
<!-- Node11&#45;&gt;Node20 -->
<g id="edge23" class="edge">
<title>Node11&#45;&gt;Node20</title>
<path fill="none" stroke="midnightblue" d="M315.39,-456.47C322.19,-453.94 329.02,-450.81 335,-447 354.62,-434.5 351.3,-421.37 371,-409 374.31,-406.92 377.88,-405.05 381.55,-403.37"/>
<polygon fill="midnightblue" stroke="midnightblue" points="382.91,-406.59 390.84,-399.57 380.26,-400.11 382.91,-406.59"/>
</g>
<!-- Node13 -->
<g id="node13" class="node">
<title>Node13</title>
<g id="a_node13"><a xlink:href="utilities_8h.html#a33090597864cdfd30d87ff99c14eeecb" target="_top" xlink:title=" ">
<polygon fill="white" stroke="black" points="529,-494.5 529,-513.5 649,-513.5 649,-494.5 529,-494.5"/>
<text text-anchor="middle" x="589" y="-501.5" font-family="Helvetica,sans-Serif" font-size="10.00">angle_rotation_sprite</text>
</a>
</g>
</g>
<!-- Node12&#45;&gt;Node13 -->
<g id="edge15" class="edge">
<title>Node12&#45;&gt;Node13</title>
<path fill="none" stroke="midnightblue" d="M462.11,-504C478.25,-504 498.94,-504 518.86,-504"/>
<polygon fill="midnightblue" stroke="midnightblue" points="518.87,-507.5 528.87,-504 518.87,-500.5 518.87,-507.5"/>
</g>
<!-- Node14&#45;&gt;Node13 -->
<g id="edge17" class="edge">
<title>Node14&#45;&gt;Node13</title>
<path fill="none" stroke="midnightblue" d="M471.74,-475.59C492.26,-480.6 517.57,-486.79 539.33,-492.11"/>
<polygon fill="midnightblue" stroke="midnightblue" points="538.5,-495.51 549.04,-494.48 540.16,-488.71 538.5,-495.51"/>
</g>
<!-- Node16 -->
<g id="node16" class="node">
<title>Node16</title>
<g id="a_node16"><a xlink:href="display_8c.html#aa45d316f5e50fa968e686d790d57457b" target="_top" xlink:title="Draws the cone map overlay.">
<polygon fill="white" stroke="black" points="541,-304.5 541,-323.5 637,-323.5 637,-304.5 541,-304.5"/>
<text text-anchor="middle" x="589" y="-311.5" font-family="Helvetica,sans-Serif" font-size="10.00">draw_cone_map</text>
</a>
</g>
</g>
<!-- Node15&#45;&gt;Node16 -->
<g id="edge19" class="edge">
<title>Node15&#45;&gt;Node16</title>
<path fill="none" stroke="midnightblue" d="M471.74,-342.41C492.26,-337.4 517.57,-331.21 539.33,-325.89"/>
<polygon fill="midnightblue" stroke="midnightblue" points="540.16,-329.29 549.04,-323.52 538.5,-322.49 540.16,-329.29"/>
</g>
<!-- Node17 -->
<g id="node17" class="node">
<title>Node17</title>
<g id="a_node17"><a xlink:href="display_8c.html#a298532c4740f2a6785e5c1b0ff7fea9a" target="_top" xlink:title="Renders the detected cones on the perception bitmap.">
<polygon fill="white" stroke="black" points="528,-380.5 528,-399.5 650,-399.5 650,-380.5 528,-380.5"/>
<text text-anchor="middle" x="589" y="-387.5" font-family="Helvetica,sans-Serif" font-size="10.00">draw_detected_cones</text>
</a>
</g>
</g>
<!-- Node15&#45;&gt;Node17 -->
<g id="edge20" class="edge">
<title>Node15&#45;&gt;Node17</title>
<path fill="none" stroke="midnightblue" d="M471.74,-361.59C492.26,-366.6 517.57,-372.79 539.33,-378.11"/>
<polygon fill="midnightblue" stroke="midnightblue" points="538.5,-381.51 549.04,-380.48 540.16,-374.71 538.5,-381.51"/>
</g>
<!-- Node18 -->
<g id="node18" class="node">
<title>Node18</title>
<g id="a_node18"><a xlink:href="display_8c.html#a5c07cb2dc1adb076383bced84f4a8154" target="_top" xlink:title="Draws the lidar/perception view.">
<polygon fill="white" stroke="black" points="555,-342.5 555,-361.5 623,-361.5 623,-342.5 555,-342.5"/>
<text text-anchor="middle" x="589" y="-349.5" font-family="Helvetica,sans-Serif" font-size="10.00">draw_lidar</text>
</a>
</g>
</g>
<!-- Node15&#45;&gt;Node18 -->
<g id="edge21" class="edge">
<title>Node15&#45;&gt;Node18</title>
<path fill="none" stroke="midnightblue" d="M480.85,-352C501.35,-352 525.04,-352 544.93,-352"/>
<polygon fill="midnightblue" stroke="midnightblue" points="544.95,-355.5 554.95,-352 544.95,-348.5 544.95,-355.5"/>
</g>
<!-- Node23 -->
<g id="node23" class="node">
<title>Node23</title>
<g id="a_node23"><a xlink:href="main_8c.html#a7cb642cbefeb5eca23c4a56384ce8b6b" target="_top" xlink:title=" ">
<polygon fill="white" stroke="black" points="250.5,-76.5 250.5,-95.5 303.5,-95.5 303.5,-76.5 250.5,-76.5"/>
<text text-anchor="middle" x="277" y="-83.5" font-family="Helvetica,sans-Serif" font-size="10.00">init_car</text>
</a>
</g>
</g>
<!-- Node22&#45;&gt;Node23 -->
<g id="edge28" class="edge">
<title>Node22&#45;&gt;Node23</title>
<path fill="none" stroke="midnightblue" d="M167.59,-114.41C190,-108.54 218.53,-101.06 240.7,-95.25"/>
<polygon fill="midnightblue" stroke="midnightblue" points="241.6,-98.63 250.39,-92.71 239.83,-91.86 241.6,-98.63"/>
</g>
<!-- Node24 -->
<g id="node24" class="node">
<title>Node24</title>
<g id="a_node24"><a xlink:href="main_8c.html#a8a4df149a98808357f97ece821bc653a" target="_top" xlink:title=" ">
<polygon fill="white" stroke="black" points="232.5,-38.5 232.5,-57.5 321.5,-57.5 321.5,-38.5 232.5,-38.5"/>
<text text-anchor="middle" x="277" y="-45.5" font-family="Helvetica,sans-Serif" font-size="10.00">init_perception</text>
</a>
</g>
</g>
<!-- Node22&#45;&gt;Node24 -->
<g id="edge29" class="edge">
<title>Node22&#45;&gt;Node24</title>
<path fill="none" stroke="midnightblue" d="M164.28,-114.45C170.76,-111.88 177.3,-108.75 183,-105 202.44,-92.22 199.38,-79.5 219,-67 222.18,-64.98 225.59,-63.14 229.12,-61.49"/>
<polygon fill="midnightblue" stroke="midnightblue" points="230.73,-64.61 238.61,-57.53 228.03,-58.15 230.73,-64.61"/>
</g>
<!-- Node25 -->
<g id="node25" class="node">
<title>Node25</title>
<g id="a_node25"><a xlink:href="main_8c.html#a7f21658ab78ff07401a1c66eba62c0dd" target="_top" xlink:title=" ">
<polygon fill="white" stroke="black" points="246,-114.5 246,-133.5 308,-133.5 308,-114.5 246,-114.5"/>
<text text-anchor="middle" x="277" y="-121.5" font-family="Helvetica,sans-Serif" font-size="10.00">init_track</text>
</a>
</g>
</g>
<!-- Node22&#45;&gt;Node25 -->
<g id="edge30" class="edge">
<title>Node22&#45;&gt;Node25</title>
<path fill="none" stroke="midnightblue" d="M168.72,-124C189.25,-124 214.66,-124 235.59,-124"/>
<polygon fill="midnightblue" stroke="midnightblue" points="235.77,-127.5 245.77,-124 235.77,-120.5 235.77,-127.5"/>
</g>
<!-- Node28 -->
<g id="node28" class="node">
<title>Node28</title>
<g id="a_node28"><a xlink:href="main_8c.html#af157d4a7f2f1670050ead305cbe70248" target="_top" xlink:title=" ">
<polygon fill="white" stroke="black" points="234.5,-152.5 234.5,-171.5 319.5,-171.5 319.5,-152.5 234.5,-152.5"/>
<text text-anchor="middle" x="277" y="-159.5" font-family="Helvetica,sans-Serif" font-size="10.00">init_trajectory</text>
</a>
</g>
</g>
<!-- Node22&#45;&gt;Node28 -->
<g id="edge33" class="edge">
<title>Node22&#45;&gt;Node28</title>
<path fill="none" stroke="midnightblue" d="M167.59,-133.59C186.47,-138.54 209.69,-144.62 229.79,-149.89"/>
<polygon fill="midnightblue" stroke="midnightblue" points="229.11,-153.33 239.67,-152.48 230.89,-146.56 229.11,-153.33"/>
</g>
<!-- Node29 -->
<g id="node29" class="node">
<title>Node29</title>
<g id="a_node29"><a xlink:href="main_8c.html#a632e1b0925c0e3555aa4bfda0ebf5375" target="_top" xlink:title=" ">
<polygon fill="white" stroke="black" points="221.5,-0.5 221.5,-19.5 332.5,-19.5 332.5,-0.5 221.5,-0.5"/>
<text text-anchor="middle" x="277" y="-7.5" font-family="Helvetica,sans-Serif" font-size="10.00">init_visual_controls</text>
</a>
</g>
</g>
<!-- Node22&#45;&gt;Node29 -->
<g id="edge34" class="edge">
<title>Node22&#45;&gt;Node29</title>
<path fill="none" stroke="midnightblue" d="M168.28,-114.48C173.62,-111.99 178.74,-108.89 183,-105 210.62,-79.82 191.03,-53.79 219,-29 220.91,-27.31 222.98,-25.76 225.16,-24.35"/>
<polygon fill="midnightblue" stroke="midnightblue" points="226.86,-27.41 233.99,-19.58 223.53,-21.25 226.86,-27.41"/>
</g>
<!-- Node26 -->
<g id="node26" class="node">
<title>Node26</title>
<g id="a_node26"><a xlink:href="utilities_8h.html#a5297509bfed850c9f8cb92b994b7fd75" target="_top" xlink:title="Initializes an array of cone structures.">
<polygon fill="white" stroke="black" points="398.5,-95.5 398.5,-114.5 464.5,-114.5 464.5,-95.5 398.5,-95.5"/>
<text text-anchor="middle" x="431.5" y="-102.5" font-family="Helvetica,sans-Serif" font-size="10.00">init_cones</text>
</a>
</g>
</g>
<!-- Node25&#45;&gt;Node26 -->
<g id="edge31" class="edge">
<title>Node25&#45;&gt;Node26</title>
<path fill="none" stroke="midnightblue" d="M308.13,-120.25C331.02,-117.39 362.78,-113.44 388.22,-110.27"/>
<polygon fill="midnightblue" stroke="midnightblue" points="388.84,-113.72 398.33,-109.01 387.97,-106.77 388.84,-113.72"/>
</g>
<!-- Node27 -->
<g id="node27" class="node">
<title>Node27</title>
<g id="a_node27"><a xlink:href="utilities_8h.html#a77d50bbb4a4844ce7ddab4a7b3d52d24" target="_top" xlink:title=" ">
<polygon fill="white" stroke="black" points="371,-133.5 371,-152.5 492,-152.5 492,-133.5 371,-133.5"/>
<text text-anchor="middle" x="431.5" y="-140.5" font-family="Helvetica,sans-Serif" font-size="10.00">load_cones_positions</text>
</a>
</g>
</g>
<!-- Node25&#45;&gt;Node27 -->
<g id="edge32" class="edge">
<title>Node25&#45;&gt;Node27</title>
<path fill="none" stroke="midnightblue" d="M308.13,-127.75C323.22,-129.63 342.16,-131.99 360.61,-134.29"/>
<polygon fill="midnightblue" stroke="midnightblue" points="360.42,-137.8 370.78,-135.56 361.29,-130.85 360.42,-137.8"/>
</g>
<!-- Node30&#45;&gt;Node5 -->
<g id="edge36" class="edge">
<title>Node30&#45;&gt;Node5</title>
<path fill="none" stroke="midnightblue" d="M164.28,-247.55C170.76,-250.12 177.3,-253.25 183,-257 202.44,-269.78 199.38,-282.5 219,-295 222.18,-297.02 225.59,-298.86 229.12,-300.51"/>
<polygon fill="midnightblue" stroke="midnightblue" points="228.03,-303.85 238.61,-304.47 230.73,-297.39 228.03,-303.85"/>
</g>
<!-- Node30&#45;&gt;Node7 -->
<g id="edge41" class="edge">
<title>Node30&#45;&gt;Node7</title>
<path fill="none" stroke="midnightblue" d="M170.6,-247.57C175.25,-250.03 179.55,-253.12 183,-257 229.12,-308.89 172.15,-357.77 219,-409 224.49,-415.01 231.94,-419.12 239.63,-421.93"/>
<polygon fill="midnightblue" stroke="midnightblue" points="238.79,-425.33 249.38,-424.84 240.8,-418.63 238.79,-425.33"/>
</g>
<!-- Node30&#45;&gt;Node8 -->
<g id="edge42" class="edge">
<title>Node30&#45;&gt;Node8</title>
<path fill="none" stroke="midnightblue" d="M169.81,-247.55C174.7,-250.01 179.28,-253.11 183,-257 219.73,-295.4 181.73,-333.13 219,-371 220.43,-372.45 221.97,-373.79 223.6,-375.03"/>
<polygon fill="midnightblue" stroke="midnightblue" points="221.99,-378.15 232.35,-380.4 225.66,-372.18 221.99,-378.15"/>
</g>
<!-- Node30&#45;&gt;Node9 -->
<g id="edge43" class="edge">
<title>Node30&#45;&gt;Node9</title>
<path fill="none" stroke="midnightblue" d="M168.28,-247.52C173.62,-250.01 178.74,-253.11 183,-257 210.62,-282.18 191.03,-308.21 219,-333 220.91,-334.69 222.98,-336.24 225.16,-337.65"/>
<polygon fill="midnightblue" stroke="midnightblue" points="223.53,-340.75 233.99,-342.42 226.86,-334.59 223.53,-340.75"/>
</g>
<!-- Node31 -->
<g id="node31" class="node">
<title>Node31</title>
<g id="a_node31"><a xlink:href="group__PerceptionModule.html#gad42bf825ec1093bf25b80bc192f3f952" target="_top" xlink:title=" ">
<polygon fill="white" stroke="black" points="258,-228.5 258,-247.5 296,-247.5 296,-228.5 258,-228.5"/>
<text text-anchor="middle" x="277" y="-235.5" font-family="Helvetica,sans-Serif" font-size="10.00">lidar</text>
</a>
</g>
</g>
<!-- Node30&#45;&gt;Node31 -->
<g id="edge37" class="edge">
<title>Node30&#45;&gt;Node31</title>
<path fill="none" stroke="midnightblue" d="M177.68,-238C200.73,-238 227.79,-238 247.68,-238"/>
<polygon fill="midnightblue" stroke="midnightblue" points="247.92,-241.5 257.92,-238 247.92,-234.5 247.92,-241.5"/>
</g>
<!-- Node32 -->
<g id="node32" class="node">
<title>Node32</title>
<g id="a_node32"><a xlink:href="group__PerceptionModule.html#ga9c68a3d545ebb7bb3092f88b7e10084a" target="_top" xlink:title=" ">
<polygon fill="white" stroke="black" points="247.5,-190.5 247.5,-209.5 306.5,-209.5 306.5,-190.5 247.5,-190.5"/>
<text text-anchor="middle" x="277" y="-197.5" font-family="Helvetica,sans-Serif" font-size="10.00">mapping</text>
</a>
</g>
</g>
<!-- Node30&#45;&gt;Node32 -->
<g id="edge38" class="edge">
<title>Node30&#45;&gt;Node32</title>
<path fill="none" stroke="midnightblue" d="M167.59,-228.41C188.88,-222.83 215.71,-215.8 237.34,-210.13"/>
<polygon fill="midnightblue" stroke="midnightblue" points="238.4,-213.47 247.19,-207.55 236.63,-206.7 238.4,-213.47"/>
</g>
<!-- Node33 -->
<g id="node33" class="node">
<title>Node33</title>
<g id="a_node33"><a xlink:href="group__PerceptionModule.html#gaf16a2babc7e4a480309f889a0e848c72" target="_top" xlink:title=" ">
<polygon fill="white" stroke="black" points="373,-190.5 373,-209.5 490,-209.5 490,-190.5 373,-190.5"/>
<text text-anchor="middle" x="431.5" y="-197.5" font-family="Helvetica,sans-Serif" font-size="10.00">check_nearest_point</text>
</a>
</g>
</g>
<!-- Node32&#45;&gt;Node33 -->
<g id="edge39" class="edge">
<title>Node32&#45;&gt;Node33</title>
<path fill="none" stroke="midnightblue" d="M306.68,-200C322.55,-200 343,-200 362.69,-200"/>
<polygon fill="midnightblue" stroke="midnightblue" points="362.89,-203.5 372.89,-200 362.89,-196.5 362.89,-203.5"/>
</g>
<!-- Node34 -->
<g id="node34" class="node">
<title>Node34</title>
<g id="a_node34"><a xlink:href="group__PerceptionModule.html#ga697c64eba1fb6796e0e5ccc17dc578dd" target="_top" xlink:title=" ">
<polygon fill="white" stroke="black" points="393,-228.5 393,-247.5 470,-247.5 470,-228.5 393,-228.5"/>
<text text-anchor="middle" x="431.5" y="-235.5" font-family="Helvetica,sans-Serif" font-size="10.00">update_map</text>
</a>
</g>
</g>
<!-- Node32&#45;&gt;Node34 -->
<g id="edge40" class="edge">
<title>Node32&#45;&gt;Node34</title>
<path fill="none" stroke="midnightblue" d="M306.68,-207.15C328.07,-212.48 357.76,-219.88 382.71,-226.09"/>
<polygon fill="midnightblue" stroke="midnightblue" points="382.17,-229.56 392.72,-228.59 383.86,-222.77 382.17,-229.56"/>
</g>
<!-- Node37&#45;&gt;Node5 -->
<g id="edge47" class="edge">
<title>Node37&#45;&gt;Node5</title>
<path fill="none" stroke="midnightblue" d="M167.59,-342.41C186.47,-337.46 209.69,-331.38 229.79,-326.11"/>
<polygon fill="midnightblue" stroke="midnightblue" points="230.89,-329.44 239.67,-323.52 229.11,-322.67 230.89,-329.44"/>
</g>
<!-- Node37&#45;&gt;Node7 -->
<g id="edge48" class="edge">
<title>Node37&#45;&gt;Node7</title>
<path fill="none" stroke="midnightblue" d="M164.28,-361.55C170.76,-364.12 177.3,-367.25 183,-371 202.44,-383.78 199.38,-396.5 219,-409 225.29,-413.01 232.51,-416.26 239.66,-418.86"/>
<polygon fill="midnightblue" stroke="midnightblue" points="238.66,-422.22 249.26,-422.02 240.85,-415.57 238.66,-422.22"/>
</g>
<!-- Node37&#45;&gt;Node8 -->
<g id="edge50" class="edge">
<title>Node37&#45;&gt;Node8</title>
<path fill="none" stroke="midnightblue" d="M167.59,-361.59C186.47,-366.54 209.69,-372.62 229.79,-377.89"/>
<polygon fill="midnightblue" stroke="midnightblue" points="229.11,-381.33 239.67,-380.48 230.89,-374.56 229.11,-381.33"/>
</g>
<!-- Node37&#45;&gt;Node9 -->
<g id="edge51" class="edge">
<title>Node37&#45;&gt;Node9</title>
<path fill="none" stroke="midnightblue" d="M175.29,-352C189.64,-352 205.73,-352 220.77,-352"/>
<polygon fill="midnightblue" stroke="midnightblue" points="220.98,-355.5 230.98,-352 220.98,-348.5 220.98,-355.5"/>
</g>
<!-- Node38 -->
<g id="node38" class="node">
<title>Node38</title>
<g id="a_node38"><a xlink:href="trajectory_8h.html#a919f2f0e87ab763cdae69585d089d23d" target="_top" xlink:title=" ">
<polygon fill="white" stroke="black" points="221.5,-266.5 221.5,-285.5 332.5,-285.5 332.5,-266.5 221.5,-266.5"/>
<text text-anchor="middle" x="277" y="-273.5" font-family="Helvetica,sans-Serif" font-size="10.00">trajectory_planning</text>
</a>
</g>
</g>
<!-- Node37&#45;&gt;Node38 -->
<g id="edge49" class="edge">
<title>Node37&#45;&gt;Node38</title>
<path fill="none" stroke="midnightblue" d="M164.28,-342.45C170.76,-339.88 177.3,-336.75 183,-333 202.44,-320.22 199.38,-307.5 219,-295 222.18,-292.98 225.59,-291.14 229.12,-289.49"/>
<polygon fill="midnightblue" stroke="midnightblue" points="230.73,-292.61 238.61,-285.53 228.03,-286.15 230.73,-292.61"/>
</g>
<!-- Node39&#45;&gt;Node13 -->
<g id="edge53" class="edge">
<title>Node39&#45;&gt;Node13</title>
<path fill="none" stroke="midnightblue" d="M168.21,-551.55C234.61,-566.95 377.31,-592.48 492,-561 521.05,-553.03 550.2,-533.73 568.63,-519.8"/>
<polygon fill="midnightblue" stroke="midnightblue" points="570.79,-522.55 576.54,-513.65 566.49,-517.02 570.79,-522.55"/>
</g>
</g>
</svg>
