<?xml version="1.0" encoding="UTF-8" standalone="no"?>
<!DOCTYPE svg PUBLIC "-//W3C//DTD SVG 1.1//EN"
 "http://www.w3.org/Graphics/SVG/1.1/DTD/svg11.dtd">
<!-- Generated by graphviz version 2.43.0 (0)
 -->
<!-- Title: src/perception.c Pages: 1 -->
<svg width="387pt" height="196pt"
 viewBox="0.00 0.00 387.00 196.00" xmlns="http://www.w3.org/2000/svg" xmlns:xlink="http://www.w3.org/1999/xlink">
<g id="graph0" class="graph" transform="scale(1 1) rotate(0) translate(4 192)">
<title>src/perception.c</title>
<polygon fill="white" stroke="transparent" points="-4,4 -4,-192 383,-192 383,4 -4,4"/>
<!-- Node1 -->
<g id="node1" class="node">
<title>Node1</title>
<g id="a_node1"><a xlink:title="Implements LiDAR&#45;based cone detection and mapping using circle Hough transform.">
<polygon fill="#bfbfbf" stroke="black" points="86,-168.5 86,-187.5 180,-187.5 180,-168.5 86,-168.5"/>
<text text-anchor="middle" x="133" y="-175.5" font-family="Helvetica,sans-Serif" font-size="10.00">src/perception.c</text>
</a>
</g>
</g>
<!-- Node2 -->
<g id="node2" class="node">
<title>Node2</title>
<g id="a_node2"><a xlink:title=" ">
<polygon fill="white" stroke="#bfbfbf" points="0,-112.5 0,-131.5 50,-131.5 50,-112.5 0,-112.5"/>
<text text-anchor="middle" x="25" y="-119.5" font-family="Helvetica,sans-Serif" font-size="10.00">stdio.h</text>
</a>
</g>
</g>
<!-- Node1&#45;&gt;Node2 -->
<g id="edge1" class="edge">
<title>Node1&#45;&gt;Node2</title>
<path fill="none" stroke="midnightblue" d="M115.65,-168.32C98.33,-159.66 71.48,-146.24 51.5,-136.25"/>
<polygon fill="midnightblue" stroke="midnightblue" points="52.82,-133 42.31,-131.65 49.69,-139.26 52.82,-133"/>
</g>
<!-- Node3 -->
<g id="node3" class="node">
<title>Node3</title>
<g id="a_node3"><a xlink:title=" ">
<polygon fill="white" stroke="#bfbfbf" points="117.5,-56.5 117.5,-75.5 168.5,-75.5 168.5,-56.5 117.5,-56.5"/>
<text text-anchor="middle" x="143" y="-63.5" font-family="Helvetica,sans-Serif" font-size="10.00">math.h</text>
</a>
</g>
</g>
<!-- Node1&#45;&gt;Node3 -->
<g id="edge2" class="edge">
<title>Node1&#45;&gt;Node3</title>
<path fill="none" stroke="midnightblue" d="M122.53,-168.47C108.98,-156.32 88.1,-133.17 97,-112 102.03,-100.05 111.94,-89.69 121.29,-81.93"/>
<polygon fill="midnightblue" stroke="midnightblue" points="123.44,-84.69 129.21,-75.81 119.16,-79.15 123.44,-84.69"/>
</g>
<!-- Node4 -->
<g id="node4" class="node">
<title>Node4</title>
<g id="a_node4"><a xlink:title=" ">
<polygon fill="white" stroke="#bfbfbf" points="106.5,-112.5 106.5,-131.5 159.5,-131.5 159.5,-112.5 106.5,-112.5"/>
<text text-anchor="middle" x="133" y="-119.5" font-family="Helvetica,sans-Serif" font-size="10.00">string.h</text>
</a>
</g>
</g>
<!-- Node1&#45;&gt;Node4 -->
<g id="edge3" class="edge">
<title>Node1&#45;&gt;Node4</title>
<path fill="none" stroke="midnightblue" d="M133,-168.08C133,-161.01 133,-150.86 133,-141.99"/>
<polygon fill="midnightblue" stroke="midnightblue" points="136.5,-141.75 133,-131.75 129.5,-141.75 136.5,-141.75"/>
</g>
<!-- Node5 -->
<g id="node5" class="node">
<title>Node5</title>
<g id="a_node5"><a xlink:href="globals_8h.html" target="_top" xlink:title="Global constants, variables, and structures for the simulation and visualization system.">
<polygon fill="white" stroke="black" points="218.5,-56.5 218.5,-75.5 279.5,-75.5 279.5,-56.5 218.5,-56.5"/>
<text text-anchor="middle" x="249" y="-63.5" font-family="Helvetica,sans-Serif" font-size="10.00">globals.h</text>
</a>
</g>
</g>
<!-- Node1&#45;&gt;Node5 -->
<g id="edge4" class="edge">
<title>Node1&#45;&gt;Node5</title>
<path fill="none" stroke="midnightblue" d="M180.17,-174.1C209.48,-169.57 245.07,-158.52 264,-132 273.95,-118.06 267.4,-98.54 260.09,-84.53"/>
<polygon fill="midnightblue" stroke="midnightblue" points="263.12,-82.78 255.11,-75.85 257.05,-86.27 263.12,-82.78"/>
</g>
<!-- Node9 -->
<g id="node9" class="node">
<title>Node9</title>
<g id="a_node9"><a xlink:href="perception_8h.html" target="_top" xlink:title="Header file for perception&#45;related types, constants, and function declarations.">
<polygon fill="white" stroke="black" points="177.5,-112.5 177.5,-131.5 254.5,-131.5 254.5,-112.5 177.5,-112.5"/>
<text text-anchor="middle" x="216" y="-119.5" font-family="Helvetica,sans-Serif" font-size="10.00">perception.h</text>
</a>
</g>
</g>
<!-- Node1&#45;&gt;Node9 -->
<g id="edge8" class="edge">
<title>Node1&#45;&gt;Node9</title>
<path fill="none" stroke="midnightblue" d="M146.34,-168.32C159.16,-159.98 178.78,-147.21 193.94,-137.35"/>
<polygon fill="midnightblue" stroke="midnightblue" points="196.22,-140.04 202.7,-131.65 192.41,-134.17 196.22,-140.04"/>
</g>
<!-- Node6 -->
<g id="node6" class="node">
<title>Node6</title>
<g id="a_node6"><a xlink:title=" ">
<polygon fill="white" stroke="#bfbfbf" points="140.5,-0.5 140.5,-19.5 199.5,-19.5 199.5,-0.5 140.5,-0.5"/>
<text text-anchor="middle" x="170" y="-7.5" font-family="Helvetica,sans-Serif" font-size="10.00">allegro.h</text>
</a>
</g>
</g>
<!-- Node5&#45;&gt;Node6 -->
<g id="edge5" class="edge">
<title>Node5&#45;&gt;Node6</title>
<path fill="none" stroke="midnightblue" d="M236.31,-56.32C224.1,-47.98 205.42,-35.21 191,-25.35"/>
<polygon fill="midnightblue" stroke="midnightblue" points="192.89,-22.41 182.66,-19.65 188.94,-28.19 192.89,-22.41"/>
</g>
<!-- Node7 -->
<g id="node7" class="node">
<title>Node7</title>
<g id="a_node7"><a xlink:title=" ">
<polygon fill="white" stroke="#bfbfbf" points="217.5,-0.5 217.5,-19.5 280.5,-19.5 280.5,-0.5 217.5,-0.5"/>
<text text-anchor="middle" x="249" y="-7.5" font-family="Helvetica,sans-Serif" font-size="10.00">pthread.h</text>
</a>
</g>
</g>
<!-- Node5&#45;&gt;Node7 -->
<g id="edge6" class="edge">
<title>Node5&#45;&gt;Node7</title>
<path fill="none" stroke="midnightblue" d="M249,-56.08C249,-49.01 249,-38.86 249,-29.99"/>
<polygon fill="midnightblue" stroke="midnightblue" points="252.5,-29.75 249,-19.75 245.5,-29.75 252.5,-29.75"/>
</g>
<!-- Node8 -->
<g id="node8" class="node">
<title>Node8</title>
<g id="a_node8"><a xlink:title=" ">
<polygon fill="white" stroke="#bfbfbf" points="299,-0.5 299,-19.5 379,-19.5 379,-0.5 299,-0.5"/>
<text text-anchor="middle" x="339" y="-7.5" font-family="Helvetica,sans-Serif" font-size="10.00">semaphore.h</text>
</a>
</g>
</g>
<!-- Node5&#45;&gt;Node8 -->
<g id="edge7" class="edge">
<title>Node5&#45;&gt;Node8</title>
<path fill="none" stroke="midnightblue" d="M263.46,-56.32C277.5,-47.9 299.05,-34.97 315.54,-25.07"/>
<polygon fill="midnightblue" stroke="midnightblue" points="317.8,-27.8 324.58,-19.65 314.2,-21.8 317.8,-27.8"/>
</g>
<!-- Node9&#45;&gt;Node3 -->
<g id="edge9" class="edge">
<title>Node9&#45;&gt;Node3</title>
<path fill="none" stroke="midnightblue" d="M204.27,-112.32C193.16,-104.11 176.26,-91.6 163.02,-81.81"/>
<polygon fill="midnightblue" stroke="midnightblue" points="165.06,-78.97 154.94,-75.83 160.9,-84.59 165.06,-78.97"/>
</g>
<!-- Node9&#45;&gt;Node5 -->
<g id="edge10" class="edge">
<title>Node9&#45;&gt;Node5</title>
<path fill="none" stroke="midnightblue" d="M221.45,-112.08C226.01,-104.61 232.67,-93.72 238.29,-84.52"/>
<polygon fill="midnightblue" stroke="midnightblue" points="241.42,-86.11 243.65,-75.75 235.45,-82.46 241.42,-86.11"/>
</g>
</g>
</svg>
