<?xml version="1.0" encoding="UTF-8" standalone="no"?>
<!DOCTYPE svg PUBLIC "-//W3C//DTD SVG 1.1//EN"
 "http://www.w3.org/Graphics/SVG/1.1/DTD/svg11.dtd">
<!-- Generated by graphviz version 2.43.0 (0)
 -->
<!-- Title: include/perception.h Pages: 1 -->
<svg width="247pt" height="140pt"
 viewBox="0.00 0.00 246.50 140.00" xmlns="http://www.w3.org/2000/svg" xmlns:xlink="http://www.w3.org/1999/xlink">
<g id="graph0" class="graph" transform="scale(1 1) rotate(0) translate(4 136)">
<title>include/perception.h</title>
<polygon fill="white" stroke="transparent" points="-4,4 -4,-136 242.5,-136 242.5,4 -4,4"/>
<!-- Node1 -->
<g id="node1" class="node">
<title>Node1</title>
<g id="a_node1"><a xlink:title="Header file for perception&#45;related types, constants, and function declarations.">
<polygon fill="#bfbfbf" stroke="black" points="13.5,-112.5 13.5,-131.5 129.5,-131.5 129.5,-112.5 13.5,-112.5"/>
<text text-anchor="middle" x="71.5" y="-119.5" font-family="Helvetica,sans-Serif" font-size="10.00">include/perception.h</text>
</a>
</g>
</g>
<!-- Node2 -->
<g id="node2" class="node">
<title>Node2</title>
<g id="a_node2"><a xlink:title=" ">
<polygon fill="white" stroke="#bfbfbf" points="9,-56.5 9,-75.5 60,-75.5 60,-56.5 9,-56.5"/>
<text text-anchor="middle" x="34.5" y="-63.5" font-family="Helvetica,sans-Serif" font-size="10.00">math.h</text>
</a>
</g>
</g>
<!-- Node1&#45;&gt;Node2 -->
<g id="edge1" class="edge">
<title>Node1&#45;&gt;Node2</title>
<path fill="none" stroke="midnightblue" d="M65.39,-112.08C60.22,-104.53 52.65,-93.49 46.31,-84.23"/>
<polygon fill="midnightblue" stroke="midnightblue" points="49.04,-82.02 40.5,-75.75 43.26,-85.98 49.04,-82.02"/>
</g>
<!-- Node3 -->
<g id="node3" class="node">
<title>Node3</title>
<g id="a_node3"><a xlink:href="globals_8h.html" target="_top" xlink:title="Global constants, variables, and structures for the simulation and visualization system.">
<polygon fill="white" stroke="black" points="78,-56.5 78,-75.5 139,-75.5 139,-56.5 78,-56.5"/>
<text text-anchor="middle" x="108.5" y="-63.5" font-family="Helvetica,sans-Serif" font-size="10.00">globals.h</text>
</a>
</g>
</g>
<!-- Node1&#45;&gt;Node3 -->
<g id="edge2" class="edge">
<title>Node1&#45;&gt;Node3</title>
<path fill="none" stroke="midnightblue" d="M77.61,-112.08C82.78,-104.53 90.35,-93.49 96.69,-84.23"/>
<polygon fill="midnightblue" stroke="midnightblue" points="99.74,-85.98 102.5,-75.75 93.96,-82.02 99.74,-85.98"/>
</g>
<!-- Node4 -->
<g id="node4" class="node">
<title>Node4</title>
<g id="a_node4"><a xlink:title=" ">
<polygon fill="white" stroke="#bfbfbf" points="0,-0.5 0,-19.5 59,-19.5 59,-0.5 0,-0.5"/>
<text text-anchor="middle" x="29.5" y="-7.5" font-family="Helvetica,sans-Serif" font-size="10.00">allegro.h</text>
</a>
</g>
</g>
<!-- Node3&#45;&gt;Node4 -->
<g id="edge3" class="edge">
<title>Node3&#45;&gt;Node4</title>
<path fill="none" stroke="midnightblue" d="M95.81,-56.32C83.6,-47.98 64.92,-35.21 50.5,-25.35"/>
<polygon fill="midnightblue" stroke="midnightblue" points="52.39,-22.41 42.16,-19.65 48.44,-28.19 52.39,-22.41"/>
</g>
<!-- Node5 -->
<g id="node5" class="node">
<title>Node5</title>
<g id="a_node5"><a xlink:title=" ">
<polygon fill="white" stroke="#bfbfbf" points="77,-0.5 77,-19.5 140,-19.5 140,-0.5 77,-0.5"/>
<text text-anchor="middle" x="108.5" y="-7.5" font-family="Helvetica,sans-Serif" font-size="10.00">pthread.h</text>
</a>
</g>
</g>
<!-- Node3&#45;&gt;Node5 -->
<g id="edge4" class="edge">
<title>Node3&#45;&gt;Node5</title>
<path fill="none" stroke="midnightblue" d="M108.5,-56.08C108.5,-49.01 108.5,-38.86 108.5,-29.99"/>
<polygon fill="midnightblue" stroke="midnightblue" points="112,-29.75 108.5,-19.75 105,-29.75 112,-29.75"/>
</g>
<!-- Node6 -->
<g id="node6" class="node">
<title>Node6</title>
<g id="a_node6"><a xlink:title=" ">
<polygon fill="white" stroke="#bfbfbf" points="158.5,-0.5 158.5,-19.5 238.5,-19.5 238.5,-0.5 158.5,-0.5"/>
<text text-anchor="middle" x="198.5" y="-7.5" font-family="Helvetica,sans-Serif" font-size="10.00">semaphore.h</text>
</a>
</g>
</g>
<!-- Node3&#45;&gt;Node6 -->
<g id="edge5" class="edge">
<title>Node3&#45;&gt;Node6</title>
<path fill="none" stroke="midnightblue" d="M122.96,-56.32C137,-47.9 158.55,-34.97 175.04,-25.07"/>
<polygon fill="midnightblue" stroke="midnightblue" points="177.3,-27.8 184.08,-19.65 173.7,-21.8 177.3,-27.8"/>
</g>
</g>
</svg>
