<?xml version="1.0" encoding="UTF-8" standalone="no"?>
<!DOCTYPE svg PUBLIC "-//W3C//DTD SVG 1.1//EN"
 "http://www.w3.org/Graphics/SVG/1.1/DTD/svg11.dtd">
<!-- Generated by graphviz version 2.43.0 (0)
 -->
<!-- Title: include/perception.h Pages: 1 -->
<svg width="790pt" height="252pt"
 viewBox="0.00 0.00 789.55 252.00" xmlns="http://www.w3.org/2000/svg" xmlns:xlink="http://www.w3.org/1999/xlink">
<g id="graph0" class="graph" transform="scale(1 1) rotate(0) translate(4 248)">
<title>include/perception.h</title>
<polygon fill="white" stroke="transparent" points="-4,4 -4,-248 785.55,-248 785.55,4 -4,4"/>
<!-- Node1 -->
<g id="node1" class="node">
<title>Node1</title>
<g id="a_node1"><a xlink:title="Header file for perception&#45;related types, constants, and function declarations.">
<polygon fill="#bfbfbf" stroke="black" points="287.05,-224.5 287.05,-243.5 403.05,-243.5 403.05,-224.5 287.05,-224.5"/>
<text text-anchor="middle" x="345.05" y="-231.5" font-family="Helvetica,sans-Serif" font-size="10.00">include/perception.h</text>
</a>
</g>
</g>
<!-- Node2 -->
<g id="node2" class="node">
<title>Node2</title>
<g id="a_node2"><a xlink:href="control_8h.html" target="_top" xlink:title="Declarations for vehicle control functions and variables in the 2D simulator.">
<polygon fill="white" stroke="black" points="178.05,-112.5 178.05,-131.5 276.05,-131.5 276.05,-112.5 178.05,-112.5"/>
<text text-anchor="middle" x="227.05" y="-119.5" font-family="Helvetica,sans-Serif" font-size="10.00">include/control.h</text>
</a>
</g>
</g>
<!-- Node1&#45;&gt;Node2 -->
<g id="edge1" class="edge">
<title>Node1&#45;&gt;Node2</title>
<path fill="none" stroke="midnightblue" d="M325.82,-218.16C315.05,-209.63 301.52,-198.54 290.05,-188 269.23,-168.86 246.54,-144.5 234.91,-131.72"/>
<polygon fill="midnightblue" stroke="midnightblue" points="323.75,-220.98 333.78,-224.4 328.07,-215.47 323.75,-220.98"/>
</g>
<!-- Node4 -->
<g id="node4" class="node">
<title>Node4</title>
<g id="a_node4"><a xlink:href="main_8c.html" target="_top" xlink:title="Main implementation of the 2D FSAE Simulation.">
<polygon fill="white" stroke="black" points="139.55,-0.5 139.55,-19.5 206.55,-19.5 206.55,-0.5 139.55,-0.5"/>
<text text-anchor="middle" x="173.05" y="-7.5" font-family="Helvetica,sans-Serif" font-size="10.00">src/main.c</text>
</a>
</g>
</g>
<!-- Node1&#45;&gt;Node4 -->
<g id="edge22" class="edge">
<title>Node1&#45;&gt;Node4</title>
<path fill="none" stroke="midnightblue" d="M276.69,-232.74C217.92,-230.07 132.27,-220.22 65.05,-188 31.57,-171.95 18.13,-165.93 3.05,-132 -6.36,-110.81 10.71,-62.58 17.05,-56 49.15,-22.73 104.14,-13.62 139.53,-11.37"/>
<polygon fill="midnightblue" stroke="midnightblue" points="276.85,-236.25 286.98,-233.15 277.12,-229.25 276.85,-236.25"/>
</g>
<!-- Node5 -->
<g id="node5" class="node">
<title>Node5</title>
<g id="a_node5"><a xlink:href="tasks_8c.html" target="_top" xlink:title="Contains periodic task functions for LiDAR perception, trajectory planning, vehicle control,...">
<polygon fill="white" stroke="black" points="384.05,-0.5 384.05,-19.5 452.05,-19.5 452.05,-0.5 384.05,-0.5"/>
<text text-anchor="middle" x="418.05" y="-7.5" font-family="Helvetica,sans-Serif" font-size="10.00">src/tasks.c</text>
</a>
</g>
</g>
<!-- Node1&#45;&gt;Node5 -->
<g id="edge24" class="edge">
<title>Node1&#45;&gt;Node5</title>
<path fill="none" stroke="midnightblue" d="M404.09,-222.51C485.74,-206.63 626.35,-173.86 655.05,-132 707.83,-55.04 529.76,-24.19 452.28,-14.61"/>
<polygon fill="midnightblue" stroke="midnightblue" points="403.11,-219.14 393.95,-224.46 404.43,-226.01 403.11,-219.14"/>
</g>
<!-- Node6 -->
<g id="node6" class="node">
<title>Node6</title>
<g id="a_node6"><a xlink:href="control_8c.html" target="_top" xlink:title="Implements vehicle control functions including both manual (keyboard) and autonomous (centerline base...">
<polygon fill="white" stroke="black" points="274.05,-56.5 274.05,-75.5 350.05,-75.5 350.05,-56.5 274.05,-56.5"/>
<text text-anchor="middle" x="312.05" y="-63.5" font-family="Helvetica,sans-Serif" font-size="10.00">src/control.c</text>
</a>
</g>
</g>
<!-- Node1&#45;&gt;Node6 -->
<g id="edge20" class="edge">
<title>Node1&#45;&gt;Node6</title>
<path fill="none" stroke="midnightblue" d="M334.69,-215.58C330.36,-207.47 325.72,-197.53 323.05,-188 311.63,-147.17 311.36,-95.86 311.77,-75.7"/>
<polygon fill="midnightblue" stroke="midnightblue" points="331.71,-217.42 339.67,-224.41 337.81,-213.99 331.71,-217.42"/>
</g>
<!-- Node7 -->
<g id="node7" class="node">
<title>Node7</title>
<g id="a_node7"><a xlink:href="display_8c.html" target="_top" xlink:title="Rendering and display update functions for the 2D simulation using Allegro.">
<polygon fill="white" stroke="black" points="34.05,-56.5 34.05,-75.5 110.05,-75.5 110.05,-56.5 34.05,-56.5"/>
<text text-anchor="middle" x="72.05" y="-63.5" font-family="Helvetica,sans-Serif" font-size="10.00">src/display.c</text>
</a>
</g>
</g>
<!-- Node1&#45;&gt;Node7 -->
<g id="edge21" class="edge">
<title>Node1&#45;&gt;Node7</title>
<path fill="none" stroke="midnightblue" d="M279.92,-222.79C191.99,-207.51 42.64,-175.74 11.05,-132 -4.89,-109.92 29.92,-87.48 53.23,-75.61"/>
<polygon fill="midnightblue" stroke="midnightblue" points="279.35,-226.25 289.8,-224.49 280.53,-219.35 279.35,-226.25"/>
</g>
<!-- Node8 -->
<g id="node8" class="node">
<title>Node8</title>
<g id="a_node8"><a xlink:href="trajectory_8h.html" target="_top" xlink:title="Provides declarations for trajectory planning based on cone detection.">
<polygon fill="white" stroke="black" points="332.05,-168.5 332.05,-187.5 442.05,-187.5 442.05,-168.5 332.05,-168.5"/>
<text text-anchor="middle" x="387.05" y="-175.5" font-family="Helvetica,sans-Serif" font-size="10.00">include/trajectory.h</text>
</a>
</g>
</g>
<!-- Node1&#45;&gt;Node8 -->
<g id="edge8" class="edge">
<title>Node1&#45;&gt;Node8</title>
<path fill="none" stroke="midnightblue" d="M358.16,-216.14C365.48,-206.74 374.29,-195.4 380.24,-187.75"/>
<polygon fill="midnightblue" stroke="midnightblue" points="355.36,-214.04 351.99,-224.08 360.89,-218.34 355.36,-214.04"/>
</g>
<!-- Node9 -->
<g id="node9" class="node">
<title>Node9</title>
<g id="a_node9"><a xlink:href="perception_8c.html" target="_top" xlink:title="Implements LiDAR&#45;based cone detection and mapping using circle Hough transform.">
<polygon fill="white" stroke="black" points="446.05,-112.5 446.05,-131.5 540.05,-131.5 540.05,-112.5 446.05,-112.5"/>
<text text-anchor="middle" x="493.05" y="-119.5" font-family="Helvetica,sans-Serif" font-size="10.00">src/perception.c</text>
</a>
</g>
</g>
<!-- Node1&#45;&gt;Node9 -->
<g id="edge23" class="edge">
<title>Node1&#45;&gt;Node9</title>
<path fill="none" stroke="midnightblue" d="M387.92,-221.31C408.61,-214.14 432.82,-203.33 451.05,-188 469.97,-172.09 483.39,-145.47 489.44,-131.76"/>
<polygon fill="midnightblue" stroke="midnightblue" points="386.8,-218 378.39,-224.45 388.99,-224.65 386.8,-218"/>
</g>
<!-- Node10 -->
<g id="node10" class="node">
<title>Node10</title>
<g id="a_node10"><a xlink:href="trajectory_8c.html" target="_top" xlink:title="Implements trajectory planning based on detected cones.">
<polygon fill="white" stroke="black" points="558.05,-112.5 558.05,-131.5 646.05,-131.5 646.05,-112.5 558.05,-112.5"/>
<text text-anchor="middle" x="602.05" y="-119.5" font-family="Helvetica,sans-Serif" font-size="10.00">src/trajectory.c</text>
</a>
</g>
</g>
<!-- Node1&#45;&gt;Node10 -->
<g id="edge25" class="edge">
<title>Node1&#45;&gt;Node10</title>
<path fill="none" stroke="midnightblue" d="M382.72,-221.34C408.72,-212.93 443.9,-200.84 474.05,-188 515.78,-170.22 562.87,-144.87 586.61,-131.7"/>
<polygon fill="midnightblue" stroke="midnightblue" points="381.35,-218.1 372.89,-224.48 383.48,-224.77 381.35,-218.1"/>
</g>
<!-- Node11 -->
<g id="node11" class="node">
<title>Node11</title>
<g id="a_node11"><a xlink:href="utilities_8h.html" target="_top" xlink:title="Utility function prototypes for cone management and runtime tasks.">
<polygon fill="white" stroke="black" points="20.55,-112.5 20.55,-131.5 121.55,-131.5 121.55,-112.5 20.55,-112.5"/>
<text text-anchor="middle" x="71.05" y="-119.5" font-family="Helvetica,sans-Serif" font-size="10.00">include/utilities.h</text>
</a>
</g>
</g>
<!-- Node1&#45;&gt;Node11 -->
<g id="edge16" class="edge">
<title>Node1&#45;&gt;Node11</title>
<path fill="none" stroke="midnightblue" d="M314.13,-220.59C257.99,-198.05 140.68,-150.95 92.45,-131.59"/>
<polygon fill="midnightblue" stroke="midnightblue" points="312.97,-223.89 323.55,-224.37 315.57,-217.39 312.97,-223.89"/>
</g>
<!-- Node12 -->
<g id="node12" class="node">
<title>Node12</title>
<g id="a_node12"><a xlink:href="utilities_8c.html" target="_top" xlink:title="Utility functions for cone initialization, YAML cone loading, angle rotation conversion,...">
<polygon fill="white" stroke="black" points="702.55,-168.5 702.55,-187.5 781.55,-187.5 781.55,-168.5 702.55,-168.5"/>
<text text-anchor="middle" x="742.05" y="-175.5" font-family="Helvetica,sans-Serif" font-size="10.00">src/utilities.c</text>
</a>
</g>
</g>
<!-- Node1&#45;&gt;Node12 -->
<g id="edge26" class="edge">
<title>Node1&#45;&gt;Node12</title>
<path fill="none" stroke="midnightblue" d="M413.44,-224.74C482.73,-216.2 592.98,-202.15 688.05,-188 692.66,-187.31 697.48,-186.56 702.26,-185.79"/>
<polygon fill="midnightblue" stroke="midnightblue" points="412.59,-221.31 403.09,-226.01 413.45,-228.26 412.59,-221.31"/>
</g>
<!-- Node3 -->
<g id="node3" class="node">
<title>Node3</title>
<g id="a_node3"><a xlink:href="tasks_8h.html" target="_top" xlink:title="Declaration of task thread functions for the simulation.">
<polygon fill="white" stroke="black" points="128.05,-56.5 128.05,-75.5 218.05,-75.5 218.05,-56.5 128.05,-56.5"/>
<text text-anchor="middle" x="173.05" y="-63.5" font-family="Helvetica,sans-Serif" font-size="10.00">include/tasks.h</text>
</a>
</g>
</g>
<!-- Node2&#45;&gt;Node3 -->
<g id="edge2" class="edge">
<title>Node2&#45;&gt;Node3</title>
<path fill="none" stroke="midnightblue" d="M211.05,-105C201.48,-95.43 189.69,-83.64 181.8,-75.75"/>
<polygon fill="midnightblue" stroke="midnightblue" points="208.59,-107.49 218.13,-112.08 213.54,-102.54 208.59,-107.49"/>
</g>
<!-- Node2&#45;&gt;Node4 -->
<g id="edge7" class="edge">
<title>Node2&#45;&gt;Node4</title>
<path fill="none" stroke="midnightblue" d="M231.15,-102.05C233.12,-88.57 233.78,-70.37 227.05,-56 219.39,-39.64 202.54,-27.16 189.68,-19.54"/>
<polygon fill="midnightblue" stroke="midnightblue" points="227.67,-101.61 229.33,-112.08 234.56,-102.87 227.67,-101.61"/>
</g>
<!-- Node2&#45;&gt;Node6 -->
<g id="edge5" class="edge">
<title>Node2&#45;&gt;Node6</title>
<path fill="none" stroke="midnightblue" d="M249.24,-106.9C264.83,-97 285.18,-84.07 298.43,-75.65"/>
<polygon fill="midnightblue" stroke="midnightblue" points="247.27,-104.01 240.71,-112.32 251.03,-109.92 247.27,-104.01"/>
</g>
<!-- Node2&#45;&gt;Node7 -->
<g id="edge6" class="edge">
<title>Node2&#45;&gt;Node7</title>
<path fill="none" stroke="midnightblue" d="M192.72,-109.04C163.55,-98.88 122.41,-84.55 96.5,-75.52"/>
<polygon fill="midnightblue" stroke="midnightblue" points="191.9,-112.46 202.49,-112.44 194.2,-105.85 191.9,-112.46"/>
</g>
<!-- Node3&#45;&gt;Node4 -->
<g id="edge3" class="edge">
<title>Node3&#45;&gt;Node4</title>
<path fill="none" stroke="midnightblue" d="M173.05,-45.8C173.05,-36.91 173.05,-26.78 173.05,-19.75"/>
<polygon fill="midnightblue" stroke="midnightblue" points="169.55,-46.08 173.05,-56.08 176.55,-46.08 169.55,-46.08"/>
</g>
<!-- Node3&#45;&gt;Node5 -->
<g id="edge4" class="edge">
<title>Node3&#45;&gt;Node5</title>
<path fill="none" stroke="midnightblue" d="M221.71,-54.28C269.62,-43.72 341.56,-27.86 383.76,-18.56"/>
<polygon fill="midnightblue" stroke="midnightblue" points="220.88,-50.87 211.87,-56.44 222.39,-57.71 220.88,-50.87"/>
</g>
<!-- Node8&#45;&gt;Node2 -->
<g id="edge9" class="edge">
<title>Node8&#45;&gt;Node2</title>
<path fill="none" stroke="midnightblue" d="M352.01,-165.17C321.88,-155 279.16,-140.59 252.29,-131.52"/>
<polygon fill="midnightblue" stroke="midnightblue" points="351.1,-168.56 361.7,-168.44 353.34,-161.93 351.1,-168.56"/>
</g>
<!-- Node8&#45;&gt;Node4 -->
<g id="edge12" class="edge">
<title>Node8&#45;&gt;Node4</title>
<path fill="none" stroke="midnightblue" d="M388.35,-158C389.06,-131.43 386.14,-83.36 359.05,-56 338.01,-34.75 254.6,-21.14 206.93,-14.93"/>
<polygon fill="midnightblue" stroke="midnightblue" points="384.84,-158.09 387.86,-168.25 391.83,-158.42 384.84,-158.09"/>
</g>
<!-- Node8&#45;&gt;Node5 -->
<g id="edge14" class="edge">
<title>Node8&#45;&gt;Node5</title>
<path fill="none" stroke="midnightblue" d="M390.61,-157.93C397.34,-121.92 411.66,-45.23 416.45,-19.57"/>
<polygon fill="midnightblue" stroke="midnightblue" points="387.11,-157.6 388.72,-168.08 393.99,-158.89 387.11,-157.6"/>
</g>
<!-- Node8&#45;&gt;Node6 -->
<g id="edge10" class="edge">
<title>Node8&#45;&gt;Node6</title>
<path fill="none" stroke="midnightblue" d="M375.43,-159.96C359.18,-136.12 330.26,-93.71 317.91,-75.59"/>
<polygon fill="midnightblue" stroke="midnightblue" points="372.64,-162.08 381.17,-168.37 378.42,-158.13 372.64,-162.08"/>
</g>
<!-- Node8&#45;&gt;Node7 -->
<g id="edge11" class="edge">
<title>Node8&#45;&gt;Node7</title>
<path fill="none" stroke="midnightblue" d="M321.92,-170.24C277.54,-164.05 218.15,-152.58 169.05,-132 134.28,-117.42 98.83,-89.71 82.04,-75.65"/>
<polygon fill="midnightblue" stroke="midnightblue" points="321.63,-173.73 332.01,-171.6 322.57,-166.8 321.63,-173.73"/>
</g>
<!-- Node8&#45;&gt;Node9 -->
<g id="edge13" class="edge">
<title>Node8&#45;&gt;Node9</title>
<path fill="none" stroke="midnightblue" d="M413.11,-163.73C432.73,-153.73 459.08,-140.31 476.06,-131.65"/>
<polygon fill="midnightblue" stroke="midnightblue" points="411.4,-160.67 404.08,-168.32 414.58,-166.9 411.4,-160.67"/>
</g>
<!-- Node8&#45;&gt;Node10 -->
<g id="edge15" class="edge">
<title>Node8&#45;&gt;Node10</title>
<path fill="none" stroke="midnightblue" d="M431.01,-165.96C471.62,-155.76 531.09,-140.82 568.14,-131.52"/>
<polygon fill="midnightblue" stroke="midnightblue" points="429.96,-162.61 421.12,-168.44 431.67,-169.4 429.96,-162.61"/>
</g>
<!-- Node11&#45;&gt;Node3 -->
<g id="edge17" class="edge">
<title>Node11&#45;&gt;Node3</title>
<path fill="none" stroke="midnightblue" d="M96.38,-107.59C115.24,-97.61 140.44,-84.27 156.7,-75.65"/>
<polygon fill="midnightblue" stroke="midnightblue" points="94.64,-104.55 87.44,-112.32 97.91,-110.74 94.64,-104.55"/>
</g>
<!-- Node11&#45;&gt;Node4 -->
<g id="edge19" class="edge">
<title>Node11&#45;&gt;Node4</title>
<path fill="none" stroke="midnightblue" d="M48.87,-106.37C31.55,-93.11 12.39,-73.09 25.05,-56 51.2,-20.72 104.31,-12.15 139.29,-10.56"/>
<polygon fill="midnightblue" stroke="midnightblue" points="46.91,-109.27 57.07,-112.29 51.01,-103.6 46.91,-109.27"/>
</g>
<!-- Node11&#45;&gt;Node7 -->
<g id="edge18" class="edge">
<title>Node11&#45;&gt;Node7</title>
<path fill="none" stroke="midnightblue" d="M71.41,-101.8C71.57,-92.91 71.76,-82.78 71.89,-75.75"/>
<polygon fill="midnightblue" stroke="midnightblue" points="67.9,-102.02 71.22,-112.08 74.9,-102.15 67.9,-102.02"/>
</g>
</g>
</svg>
