<?xml version="1.0" encoding="UTF-8" standalone="no"?>
<!DOCTYPE svg PUBLIC "-//W3C//DTD SVG 1.1//EN"
 "http://www.w3.org/Graphics/SVG/1.1/DTD/svg11.dtd">
<!-- Generated by graphviz version 2.43.0 (0)
 -->
<!-- Title: include/perception.h Pages: 1 -->
<svg width="823pt" height="252pt"
 viewBox="0.00 0.00 822.54 252.00" xmlns="http://www.w3.org/2000/svg" xmlns:xlink="http://www.w3.org/1999/xlink">
<g id="graph0" class="graph" transform="scale(1 1) rotate(0) translate(4 248)">
<title>include/perception.h</title>
<polygon fill="white" stroke="transparent" points="-4,4 -4,-248 818.54,-248 818.54,4 -4,4"/>
<!-- Node1 -->
<g id="node1" class="node">
<title>Node1</title>
<g id="a_node1"><a xlink:title="Header file for perception&#45;related types, constants, and function declarations.">
<polygon fill="#bfbfbf" stroke="black" points="372.04,-224.5 372.04,-243.5 488.04,-243.5 488.04,-224.5 372.04,-224.5"/>
<text text-anchor="middle" x="430.04" y="-231.5" font-family="Helvetica,sans-Serif" font-size="10.00">include/perception.h</text>
</a>
</g>
</g>
<!-- Node2 -->
<g id="node2" class="node">
<title>Node2</title>
<g id="a_node2"><a xlink:href="control_8h.html" target="_top" xlink:title="Declarations for vehicle control functions and variables in the 2D simulator.">
<polygon fill="white" stroke="black" points="211.04,-112.5 211.04,-131.5 309.04,-131.5 309.04,-112.5 211.04,-112.5"/>
<text text-anchor="middle" x="260.04" y="-119.5" font-family="Helvetica,sans-Serif" font-size="10.00">include/control.h</text>
</a>
</g>
</g>
<!-- Node1&#45;&gt;Node2 -->
<g id="edge1" class="edge">
<title>Node1&#45;&gt;Node2</title>
<path fill="none" stroke="midnightblue" d="M382.98,-221.66C359.83,-214.54 332.38,-203.67 311.04,-188 289.77,-172.38 272.73,-145.63 264.83,-131.83"/>
<polygon fill="midnightblue" stroke="midnightblue" points="382.03,-225.02 392.61,-224.48 384,-218.31 382.03,-225.02"/>
</g>
<!-- Node4 -->
<g id="node4" class="node">
<title>Node4</title>
<g id="a_node4"><a xlink:href="main_8c.html" target="_top" xlink:title="Main implementation of the 2D FSAE Simulation.">
<polygon fill="white" stroke="black" points="64.54,-0.5 64.54,-19.5 131.54,-19.5 131.54,-0.5 64.54,-0.5"/>
<text text-anchor="middle" x="98.04" y="-7.5" font-family="Helvetica,sans-Serif" font-size="10.00">src/main.c</text>
</a>
</g>
</g>
<!-- Node1&#45;&gt;Node4 -->
<g id="edge21" class="edge">
<title>Node1&#45;&gt;Node4</title>
<path fill="none" stroke="midnightblue" d="M361.84,-231.49C294,-228.19 187.8,-218.14 101.04,-188 54.74,-171.92 30.35,-174.56 6.04,-132 -20.01,-86.4 50.03,-38.58 82.51,-19.54"/>
<polygon fill="midnightblue" stroke="midnightblue" points="361.83,-234.99 371.97,-231.94 362.14,-228 361.83,-234.99"/>
</g>
<!-- Node5 -->
<g id="node5" class="node">
<title>Node5</title>
<g id="a_node5"><a xlink:href="tasks_8c.html" target="_top" xlink:title="Contains periodic task functions for LiDAR perception, trajectory planning, vehicle control,...">
<polygon fill="white" stroke="black" points="404.04,-0.5 404.04,-19.5 472.04,-19.5 472.04,-0.5 404.04,-0.5"/>
<text text-anchor="middle" x="438.04" y="-7.5" font-family="Helvetica,sans-Serif" font-size="10.00">src/tasks.c</text>
</a>
</g>
</g>
<!-- Node1&#45;&gt;Node5 -->
<g id="edge23" class="edge">
<title>Node1&#45;&gt;Node5</title>
<path fill="none" stroke="midnightblue" d="M476.72,-221.26C496.24,-214.34 517.87,-203.75 533.04,-188 551.59,-168.74 550.06,-158.27 555.04,-132 565.48,-76.87 494.45,-36.37 458.28,-19.57"/>
<polygon fill="midnightblue" stroke="midnightblue" points="475.44,-218 467.05,-224.46 477.64,-224.64 475.44,-218"/>
</g>
<!-- Node6 -->
<g id="node6" class="node">
<title>Node6</title>
<g id="a_node6"><a xlink:href="control_8c.html" target="_top" xlink:title="Implements vehicle control functions including both manual (keyboard) and autonomous (centerline base...">
<polygon fill="white" stroke="black" points="334.04,-56.5 334.04,-75.5 410.04,-75.5 410.04,-56.5 334.04,-56.5"/>
<text text-anchor="middle" x="372.04" y="-63.5" font-family="Helvetica,sans-Serif" font-size="10.00">src/control.c</text>
</a>
</g>
</g>
<!-- Node1&#45;&gt;Node6 -->
<g id="edge19" class="edge">
<title>Node1&#45;&gt;Node6</title>
<path fill="none" stroke="midnightblue" d="M457.6,-219.82C499.13,-198.18 569.71,-153.39 538.04,-112 522.57,-91.78 454.08,-78.53 410.05,-71.94"/>
<polygon fill="midnightblue" stroke="midnightblue" points="455.82,-216.79 448.49,-224.44 458.99,-223.04 455.82,-216.79"/>
</g>
<!-- Node7 -->
<g id="node7" class="node">
<title>Node7</title>
<g id="a_node7"><a xlink:href="display_8c.html" target="_top" xlink:title="Rendering and display update functions for the 2D simulation using Allegro.">
<polygon fill="white" stroke="black" points="161.04,-56.5 161.04,-75.5 237.04,-75.5 237.04,-56.5 161.04,-56.5"/>
<text text-anchor="middle" x="199.04" y="-63.5" font-family="Helvetica,sans-Serif" font-size="10.00">src/display.c</text>
</a>
</g>
</g>
<!-- Node1&#45;&gt;Node7 -->
<g id="edge20" class="edge">
<title>Node1&#45;&gt;Node7</title>
<path fill="none" stroke="midnightblue" d="M361.61,-226.21C303.66,-216.3 224.64,-191.92 190.04,-132 179.67,-114.04 188.6,-88.77 194.62,-75.65"/>
<polygon fill="midnightblue" stroke="midnightblue" points="361.38,-229.72 371.81,-227.84 362.49,-222.8 361.38,-229.72"/>
</g>
<!-- Node8 -->
<g id="node8" class="node">
<title>Node8</title>
<g id="a_node8"><a xlink:href="trajectory_8h.html" target="_top" xlink:title="Provides declarations for trajectory planning based on cone detection.">
<polygon fill="white" stroke="black" points="320.04,-168.5 320.04,-187.5 430.04,-187.5 430.04,-168.5 320.04,-168.5"/>
<text text-anchor="middle" x="375.04" y="-175.5" font-family="Helvetica,sans-Serif" font-size="10.00">include/trajectory.h</text>
</a>
</g>
</g>
<!-- Node1&#45;&gt;Node8 -->
<g id="edge8" class="edge">
<title>Node1&#45;&gt;Node8</title>
<path fill="none" stroke="midnightblue" d="M413.75,-217C404,-207.43 391.99,-195.64 383.95,-187.75"/>
<polygon fill="midnightblue" stroke="midnightblue" points="411.37,-219.57 420.96,-224.08 416.27,-214.58 411.37,-219.57"/>
</g>
<!-- Node9 -->
<g id="node9" class="node">
<title>Node9</title>
<g id="a_node9"><a xlink:href="trajectory_8c.html" target="_top" xlink:title="Implements trajectory planning based on detected cones.">
<polygon fill="white" stroke="black" points="441.04,-112.5 441.04,-131.5 529.04,-131.5 529.04,-112.5 441.04,-112.5"/>
<text text-anchor="middle" x="485.04" y="-119.5" font-family="Helvetica,sans-Serif" font-size="10.00">src/trajectory.c</text>
</a>
</g>
</g>
<!-- Node1&#45;&gt;Node9 -->
<g id="edge24" class="edge">
<title>Node1&#45;&gt;Node9</title>
<path fill="none" stroke="midnightblue" d="M438.88,-215.32C450.86,-191.37 471.77,-149.55 480.74,-131.59"/>
<polygon fill="midnightblue" stroke="midnightblue" points="435.7,-213.86 434.36,-224.37 441.96,-216.99 435.7,-213.86"/>
</g>
<!-- Node10 -->
<g id="node10" class="node">
<title>Node10</title>
<g id="a_node10"><a xlink:href="utilities_8h.html" target="_top" xlink:title="Utility function prototypes for cone management and runtime tasks.">
<polygon fill="white" stroke="black" points="15.54,-112.5 15.54,-131.5 116.54,-131.5 116.54,-112.5 15.54,-112.5"/>
<text text-anchor="middle" x="66.04" y="-119.5" font-family="Helvetica,sans-Serif" font-size="10.00">include/utilities.h</text>
</a>
</g>
</g>
<!-- Node1&#45;&gt;Node10 -->
<g id="edge15" class="edge">
<title>Node1&#45;&gt;Node10</title>
<path fill="none" stroke="midnightblue" d="M361.45,-227.67C286.01,-220.94 170.26,-207.79 131.04,-188 104.54,-174.63 82.24,-146.37 72.02,-131.92"/>
<polygon fill="midnightblue" stroke="midnightblue" points="361.55,-231.19 371.82,-228.58 362.16,-224.22 361.55,-231.19"/>
</g>
<!-- Node11 -->
<g id="node11" class="node">
<title>Node11</title>
<g id="a_node11"><a xlink:href="perception_8c.html" target="_top" xlink:title="Implements LiDAR&#45;based cone detection and mapping using circle Hough transform.">
<polygon fill="white" stroke="black" points="623.04,-168.5 623.04,-187.5 717.04,-187.5 717.04,-168.5 623.04,-168.5"/>
<text text-anchor="middle" x="670.04" y="-175.5" font-family="Helvetica,sans-Serif" font-size="10.00">src/perception.c</text>
</a>
</g>
</g>
<!-- Node1&#45;&gt;Node11 -->
<g id="edge22" class="edge">
<title>Node1&#45;&gt;Node11</title>
<path fill="none" stroke="midnightblue" d="M477.96,-222.22C523.31,-212.01 590.48,-196.9 632.19,-187.52"/>
<polygon fill="midnightblue" stroke="midnightblue" points="477.06,-218.83 468.07,-224.44 478.59,-225.66 477.06,-218.83"/>
</g>
<!-- Node12 -->
<g id="node12" class="node">
<title>Node12</title>
<g id="a_node12"><a xlink:href="utilities_8c.html" target="_top" xlink:title="Utility functions for cone initialization, YAML cone loading, angle rotation conversion,...">
<polygon fill="white" stroke="black" points="735.54,-168.5 735.54,-187.5 814.54,-187.5 814.54,-168.5 735.54,-168.5"/>
<text text-anchor="middle" x="775.04" y="-175.5" font-family="Helvetica,sans-Serif" font-size="10.00">src/utilities.c</text>
</a>
</g>
</g>
<!-- Node1&#45;&gt;Node12 -->
<g id="edge25" class="edge">
<title>Node1&#45;&gt;Node12</title>
<path fill="none" stroke="midnightblue" d="M498.37,-223.22C558.43,-214.48 648.14,-201.07 726.04,-188 729.11,-187.48 732.29,-186.94 735.48,-186.37"/>
<polygon fill="midnightblue" stroke="midnightblue" points="497.65,-219.79 488.26,-224.69 498.66,-226.72 497.65,-219.79"/>
</g>
<!-- Node3 -->
<g id="node3" class="node">
<title>Node3</title>
<g id="a_node3"><a xlink:href="tasks_8h.html" target="_top" xlink:title="Declaration of task thread functions for the simulation.">
<polygon fill="white" stroke="black" points="53.04,-56.5 53.04,-75.5 143.04,-75.5 143.04,-56.5 53.04,-56.5"/>
<text text-anchor="middle" x="98.04" y="-63.5" font-family="Helvetica,sans-Serif" font-size="10.00">include/tasks.h</text>
</a>
</g>
</g>
<!-- Node2&#45;&gt;Node3 -->
<g id="edge2" class="edge">
<title>Node2&#45;&gt;Node3</title>
<path fill="none" stroke="midnightblue" d="M224.56,-109.17C194.05,-99 150.8,-84.59 123.59,-75.52"/>
<polygon fill="midnightblue" stroke="midnightblue" points="223.78,-112.6 234.37,-112.44 225.99,-105.96 223.78,-112.6"/>
</g>
<!-- Node2&#45;&gt;Node4 -->
<g id="edge7" class="edge">
<title>Node2&#45;&gt;Node4</title>
<path fill="none" stroke="midnightblue" d="M260.82,-101.94C260.37,-87.58 257.39,-68.33 246.04,-56 216.67,-24.08 165.46,-14.53 131.65,-11.82"/>
<polygon fill="midnightblue" stroke="midnightblue" points="257.32,-102.15 260.75,-112.18 264.32,-102.2 257.32,-102.15"/>
</g>
<!-- Node2&#45;&gt;Node6 -->
<g id="edge5" class="edge">
<title>Node2&#45;&gt;Node6</title>
<path fill="none" stroke="midnightblue" d="M287.29,-107.86C308.06,-97.85 336.06,-84.35 354.09,-75.65"/>
<polygon fill="midnightblue" stroke="midnightblue" points="285.52,-104.83 278.04,-112.32 288.56,-111.13 285.52,-104.83"/>
</g>
<!-- Node2&#45;&gt;Node7 -->
<g id="edge6" class="edge">
<title>Node2&#45;&gt;Node7</title>
<path fill="none" stroke="midnightblue" d="M242.57,-105.54C231.7,-95.91 218.1,-83.87 209.02,-75.83"/>
<polygon fill="midnightblue" stroke="midnightblue" points="240.43,-108.32 250.24,-112.32 245.07,-103.07 240.43,-108.32"/>
</g>
<!-- Node3&#45;&gt;Node4 -->
<g id="edge3" class="edge">
<title>Node3&#45;&gt;Node4</title>
<path fill="none" stroke="midnightblue" d="M98.04,-45.8C98.04,-36.91 98.04,-26.78 98.04,-19.75"/>
<polygon fill="midnightblue" stroke="midnightblue" points="94.54,-46.08 98.04,-56.08 101.54,-46.08 94.54,-46.08"/>
</g>
<!-- Node3&#45;&gt;Node5 -->
<g id="edge4" class="edge">
<title>Node3&#45;&gt;Node5</title>
<path fill="none" stroke="midnightblue" d="M153.07,-55.84C249.89,-40.19 351.75,-24.34 403.69,-16.3"/>
<polygon fill="midnightblue" stroke="midnightblue" points="152.43,-52.4 143.12,-57.46 153.55,-59.31 152.43,-52.4"/>
</g>
<!-- Node8&#45;&gt;Node2 -->
<g id="edge9" class="edge">
<title>Node8&#45;&gt;Node2</title>
<path fill="none" stroke="midnightblue" d="M347.56,-164.1C326.07,-154.01 296.82,-140.27 278.18,-131.52"/>
<polygon fill="midnightblue" stroke="midnightblue" points="346.28,-167.36 356.82,-168.44 349.25,-161.02 346.28,-167.36"/>
</g>
<!-- Node8&#45;&gt;Node4 -->
<g id="edge12" class="edge">
<title>Node8&#45;&gt;Node4</title>
<path fill="none" stroke="midnightblue" d="M364.33,-159.79C346.88,-133.27 309.77,-82.69 265.04,-56 223.14,-30.99 167.15,-19.6 131.83,-14.62"/>
<polygon fill="midnightblue" stroke="midnightblue" points="361.49,-161.86 369.84,-168.39 367.38,-158.08 361.49,-161.86"/>
</g>
<!-- Node8&#45;&gt;Node5 -->
<g id="edge13" class="edge">
<title>Node8&#45;&gt;Node5</title>
<path fill="none" stroke="midnightblue" d="M383.66,-159.11C393.08,-139.13 408.28,-105.71 419.04,-76 426.25,-56.1 432.71,-32.05 435.92,-19.52"/>
<polygon fill="midnightblue" stroke="midnightblue" points="380.45,-157.7 379.31,-168.24 386.77,-160.71 380.45,-157.7"/>
</g>
<!-- Node8&#45;&gt;Node6 -->
<g id="edge10" class="edge">
<title>Node8&#45;&gt;Node6</title>
<path fill="none" stroke="midnightblue" d="M374.53,-158.35C373.87,-134.25 372.76,-93.31 372.27,-75.59"/>
<polygon fill="midnightblue" stroke="midnightblue" points="371.03,-158.47 374.81,-168.37 378.03,-158.28 371.03,-158.47"/>
</g>
<!-- Node8&#45;&gt;Node7 -->
<g id="edge11" class="edge">
<title>Node8&#45;&gt;Node7</title>
<path fill="none" stroke="midnightblue" d="M310.03,-168.21C266.91,-160.92 215.82,-149 202.04,-132 188.95,-115.85 193.13,-89.34 196.51,-75.7"/>
<polygon fill="midnightblue" stroke="midnightblue" points="309.5,-171.67 319.94,-169.83 310.63,-164.76 309.5,-171.67"/>
</g>
<!-- Node8&#45;&gt;Node9 -->
<g id="edge14" class="edge">
<title>Node8&#45;&gt;Node9</title>
<path fill="none" stroke="midnightblue" d="M401.8,-163.86C422.2,-153.85 449.71,-140.35 467.41,-131.65"/>
<polygon fill="midnightblue" stroke="midnightblue" points="400.15,-160.78 392.71,-168.32 403.23,-167.06 400.15,-160.78"/>
</g>
<!-- Node10&#45;&gt;Node3 -->
<g id="edge16" class="edge">
<title>Node10&#45;&gt;Node3</title>
<path fill="none" stroke="midnightblue" d="M76.54,-103.27C82.01,-94.05 88.46,-83.17 92.85,-75.75"/>
<polygon fill="midnightblue" stroke="midnightblue" points="73.41,-101.7 71.32,-112.08 79.43,-105.26 73.41,-101.7"/>
</g>
<!-- Node10&#45;&gt;Node4 -->
<g id="edge18" class="edge">
<title>Node10&#45;&gt;Node4</title>
<path fill="none" stroke="midnightblue" d="M53.3,-104.1C44.88,-90.74 36.65,-71.78 44.04,-56 51.7,-39.64 68.55,-27.16 81.41,-19.54"/>
<polygon fill="midnightblue" stroke="midnightblue" points="50.42,-106.09 58.97,-112.35 56.19,-102.13 50.42,-106.09"/>
</g>
<!-- Node10&#45;&gt;Node7 -->
<g id="edge17" class="edge">
<title>Node10&#45;&gt;Node7</title>
<path fill="none" stroke="midnightblue" d="M96.49,-108.64C121.45,-98.5 156.12,-84.43 178.06,-75.52"/>
<polygon fill="midnightblue" stroke="midnightblue" points="95.06,-105.44 87.11,-112.44 97.7,-111.92 95.06,-105.44"/>
</g>
</g>
</svg>
