<?xml version="1.0" encoding="UTF-8" standalone="no"?>
<!DOCTYPE svg PUBLIC "-//W3C//DTD SVG 1.1//EN"
 "http://www.w3.org/Graphics/SVG/1.1/DTD/svg11.dtd">
<!-- Generated by graphviz version 2.43.0 (0)
 -->
<!-- Title: src/perception.c Pages: 1 -->
<svg width="393pt" height="252pt"
 viewBox="0.00 0.00 393.00 252.00" xmlns="http://www.w3.org/2000/svg" xmlns:xlink="http://www.w3.org/1999/xlink">
<g id="graph0" class="graph" transform="scale(1 1) rotate(0) translate(4 248)">
<title>src/perception.c</title>
<polygon fill="white" stroke="transparent" points="-4,4 -4,-248 389,-248 389,4 -4,4"/>
<!-- Node1 -->
<g id="node1" class="node">
<title>Node1</title>
<g id="a_node1"><a xlink:title="Implements LiDAR&#45;based cone detection and mapping using circle Hough transform.">
<polygon fill="#bfbfbf" stroke="black" points="113,-224.5 113,-243.5 207,-243.5 207,-224.5 113,-224.5"/>
<text text-anchor="middle" x="160" y="-231.5" font-family="Helvetica,sans-Serif" font-size="10.00">src/perception.c</text>
</a>
</g>
</g>
<!-- Node2 -->
<g id="node2" class="node">
<title>Node2</title>
<g id="a_node2"><a xlink:title=" ">
<polygon fill="white" stroke="#bfbfbf" points="0,-168.5 0,-187.5 50,-187.5 50,-168.5 0,-168.5"/>
<text text-anchor="middle" x="25" y="-175.5" font-family="Helvetica,sans-Serif" font-size="10.00">stdio.h</text>
</a>
</g>
</g>
<!-- Node1&#45;&gt;Node2 -->
<g id="edge1" class="edge">
<title>Node1&#45;&gt;Node2</title>
<path fill="none" stroke="midnightblue" d="M138.61,-224.44C116.29,-215.52 81.1,-201.44 55.79,-191.32"/>
<polygon fill="midnightblue" stroke="midnightblue" points="56.88,-187.98 46.29,-187.52 54.28,-194.48 56.88,-187.98"/>
</g>
<!-- Node3 -->
<g id="node3" class="node">
<title>Node3</title>
<g id="a_node3"><a xlink:title=" ">
<polygon fill="white" stroke="#bfbfbf" points="104.5,-56.5 104.5,-75.5 155.5,-75.5 155.5,-56.5 104.5,-56.5"/>
<text text-anchor="middle" x="130" y="-63.5" font-family="Helvetica,sans-Serif" font-size="10.00">math.h</text>
</a>
</g>
</g>
<!-- Node1&#45;&gt;Node3 -->
<g id="edge2" class="edge">
<title>Node1&#45;&gt;Node3</title>
<path fill="none" stroke="midnightblue" d="M139.15,-224.43C124.42,-217.13 105.8,-205.09 97,-188 79.23,-153.47 102.23,-108.33 117.82,-84.12"/>
<polygon fill="midnightblue" stroke="midnightblue" points="120.84,-85.91 123.53,-75.66 115.04,-82 120.84,-85.91"/>
</g>
<!-- Node4 -->
<g id="node4" class="node">
<title>Node4</title>
<g id="a_node4"><a xlink:title=" ">
<polygon fill="white" stroke="#bfbfbf" points="106.5,-168.5 106.5,-187.5 159.5,-187.5 159.5,-168.5 106.5,-168.5"/>
<text text-anchor="middle" x="133" y="-175.5" font-family="Helvetica,sans-Serif" font-size="10.00">string.h</text>
</a>
</g>
</g>
<!-- Node1&#45;&gt;Node4 -->
<g id="edge3" class="edge">
<title>Node1&#45;&gt;Node4</title>
<path fill="none" stroke="midnightblue" d="M155.54,-224.08C151.85,-216.69 146.48,-205.95 141.91,-196.81"/>
<polygon fill="midnightblue" stroke="midnightblue" points="144.98,-195.13 137.38,-187.75 138.72,-198.26 144.98,-195.13"/>
</g>
<!-- Node5 -->
<g id="node5" class="node">
<title>Node5</title>
<g id="a_node5"><a xlink:href="globals_8h.html" target="_top" xlink:title="Global constants, variables, and structures for the simulation and visualization system.">
<polygon fill="white" stroke="black" points="224.5,-56.5 224.5,-75.5 285.5,-75.5 285.5,-56.5 224.5,-56.5"/>
<text text-anchor="middle" x="255" y="-63.5" font-family="Helvetica,sans-Serif" font-size="10.00">globals.h</text>
</a>
</g>
</g>
<!-- Node1&#45;&gt;Node5 -->
<g id="edge4" class="edge">
<title>Node1&#45;&gt;Node5</title>
<path fill="none" stroke="midnightblue" d="M207.24,-231.01C238.23,-226.95 276.66,-216.08 297,-188 320.68,-155.29 289.63,-108.11 269.58,-83.44"/>
<polygon fill="midnightblue" stroke="midnightblue" points="272.19,-81.09 263.06,-75.71 266.84,-85.61 272.19,-81.09"/>
</g>
<!-- Node9 -->
<g id="node9" class="node">
<title>Node9</title>
<g id="a_node9"><a xlink:href="perception_8h.html" target="_top" xlink:title="Header file for perception&#45;related types, constants, and function declarations.">
<polygon fill="white" stroke="black" points="149.5,-112.5 149.5,-131.5 226.5,-131.5 226.5,-112.5 149.5,-112.5"/>
<text text-anchor="middle" x="188" y="-119.5" font-family="Helvetica,sans-Serif" font-size="10.00">perception.h</text>
</a>
</g>
</g>
<!-- Node1&#45;&gt;Node9 -->
<g id="edge8" class="edge">
<title>Node1&#45;&gt;Node9</title>
<path fill="none" stroke="midnightblue" d="M162.2,-224.37C166.72,-206.62 177.14,-165.67 183.27,-141.6"/>
<polygon fill="midnightblue" stroke="midnightblue" points="186.74,-142.15 185.81,-131.59 179.95,-140.42 186.74,-142.15"/>
</g>
<!-- Node10 -->
<g id="node10" class="node">
<title>Node10</title>
<g id="a_node10"><a xlink:href="trajectory_8h.html" target="_top" xlink:title="Provides declarations for trajectory planning based on cone detection.">
<polygon fill="white" stroke="black" points="216.5,-168.5 216.5,-187.5 287.5,-187.5 287.5,-168.5 216.5,-168.5"/>
<text text-anchor="middle" x="252" y="-175.5" font-family="Helvetica,sans-Serif" font-size="10.00">trajectory.h</text>
</a>
</g>
</g>
<!-- Node1&#45;&gt;Node10 -->
<g id="edge11" class="edge">
<title>Node1&#45;&gt;Node10</title>
<path fill="none" stroke="midnightblue" d="M174.78,-224.32C189.27,-215.82 211.57,-202.73 228.49,-192.8"/>
<polygon fill="midnightblue" stroke="midnightblue" points="230.4,-195.74 237.26,-187.65 226.86,-189.7 230.4,-195.74"/>
</g>
<!-- Node6 -->
<g id="node6" class="node">
<title>Node6</title>
<g id="a_node6"><a xlink:title=" ">
<polygon fill="white" stroke="#bfbfbf" points="146.5,-0.5 146.5,-19.5 205.5,-19.5 205.5,-0.5 146.5,-0.5"/>
<text text-anchor="middle" x="176" y="-7.5" font-family="Helvetica,sans-Serif" font-size="10.00">allegro.h</text>
</a>
</g>
</g>
<!-- Node5&#45;&gt;Node6 -->
<g id="edge5" class="edge">
<title>Node5&#45;&gt;Node6</title>
<path fill="none" stroke="midnightblue" d="M242.31,-56.32C230.1,-47.98 211.42,-35.21 197,-25.35"/>
<polygon fill="midnightblue" stroke="midnightblue" points="198.89,-22.41 188.66,-19.65 194.94,-28.19 198.89,-22.41"/>
</g>
<!-- Node7 -->
<g id="node7" class="node">
<title>Node7</title>
<g id="a_node7"><a xlink:title=" ">
<polygon fill="white" stroke="#bfbfbf" points="223.5,-0.5 223.5,-19.5 286.5,-19.5 286.5,-0.5 223.5,-0.5"/>
<text text-anchor="middle" x="255" y="-7.5" font-family="Helvetica,sans-Serif" font-size="10.00">pthread.h</text>
</a>
</g>
</g>
<!-- Node5&#45;&gt;Node7 -->
<g id="edge6" class="edge">
<title>Node5&#45;&gt;Node7</title>
<path fill="none" stroke="midnightblue" d="M255,-56.08C255,-49.01 255,-38.86 255,-29.99"/>
<polygon fill="midnightblue" stroke="midnightblue" points="258.5,-29.75 255,-19.75 251.5,-29.75 258.5,-29.75"/>
</g>
<!-- Node8 -->
<g id="node8" class="node">
<title>Node8</title>
<g id="a_node8"><a xlink:title=" ">
<polygon fill="white" stroke="#bfbfbf" points="305,-0.5 305,-19.5 385,-19.5 385,-0.5 305,-0.5"/>
<text text-anchor="middle" x="345" y="-7.5" font-family="Helvetica,sans-Serif" font-size="10.00">semaphore.h</text>
</a>
</g>
</g>
<!-- Node5&#45;&gt;Node8 -->
<g id="edge7" class="edge">
<title>Node5&#45;&gt;Node8</title>
<path fill="none" stroke="midnightblue" d="M269.46,-56.32C283.5,-47.9 305.05,-34.97 321.54,-25.07"/>
<polygon fill="midnightblue" stroke="midnightblue" points="323.8,-27.8 330.58,-19.65 320.2,-21.8 323.8,-27.8"/>
</g>
<!-- Node9&#45;&gt;Node3 -->
<g id="edge9" class="edge">
<title>Node9&#45;&gt;Node3</title>
<path fill="none" stroke="midnightblue" d="M178.68,-112.32C170.11,-104.34 157.19,-92.31 146.81,-82.65"/>
<polygon fill="midnightblue" stroke="midnightblue" points="149.19,-80.09 139.49,-75.83 144.42,-85.21 149.19,-80.09"/>
</g>
<!-- Node9&#45;&gt;Node5 -->
<g id="edge10" class="edge">
<title>Node9&#45;&gt;Node5</title>
<path fill="none" stroke="midnightblue" d="M198.76,-112.32C208.77,-104.26 223.89,-92.08 235.93,-82.37"/>
<polygon fill="midnightblue" stroke="midnightblue" points="238.45,-84.83 244.04,-75.83 234.06,-79.38 238.45,-84.83"/>
</g>
<!-- Node10&#45;&gt;Node5 -->
<g id="edge13" class="edge">
<title>Node10&#45;&gt;Node5</title>
<path fill="none" stroke="midnightblue" d="M252.24,-168.37C252.72,-150.62 253.84,-109.67 254.49,-85.6"/>
<polygon fill="midnightblue" stroke="midnightblue" points="257.99,-85.68 254.77,-75.59 250.99,-85.49 257.99,-85.68"/>
</g>
<!-- Node10&#45;&gt;Node9 -->
<g id="edge12" class="edge">
<title>Node10&#45;&gt;Node9</title>
<path fill="none" stroke="midnightblue" d="M241.72,-168.32C232.16,-160.26 217.72,-148.08 206.22,-138.37"/>
<polygon fill="midnightblue" stroke="midnightblue" points="208.37,-135.61 198.47,-131.83 203.86,-140.96 208.37,-135.61"/>
</g>
</g>
</svg>
