<?xml version="1.0" encoding="UTF-8" standalone="no"?>
<!DOCTYPE svg PUBLIC "-//W3C//DTD SVG 1.1//EN"
 "http://www.w3.org/Graphics/SVG/1.1/DTD/svg11.dtd">
<!-- Generated by graphviz version 2.43.0 (0)
 -->
<!-- Title: include/ptask.h Pages: 1 -->
<svg width="375pt" height="84pt"
 viewBox="0.00 0.00 375.00 84.00" xmlns="http://www.w3.org/2000/svg" xmlns:xlink="http://www.w3.org/1999/xlink">
<g id="graph0" class="graph" transform="scale(1 1) rotate(0) translate(4 80)">
<title>include/ptask.h</title>
<polygon fill="white" stroke="transparent" points="-4,4 -4,-80 371,-80 371,4 -4,4"/>
<!-- Node1 -->
<g id="node1" class="node">
<title>Node1</title>
<g id="a_node1"><a xlink:title="Interface for managing periodic tasks and time utilities.">
<polygon fill="#bfbfbf" stroke="black" points="159,-56.5 159,-75.5 250,-75.5 250,-56.5 159,-56.5"/>
<text text-anchor="middle" x="204.5" y="-63.5" font-family="Helvetica,sans-Serif" font-size="10.00">include/ptask.h</text>
</a>
</g>
</g>
<!-- Node2 -->
<g id="node2" class="node">
<title>Node2</title>
<g id="a_node2"><a xlink:title=" ">
<polygon fill="white" stroke="#bfbfbf" points="0,-0.5 0,-19.5 63,-19.5 63,-0.5 0,-0.5"/>
<text text-anchor="middle" x="31.5" y="-7.5" font-family="Helvetica,sans-Serif" font-size="10.00">pthread.h</text>
</a>
</g>
</g>
<!-- Node1&#45;&gt;Node2 -->
<g id="edge1" class="edge">
<title>Node1&#45;&gt;Node2</title>
<path fill="none" stroke="midnightblue" d="M177.09,-56.44C147.73,-47.28 100.98,-32.69 68.4,-22.52"/>
<polygon fill="midnightblue" stroke="midnightblue" points="69.37,-19.16 58.78,-19.52 67.29,-25.84 69.37,-19.16"/>
</g>
<!-- Node3 -->
<g id="node3" class="node">
<title>Node3</title>
<g id="a_node3"><a xlink:title=" ">
<polygon fill="white" stroke="#bfbfbf" points="81.5,-0.5 81.5,-19.5 161.5,-19.5 161.5,-0.5 81.5,-0.5"/>
<text text-anchor="middle" x="121.5" y="-7.5" font-family="Helvetica,sans-Serif" font-size="10.00">semaphore.h</text>
</a>
</g>
</g>
<!-- Node1&#45;&gt;Node3 -->
<g id="edge2" class="edge">
<title>Node1&#45;&gt;Node3</title>
<path fill="none" stroke="midnightblue" d="M191.16,-56.32C178.34,-47.98 158.72,-35.21 143.56,-25.35"/>
<polygon fill="midnightblue" stroke="midnightblue" points="145.09,-22.17 134.8,-19.65 141.28,-28.04 145.09,-22.17"/>
</g>
<!-- Node4 -->
<g id="node4" class="node">
<title>Node4</title>
<g id="a_node4"><a xlink:title=" ">
<polygon fill="white" stroke="#bfbfbf" points="179.5,-0.5 179.5,-19.5 229.5,-19.5 229.5,-0.5 179.5,-0.5"/>
<text text-anchor="middle" x="204.5" y="-7.5" font-family="Helvetica,sans-Serif" font-size="10.00">stdio.h</text>
</a>
</g>
</g>
<!-- Node1&#45;&gt;Node4 -->
<g id="edge3" class="edge">
<title>Node1&#45;&gt;Node4</title>
<path fill="none" stroke="midnightblue" d="M204.5,-56.08C204.5,-49.01 204.5,-38.86 204.5,-29.99"/>
<polygon fill="midnightblue" stroke="midnightblue" points="208,-29.75 204.5,-19.75 201,-29.75 208,-29.75"/>
</g>
<!-- Node5 -->
<g id="node5" class="node">
<title>Node5</title>
<g id="a_node5"><a xlink:title=" ">
<polygon fill="white" stroke="#bfbfbf" points="247.5,-0.5 247.5,-19.5 295.5,-19.5 295.5,-0.5 247.5,-0.5"/>
<text text-anchor="middle" x="271.5" y="-7.5" font-family="Helvetica,sans-Serif" font-size="10.00">time.h</text>
</a>
</g>
</g>
<!-- Node1&#45;&gt;Node5 -->
<g id="edge4" class="edge">
<title>Node1&#45;&gt;Node5</title>
<path fill="none" stroke="midnightblue" d="M215.26,-56.32C225.27,-48.26 240.39,-36.08 252.43,-26.37"/>
<polygon fill="midnightblue" stroke="midnightblue" points="254.95,-28.83 260.54,-19.83 250.56,-23.38 254.95,-28.83"/>
</g>
<!-- Node6 -->
<g id="node6" class="node">
<title>Node6</title>
<g id="a_node6"><a xlink:title=" ">
<polygon fill="white" stroke="#bfbfbf" points="314,-0.5 314,-19.5 367,-19.5 367,-0.5 314,-0.5"/>
<text text-anchor="middle" x="340.5" y="-7.5" font-family="Helvetica,sans-Serif" font-size="10.00">string.h</text>
</a>
</g>
</g>
<!-- Node1&#45;&gt;Node6 -->
<g id="edge5" class="edge">
<title>Node1&#45;&gt;Node6</title>
<path fill="none" stroke="midnightblue" d="M226.05,-56.44C248.53,-47.52 283.99,-33.44 309.48,-23.32"/>
<polygon fill="midnightblue" stroke="midnightblue" points="311.05,-26.46 319.05,-19.52 308.47,-19.95 311.05,-26.46"/>
</g>
</g>
</svg>
