<?xml version="1.0" encoding="UTF-8" standalone="no"?>
<!DOCTYPE svg PUBLIC "-//W3C//DTD SVG 1.1//EN"
 "http://www.w3.org/Graphics/SVG/1.1/DTD/svg11.dtd">
<!-- Generated by graphviz version 2.43.0 (0)
 -->
<!-- Title: wait_for_activation Pages: 1 -->
<svg width="326pt" height="180pt"
 viewBox="0.00 0.00 326.00 180.00" xmlns="http://www.w3.org/2000/svg" xmlns:xlink="http://www.w3.org/1999/xlink">
<g id="graph0" class="graph" transform="scale(1 1) rotate(0) translate(4 176)">
<title>wait_for_activation</title>
<polygon fill="white" stroke="transparent" points="-4,4 -4,-176 322,-176 322,4 -4,4"/>
<!-- Node1 -->
<g id="node1" class="node">
<title>Node1</title>
<g id="a_node1"><a xlink:title=" ">
<polygon fill="#bfbfbf" stroke="black" points="208,-76.5 208,-95.5 318,-95.5 318,-76.5 208,-76.5"/>
<text text-anchor="middle" x="263" y="-83.5" font-family="Helvetica,sans-Serif" font-size="10.00">wait_for_activation</text>
</a>
</g>
</g>
<!-- Node2 -->
<g id="node2" class="node">
<title>Node2</title>
<g id="a_node2"><a xlink:href="tasks_8h.html#a91e3918bad881fbf7304d534268de11d" target="_top" xlink:title=" ">
<polygon fill="white" stroke="black" points="86,-152.5 86,-171.5 163,-171.5 163,-152.5 86,-152.5"/>
<text text-anchor="middle" x="124.5" y="-159.5" font-family="Helvetica,sans-Serif" font-size="10.00">control_task</text>
</a>
</g>
</g>
<!-- Node1&#45;&gt;Node2 -->
<g id="edge1" class="edge">
<title>Node1&#45;&gt;Node2</title>
<path fill="none" stroke="midnightblue" d="M239.89,-101.55C222.06,-113.71 196.08,-130.58 172,-143 165.49,-146.36 158.25,-149.56 151.45,-152.34"/>
<polygon fill="midnightblue" stroke="midnightblue" points="242.18,-104.23 248.42,-95.67 238.2,-98.47 242.18,-104.23"/>
</g>
<!-- Node4 -->
<g id="node4" class="node">
<title>Node4</title>
<g id="a_node4"><a xlink:href="tasks_8h.html#a16cbac3bef85b555e76fe999965c1b7e" target="_top" xlink:title=" ">
<polygon fill="white" stroke="black" points="85.5,-114.5 85.5,-133.5 163.5,-133.5 163.5,-114.5 85.5,-114.5"/>
<text text-anchor="middle" x="124.5" y="-121.5" font-family="Helvetica,sans-Serif" font-size="10.00">display_task</text>
</a>
</g>
</g>
<!-- Node1&#45;&gt;Node4 -->
<g id="edge3" class="edge">
<title>Node1&#45;&gt;Node4</title>
<path fill="none" stroke="midnightblue" d="M217.75,-98.32C199,-103.54 177.47,-109.53 159.93,-114.41"/>
<polygon fill="midnightblue" stroke="midnightblue" points="218.86,-101.64 227.56,-95.59 216.98,-94.9 218.86,-101.64"/>
</g>
<!-- Node5 -->
<g id="node5" class="node">
<title>Node5</title>
<g id="a_node5"><a xlink:href="tasks_8h.html#a746b11c2b14e499dab89746ee003716d" target="_top" xlink:title="Perception task.">
<polygon fill="white" stroke="black" points="77,-76.5 77,-95.5 172,-95.5 172,-76.5 77,-76.5"/>
<text text-anchor="middle" x="124.5" y="-83.5" font-family="Helvetica,sans-Serif" font-size="10.00">perception_task</text>
</a>
</g>
</g>
<!-- Node1&#45;&gt;Node5 -->
<g id="edge5" class="edge">
<title>Node1&#45;&gt;Node5</title>
<path fill="none" stroke="midnightblue" d="M197.64,-86C189.05,-86 180.38,-86 172.17,-86"/>
<polygon fill="midnightblue" stroke="midnightblue" points="197.66,-89.5 207.66,-86 197.66,-82.5 197.66,-89.5"/>
</g>
<!-- Node6 -->
<g id="node6" class="node">
<title>Node6</title>
<g id="a_node6"><a xlink:href="tasks_8h.html#a0fc6c027e96e920540028bd808a43c5f" target="_top" xlink:title=" ">
<polygon fill="white" stroke="black" points="83.5,-38.5 83.5,-57.5 165.5,-57.5 165.5,-38.5 83.5,-38.5"/>
<text text-anchor="middle" x="124.5" y="-45.5" font-family="Helvetica,sans-Serif" font-size="10.00">settings_task</text>
</a>
</g>
</g>
<!-- Node1&#45;&gt;Node6 -->
<g id="edge7" class="edge">
<title>Node1&#45;&gt;Node6</title>
<path fill="none" stroke="midnightblue" d="M217.75,-73.68C199,-68.46 177.47,-62.47 159.93,-57.59"/>
<polygon fill="midnightblue" stroke="midnightblue" points="216.98,-77.1 227.56,-76.41 218.86,-70.36 216.98,-77.1"/>
</g>
<!-- Node7 -->
<g id="node7" class="node">
<title>Node7</title>
<g id="a_node7"><a xlink:href="tasks_8h.html#ad095128da13e00a037e732dd25ffcbf6" target="_top" xlink:title=" ">
<polygon fill="white" stroke="black" points="79.5,-0.5 79.5,-19.5 169.5,-19.5 169.5,-0.5 79.5,-0.5"/>
<text text-anchor="middle" x="124.5" y="-7.5" font-family="Helvetica,sans-Serif" font-size="10.00">trajectory_task</text>
</a>
</g>
</g>
<!-- Node1&#45;&gt;Node7 -->
<g id="edge9" class="edge">
<title>Node1&#45;&gt;Node7</title>
<path fill="none" stroke="midnightblue" d="M239.89,-70.45C222.06,-58.29 196.08,-41.42 172,-29 165.49,-25.64 158.25,-22.44 151.45,-19.66"/>
<polygon fill="midnightblue" stroke="midnightblue" points="238.2,-73.53 248.42,-76.33 242.18,-67.77 238.2,-73.53"/>
</g>
<!-- Node3 -->
<g id="node3" class="node">
<title>Node3</title>
<g id="a_node3"><a xlink:href="main_8c.html#a840291bc02cba5474a4cb46a9b9566fe" target="_top" xlink:title=" ">
<polygon fill="white" stroke="black" points="0,-76.5 0,-95.5 41,-95.5 41,-76.5 0,-76.5"/>
<text text-anchor="middle" x="20.5" y="-83.5" font-family="Helvetica,sans-Serif" font-size="10.00">main</text>
</a>
</g>
</g>
<!-- Node2&#45;&gt;Node3 -->
<g id="edge2" class="edge">
<title>Node2&#45;&gt;Node3</title>
<path fill="none" stroke="midnightblue" d="M85.23,-147.89C82.37,-146.38 79.59,-144.75 77,-143 57.07,-129.56 38.6,-108.06 28.8,-95.66"/>
<polygon fill="midnightblue" stroke="midnightblue" points="83.99,-151.18 94.52,-152.32 87,-144.86 83.99,-151.18"/>
</g>
<!-- Node4&#45;&gt;Node3 -->
<g id="edge4" class="edge">
<title>Node4&#45;&gt;Node3</title>
<path fill="none" stroke="midnightblue" d="M88.28,-110.88C72.49,-105 54.46,-98.28 41.11,-93.31"/>
<polygon fill="midnightblue" stroke="midnightblue" points="87.17,-114.2 97.76,-114.41 89.61,-107.64 87.17,-114.2"/>
</g>
<!-- Node5&#45;&gt;Node3 -->
<g id="edge6" class="edge">
<title>Node5&#45;&gt;Node3</title>
<path fill="none" stroke="midnightblue" d="M66.91,-86C57.67,-86 48.67,-86 41.16,-86"/>
<polygon fill="midnightblue" stroke="midnightblue" points="66.98,-89.5 76.98,-86 66.98,-82.5 66.98,-89.5"/>
</g>
<!-- Node6&#45;&gt;Node3 -->
<g id="edge8" class="edge">
<title>Node6&#45;&gt;Node3</title>
<path fill="none" stroke="midnightblue" d="M88.28,-61.12C72.49,-67 54.46,-73.72 41.11,-78.69"/>
<polygon fill="midnightblue" stroke="midnightblue" points="89.61,-64.36 97.76,-57.59 87.17,-57.8 89.61,-64.36"/>
</g>
<!-- Node7&#45;&gt;Node3 -->
<g id="edge10" class="edge">
<title>Node7&#45;&gt;Node3</title>
<path fill="none" stroke="midnightblue" d="M85.23,-24.11C82.37,-25.62 79.59,-27.25 77,-29 57.07,-42.44 38.6,-63.94 28.8,-76.34"/>
<polygon fill="midnightblue" stroke="midnightblue" points="87,-27.14 94.52,-19.68 83.99,-20.82 87,-27.14"/>
</g>
</g>
</svg>
