<?xml version="1.0" encoding="UTF-8" standalone="no"?>
<!DOCTYPE svg PUBLIC "-//W3C//DTD SVG 1.1//EN"
 "http://www.w3.org/Graphics/SVG/1.1/DTD/svg11.dtd">
<!-- Generated by graphviz version 2.43.0 (0)
 -->
<!-- Title: wait_for_period Pages: 1 -->
<svg width="308pt" height="180pt"
 viewBox="0.00 0.00 308.00 180.00" xmlns="http://www.w3.org/2000/svg" xmlns:xlink="http://www.w3.org/1999/xlink">
<g id="graph0" class="graph" transform="scale(1 1) rotate(0) translate(4 176)">
<title>wait_for_period</title>
<polygon fill="white" stroke="transparent" points="-4,4 -4,-176 304,-176 304,4 -4,4"/>
<!-- Node1 -->
<g id="node1" class="node">
<title>Node1</title>
<g id="a_node1"><a xlink:title=" ">
<polygon fill="#bfbfbf" stroke="black" points="208,-76.5 208,-95.5 300,-95.5 300,-76.5 208,-76.5"/>
<text text-anchor="middle" x="254" y="-83.5" font-family="Helvetica,sans-Serif" font-size="10.00">wait_for_period</text>
</a>
</g>
</g>
<!-- Node2 -->
<g id="node2" class="node">
<title>Node2</title>
<g id="a_node2"><a xlink:href="tasks_8h.html#a91e3918bad881fbf7304d534268de11d" target="_top" xlink:title=" ">
<polygon fill="white" stroke="black" points="86,-152.5 86,-171.5 163,-171.5 163,-152.5 86,-152.5"/>
<text text-anchor="middle" x="124.5" y="-159.5" font-family="Helvetica,sans-Serif" font-size="10.00">control_task</text>
</a>
</g>
</g>
<!-- Node1&#45;&gt;Node2 -->
<g id="edge1" class="edge">
<title>Node1&#45;&gt;Node2</title>
<path fill="none" stroke="midnightblue" d="M233.18,-101.86C217.26,-114.11 194.02,-130.95 172,-143 165.73,-146.43 158.7,-149.61 152.05,-152.36"/>
<polygon fill="midnightblue" stroke="midnightblue" points="235.48,-104.5 241.21,-95.59 231.17,-98.99 235.48,-104.5"/>
</g>
<!-- Node4 -->
<g id="node4" class="node">
<title>Node4</title>
<g id="a_node4"><a xlink:href="tasks_8h.html#a16cbac3bef85b555e76fe999965c1b7e" target="_top" xlink:title=" ">
<polygon fill="white" stroke="black" points="85.5,-114.5 85.5,-133.5 163.5,-133.5 163.5,-114.5 85.5,-114.5"/>
<text text-anchor="middle" x="124.5" y="-121.5" font-family="Helvetica,sans-Serif" font-size="10.00">display_task</text>
</a>
</g>
</g>
<!-- Node1&#45;&gt;Node4 -->
<g id="edge3" class="edge">
<title>Node1&#45;&gt;Node4</title>
<path fill="none" stroke="midnightblue" d="M210.94,-98.54C193.6,-103.7 173.82,-109.6 157.66,-114.41"/>
<polygon fill="midnightblue" stroke="midnightblue" points="212.24,-101.8 220.83,-95.59 210.24,-95.09 212.24,-101.8"/>
</g>
<!-- Node5 -->
<g id="node5" class="node">
<title>Node5</title>
<g id="a_node5"><a xlink:href="tasks_8h.html#a746b11c2b14e499dab89746ee003716d" target="_top" xlink:title="Perception task.">
<polygon fill="white" stroke="black" points="77,-76.5 77,-95.5 172,-95.5 172,-76.5 77,-76.5"/>
<text text-anchor="middle" x="124.5" y="-83.5" font-family="Helvetica,sans-Serif" font-size="10.00">perception_task</text>
</a>
</g>
</g>
<!-- Node1&#45;&gt;Node5 -->
<g id="edge5" class="edge">
<title>Node1&#45;&gt;Node5</title>
<path fill="none" stroke="midnightblue" d="M197.58,-86C189.18,-86 180.58,-86 172.39,-86"/>
<polygon fill="midnightblue" stroke="midnightblue" points="197.69,-89.5 207.69,-86 197.69,-82.5 197.69,-89.5"/>
</g>
<!-- Node6 -->
<g id="node6" class="node">
<title>Node6</title>
<g id="a_node6"><a xlink:href="tasks_8h.html#a0fc6c027e96e920540028bd808a43c5f" target="_top" xlink:title=" ">
<polygon fill="white" stroke="black" points="83.5,-38.5 83.5,-57.5 165.5,-57.5 165.5,-38.5 83.5,-38.5"/>
<text text-anchor="middle" x="124.5" y="-45.5" font-family="Helvetica,sans-Serif" font-size="10.00">settings_task</text>
</a>
</g>
</g>
<!-- Node1&#45;&gt;Node6 -->
<g id="edge7" class="edge">
<title>Node1&#45;&gt;Node6</title>
<path fill="none" stroke="midnightblue" d="M210.94,-73.46C193.6,-68.3 173.82,-62.4 157.66,-57.59"/>
<polygon fill="midnightblue" stroke="midnightblue" points="210.24,-76.91 220.83,-76.41 212.24,-70.2 210.24,-76.91"/>
</g>
<!-- Node7 -->
<g id="node7" class="node">
<title>Node7</title>
<g id="a_node7"><a xlink:href="tasks_8h.html#ad095128da13e00a037e732dd25ffcbf6" target="_top" xlink:title=" ">
<polygon fill="white" stroke="black" points="79.5,-0.5 79.5,-19.5 169.5,-19.5 169.5,-0.5 79.5,-0.5"/>
<text text-anchor="middle" x="124.5" y="-7.5" font-family="Helvetica,sans-Serif" font-size="10.00">trajectory_task</text>
</a>
</g>
</g>
<!-- Node1&#45;&gt;Node7 -->
<g id="edge9" class="edge">
<title>Node1&#45;&gt;Node7</title>
<path fill="none" stroke="midnightblue" d="M233.18,-70.14C217.26,-57.89 194.02,-41.05 172,-29 165.73,-25.57 158.7,-22.39 152.05,-19.64"/>
<polygon fill="midnightblue" stroke="midnightblue" points="231.17,-73.01 241.21,-76.41 235.48,-67.5 231.17,-73.01"/>
</g>
<!-- Node3 -->
<g id="node3" class="node">
<title>Node3</title>
<g id="a_node3"><a xlink:href="main_8c.html#a840291bc02cba5474a4cb46a9b9566fe" target="_top" xlink:title=" ">
<polygon fill="white" stroke="black" points="0,-76.5 0,-95.5 41,-95.5 41,-76.5 0,-76.5"/>
<text text-anchor="middle" x="20.5" y="-83.5" font-family="Helvetica,sans-Serif" font-size="10.00">main</text>
</a>
</g>
</g>
<!-- Node2&#45;&gt;Node3 -->
<g id="edge2" class="edge">
<title>Node2&#45;&gt;Node3</title>
<path fill="none" stroke="midnightblue" d="M85.23,-147.89C82.37,-146.38 79.59,-144.75 77,-143 57.07,-129.56 38.6,-108.06 28.8,-95.66"/>
<polygon fill="midnightblue" stroke="midnightblue" points="83.99,-151.18 94.52,-152.32 87,-144.86 83.99,-151.18"/>
</g>
<!-- Node4&#45;&gt;Node3 -->
<g id="edge4" class="edge">
<title>Node4&#45;&gt;Node3</title>
<path fill="none" stroke="midnightblue" d="M88.28,-110.88C72.49,-105 54.46,-98.28 41.11,-93.31"/>
<polygon fill="midnightblue" stroke="midnightblue" points="87.17,-114.2 97.76,-114.41 89.61,-107.64 87.17,-114.2"/>
</g>
<!-- Node5&#45;&gt;Node3 -->
<g id="edge6" class="edge">
<title>Node5&#45;&gt;Node3</title>
<path fill="none" stroke="midnightblue" d="M66.91,-86C57.67,-86 48.67,-86 41.16,-86"/>
<polygon fill="midnightblue" stroke="midnightblue" points="66.98,-89.5 76.98,-86 66.98,-82.5 66.98,-89.5"/>
</g>
<!-- Node6&#45;&gt;Node3 -->
<g id="edge8" class="edge">
<title>Node6&#45;&gt;Node3</title>
<path fill="none" stroke="midnightblue" d="M88.28,-61.12C72.49,-67 54.46,-73.72 41.11,-78.69"/>
<polygon fill="midnightblue" stroke="midnightblue" points="89.61,-64.36 97.76,-57.59 87.17,-57.8 89.61,-64.36"/>
</g>
<!-- Node7&#45;&gt;Node3 -->
<g id="edge10" class="edge">
<title>Node7&#45;&gt;Node3</title>
<path fill="none" stroke="midnightblue" d="M85.23,-24.11C82.37,-25.62 79.59,-27.25 77,-29 57.07,-42.44 38.6,-63.94 28.8,-76.34"/>
<polygon fill="midnightblue" stroke="midnightblue" points="87,-27.14 94.52,-19.68 83.99,-20.82 87,-27.14"/>
</g>
</g>
</svg>
