<?xml version="1.0" encoding="UTF-8" standalone="no"?>
<!DOCTYPE svg PUBLIC "-//W3C//DTD SVG 1.1//EN"
 "http://www.w3.org/Graphics/SVG/1.1/DTD/svg11.dtd">
<!-- Generated by graphviz version 2.43.0 (0)
 -->
<!-- Title: get_task_index Pages: 1 -->
<svg width="307pt" height="142pt"
 viewBox="0.00 0.00 307.00 142.00" xmlns="http://www.w3.org/2000/svg" xmlns:xlink="http://www.w3.org/1999/xlink">
<g id="graph0" class="graph" transform="scale(1 1) rotate(0) translate(4 138)">
<title>get_task_index</title>
<polygon fill="white" stroke="transparent" points="-4,4 -4,-138 303,-138 303,4 -4,4"/>
<!-- Node1 -->
<g id="node1" class="node">
<title>Node1</title>
<g id="a_node1"><a xlink:title=" ">
<polygon fill="#bfbfbf" stroke="black" points="208,-57.5 208,-76.5 299,-76.5 299,-57.5 208,-57.5"/>
<text text-anchor="middle" x="253.5" y="-64.5" font-family="Helvetica,sans-Serif" font-size="10.00">get_task_index</text>
</a>
</g>
</g>
<!-- Node2 -->
<g id="node2" class="node">
<title>Node2</title>
<g id="a_node2"><a xlink:href="tasks_8h.html#a91e3918bad881fbf7304d534268de11d" target="_top" xlink:title=" ">
<polygon fill="white" stroke="black" points="86,-114.5 86,-133.5 163,-133.5 163,-114.5 86,-114.5"/>
<text text-anchor="middle" x="124.5" y="-121.5" font-family="Helvetica,sans-Serif" font-size="10.00">control_task</text>
</a>
</g>
</g>
<!-- Node1&#45;&gt;Node2 -->
<g id="edge1" class="edge">
<title>Node1&#45;&gt;Node2</title>
<path fill="none" stroke="midnightblue" d="M223.69,-81.05C208.42,-88.39 189.29,-97.39 172,-105 164.82,-108.16 156.94,-111.45 149.74,-114.38"/>
<polygon fill="midnightblue" stroke="midnightblue" points="225.63,-84.01 233.11,-76.51 222.59,-77.7 225.63,-84.01"/>
</g>
<!-- Node4 -->
<g id="node4" class="node">
<title>Node4</title>
<g id="a_node4"><a xlink:href="tasks_8h.html#a16cbac3bef85b555e76fe999965c1b7e" target="_top" xlink:title=" ">
<polygon fill="white" stroke="black" points="85.5,-76.5 85.5,-95.5 163.5,-95.5 163.5,-76.5 85.5,-76.5"/>
<text text-anchor="middle" x="124.5" y="-83.5" font-family="Helvetica,sans-Serif" font-size="10.00">display_task</text>
</a>
</g>
</g>
<!-- Node1&#45;&gt;Node4 -->
<g id="edge3" class="edge">
<title>Node1&#45;&gt;Node4</title>
<path fill="none" stroke="midnightblue" d="M197.74,-75.19C186.22,-76.92 174.31,-78.7 163.56,-80.31"/>
<polygon fill="midnightblue" stroke="midnightblue" points="198.35,-78.64 207.72,-73.7 197.32,-71.72 198.35,-78.64"/>
</g>
<!-- Node5 -->
<g id="node5" class="node">
<title>Node5</title>
<g id="a_node5"><a xlink:href="tasks_8h.html#a746b11c2b14e499dab89746ee003716d" target="_top" xlink:title="Perception task.">
<polygon fill="white" stroke="black" points="77,-38.5 77,-57.5 172,-57.5 172,-38.5 77,-38.5"/>
<text text-anchor="middle" x="124.5" y="-45.5" font-family="Helvetica,sans-Serif" font-size="10.00">perception_task</text>
</a>
</g>
</g>
<!-- Node1&#45;&gt;Node5 -->
<g id="edge5" class="edge">
<title>Node1&#45;&gt;Node5</title>
<path fill="none" stroke="midnightblue" d="M197.79,-58.81C189.2,-57.53 180.4,-56.21 172.02,-54.96"/>
<polygon fill="midnightblue" stroke="midnightblue" points="197.32,-62.28 207.72,-60.3 198.35,-55.36 197.32,-62.28"/>
</g>
<!-- Node6 -->
<g id="node6" class="node">
<title>Node6</title>
<g id="a_node6"><a xlink:href="tasks_8h.html#ad095128da13e00a037e732dd25ffcbf6" target="_top" xlink:title=" ">
<polygon fill="white" stroke="black" points="79.5,-0.5 79.5,-19.5 169.5,-19.5 169.5,-0.5 79.5,-0.5"/>
<text text-anchor="middle" x="124.5" y="-7.5" font-family="Helvetica,sans-Serif" font-size="10.00">trajectory_task</text>
</a>
</g>
</g>
<!-- Node1&#45;&gt;Node6 -->
<g id="edge7" class="edge">
<title>Node1&#45;&gt;Node6</title>
<path fill="none" stroke="midnightblue" d="M223.69,-52.95C208.42,-45.61 189.29,-36.61 172,-29 164.82,-25.84 156.94,-22.55 149.74,-19.62"/>
<polygon fill="midnightblue" stroke="midnightblue" points="222.59,-56.3 233.11,-57.49 225.63,-49.99 222.59,-56.3"/>
</g>
<!-- Node3 -->
<g id="node3" class="node">
<title>Node3</title>
<g id="a_node3"><a xlink:href="main_8c.html#a840291bc02cba5474a4cb46a9b9566fe" target="_top" xlink:title=" ">
<polygon fill="white" stroke="black" points="0,-57.5 0,-76.5 41,-76.5 41,-57.5 0,-57.5"/>
<text text-anchor="middle" x="20.5" y="-64.5" font-family="Helvetica,sans-Serif" font-size="10.00">main</text>
</a>
</g>
</g>
<!-- Node2&#45;&gt;Node3 -->
<g id="edge2" class="edge">
<title>Node2&#45;&gt;Node3</title>
<path fill="none" stroke="midnightblue" d="M88.08,-110.45C84.29,-108.73 80.53,-106.9 77,-105 61.37,-96.58 44.74,-84.76 33.8,-76.55"/>
<polygon fill="midnightblue" stroke="midnightblue" points="86.9,-113.76 97.47,-114.5 89.67,-107.33 86.9,-113.76"/>
</g>
<!-- Node4&#45;&gt;Node3 -->
<g id="edge4" class="edge">
<title>Node4&#45;&gt;Node3</title>
<path fill="none" stroke="midnightblue" d="M75.19,-77C63.12,-74.75 50.85,-72.47 41.08,-70.65"/>
<polygon fill="midnightblue" stroke="midnightblue" points="74.76,-80.48 85.23,-78.87 76.04,-73.6 74.76,-80.48"/>
</g>
<!-- Node5&#45;&gt;Node3 -->
<g id="edge6" class="edge">
<title>Node5&#45;&gt;Node3</title>
<path fill="none" stroke="midnightblue" d="M66.91,-58.54C57.67,-60.26 48.67,-61.94 41.16,-63.34"/>
<polygon fill="midnightblue" stroke="midnightblue" points="67.79,-61.94 76.98,-56.67 66.51,-55.06 67.79,-61.94"/>
</g>
<!-- Node6&#45;&gt;Node3 -->
<g id="edge8" class="edge">
<title>Node6&#45;&gt;Node3</title>
<path fill="none" stroke="midnightblue" d="M88.08,-23.55C84.29,-25.27 80.53,-27.1 77,-29 61.37,-37.42 44.74,-49.24 33.8,-57.45"/>
<polygon fill="midnightblue" stroke="midnightblue" points="89.67,-26.67 97.47,-19.5 86.9,-20.24 89.67,-26.67"/>
</g>
</g>
</svg>
