<?xml version="1.0" encoding="UTF-8" standalone="no"?>
<!DOCTYPE svg PUBLIC "-//W3C//DTD SVG 1.1//EN"
 "http://www.w3.org/Graphics/SVG/1.1/DTD/svg11.dtd">
<!-- Generated by graphviz version 2.43.0 (0)
 -->
<!-- Title: wait_for_period Pages: 1 -->
<svg width="308pt" height="142pt"
 viewBox="0.00 0.00 308.00 142.00" xmlns="http://www.w3.org/2000/svg" xmlns:xlink="http://www.w3.org/1999/xlink">
<g id="graph0" class="graph" transform="scale(1 1) rotate(0) translate(4 138)">
<title>wait_for_period</title>
<polygon fill="white" stroke="transparent" points="-4,4 -4,-138 304,-138 304,4 -4,4"/>
<!-- Node1 -->
<g id="node1" class="node">
<title>Node1</title>
<g id="a_node1"><a xlink:title=" ">
<polygon fill="#bfbfbf" stroke="black" points="208,-57.5 208,-76.5 300,-76.5 300,-57.5 208,-57.5"/>
<text text-anchor="middle" x="254" y="-64.5" font-family="Helvetica,sans-Serif" font-size="10.00">wait_for_period</text>
</a>
</g>
</g>
<!-- Node2 -->
<g id="node2" class="node">
<title>Node2</title>
<g id="a_node2"><a xlink:href="tasks_8h.html#a91e3918bad881fbf7304d534268de11d" target="_top" xlink:title=" ">
<polygon fill="white" stroke="black" points="86,-114.5 86,-133.5 163,-133.5 163,-114.5 86,-114.5"/>
<text text-anchor="middle" x="124.5" y="-121.5" font-family="Helvetica,sans-Serif" font-size="10.00">control_task</text>
</a>
</g>
</g>
<!-- Node1&#45;&gt;Node2 -->
<g id="edge1" class="edge">
<title>Node1&#45;&gt;Node2</title>
<path fill="none" stroke="midnightblue" d="M224.13,-80.98C208.74,-88.32 189.43,-97.35 172,-105 164.81,-108.15 156.93,-111.44 149.73,-114.37"/>
<polygon fill="midnightblue" stroke="midnightblue" points="225.65,-84.13 233.16,-76.65 222.63,-77.82 225.65,-84.13"/>
</g>
<!-- Node4 -->
<g id="node4" class="node">
<title>Node4</title>
<g id="a_node4"><a xlink:href="tasks_8h.html#a16cbac3bef85b555e76fe999965c1b7e" target="_top" xlink:title=" ">
<polygon fill="white" stroke="black" points="85.5,-76.5 85.5,-95.5 163.5,-95.5 163.5,-76.5 85.5,-76.5"/>
<text text-anchor="middle" x="124.5" y="-83.5" font-family="Helvetica,sans-Serif" font-size="10.00">display_task</text>
</a>
</g>
</g>
<!-- Node1&#45;&gt;Node4 -->
<g id="edge3" class="edge">
<title>Node1&#45;&gt;Node4</title>
<path fill="none" stroke="midnightblue" d="M197.69,-75.24C186.15,-76.96 174.24,-78.74 163.5,-80.34"/>
<polygon fill="midnightblue" stroke="midnightblue" points="198.31,-78.69 207.69,-73.75 197.28,-71.76 198.31,-78.69"/>
</g>
<!-- Node5 -->
<g id="node5" class="node">
<title>Node5</title>
<g id="a_node5"><a xlink:href="tasks_8h.html#a746b11c2b14e499dab89746ee003716d" target="_top" xlink:title="Perception task.">
<polygon fill="white" stroke="black" points="77,-38.5 77,-57.5 172,-57.5 172,-38.5 77,-38.5"/>
<text text-anchor="middle" x="124.5" y="-45.5" font-family="Helvetica,sans-Serif" font-size="10.00">perception_task</text>
</a>
</g>
</g>
<!-- Node1&#45;&gt;Node5 -->
<g id="edge5" class="edge">
<title>Node1&#45;&gt;Node5</title>
<path fill="none" stroke="midnightblue" d="M197.58,-58.74C189.18,-57.49 180.58,-56.21 172.39,-54.99"/>
<polygon fill="midnightblue" stroke="midnightblue" points="197.28,-62.24 207.69,-60.25 198.31,-55.31 197.28,-62.24"/>
</g>
<!-- Node6 -->
<g id="node6" class="node">
<title>Node6</title>
<g id="a_node6"><a xlink:href="tasks_8h.html#ad095128da13e00a037e732dd25ffcbf6" target="_top" xlink:title=" ">
<polygon fill="white" stroke="black" points="79.5,-0.5 79.5,-19.5 169.5,-19.5 169.5,-0.5 79.5,-0.5"/>
<text text-anchor="middle" x="124.5" y="-7.5" font-family="Helvetica,sans-Serif" font-size="10.00">trajectory_task</text>
</a>
</g>
</g>
<!-- Node1&#45;&gt;Node6 -->
<g id="edge7" class="edge">
<title>Node1&#45;&gt;Node6</title>
<path fill="none" stroke="midnightblue" d="M224.13,-53.02C208.74,-45.68 189.43,-36.65 172,-29 164.81,-25.85 156.93,-22.56 149.73,-19.63"/>
<polygon fill="midnightblue" stroke="midnightblue" points="222.63,-56.18 233.16,-57.35 225.65,-49.87 222.63,-56.18"/>
</g>
<!-- Node3 -->
<g id="node3" class="node">
<title>Node3</title>
<g id="a_node3"><a xlink:href="main_8c.html#a840291bc02cba5474a4cb46a9b9566fe" target="_top" xlink:title=" ">
<polygon fill="white" stroke="black" points="0,-57.5 0,-76.5 41,-76.5 41,-57.5 0,-57.5"/>
<text text-anchor="middle" x="20.5" y="-64.5" font-family="Helvetica,sans-Serif" font-size="10.00">main</text>
</a>
</g>
</g>
<!-- Node2&#45;&gt;Node3 -->
<g id="edge2" class="edge">
<title>Node2&#45;&gt;Node3</title>
<path fill="none" stroke="midnightblue" d="M88.08,-110.45C84.29,-108.73 80.53,-106.9 77,-105 61.37,-96.58 44.74,-84.76 33.8,-76.55"/>
<polygon fill="midnightblue" stroke="midnightblue" points="86.9,-113.76 97.47,-114.5 89.67,-107.33 86.9,-113.76"/>
</g>
<!-- Node4&#45;&gt;Node3 -->
<g id="edge4" class="edge">
<title>Node4&#45;&gt;Node3</title>
<path fill="none" stroke="midnightblue" d="M75.19,-77C63.12,-74.75 50.85,-72.47 41.08,-70.65"/>
<polygon fill="midnightblue" stroke="midnightblue" points="74.76,-80.48 85.23,-78.87 76.04,-73.6 74.76,-80.48"/>
</g>
<!-- Node5&#45;&gt;Node3 -->
<g id="edge6" class="edge">
<title>Node5&#45;&gt;Node3</title>
<path fill="none" stroke="midnightblue" d="M66.91,-58.54C57.67,-60.26 48.67,-61.94 41.16,-63.34"/>
<polygon fill="midnightblue" stroke="midnightblue" points="67.79,-61.94 76.98,-56.67 66.51,-55.06 67.79,-61.94"/>
</g>
<!-- Node6&#45;&gt;Node3 -->
<g id="edge8" class="edge">
<title>Node6&#45;&gt;Node3</title>
<path fill="none" stroke="midnightblue" d="M88.08,-23.55C84.29,-25.27 80.53,-27.1 77,-29 61.37,-37.42 44.74,-49.24 33.8,-57.45"/>
<polygon fill="midnightblue" stroke="midnightblue" points="89.67,-26.67 97.47,-19.5 86.9,-20.24 89.67,-26.67"/>
</g>
</g>
</svg>
