<?xml version="1.0" encoding="UTF-8" standalone="no"?>
<!DOCTYPE svg PUBLIC "-//W3C//DTD SVG 1.1//EN"
 "http://www.w3.org/Graphics/SVG/1.1/DTD/svg11.dtd">
<!-- Generated by graphviz version 2.43.0 (0)
 -->
<!-- Title: src/ptask.c Pages: 1 -->
<svg width="375pt" height="140pt"
 viewBox="0.00 0.00 375.00 140.00" xmlns="http://www.w3.org/2000/svg" xmlns:xlink="http://www.w3.org/1999/xlink">
<g id="graph0" class="graph" transform="scale(1 1) rotate(0) translate(4 136)">
<title>src/ptask.c</title>
<polygon fill="white" stroke="transparent" points="-4,4 -4,-136 371,-136 371,4 -4,4"/>
<!-- Node1 -->
<g id="node1" class="node">
<title>Node1</title>
<g id="a_node1"><a xlink:title=" ">
<polygon fill="#bfbfbf" stroke="black" points="170,-112.5 170,-131.5 239,-131.5 239,-112.5 170,-112.5"/>
<text text-anchor="middle" x="204.5" y="-119.5" font-family="Helvetica,sans-Serif" font-size="10.00">src/ptask.c</text>
</a>
</g>
</g>
<!-- Node2 -->
<g id="node2" class="node">
<title>Node2</title>
<g id="a_node2"><a xlink:href="ptask_8h.html" target="_top" xlink:title="Interface for managing periodic tasks and time utilities.">
<polygon fill="white" stroke="black" points="178,-56.5 178,-75.5 231,-75.5 231,-56.5 178,-56.5"/>
<text text-anchor="middle" x="204.5" y="-63.5" font-family="Helvetica,sans-Serif" font-size="10.00">ptask.h</text>
</a>
</g>
</g>
<!-- Node1&#45;&gt;Node2 -->
<g id="edge1" class="edge">
<title>Node1&#45;&gt;Node2</title>
<path fill="none" stroke="midnightblue" d="M204.5,-112.08C204.5,-105.01 204.5,-94.86 204.5,-85.99"/>
<polygon fill="midnightblue" stroke="midnightblue" points="208,-85.75 204.5,-75.75 201,-85.75 208,-85.75"/>
</g>
<!-- Node3 -->
<g id="node3" class="node">
<title>Node3</title>
<g id="a_node3"><a xlink:title=" ">
<polygon fill="white" stroke="#bfbfbf" points="0,-0.5 0,-19.5 63,-19.5 63,-0.5 0,-0.5"/>
<text text-anchor="middle" x="31.5" y="-7.5" font-family="Helvetica,sans-Serif" font-size="10.00">pthread.h</text>
</a>
</g>
</g>
<!-- Node2&#45;&gt;Node3 -->
<g id="edge2" class="edge">
<title>Node2&#45;&gt;Node3</title>
<path fill="none" stroke="midnightblue" d="M177.85,-56.68C148.56,-47.54 101.31,-32.79 68.45,-22.53"/>
<polygon fill="midnightblue" stroke="midnightblue" points="69.34,-19.15 58.75,-19.51 67.26,-25.83 69.34,-19.15"/>
</g>
<!-- Node4 -->
<g id="node4" class="node">
<title>Node4</title>
<g id="a_node4"><a xlink:title=" ">
<polygon fill="white" stroke="#bfbfbf" points="81.5,-0.5 81.5,-19.5 161.5,-19.5 161.5,-0.5 81.5,-0.5"/>
<text text-anchor="middle" x="121.5" y="-7.5" font-family="Helvetica,sans-Serif" font-size="10.00">semaphore.h</text>
</a>
</g>
</g>
<!-- Node2&#45;&gt;Node4 -->
<g id="edge3" class="edge">
<title>Node2&#45;&gt;Node4</title>
<path fill="none" stroke="midnightblue" d="M191.16,-56.32C178.34,-47.98 158.72,-35.21 143.56,-25.35"/>
<polygon fill="midnightblue" stroke="midnightblue" points="145.09,-22.17 134.8,-19.65 141.28,-28.04 145.09,-22.17"/>
</g>
<!-- Node5 -->
<g id="node5" class="node">
<title>Node5</title>
<g id="a_node5"><a xlink:title=" ">
<polygon fill="white" stroke="#bfbfbf" points="179.5,-0.5 179.5,-19.5 229.5,-19.5 229.5,-0.5 179.5,-0.5"/>
<text text-anchor="middle" x="204.5" y="-7.5" font-family="Helvetica,sans-Serif" font-size="10.00">stdio.h</text>
</a>
</g>
</g>
<!-- Node2&#45;&gt;Node5 -->
<g id="edge4" class="edge">
<title>Node2&#45;&gt;Node5</title>
<path fill="none" stroke="midnightblue" d="M204.5,-56.08C204.5,-49.01 204.5,-38.86 204.5,-29.99"/>
<polygon fill="midnightblue" stroke="midnightblue" points="208,-29.75 204.5,-19.75 201,-29.75 208,-29.75"/>
</g>
<!-- Node6 -->
<g id="node6" class="node">
<title>Node6</title>
<g id="a_node6"><a xlink:title=" ">
<polygon fill="white" stroke="#bfbfbf" points="247.5,-0.5 247.5,-19.5 295.5,-19.5 295.5,-0.5 247.5,-0.5"/>
<text text-anchor="middle" x="271.5" y="-7.5" font-family="Helvetica,sans-Serif" font-size="10.00">time.h</text>
</a>
</g>
</g>
<!-- Node2&#45;&gt;Node6 -->
<g id="edge5" class="edge">
<title>Node2&#45;&gt;Node6</title>
<path fill="none" stroke="midnightblue" d="M215.26,-56.32C225.27,-48.26 240.39,-36.08 252.43,-26.37"/>
<polygon fill="midnightblue" stroke="midnightblue" points="254.95,-28.83 260.54,-19.83 250.56,-23.38 254.95,-28.83"/>
</g>
<!-- Node7 -->
<g id="node7" class="node">
<title>Node7</title>
<g id="a_node7"><a xlink:title=" ">
<polygon fill="white" stroke="#bfbfbf" points="314,-0.5 314,-19.5 367,-19.5 367,-0.5 314,-0.5"/>
<text text-anchor="middle" x="340.5" y="-7.5" font-family="Helvetica,sans-Serif" font-size="10.00">string.h</text>
</a>
</g>
</g>
<!-- Node2&#45;&gt;Node7 -->
<g id="edge6" class="edge">
<title>Node2&#45;&gt;Node7</title>
<path fill="none" stroke="midnightblue" d="M226.05,-56.44C248.53,-47.52 283.99,-33.44 309.48,-23.32"/>
<polygon fill="midnightblue" stroke="midnightblue" points="311.05,-26.46 319.05,-19.52 308.47,-19.95 311.05,-26.46"/>
</g>
</g>
</svg>
