<?xml version="1.0" encoding="UTF-8" standalone="no"?>
<!DOCTYPE svg PUBLIC "-//W3C//DTD SVG 1.1//EN"
 "http://www.w3.org/Graphics/SVG/1.1/DTD/svg11.dtd">
<!-- Generated by graphviz version 2.43.0 (0)
 -->
<!-- Title: perception_task Pages: 1 -->
<svg width="402pt" height="218pt"
 viewBox="0.00 0.00 402.00 218.00" xmlns="http://www.w3.org/2000/svg" xmlns:xlink="http://www.w3.org/1999/xlink">
<g id="graph0" class="graph" transform="scale(1 1) rotate(0) translate(4 214)">
<title>perception_task</title>
<polygon fill="white" stroke="transparent" points="-4,4 -4,-214 398,-214 398,4 -4,4"/>
<!-- Node1 -->
<g id="node1" class="node">
<title>Node1</title>
<g id="a_node1"><a xlink:title="Periodic perception task.">
<polygon fill="#bfbfbf" stroke="black" points="0,-95.5 0,-114.5 95,-114.5 95,-95.5 0,-95.5"/>
<text text-anchor="middle" x="47.5" y="-102.5" font-family="Helvetica,sans-Serif" font-size="10.00">perception_task</text>
</a>
</g>
</g>
<!-- Node2 -->
<g id="node2" class="node">
<title>Node2</title>
<g id="a_node2"><a xlink:href="ptask_8h.html#a55744cf37a298cca48b46a38ecd1cbd7" target="_top" xlink:title=" ">
<polygon fill="white" stroke="black" points="140.5,-190.5 140.5,-209.5 231.5,-209.5 231.5,-190.5 140.5,-190.5"/>
<text text-anchor="middle" x="186" y="-197.5" font-family="Helvetica,sans-Serif" font-size="10.00">get_task_index</text>
</a>
</g>
</g>
<!-- Node1&#45;&gt;Node2 -->
<g id="edge1" class="edge">
<title>Node1&#45;&gt;Node2</title>
<path fill="none" stroke="midnightblue" d="M56.67,-114.75C70.47,-130.67 99.96,-162.33 131,-181 134.4,-183.04 138.05,-184.91 141.8,-186.61"/>
<polygon fill="midnightblue" stroke="midnightblue" points="140.62,-189.91 151.2,-190.49 143.29,-183.44 140.62,-189.91"/>
</g>
<!-- Node3 -->
<g id="node3" class="node">
<title>Node3</title>
<g id="a_node3"><a xlink:href="group__PerceptionModule.html#gad42bf825ec1093bf25b80bc192f3f952" target="_top" xlink:title=" ">
<polygon fill="white" stroke="black" points="167,-152.5 167,-171.5 205,-171.5 205,-152.5 167,-152.5"/>
<text text-anchor="middle" x="186" y="-159.5" font-family="Helvetica,sans-Serif" font-size="10.00">lidar</text>
</a>
</g>
</g>
<!-- Node1&#45;&gt;Node3 -->
<g id="edge2" class="edge">
<title>Node1&#45;&gt;Node3</title>
<path fill="none" stroke="midnightblue" d="M67.94,-114.58C84.52,-122.6 109.08,-134.12 131,-143 139.47,-146.43 148.83,-149.85 157.34,-152.83"/>
<polygon fill="midnightblue" stroke="midnightblue" points="156.25,-156.15 166.84,-156.08 158.52,-149.53 156.25,-156.15"/>
</g>
<!-- Node4 -->
<g id="node4" class="node">
<title>Node4</title>
<g id="a_node4"><a xlink:href="group__PerceptionModule.html#ga9c68a3d545ebb7bb3092f88b7e10084a" target="_top" xlink:title=" ">
<polygon fill="white" stroke="black" points="156.5,-114.5 156.5,-133.5 215.5,-133.5 215.5,-114.5 156.5,-114.5"/>
<text text-anchor="middle" x="186" y="-121.5" font-family="Helvetica,sans-Serif" font-size="10.00">mapping</text>
</a>
</g>
</g>
<!-- Node1&#45;&gt;Node4 -->
<g id="edge3" class="edge">
<title>Node1&#45;&gt;Node4</title>
<path fill="none" stroke="midnightblue" d="M95.09,-111.49C111.69,-113.8 130.2,-116.37 146.08,-118.58"/>
<polygon fill="midnightblue" stroke="midnightblue" points="145.71,-122.07 156.1,-119.98 146.68,-115.13 145.71,-122.07"/>
</g>
<!-- Node7 -->
<g id="node7" class="node">
<title>Node7</title>
<g id="a_node7"><a xlink:href="utilities_8h.html#a28b6717d007598c8d776ee5b8652be51" target="_top" xlink:title=" ">
<polygon fill="white" stroke="black" points="158.5,-76.5 158.5,-95.5 213.5,-95.5 213.5,-76.5 158.5,-76.5"/>
<text text-anchor="middle" x="186" y="-83.5" font-family="Helvetica,sans-Serif" font-size="10.00">runtime</text>
</a>
</g>
</g>
<!-- Node1&#45;&gt;Node7 -->
<g id="edge6" class="edge">
<title>Node1&#45;&gt;Node7</title>
<path fill="none" stroke="midnightblue" d="M95.09,-98.51C112.45,-96.1 131.9,-93.39 148.25,-91.12"/>
<polygon fill="midnightblue" stroke="midnightblue" points="149.08,-94.53 158.5,-89.69 148.11,-87.6 149.08,-94.53"/>
</g>
<!-- Node8 -->
<g id="node8" class="node">
<title>Node8</title>
<g id="a_node8"><a xlink:href="ptask_8h.html#ac5a989242ff00476f314f92395f23252" target="_top" xlink:title=" ">
<polygon fill="white" stroke="black" points="131,-38.5 131,-57.5 241,-57.5 241,-38.5 131,-38.5"/>
<text text-anchor="middle" x="186" y="-45.5" font-family="Helvetica,sans-Serif" font-size="10.00">wait_for_activation</text>
</a>
</g>
</g>
<!-- Node1&#45;&gt;Node8 -->
<g id="edge7" class="edge">
<title>Node1&#45;&gt;Node8</title>
<path fill="none" stroke="midnightblue" d="M67.94,-95.42C84.52,-87.4 109.08,-75.88 131,-67 136.07,-64.95 141.45,-62.9 146.78,-60.95"/>
<polygon fill="midnightblue" stroke="midnightblue" points="147.99,-64.23 156.23,-57.56 145.63,-57.64 147.99,-64.23"/>
</g>
<!-- Node9 -->
<g id="node9" class="node">
<title>Node9</title>
<g id="a_node9"><a xlink:href="ptask_8h.html#afd8a4ae978d1068cb18f8e5fc03a1f0c" target="_top" xlink:title=" ">
<polygon fill="white" stroke="black" points="140,-0.5 140,-19.5 232,-19.5 232,-0.5 140,-0.5"/>
<text text-anchor="middle" x="186" y="-7.5" font-family="Helvetica,sans-Serif" font-size="10.00">wait_for_period</text>
</a>
</g>
</g>
<!-- Node1&#45;&gt;Node9 -->
<g id="edge8" class="edge">
<title>Node1&#45;&gt;Node9</title>
<path fill="none" stroke="midnightblue" d="M56.67,-95.25C70.47,-79.33 99.96,-47.67 131,-29 134.4,-26.96 138.05,-25.09 141.8,-23.39"/>
<polygon fill="midnightblue" stroke="midnightblue" points="143.29,-26.56 151.2,-19.51 140.62,-20.09 143.29,-26.56"/>
</g>
<!-- Node5 -->
<g id="node5" class="node">
<title>Node5</title>
<g id="a_node5"><a xlink:href="group__PerceptionModule.html#gaf16a2babc7e4a480309f889a0e848c72" target="_top" xlink:title=" ">
<polygon fill="white" stroke="black" points="277,-133.5 277,-152.5 394,-152.5 394,-133.5 277,-133.5"/>
<text text-anchor="middle" x="335.5" y="-140.5" font-family="Helvetica,sans-Serif" font-size="10.00">check_nearest_point</text>
</a>
</g>
</g>
<!-- Node4&#45;&gt;Node5 -->
<g id="edge4" class="edge">
<title>Node4&#45;&gt;Node5</title>
<path fill="none" stroke="midnightblue" d="M215.79,-127.71C230.3,-129.58 248.56,-131.93 266.38,-134.22"/>
<polygon fill="midnightblue" stroke="midnightblue" points="266.42,-137.76 276.79,-135.57 267.32,-130.82 266.42,-137.76"/>
</g>
<!-- Node6 -->
<g id="node6" class="node">
<title>Node6</title>
<g id="a_node6"><a xlink:href="group__PerceptionModule.html#ga697c64eba1fb6796e0e5ccc17dc578dd" target="_top" xlink:title=" ">
<polygon fill="white" stroke="black" points="297,-95.5 297,-114.5 374,-114.5 374,-95.5 297,-95.5"/>
<text text-anchor="middle" x="335.5" y="-102.5" font-family="Helvetica,sans-Serif" font-size="10.00">update_map</text>
</a>
</g>
</g>
<!-- Node4&#45;&gt;Node6 -->
<g id="edge5" class="edge">
<title>Node4&#45;&gt;Node6</title>
<path fill="none" stroke="midnightblue" d="M215.79,-120.29C235.95,-117.7 263.35,-114.17 286.75,-111.15"/>
<polygon fill="midnightblue" stroke="midnightblue" points="287.36,-114.6 296.84,-109.85 286.47,-107.66 287.36,-114.6"/>
</g>
</g>
</svg>
