<?xml version="1.0" encoding="UTF-8" standalone="no"?>
<!DOCTYPE svg PUBLIC "-//W3C//DTD SVG 1.1//EN"
 "http://www.w3.org/Graphics/SVG/1.1/DTD/svg11.dtd">
<!-- Generated by graphviz version 2.43.0 (0)
 -->
<!-- Title: src/tasks.c Pages: 1 -->
<svg width="584pt" height="364pt"
 viewBox="0.00 0.00 583.50 364.00" xmlns="http://www.w3.org/2000/svg" xmlns:xlink="http://www.w3.org/1999/xlink">
<g id="graph0" class="graph" transform="scale(1 1) rotate(0) translate(4 360)">
<title>src/tasks.c</title>
<polygon fill="white" stroke="transparent" points="-4,4 -4,-360 579.5,-360 579.5,4 -4,4"/>
<!-- Node1 -->
<g id="node1" class="node">
<title>Node1</title>
<g id="a_node1"><a xlink:title="Contains periodic task functions for LiDAR perception, trajectory planning, vehicle control,...">
<polygon fill="#bfbfbf" stroke="black" points="216,-336.5 216,-355.5 284,-355.5 284,-336.5 216,-336.5"/>
<text text-anchor="middle" x="250" y="-343.5" font-family="Helvetica,sans-Serif" font-size="10.00">src/tasks.c</text>
</a>
</g>
</g>
<!-- Node2 -->
<g id="node2" class="node">
<title>Node2</title>
<g id="a_node2"><a xlink:title=" ">
<polygon fill="white" stroke="#bfbfbf" points="312,-224.5 312,-243.5 362,-243.5 362,-224.5 312,-224.5"/>
<text text-anchor="middle" x="337" y="-231.5" font-family="Helvetica,sans-Serif" font-size="10.00">stdio.h</text>
</a>
</g>
</g>
<!-- Node1&#45;&gt;Node2 -->
<g id="edge1" class="edge">
<title>Node1&#45;&gt;Node2</title>
<path fill="none" stroke="midnightblue" d="M259.03,-336.44C268.06,-327.67 282.14,-313.46 293,-300 305.39,-284.64 317.85,-265.85 326.33,-252.43"/>
<polygon fill="midnightblue" stroke="midnightblue" points="329.43,-254.08 331.74,-243.74 323.48,-250.38 329.43,-254.08"/>
</g>
<!-- Node3 -->
<g id="node3" class="node">
<title>Node3</title>
<g id="a_node3"><a xlink:href="globals_8h.html" target="_top" xlink:title="Global constants, variables, and structures for the simulation and visualization system.">
<polygon fill="white" stroke="black" points="130.5,-56.5 130.5,-75.5 191.5,-75.5 191.5,-56.5 130.5,-56.5"/>
<text text-anchor="middle" x="161" y="-63.5" font-family="Helvetica,sans-Serif" font-size="10.00">globals.h</text>
</a>
</g>
</g>
<!-- Node1&#45;&gt;Node3 -->
<g id="edge2" class="edge">
<title>Node1&#45;&gt;Node3</title>
<path fill="none" stroke="midnightblue" d="M215.76,-345.04C147.29,-343.12 0,-328.18 0,-235 0,-235 0,-235 0,-177 0,-118.69 72.89,-89.05 120.58,-75.89"/>
<polygon fill="midnightblue" stroke="midnightblue" points="121.55,-79.26 130.34,-73.33 119.78,-72.49 121.55,-79.26"/>
</g>
<!-- Node7 -->
<g id="node7" class="node">
<title>Node7</title>
<g id="a_node7"><a xlink:href="tasks_8h.html" target="_top" xlink:title="Declaration of task thread functions for the simulation.">
<polygon fill="white" stroke="black" points="146,-280.5 146,-299.5 198,-299.5 198,-280.5 146,-280.5"/>
<text text-anchor="middle" x="172" y="-287.5" font-family="Helvetica,sans-Serif" font-size="10.00">tasks.h</text>
</a>
</g>
</g>
<!-- Node1&#45;&gt;Node7 -->
<g id="edge6" class="edge">
<title>Node1&#45;&gt;Node7</title>
<path fill="none" stroke="midnightblue" d="M237.47,-336.32C225.41,-327.98 206.97,-315.21 192.73,-305.35"/>
<polygon fill="midnightblue" stroke="midnightblue" points="194.72,-302.47 184.5,-299.65 190.73,-308.22 194.72,-302.47"/>
</g>
<!-- Node9 -->
<g id="node9" class="node">
<title>Node9</title>
<g id="a_node9"><a xlink:href="perception_8h.html" target="_top" xlink:title="Header file for perception&#45;related types, constants, and function declarations.">
<polygon fill="white" stroke="black" points="156.5,-112.5 156.5,-131.5 233.5,-131.5 233.5,-112.5 156.5,-112.5"/>
<text text-anchor="middle" x="195" y="-119.5" font-family="Helvetica,sans-Serif" font-size="10.00">perception.h</text>
</a>
</g>
</g>
<!-- Node1&#45;&gt;Node9 -->
<g id="edge19" class="edge">
<title>Node1&#45;&gt;Node9</title>
<path fill="none" stroke="midnightblue" d="M253.95,-336.2C265.48,-309.11 296.33,-225.38 265,-168 257.18,-153.68 242.64,-143.24 228.82,-136.04"/>
<polygon fill="midnightblue" stroke="midnightblue" points="230,-132.72 219.47,-131.56 226.98,-139.03 230,-132.72"/>
</g>
<!-- Node12 -->
<g id="node12" class="node">
<title>Node12</title>
<g id="a_node12"><a xlink:href="trajectory_8h.html" target="_top" xlink:title="Provides declarations for trajectory planning based on cone detection.">
<polygon fill="white" stroke="black" points="28.5,-168.5 28.5,-187.5 99.5,-187.5 99.5,-168.5 28.5,-168.5"/>
<text text-anchor="middle" x="64" y="-175.5" font-family="Helvetica,sans-Serif" font-size="10.00">trajectory.h</text>
</a>
</g>
</g>
<!-- Node1&#45;&gt;Node12 -->
<g id="edge20" class="edge">
<title>Node1&#45;&gt;Node12</title>
<path fill="none" stroke="midnightblue" d="M215.99,-337.54C172.73,-325.96 100.15,-299.02 71,-244 63.44,-229.74 62.12,-211.27 62.44,-197.66"/>
<polygon fill="midnightblue" stroke="midnightblue" points="65.94,-197.75 62.99,-187.58 58.95,-197.37 65.94,-197.75"/>
</g>
<!-- Node13 -->
<g id="node13" class="node">
<title>Node13</title>
<g id="a_node13"><a xlink:href="display_8h.html" target="_top" xlink:title="Header file declaring display rendering functions.">
<polygon fill="white" stroke="black" points="196.5,-224.5 196.5,-243.5 255.5,-243.5 255.5,-224.5 196.5,-224.5"/>
<text text-anchor="middle" x="226" y="-231.5" font-family="Helvetica,sans-Serif" font-size="10.00">display.h</text>
</a>
</g>
</g>
<!-- Node1&#45;&gt;Node13 -->
<g id="edge22" class="edge">
<title>Node1&#45;&gt;Node13</title>
<path fill="none" stroke="midnightblue" d="M248.12,-336.37C244.24,-318.62 235.31,-277.67 230.06,-253.6"/>
<polygon fill="midnightblue" stroke="midnightblue" points="233.43,-252.62 227.87,-243.59 226.59,-254.11 233.43,-252.62"/>
</g>
<!-- Node14 -->
<g id="node14" class="node">
<title>Node14</title>
<g id="a_node14"><a xlink:href="vehicle_8h.html" target="_top" xlink:title=" ">
<polygon fill="white" stroke="black" points="345.5,-280.5 345.5,-299.5 406.5,-299.5 406.5,-280.5 345.5,-280.5"/>
<text text-anchor="middle" x="376" y="-287.5" font-family="Helvetica,sans-Serif" font-size="10.00">vehicle.h</text>
</a>
</g>
</g>
<!-- Node1&#45;&gt;Node14 -->
<g id="edge21" class="edge">
<title>Node1&#45;&gt;Node14</title>
<path fill="none" stroke="midnightblue" d="M269.97,-336.44C290.61,-327.6 323.06,-313.69 346.63,-303.59"/>
<polygon fill="midnightblue" stroke="midnightblue" points="348.32,-306.67 356.13,-299.52 345.56,-300.24 348.32,-306.67"/>
</g>
<!-- Node15 -->
<g id="node15" class="node">
<title>Node15</title>
<g id="a_node15"><a xlink:href="ptask_8h.html" target="_top" xlink:title="Interface for managing periodic tasks and time utilities.">
<polygon fill="white" stroke="black" points="424.5,-280.5 424.5,-299.5 477.5,-299.5 477.5,-280.5 424.5,-280.5"/>
<text text-anchor="middle" x="451" y="-287.5" font-family="Helvetica,sans-Serif" font-size="10.00">ptask.h</text>
</a>
</g>
</g>
<!-- Node1&#45;&gt;Node15 -->
<g id="edge23" class="edge">
<title>Node1&#45;&gt;Node15</title>
<path fill="none" stroke="midnightblue" d="M281.85,-336.44C317.87,-326.77 376.43,-311.03 414.33,-300.85"/>
<polygon fill="midnightblue" stroke="midnightblue" points="415.69,-304.11 424.44,-298.14 413.87,-297.35 415.69,-304.11"/>
</g>
<!-- Node4 -->
<g id="node4" class="node">
<title>Node4</title>
<g id="a_node4"><a xlink:title=" ">
<polygon fill="white" stroke="#bfbfbf" points="131.5,-0.5 131.5,-19.5 190.5,-19.5 190.5,-0.5 131.5,-0.5"/>
<text text-anchor="middle" x="161" y="-7.5" font-family="Helvetica,sans-Serif" font-size="10.00">allegro.h</text>
</a>
</g>
</g>
<!-- Node3&#45;&gt;Node4 -->
<g id="edge3" class="edge">
<title>Node3&#45;&gt;Node4</title>
<path fill="none" stroke="midnightblue" d="M161,-56.08C161,-49.01 161,-38.86 161,-29.99"/>
<polygon fill="midnightblue" stroke="midnightblue" points="164.5,-29.75 161,-19.75 157.5,-29.75 164.5,-29.75"/>
</g>
<!-- Node5 -->
<g id="node5" class="node">
<title>Node5</title>
<g id="a_node5"><a xlink:title=" ">
<polygon fill="white" stroke="#bfbfbf" points="225.5,-0.5 225.5,-19.5 288.5,-19.5 288.5,-0.5 225.5,-0.5"/>
<text text-anchor="middle" x="257" y="-7.5" font-family="Helvetica,sans-Serif" font-size="10.00">pthread.h</text>
</a>
</g>
</g>
<!-- Node3&#45;&gt;Node5 -->
<g id="edge4" class="edge">
<title>Node3&#45;&gt;Node5</title>
<path fill="none" stroke="midnightblue" d="M176.42,-56.32C191.54,-47.82 214.82,-34.73 232.47,-24.8"/>
<polygon fill="midnightblue" stroke="midnightblue" points="234.61,-27.61 241.61,-19.65 231.18,-21.51 234.61,-27.61"/>
</g>
<!-- Node6 -->
<g id="node6" class="node">
<title>Node6</title>
<g id="a_node6"><a xlink:title=" ">
<polygon fill="white" stroke="#bfbfbf" points="372,-0.5 372,-19.5 452,-19.5 452,-0.5 372,-0.5"/>
<text text-anchor="middle" x="412" y="-7.5" font-family="Helvetica,sans-Serif" font-size="10.00">semaphore.h</text>
</a>
</g>
</g>
<!-- Node3&#45;&gt;Node6 -->
<g id="edge5" class="edge">
<title>Node3&#45;&gt;Node6</title>
<path fill="none" stroke="midnightblue" d="M191.65,-57.87C194.47,-57.23 197.29,-56.6 200,-56 255.26,-43.76 318.79,-30.36 361.78,-21.4"/>
<polygon fill="midnightblue" stroke="midnightblue" points="362.63,-24.8 371.71,-19.33 361.2,-17.94 362.63,-24.8"/>
</g>
<!-- Node8 -->
<g id="node8" class="node">
<title>Node8</title>
<g id="a_node8"><a xlink:href="utilities_8h.html" target="_top" xlink:title="Utility function prototypes for cone management and runtime tasks.">
<polygon fill="white" stroke="black" points="194,-168.5 194,-187.5 256,-187.5 256,-168.5 194,-168.5"/>
<text text-anchor="middle" x="225" y="-175.5" font-family="Helvetica,sans-Serif" font-size="10.00">utilities.h</text>
</a>
</g>
</g>
<!-- Node7&#45;&gt;Node8 -->
<g id="edge7" class="edge">
<title>Node7&#45;&gt;Node8</title>
<path fill="none" stroke="midnightblue" d="M172.71,-280.14C174.04,-267.2 177.67,-242.64 187,-224 192.35,-213.3 200.75,-202.98 208.29,-194.93"/>
<polygon fill="midnightblue" stroke="midnightblue" points="210.88,-197.29 215.4,-187.71 205.89,-192.38 210.88,-197.29"/>
</g>
<!-- Node11 -->
<g id="node11" class="node">
<title>Node11</title>
<g id="a_node11"><a xlink:href="control_8h.html" target="_top" xlink:title="Declarations for vehicle control functions and variables in the 2D simulator.">
<polygon fill="white" stroke="black" points="80.5,-224.5 80.5,-243.5 139.5,-243.5 139.5,-224.5 80.5,-224.5"/>
<text text-anchor="middle" x="110" y="-231.5" font-family="Helvetica,sans-Serif" font-size="10.00">control.h</text>
</a>
</g>
</g>
<!-- Node7&#45;&gt;Node11 -->
<g id="edge12" class="edge">
<title>Node7&#45;&gt;Node11</title>
<path fill="none" stroke="midnightblue" d="M162.04,-280.32C152.87,-272.34 139.06,-260.31 127.97,-250.65"/>
<polygon fill="midnightblue" stroke="midnightblue" points="129.98,-247.76 120.14,-243.83 125.38,-253.04 129.98,-247.76"/>
</g>
<!-- Node7&#45;&gt;Node13 -->
<g id="edge18" class="edge">
<title>Node7&#45;&gt;Node13</title>
<path fill="none" stroke="midnightblue" d="M180.92,-280.08C188.78,-272.22 200.43,-260.57 209.92,-251.08"/>
<polygon fill="midnightblue" stroke="midnightblue" points="212.65,-253.3 217.25,-243.75 207.7,-248.35 212.65,-253.3"/>
</g>
<!-- Node8&#45;&gt;Node3 -->
<g id="edge11" class="edge">
<title>Node8&#45;&gt;Node3</title>
<path fill="none" stroke="midnightblue" d="M231.36,-168.44C240.18,-155.46 253.86,-130.34 243,-112 233.82,-96.49 217.19,-85.97 201.3,-79.03"/>
<polygon fill="midnightblue" stroke="midnightblue" points="202.15,-75.61 191.57,-75.16 199.56,-82.11 202.15,-75.61"/>
</g>
<!-- Node8&#45;&gt;Node9 -->
<g id="edge8" class="edge">
<title>Node8&#45;&gt;Node9</title>
<path fill="none" stroke="midnightblue" d="M220.05,-168.08C215.9,-160.61 209.85,-149.72 204.73,-140.52"/>
<polygon fill="midnightblue" stroke="midnightblue" points="207.78,-138.79 199.86,-131.75 201.66,-142.19 207.78,-138.79"/>
</g>
<!-- Node9&#45;&gt;Node3 -->
<g id="edge10" class="edge">
<title>Node9&#45;&gt;Node3</title>
<path fill="none" stroke="midnightblue" d="M189.39,-112.08C184.63,-104.53 177.68,-93.49 171.85,-84.23"/>
<polygon fill="midnightblue" stroke="midnightblue" points="174.8,-82.35 166.51,-75.75 168.88,-86.08 174.8,-82.35"/>
</g>
<!-- Node10 -->
<g id="node10" class="node">
<title>Node10</title>
<g id="a_node10"><a xlink:title=" ">
<polygon fill="white" stroke="#bfbfbf" points="209.5,-56.5 209.5,-75.5 260.5,-75.5 260.5,-56.5 209.5,-56.5"/>
<text text-anchor="middle" x="235" y="-63.5" font-family="Helvetica,sans-Serif" font-size="10.00">math.h</text>
</a>
</g>
</g>
<!-- Node9&#45;&gt;Node10 -->
<g id="edge9" class="edge">
<title>Node9&#45;&gt;Node10</title>
<path fill="none" stroke="midnightblue" d="M201.61,-112.08C207.26,-104.46 215.54,-93.26 222.45,-83.94"/>
<polygon fill="midnightblue" stroke="midnightblue" points="225.38,-85.87 228.52,-75.75 219.75,-81.7 225.38,-85.87"/>
</g>
<!-- Node11&#45;&gt;Node3 -->
<g id="edge16" class="edge">
<title>Node11&#45;&gt;Node3</title>
<path fill="none" stroke="midnightblue" d="M112.59,-224.49C118.6,-204.72 133.99,-154.19 147,-112 149.72,-103.19 152.75,-93.42 155.3,-85.25"/>
<polygon fill="midnightblue" stroke="midnightblue" points="158.67,-86.21 158.3,-75.62 151.98,-84.13 158.67,-86.21"/>
</g>
<!-- Node11&#45;&gt;Node9 -->
<g id="edge17" class="edge">
<title>Node11&#45;&gt;Node9</title>
<path fill="none" stroke="midnightblue" d="M116.67,-224.37C130.76,-206.14 163.76,-163.43 182.11,-139.68"/>
<polygon fill="midnightblue" stroke="midnightblue" points="185.02,-141.64 188.36,-131.59 179.48,-137.36 185.02,-141.64"/>
</g>
<!-- Node11&#45;&gt;Node12 -->
<g id="edge13" class="edge">
<title>Node11&#45;&gt;Node12</title>
<path fill="none" stroke="midnightblue" d="M102.4,-224.08C95.77,-216.3 85.98,-204.8 77.94,-195.37"/>
<polygon fill="midnightblue" stroke="midnightblue" points="80.6,-193.09 71.45,-187.75 75.27,-197.63 80.6,-193.09"/>
</g>
<!-- Node12&#45;&gt;Node3 -->
<g id="edge15" class="edge">
<title>Node12&#45;&gt;Node3</title>
<path fill="none" stroke="midnightblue" d="M70.08,-168.26C79.12,-155.46 96.88,-131.07 114,-112 123.34,-101.6 134.63,-90.74 143.81,-82.29"/>
<polygon fill="midnightblue" stroke="midnightblue" points="146.17,-84.87 151.22,-75.56 141.46,-79.69 146.17,-84.87"/>
</g>
<!-- Node12&#45;&gt;Node9 -->
<g id="edge14" class="edge">
<title>Node12&#45;&gt;Node9</title>
<path fill="none" stroke="midnightblue" d="M84.76,-168.44C106.32,-159.56 140.26,-145.56 164.79,-135.45"/>
<polygon fill="midnightblue" stroke="midnightblue" points="166.43,-138.56 174.34,-131.52 163.76,-132.09 166.43,-138.56"/>
</g>
<!-- Node15&#45;&gt;Node2 -->
<g id="edge26" class="edge">
<title>Node15&#45;&gt;Node2</title>
<path fill="none" stroke="midnightblue" d="M432.94,-280.44C414.43,-271.68 385.42,-257.94 364.14,-247.86"/>
<polygon fill="midnightblue" stroke="midnightblue" points="365.51,-244.63 354.98,-243.52 362.52,-250.96 365.51,-244.63"/>
</g>
<!-- Node15&#45;&gt;Node5 -->
<g id="edge24" class="edge">
<title>Node15&#45;&gt;Node5</title>
<path fill="none" stroke="midnightblue" d="M442.26,-280.49C425.39,-263.12 390,-221.58 390,-179 390,-179 390,-179 390,-121 390,-70.73 332.87,-39.1 293.5,-23.27"/>
<polygon fill="midnightblue" stroke="midnightblue" points="294.5,-19.91 283.91,-19.59 291.99,-26.45 294.5,-19.91"/>
</g>
<!-- Node15&#45;&gt;Node6 -->
<g id="edge25" class="edge">
<title>Node15&#45;&gt;Node6</title>
<path fill="none" stroke="midnightblue" d="M447.9,-280.29C441.62,-261.86 428,-217.44 428,-179 428,-179 428,-179 428,-121 428,-88.63 421.13,-51.44 416.39,-29.66"/>
<polygon fill="midnightblue" stroke="midnightblue" points="419.78,-28.76 414.16,-19.78 412.95,-30.3 419.78,-28.76"/>
</g>
<!-- Node16 -->
<g id="node16" class="node">
<title>Node16</title>
<g id="a_node16"><a xlink:title=" ">
<polygon fill="white" stroke="#bfbfbf" points="456,-224.5 456,-243.5 504,-243.5 504,-224.5 456,-224.5"/>
<text text-anchor="middle" x="480" y="-231.5" font-family="Helvetica,sans-Serif" font-size="10.00">time.h</text>
</a>
</g>
</g>
<!-- Node15&#45;&gt;Node16 -->
<g id="edge27" class="edge">
<title>Node15&#45;&gt;Node16</title>
<path fill="none" stroke="midnightblue" d="M455.79,-280.08C459.76,-272.69 465.53,-261.95 470.43,-252.81"/>
<polygon fill="midnightblue" stroke="midnightblue" points="473.65,-254.22 475.3,-243.75 467.49,-250.91 473.65,-254.22"/>
</g>
<!-- Node17 -->
<g id="node17" class="node">
<title>Node17</title>
<g id="a_node17"><a xlink:title=" ">
<polygon fill="white" stroke="#bfbfbf" points="522.5,-224.5 522.5,-243.5 575.5,-243.5 575.5,-224.5 522.5,-224.5"/>
<text text-anchor="middle" x="549" y="-231.5" font-family="Helvetica,sans-Serif" font-size="10.00">string.h</text>
</a>
</g>
</g>
<!-- Node15&#45;&gt;Node17 -->
<g id="edge28" class="edge">
<title>Node15&#45;&gt;Node17</title>
<path fill="none" stroke="midnightblue" d="M466.75,-280.32C482.32,-271.74 506.38,-258.49 524.46,-248.52"/>
<polygon fill="midnightblue" stroke="midnightblue" points="526.22,-251.55 533.29,-243.65 522.85,-245.42 526.22,-251.55"/>
</g>
</g>
</svg>
