<?xml version="1.0" encoding="UTF-8" standalone="no"?>
<!DOCTYPE svg PUBLIC "-//W3C//DTD SVG 1.1//EN"
 "http://www.w3.org/Graphics/SVG/1.1/DTD/svg11.dtd">
<!-- Generated by graphviz version 2.43.0 (0)
 -->
<!-- Title: include/tasks.h Pages: 1 -->
<svg width="317pt" height="308pt"
 viewBox="0.00 0.00 317.00 308.00" xmlns="http://www.w3.org/2000/svg" xmlns:xlink="http://www.w3.org/1999/xlink">
<g id="graph0" class="graph" transform="scale(1 1) rotate(0) translate(4 304)">
<title>include/tasks.h</title>
<polygon fill="white" stroke="transparent" points="-4,4 -4,-304 313,-304 313,4 -4,4"/>
<!-- Node1 -->
<g id="node1" class="node">
<title>Node1</title>
<g id="a_node1"><a xlink:title="Declaration of task thread functions for the simulation.">
<polygon fill="#bfbfbf" stroke="black" points="176.5,-280.5 176.5,-299.5 266.5,-299.5 266.5,-280.5 176.5,-280.5"/>
<text text-anchor="middle" x="221.5" y="-287.5" font-family="Helvetica,sans-Serif" font-size="10.00">include/tasks.h</text>
</a>
</g>
</g>
<!-- Node2 -->
<g id="node2" class="node">
<title>Node2</title>
<g id="a_node2"><a xlink:href="utilities_8h.html" target="_top" xlink:title="Utility function prototypes for cone management and runtime tasks.">
<polygon fill="white" stroke="black" points="207.5,-168.5 207.5,-187.5 269.5,-187.5 269.5,-168.5 207.5,-168.5"/>
<text text-anchor="middle" x="238.5" y="-175.5" font-family="Helvetica,sans-Serif" font-size="10.00">utilities.h</text>
</a>
</g>
</g>
<!-- Node1&#45;&gt;Node2 -->
<g id="edge1" class="edge">
<title>Node1&#45;&gt;Node2</title>
<path fill="none" stroke="midnightblue" d="M222.83,-280.37C225.58,-262.62 231.91,-221.67 235.63,-197.6"/>
<polygon fill="midnightblue" stroke="midnightblue" points="239.1,-198.01 237.17,-187.59 232.19,-196.94 239.1,-198.01"/>
</g>
<!-- Node9 -->
<g id="node9" class="node">
<title>Node9</title>
<g id="a_node9"><a xlink:href="control_8h.html" target="_top" xlink:title="Declarations for vehicle control functions and variables in the 2D simulator.">
<polygon fill="white" stroke="black" points="118,-224.5 118,-243.5 177,-243.5 177,-224.5 118,-224.5"/>
<text text-anchor="middle" x="147.5" y="-231.5" font-family="Helvetica,sans-Serif" font-size="10.00">control.h</text>
</a>
</g>
</g>
<!-- Node1&#45;&gt;Node9 -->
<g id="edge9" class="edge">
<title>Node1&#45;&gt;Node9</title>
<path fill="none" stroke="midnightblue" d="M209.61,-280.32C198.35,-272.11 181.21,-259.6 167.79,-249.81"/>
<polygon fill="midnightblue" stroke="midnightblue" points="169.75,-246.9 159.61,-243.83 165.62,-252.56 169.75,-246.9"/>
</g>
<!-- Node11 -->
<g id="node11" class="node">
<title>Node11</title>
<g id="a_node11"><a xlink:href="display_8h.html" target="_top" xlink:title="Header file declaring display rendering functions.">
<polygon fill="white" stroke="black" points="250,-224.5 250,-243.5 309,-243.5 309,-224.5 250,-224.5"/>
<text text-anchor="middle" x="279.5" y="-231.5" font-family="Helvetica,sans-Serif" font-size="10.00">display.h</text>
</a>
</g>
</g>
<!-- Node1&#45;&gt;Node11 -->
<g id="edge15" class="edge">
<title>Node1&#45;&gt;Node11</title>
<path fill="none" stroke="midnightblue" d="M230.82,-280.32C239.39,-272.34 252.31,-260.31 262.69,-250.65"/>
<polygon fill="midnightblue" stroke="midnightblue" points="265.08,-253.21 270.01,-243.83 260.31,-248.09 265.08,-253.21"/>
</g>
<!-- Node3 -->
<g id="node3" class="node">
<title>Node3</title>
<g id="a_node3"><a xlink:href="perception_8h.html" target="_top" xlink:title="Header file for perception&#45;related types, constants, and function declarations.">
<polygon fill="white" stroke="black" points="137,-112.5 137,-131.5 214,-131.5 214,-112.5 137,-112.5"/>
<text text-anchor="middle" x="175.5" y="-119.5" font-family="Helvetica,sans-Serif" font-size="10.00">perception.h</text>
</a>
</g>
</g>
<!-- Node2&#45;&gt;Node3 -->
<g id="edge2" class="edge">
<title>Node2&#45;&gt;Node3</title>
<path fill="none" stroke="midnightblue" d="M228.38,-168.32C218.97,-160.26 204.76,-148.08 193.43,-138.37"/>
<polygon fill="midnightblue" stroke="midnightblue" points="195.68,-135.68 185.81,-131.83 191.12,-141 195.68,-135.68"/>
</g>
<!-- Node5 -->
<g id="node5" class="node">
<title>Node5</title>
<g id="a_node5"><a xlink:href="globals_8h.html" target="_top" xlink:title="Global constants, variables, and structures for the simulation and visualization system.">
<polygon fill="white" stroke="black" points="78,-56.5 78,-75.5 139,-75.5 139,-56.5 78,-56.5"/>
<text text-anchor="middle" x="108.5" y="-63.5" font-family="Helvetica,sans-Serif" font-size="10.00">globals.h</text>
</a>
</g>
</g>
<!-- Node2&#45;&gt;Node5 -->
<g id="edge8" class="edge">
<title>Node2&#45;&gt;Node5</title>
<path fill="none" stroke="midnightblue" d="M238.91,-168.29C239.08,-154.65 237.43,-128.13 223.5,-112 213.35,-100.24 177.84,-87.38 148.93,-78.42"/>
<polygon fill="midnightblue" stroke="midnightblue" points="149.62,-74.98 139.04,-75.43 147.6,-81.68 149.62,-74.98"/>
</g>
<!-- Node4 -->
<g id="node4" class="node">
<title>Node4</title>
<g id="a_node4"><a xlink:title=" ">
<polygon fill="white" stroke="#bfbfbf" points="157,-56.5 157,-75.5 208,-75.5 208,-56.5 157,-56.5"/>
<text text-anchor="middle" x="182.5" y="-63.5" font-family="Helvetica,sans-Serif" font-size="10.00">math.h</text>
</a>
</g>
</g>
<!-- Node3&#45;&gt;Node4 -->
<g id="edge3" class="edge">
<title>Node3&#45;&gt;Node4</title>
<path fill="none" stroke="midnightblue" d="M176.66,-112.08C177.58,-104.93 178.92,-94.64 180.08,-85.69"/>
<polygon fill="midnightblue" stroke="midnightblue" points="183.55,-86.12 181.37,-75.75 176.61,-85.22 183.55,-86.12"/>
</g>
<!-- Node3&#45;&gt;Node5 -->
<g id="edge4" class="edge">
<title>Node3&#45;&gt;Node5</title>
<path fill="none" stroke="midnightblue" d="M164.74,-112.32C154.73,-104.26 139.61,-92.08 127.57,-82.37"/>
<polygon fill="midnightblue" stroke="midnightblue" points="129.44,-79.38 119.46,-75.83 125.05,-84.83 129.44,-79.38"/>
</g>
<!-- Node6 -->
<g id="node6" class="node">
<title>Node6</title>
<g id="a_node6"><a xlink:title=" ">
<polygon fill="white" stroke="#bfbfbf" points="0,-0.5 0,-19.5 59,-19.5 59,-0.5 0,-0.5"/>
<text text-anchor="middle" x="29.5" y="-7.5" font-family="Helvetica,sans-Serif" font-size="10.00">allegro.h</text>
</a>
</g>
</g>
<!-- Node5&#45;&gt;Node6 -->
<g id="edge5" class="edge">
<title>Node5&#45;&gt;Node6</title>
<path fill="none" stroke="midnightblue" d="M95.81,-56.32C83.6,-47.98 64.92,-35.21 50.5,-25.35"/>
<polygon fill="midnightblue" stroke="midnightblue" points="52.39,-22.41 42.16,-19.65 48.44,-28.19 52.39,-22.41"/>
</g>
<!-- Node7 -->
<g id="node7" class="node">
<title>Node7</title>
<g id="a_node7"><a xlink:title=" ">
<polygon fill="white" stroke="#bfbfbf" points="77,-0.5 77,-19.5 140,-19.5 140,-0.5 77,-0.5"/>
<text text-anchor="middle" x="108.5" y="-7.5" font-family="Helvetica,sans-Serif" font-size="10.00">pthread.h</text>
</a>
</g>
</g>
<!-- Node5&#45;&gt;Node7 -->
<g id="edge6" class="edge">
<title>Node5&#45;&gt;Node7</title>
<path fill="none" stroke="midnightblue" d="M108.5,-56.08C108.5,-49.01 108.5,-38.86 108.5,-29.99"/>
<polygon fill="midnightblue" stroke="midnightblue" points="112,-29.75 108.5,-19.75 105,-29.75 112,-29.75"/>
</g>
<!-- Node8 -->
<g id="node8" class="node">
<title>Node8</title>
<g id="a_node8"><a xlink:title=" ">
<polygon fill="white" stroke="#bfbfbf" points="158.5,-0.5 158.5,-19.5 238.5,-19.5 238.5,-0.5 158.5,-0.5"/>
<text text-anchor="middle" x="198.5" y="-7.5" font-family="Helvetica,sans-Serif" font-size="10.00">semaphore.h</text>
</a>
</g>
</g>
<!-- Node5&#45;&gt;Node8 -->
<g id="edge7" class="edge">
<title>Node5&#45;&gt;Node8</title>
<path fill="none" stroke="midnightblue" d="M122.96,-56.32C137,-47.9 158.55,-34.97 175.04,-25.07"/>
<polygon fill="midnightblue" stroke="midnightblue" points="177.3,-27.8 184.08,-19.65 173.7,-21.8 177.3,-27.8"/>
</g>
<!-- Node9&#45;&gt;Node3 -->
<g id="edge14" class="edge">
<title>Node9&#45;&gt;Node3</title>
<path fill="none" stroke="midnightblue" d="M150.13,-224.41C152.86,-215.38 157.19,-200.75 160.5,-188 164.51,-172.57 168.54,-154.94 171.42,-141.93"/>
<polygon fill="midnightblue" stroke="midnightblue" points="174.9,-142.39 173.61,-131.87 168.06,-140.89 174.9,-142.39"/>
</g>
<!-- Node9&#45;&gt;Node5 -->
<g id="edge13" class="edge">
<title>Node9&#45;&gt;Node5</title>
<path fill="none" stroke="midnightblue" d="M119.13,-224.49C101.75,-217.65 80.9,-206.13 70.5,-188 50.87,-153.79 77.31,-108.22 94.97,-83.93"/>
<polygon fill="midnightblue" stroke="midnightblue" points="97.93,-85.81 101.19,-75.73 92.35,-81.58 97.93,-85.81"/>
</g>
<!-- Node10 -->
<g id="node10" class="node">
<title>Node10</title>
<g id="a_node10"><a xlink:href="trajectory_8h.html" target="_top" xlink:title="Provides declarations for trajectory planning based on cone detection.">
<polygon fill="white" stroke="black" points="80,-168.5 80,-187.5 151,-187.5 151,-168.5 80,-168.5"/>
<text text-anchor="middle" x="115.5" y="-175.5" font-family="Helvetica,sans-Serif" font-size="10.00">trajectory.h</text>
</a>
</g>
</g>
<!-- Node9&#45;&gt;Node10 -->
<g id="edge10" class="edge">
<title>Node9&#45;&gt;Node10</title>
<path fill="none" stroke="midnightblue" d="M142.22,-224.08C137.79,-216.61 131.34,-205.72 125.88,-196.52"/>
<polygon fill="midnightblue" stroke="midnightblue" points="128.79,-194.57 120.69,-187.75 122.77,-198.14 128.79,-194.57"/>
</g>
<!-- Node10&#45;&gt;Node3 -->
<g id="edge11" class="edge">
<title>Node10&#45;&gt;Node3</title>
<path fill="none" stroke="midnightblue" d="M125.14,-168.32C134.01,-160.34 147.37,-148.31 158.11,-138.65"/>
<polygon fill="midnightblue" stroke="midnightblue" points="160.59,-141.13 165.68,-131.83 155.91,-135.92 160.59,-141.13"/>
</g>
<!-- Node10&#45;&gt;Node5 -->
<g id="edge12" class="edge">
<title>Node10&#45;&gt;Node5</title>
<path fill="none" stroke="midnightblue" d="M114.95,-168.37C113.82,-150.62 111.22,-109.67 109.68,-85.6"/>
<polygon fill="midnightblue" stroke="midnightblue" points="113.17,-85.35 109.05,-75.59 106.19,-85.79 113.17,-85.35"/>
</g>
</g>
</svg>
