<?xml version="1.0" encoding="UTF-8" standalone="no"?>
<!DOCTYPE svg PUBLIC "-//W3C//DTD SVG 1.1//EN"
 "http://www.w3.org/Graphics/SVG/1.1/DTD/svg11.dtd">
<!-- Generated by graphviz version 2.43.0 (0)
 -->
<!-- Title: display_task Pages: 1 -->
<svg width="524pt" height="180pt"
 viewBox="0.00 0.00 524.00 180.00" xmlns="http://www.w3.org/2000/svg" xmlns:xlink="http://www.w3.org/1999/xlink">
<g id="graph0" class="graph" transform="scale(1 1) rotate(0) translate(4 176)">
<title>display_task</title>
<polygon fill="white" stroke="transparent" points="-4,4 -4,-176 520,-176 520,4 -4,4"/>
<!-- Node1 -->
<g id="node1" class="node">
<title>Node1</title>
<g id="a_node1"><a xlink:title=" ">
<polygon fill="#bfbfbf" stroke="black" points="0,-76.5 0,-95.5 78,-95.5 78,-76.5 0,-76.5"/>
<text text-anchor="middle" x="39" y="-83.5" font-family="Helvetica,sans-Serif" font-size="10.00">display_task</text>
</a>
</g>
</g>
<!-- Node2 -->
<g id="node2" class="node">
<title>Node2</title>
<g id="a_node2"><a xlink:href="ptask_8h.html#a55744cf37a298cca48b46a38ecd1cbd7" target="_top" xlink:title=" ">
<polygon fill="white" stroke="black" points="123.5,-152.5 123.5,-171.5 214.5,-171.5 214.5,-152.5 123.5,-152.5"/>
<text text-anchor="middle" x="169" y="-159.5" font-family="Helvetica,sans-Serif" font-size="10.00">get_task_index</text>
</a>
</g>
</g>
<!-- Node1&#45;&gt;Node2 -->
<g id="edge1" class="edge">
<title>Node1&#45;&gt;Node2</title>
<path fill="none" stroke="midnightblue" d="M50.28,-95.65C63.93,-108.04 89.2,-129.54 114,-143 117.78,-145.05 121.83,-146.96 125.95,-148.7"/>
<polygon fill="midnightblue" stroke="midnightblue" points="124.99,-152.09 135.58,-152.48 127.55,-145.57 124.99,-152.09"/>
</g>
<!-- Node3 -->
<g id="node3" class="node">
<title>Node3</title>
<g id="a_node3"><a xlink:href="utilities_8h.html#a28b6717d007598c8d776ee5b8652be51" target="_top" xlink:title=" ">
<polygon fill="white" stroke="black" points="141.5,-114.5 141.5,-133.5 196.5,-133.5 196.5,-114.5 141.5,-114.5"/>
<text text-anchor="middle" x="169" y="-121.5" font-family="Helvetica,sans-Serif" font-size="10.00">runtime</text>
</a>
</g>
</g>
<!-- Node1&#45;&gt;Node3 -->
<g id="edge2" class="edge">
<title>Node1&#45;&gt;Node3</title>
<path fill="none" stroke="midnightblue" d="M72.3,-95.59C90.38,-100.96 112.98,-107.66 131.67,-113.21"/>
<polygon fill="midnightblue" stroke="midnightblue" points="130.74,-116.59 141.32,-116.08 132.73,-109.88 130.74,-116.59"/>
</g>
<!-- Node4 -->
<g id="node4" class="node">
<title>Node4</title>
<g id="a_node4"><a xlink:href="display_8h.html#aa2eb9ba074b23fc3b4a91c98e0c83c8b" target="_top" xlink:title="Updates the display.">
<polygon fill="white" stroke="black" points="123.5,-76.5 123.5,-95.5 214.5,-95.5 214.5,-76.5 123.5,-76.5"/>
<text text-anchor="middle" x="169" y="-83.5" font-family="Helvetica,sans-Serif" font-size="10.00">update_display</text>
</a>
</g>
</g>
<!-- Node1&#45;&gt;Node4 -->
<g id="edge3" class="edge">
<title>Node1&#45;&gt;Node4</title>
<path fill="none" stroke="midnightblue" d="M78.06,-86C89,-86 101.16,-86 112.92,-86"/>
<polygon fill="midnightblue" stroke="midnightblue" points="113.1,-89.5 123.1,-86 113.1,-82.5 113.1,-89.5"/>
</g>
<!-- Node14 -->
<g id="node14" class="node">
<title>Node14</title>
<g id="a_node14"><a xlink:href="ptask_8h.html#ac5a989242ff00476f314f92395f23252" target="_top" xlink:title=" ">
<polygon fill="white" stroke="black" points="114,-38.5 114,-57.5 224,-57.5 224,-38.5 114,-38.5"/>
<text text-anchor="middle" x="169" y="-45.5" font-family="Helvetica,sans-Serif" font-size="10.00">wait_for_activation</text>
</a>
</g>
</g>
<!-- Node1&#45;&gt;Node14 -->
<g id="edge14" class="edge">
<title>Node1&#45;&gt;Node14</title>
<path fill="none" stroke="midnightblue" d="M72.3,-76.41C88.52,-71.6 108.38,-65.7 125.79,-60.53"/>
<polygon fill="midnightblue" stroke="midnightblue" points="127.12,-63.79 135.71,-57.59 125.13,-57.08 127.12,-63.79"/>
</g>
<!-- Node15 -->
<g id="node15" class="node">
<title>Node15</title>
<g id="a_node15"><a xlink:href="ptask_8h.html#afd8a4ae978d1068cb18f8e5fc03a1f0c" target="_top" xlink:title=" ">
<polygon fill="white" stroke="black" points="123,-0.5 123,-19.5 215,-19.5 215,-0.5 123,-0.5"/>
<text text-anchor="middle" x="169" y="-7.5" font-family="Helvetica,sans-Serif" font-size="10.00">wait_for_period</text>
</a>
</g>
</g>
<!-- Node1&#45;&gt;Node15 -->
<g id="edge15" class="edge">
<title>Node1&#45;&gt;Node15</title>
<path fill="none" stroke="midnightblue" d="M50.28,-76.35C63.93,-63.96 89.2,-42.46 114,-29 117.78,-26.95 121.83,-25.04 125.95,-23.3"/>
<polygon fill="midnightblue" stroke="midnightblue" points="127.55,-26.43 135.58,-19.52 124.99,-19.91 127.55,-26.43"/>
</g>
<!-- Node5 -->
<g id="node5" class="node">
<title>Node5</title>
<g id="a_node5"><a xlink:href="display_8c.html#a01a4e859fcc5ddef923afe9a8a674826" target="_top" xlink:title="Renders the car sprite rotated to its current angle.">
<polygon fill="white" stroke="black" points="278.5,-152.5 278.5,-171.5 339.5,-171.5 339.5,-152.5 278.5,-152.5"/>
<text text-anchor="middle" x="309" y="-159.5" font-family="Helvetica,sans-Serif" font-size="10.00">draw_car</text>
</a>
</g>
</g>
<!-- Node4&#45;&gt;Node5 -->
<g id="edge4" class="edge">
<title>Node4&#45;&gt;Node5</title>
<path fill="none" stroke="midnightblue" d="M204.85,-95.52C211.48,-98.08 218.16,-101.21 224,-105 243.52,-117.66 240.73,-129.97 260,-143 262.87,-144.94 265.97,-146.73 269.16,-148.37"/>
<polygon fill="midnightblue" stroke="midnightblue" points="267.75,-151.57 278.3,-152.58 270.68,-145.22 267.75,-151.57"/>
</g>
<!-- Node7 -->
<g id="node7" class="node">
<title>Node7</title>
<g id="a_node7"><a xlink:href="display_8c.html#a385702fb79f2c451da015c3147f80515" target="_top" xlink:title="Draws user control indicators.">
<polygon fill="white" stroke="black" points="266.5,-114.5 266.5,-133.5 351.5,-133.5 351.5,-114.5 266.5,-114.5"/>
<text text-anchor="middle" x="309" y="-121.5" font-family="Helvetica,sans-Serif" font-size="10.00">draw_controls</text>
</a>
</g>
</g>
<!-- Node4&#45;&gt;Node7 -->
<g id="edge6" class="edge">
<title>Node4&#45;&gt;Node7</title>
<path fill="none" stroke="midnightblue" d="M204.82,-95.59C222.64,-100.49 244.52,-106.52 263.54,-111.76"/>
<polygon fill="midnightblue" stroke="midnightblue" points="262.62,-115.13 273.19,-114.41 264.48,-108.38 262.62,-115.13"/>
</g>
<!-- Node8 -->
<g id="node8" class="node">
<title>Node8</title>
<g id="a_node8"><a xlink:href="display_8c.html#acd5437d29ba24cfc00dbd2f9f6b0cd28" target="_top" xlink:title="Renders the complete perception layer.">
<polygon fill="white" stroke="black" points="260,-76.5 260,-95.5 358,-95.5 358,-76.5 260,-76.5"/>
<text text-anchor="middle" x="309" y="-83.5" font-family="Helvetica,sans-Serif" font-size="10.00">draw_perception</text>
</a>
</g>
</g>
<!-- Node4&#45;&gt;Node8 -->
<g id="edge8" class="edge">
<title>Node4&#45;&gt;Node8</title>
<path fill="none" stroke="midnightblue" d="M214.8,-86C225.88,-86 237.91,-86 249.54,-86"/>
<polygon fill="midnightblue" stroke="midnightblue" points="249.61,-89.5 259.61,-86 249.61,-82.5 249.61,-89.5"/>
</g>
<!-- Node12 -->
<g id="node12" class="node">
<title>Node12</title>
<g id="a_node12"><a xlink:href="display_8c.html#a92e08b949df5d8a8e5edec1dd86bc360" target="_top" xlink:title="Draws the track.">
<polygon fill="white" stroke="black" points="273.5,-38.5 273.5,-57.5 344.5,-57.5 344.5,-38.5 273.5,-38.5"/>
<text text-anchor="middle" x="309" y="-45.5" font-family="Helvetica,sans-Serif" font-size="10.00">draw_track</text>
</a>
</g>
</g>
<!-- Node4&#45;&gt;Node12 -->
<g id="edge12" class="edge">
<title>Node4&#45;&gt;Node12</title>
<path fill="none" stroke="midnightblue" d="M204.82,-76.41C222.64,-71.51 244.52,-65.48 263.54,-60.24"/>
<polygon fill="midnightblue" stroke="midnightblue" points="264.48,-63.62 273.19,-57.59 262.62,-56.87 264.48,-63.62"/>
</g>
<!-- Node13 -->
<g id="node13" class="node">
<title>Node13</title>
<g id="a_node13"><a xlink:href="display_8c.html#a2d077fa92b741d504d6ef5c5f2fdd74c" target="_top" xlink:title="Draws the trajectory of the car.">
<polygon fill="white" stroke="black" points="262.5,-0.5 262.5,-19.5 355.5,-19.5 355.5,-0.5 262.5,-0.5"/>
<text text-anchor="middle" x="309" y="-7.5" font-family="Helvetica,sans-Serif" font-size="10.00">draw_trajectory</text>
</a>
</g>
</g>
<!-- Node4&#45;&gt;Node13 -->
<g id="edge13" class="edge">
<title>Node4&#45;&gt;Node13</title>
<path fill="none" stroke="midnightblue" d="M204.85,-76.48C211.48,-73.92 218.16,-70.79 224,-67 243.52,-54.34 240.73,-42.03 260,-29 262.75,-27.14 265.7,-25.42 268.75,-23.85"/>
<polygon fill="midnightblue" stroke="midnightblue" points="270.45,-26.91 278.04,-19.52 267.5,-20.57 270.45,-26.91"/>
</g>
<!-- Node6 -->
<g id="node6" class="node">
<title>Node6</title>
<g id="a_node6"><a xlink:href="utilities_8h.html#a33090597864cdfd30d87ff99c14eeecb" target="_top" xlink:title=" ">
<polygon fill="white" stroke="black" points="395,-152.5 395,-171.5 515,-171.5 515,-152.5 395,-152.5"/>
<text text-anchor="middle" x="455" y="-159.5" font-family="Helvetica,sans-Serif" font-size="10.00">angle_rotation_sprite</text>
</a>
</g>
</g>
<!-- Node5&#45;&gt;Node6 -->
<g id="edge5" class="edge">
<title>Node5&#45;&gt;Node6</title>
<path fill="none" stroke="midnightblue" d="M339.84,-162C352.88,-162 368.77,-162 384.5,-162"/>
<polygon fill="midnightblue" stroke="midnightblue" points="384.79,-165.5 394.79,-162 384.79,-158.5 384.79,-165.5"/>
</g>
<!-- Node7&#45;&gt;Node6 -->
<g id="edge7" class="edge">
<title>Node7&#45;&gt;Node6</title>
<path fill="none" stroke="midnightblue" d="M346.34,-133.59C365.08,-138.54 388.14,-144.62 408.11,-149.89"/>
<polygon fill="midnightblue" stroke="midnightblue" points="407.36,-153.31 417.92,-152.48 409.15,-146.54 407.36,-153.31"/>
</g>
<!-- Node9 -->
<g id="node9" class="node">
<title>Node9</title>
<g id="a_node9"><a xlink:href="display_8c.html#aa45d316f5e50fa968e686d790d57457b" target="_top" xlink:title="Draws the cone map overlay.">
<polygon fill="white" stroke="black" points="407,-114.5 407,-133.5 503,-133.5 503,-114.5 407,-114.5"/>
<text text-anchor="middle" x="455" y="-121.5" font-family="Helvetica,sans-Serif" font-size="10.00">draw_cone_map</text>
</a>
</g>
</g>
<!-- Node8&#45;&gt;Node9 -->
<g id="edge9" class="edge">
<title>Node8&#45;&gt;Node9</title>
<path fill="none" stroke="midnightblue" d="M346.34,-95.59C365.08,-100.54 388.14,-106.62 408.11,-111.89"/>
<polygon fill="midnightblue" stroke="midnightblue" points="407.36,-115.31 417.92,-114.48 409.15,-108.54 407.36,-115.31"/>
</g>
<!-- Node10 -->
<g id="node10" class="node">
<title>Node10</title>
<g id="a_node10"><a xlink:href="display_8c.html#a298532c4740f2a6785e5c1b0ff7fea9a" target="_top" xlink:title="Renders the detected cones on the perception bitmap.">
<polygon fill="white" stroke="black" points="394,-76.5 394,-95.5 516,-95.5 516,-76.5 394,-76.5"/>
<text text-anchor="middle" x="455" y="-83.5" font-family="Helvetica,sans-Serif" font-size="10.00">draw_detected_cones</text>
</a>
</g>
</g>
<!-- Node8&#45;&gt;Node10 -->
<g id="edge10" class="edge">
<title>Node8&#45;&gt;Node10</title>
<path fill="none" stroke="midnightblue" d="M358.35,-86C366.51,-86 375.13,-86 383.72,-86"/>
<polygon fill="midnightblue" stroke="midnightblue" points="383.75,-89.5 393.75,-86 383.75,-82.5 383.75,-89.5"/>
</g>
<!-- Node11 -->
<g id="node11" class="node">
<title>Node11</title>
<g id="a_node11"><a xlink:href="display_8c.html#a5c07cb2dc1adb076383bced84f4a8154" target="_top" xlink:title="Draws the lidar/perception view.">
<polygon fill="white" stroke="black" points="421,-38.5 421,-57.5 489,-57.5 489,-38.5 421,-38.5"/>
<text text-anchor="middle" x="455" y="-45.5" font-family="Helvetica,sans-Serif" font-size="10.00">draw_lidar</text>
</a>
</g>
</g>
<!-- Node8&#45;&gt;Node11 -->
<g id="edge11" class="edge">
<title>Node8&#45;&gt;Node11</title>
<path fill="none" stroke="midnightblue" d="M346.34,-76.41C365.96,-71.23 390.3,-64.81 410.88,-59.38"/>
<polygon fill="midnightblue" stroke="midnightblue" points="411.86,-62.74 420.64,-56.8 410.07,-55.97 411.86,-62.74"/>
</g>
</g>
</svg>
