<?xml version="1.0" encoding="UTF-8" standalone="no"?>
<!DOCTYPE svg PUBLIC "-//W3C//DTD SVG 1.1//EN"
 "http://www.w3.org/Graphics/SVG/1.1/DTD/svg11.dtd">
<!-- Generated by graphviz version 2.43.0 (0)
 -->
<!-- Title: settings_task Pages: 1 -->
<svg width="253pt" height="218pt"
 viewBox="0.00 0.00 253.00 218.00" xmlns="http://www.w3.org/2000/svg" xmlns:xlink="http://www.w3.org/1999/xlink">
<g id="graph0" class="graph" transform="scale(1 1) rotate(0) translate(4 214)">
<title>settings_task</title>
<polygon fill="white" stroke="transparent" points="-4,4 -4,-214 249,-214 249,4 -4,4"/>
<!-- Node1 -->
<g id="node1" class="node">
<title>Node1</title>
<g id="a_node1"><a xlink:title=" ">
<polygon fill="#bfbfbf" stroke="black" points="0,-95.5 0,-114.5 82,-114.5 82,-95.5 0,-95.5"/>
<text text-anchor="middle" x="41" y="-102.5" font-family="Helvetica,sans-Serif" font-size="10.00">settings_task</text>
</a>
</g>
</g>
<!-- Node2 -->
<g id="node2" class="node">
<title>Node2</title>
<g id="a_node2"><a xlink:href="ptask_8h.html#a190af02eb96e0365aeba0839009a321d" target="_top" xlink:title=" ">
<polygon fill="white" stroke="black" points="138,-190.5 138,-209.5 225,-209.5 225,-190.5 138,-190.5"/>
<text text-anchor="middle" x="181.5" y="-197.5" font-family="Helvetica,sans-Serif" font-size="10.00">deadline_miss</text>
</a>
</g>
</g>
<!-- Node1&#45;&gt;Node2 -->
<g id="edge1" class="edge">
<title>Node1&#45;&gt;Node2</title>
<path fill="none" stroke="midnightblue" d="M49.07,-114.68C61.32,-130.77 88.08,-163.05 118,-181 121.61,-183.17 125.49,-185.1 129.48,-186.83"/>
<polygon fill="midnightblue" stroke="midnightblue" points="128.34,-190.14 138.93,-190.5 130.87,-183.62 128.34,-190.14"/>
</g>
<!-- Node3 -->
<g id="node3" class="node">
<title>Node3</title>
<g id="a_node3"><a xlink:href="ptask_8h.html#a55744cf37a298cca48b46a38ecd1cbd7" target="_top" xlink:title=" ">
<polygon fill="white" stroke="black" points="136,-152.5 136,-171.5 227,-171.5 227,-152.5 136,-152.5"/>
<text text-anchor="middle" x="181.5" y="-159.5" font-family="Helvetica,sans-Serif" font-size="10.00">get_task_index</text>
</a>
</g>
</g>
<!-- Node1&#45;&gt;Node3 -->
<g id="edge2" class="edge">
<title>Node1&#45;&gt;Node3</title>
<path fill="none" stroke="midnightblue" d="M59.13,-114.61C74.28,-122.86 97.17,-134.7 118,-143 123.6,-145.23 129.57,-147.36 135.52,-149.32"/>
<polygon fill="midnightblue" stroke="midnightblue" points="134.84,-152.78 145.43,-152.47 136.96,-146.11 134.84,-152.78"/>
</g>
<!-- Node4 -->
<g id="node4" class="node">
<title>Node4</title>
<g id="a_node4"><a xlink:href="tasks_8c.html#af9fa55a7948b658713df46fd22608bfd" target="_top" xlink:title=" ">
<polygon fill="white" stroke="black" points="118,-114.5 118,-133.5 245,-133.5 245,-114.5 118,-114.5"/>
<text text-anchor="middle" x="181.5" y="-121.5" font-family="Helvetica,sans-Serif" font-size="10.00">is_mouse_over_button</text>
</a>
</g>
</g>
<!-- Node1&#45;&gt;Node4 -->
<g id="edge3" class="edge">
<title>Node1&#45;&gt;Node4</title>
<path fill="none" stroke="midnightblue" d="M82.06,-110.5C90.19,-111.61 98.97,-112.82 107.83,-114.03"/>
<polygon fill="midnightblue" stroke="midnightblue" points="107.45,-117.51 117.83,-115.4 108.4,-110.58 107.45,-117.51"/>
</g>
<!-- Node5 -->
<g id="node5" class="node">
<title>Node5</title>
<g id="a_node5"><a xlink:href="utilities_8h.html#a28b6717d007598c8d776ee5b8652be51" target="_top" xlink:title=" ">
<polygon fill="white" stroke="black" points="154,-76.5 154,-95.5 209,-95.5 209,-76.5 154,-76.5"/>
<text text-anchor="middle" x="181.5" y="-83.5" font-family="Helvetica,sans-Serif" font-size="10.00">runtime</text>
</a>
</g>
</g>
<!-- Node1&#45;&gt;Node5 -->
<g id="edge4" class="edge">
<title>Node1&#45;&gt;Node5</title>
<path fill="none" stroke="midnightblue" d="M82.06,-99.5C101.47,-96.84 124.63,-93.66 143.61,-91.06"/>
<polygon fill="midnightblue" stroke="midnightblue" points="144.24,-94.51 153.67,-89.68 143.29,-87.57 144.24,-94.51"/>
</g>
<!-- Node6 -->
<g id="node6" class="node">
<title>Node6</title>
<g id="a_node6"><a xlink:href="ptask_8h.html#ac5a989242ff00476f314f92395f23252" target="_top" xlink:title=" ">
<polygon fill="white" stroke="black" points="126.5,-38.5 126.5,-57.5 236.5,-57.5 236.5,-38.5 126.5,-38.5"/>
<text text-anchor="middle" x="181.5" y="-45.5" font-family="Helvetica,sans-Serif" font-size="10.00">wait_for_activation</text>
</a>
</g>
</g>
<!-- Node1&#45;&gt;Node6 -->
<g id="edge5" class="edge">
<title>Node1&#45;&gt;Node6</title>
<path fill="none" stroke="midnightblue" d="M59.13,-95.39C74.28,-87.14 97.17,-75.3 118,-67 123.6,-64.77 129.57,-62.64 135.52,-60.68"/>
<polygon fill="midnightblue" stroke="midnightblue" points="136.96,-63.89 145.43,-57.53 134.84,-57.22 136.96,-63.89"/>
</g>
<!-- Node7 -->
<g id="node7" class="node">
<title>Node7</title>
<g id="a_node7"><a xlink:href="ptask_8h.html#afd8a4ae978d1068cb18f8e5fc03a1f0c" target="_top" xlink:title=" ">
<polygon fill="white" stroke="black" points="135.5,-0.5 135.5,-19.5 227.5,-19.5 227.5,-0.5 135.5,-0.5"/>
<text text-anchor="middle" x="181.5" y="-7.5" font-family="Helvetica,sans-Serif" font-size="10.00">wait_for_period</text>
</a>
</g>
</g>
<!-- Node1&#45;&gt;Node7 -->
<g id="edge6" class="edge">
<title>Node1&#45;&gt;Node7</title>
<path fill="none" stroke="midnightblue" d="M49.07,-95.32C61.32,-79.23 88.08,-46.95 118,-29 121.61,-26.83 125.49,-24.9 129.48,-23.17"/>
<polygon fill="midnightblue" stroke="midnightblue" points="130.87,-26.38 138.93,-19.5 128.34,-19.86 130.87,-26.38"/>
</g>
</g>
</svg>
