<?xml version="1.0" encoding="UTF-8" standalone="no"?>
<!DOCTYPE svg PUBLIC "-//W3C//DTD SVG 1.1//EN"
 "http://www.w3.org/Graphics/SVG/1.1/DTD/svg11.dtd">
<!-- Generated by graphviz version 2.43.0 (0)
 -->
<!-- Title: display_task Pages: 1 -->
<svg width="524pt" height="256pt"
 viewBox="0.00 0.00 524.00 256.00" xmlns="http://www.w3.org/2000/svg" xmlns:xlink="http://www.w3.org/1999/xlink">
<g id="graph0" class="graph" transform="scale(1 1) rotate(0) translate(4 252)">
<title>display_task</title>
<polygon fill="white" stroke="transparent" points="-4,4 -4,-252 520,-252 520,4 -4,4"/>
<!-- Node1 -->
<g id="node1" class="node">
<title>Node1</title>
<g id="a_node1"><a xlink:title=" ">
<polygon fill="#bfbfbf" stroke="black" points="0,-114.5 0,-133.5 78,-133.5 78,-114.5 0,-114.5"/>
<text text-anchor="middle" x="39" y="-121.5" font-family="Helvetica,sans-Serif" font-size="10.00">display_task</text>
</a>
</g>
</g>
<!-- Node2 -->
<g id="node2" class="node">
<title>Node2</title>
<g id="a_node2"><a xlink:href="ptask_8h.html#a55744cf37a298cca48b46a38ecd1cbd7" target="_top" xlink:title=" ">
<polygon fill="white" stroke="black" points="123.5,-190.5 123.5,-209.5 214.5,-209.5 214.5,-190.5 123.5,-190.5"/>
<text text-anchor="middle" x="169" y="-197.5" font-family="Helvetica,sans-Serif" font-size="10.00">get_task_index</text>
</a>
</g>
</g>
<!-- Node1&#45;&gt;Node2 -->
<g id="edge1" class="edge">
<title>Node1&#45;&gt;Node2</title>
<path fill="none" stroke="midnightblue" d="M50.28,-133.65C63.93,-146.04 89.2,-167.54 114,-181 117.78,-183.05 121.83,-184.96 125.95,-186.7"/>
<polygon fill="midnightblue" stroke="midnightblue" points="124.99,-190.09 135.58,-190.48 127.55,-183.57 124.99,-190.09"/>
</g>
<!-- Node3 -->
<g id="node3" class="node">
<title>Node3</title>
<g id="a_node3"><a xlink:href="utilities_8h.html#a28b6717d007598c8d776ee5b8652be51" target="_top" xlink:title=" ">
<polygon fill="white" stroke="black" points="141.5,-152.5 141.5,-171.5 196.5,-171.5 196.5,-152.5 141.5,-152.5"/>
<text text-anchor="middle" x="169" y="-159.5" font-family="Helvetica,sans-Serif" font-size="10.00">runtime</text>
</a>
</g>
</g>
<!-- Node1&#45;&gt;Node3 -->
<g id="edge2" class="edge">
<title>Node1&#45;&gt;Node3</title>
<path fill="none" stroke="midnightblue" d="M72.3,-133.59C90.38,-138.96 112.98,-145.66 131.67,-151.21"/>
<polygon fill="midnightblue" stroke="midnightblue" points="130.74,-154.59 141.32,-154.08 132.73,-147.88 130.74,-154.59"/>
</g>
<!-- Node4 -->
<g id="node4" class="node">
<title>Node4</title>
<g id="a_node4"><a xlink:href="display_8h.html#aa2eb9ba074b23fc3b4a91c98e0c83c8b" target="_top" xlink:title="Updates the display.">
<polygon fill="white" stroke="black" points="123.5,-114.5 123.5,-133.5 214.5,-133.5 214.5,-114.5 123.5,-114.5"/>
<text text-anchor="middle" x="169" y="-121.5" font-family="Helvetica,sans-Serif" font-size="10.00">update_display</text>
</a>
</g>
</g>
<!-- Node1&#45;&gt;Node4 -->
<g id="edge3" class="edge">
<title>Node1&#45;&gt;Node4</title>
<path fill="none" stroke="midnightblue" d="M78.06,-124C89,-124 101.16,-124 112.92,-124"/>
<polygon fill="midnightblue" stroke="midnightblue" points="113.1,-127.5 123.1,-124 113.1,-120.5 113.1,-127.5"/>
</g>
<!-- Node18 -->
<g id="node18" class="node">
<title>Node18</title>
<g id="a_node18"><a xlink:href="ptask_8h.html#ac5a989242ff00476f314f92395f23252" target="_top" xlink:title=" ">
<polygon fill="white" stroke="black" points="114,-76.5 114,-95.5 224,-95.5 224,-76.5 114,-76.5"/>
<text text-anchor="middle" x="169" y="-83.5" font-family="Helvetica,sans-Serif" font-size="10.00">wait_for_activation</text>
</a>
</g>
</g>
<!-- Node1&#45;&gt;Node18 -->
<g id="edge18" class="edge">
<title>Node1&#45;&gt;Node18</title>
<path fill="none" stroke="midnightblue" d="M72.3,-114.41C88.52,-109.6 108.38,-103.7 125.79,-98.53"/>
<polygon fill="midnightblue" stroke="midnightblue" points="127.12,-101.79 135.71,-95.59 125.13,-95.08 127.12,-101.79"/>
</g>
<!-- Node19 -->
<g id="node19" class="node">
<title>Node19</title>
<g id="a_node19"><a xlink:href="ptask_8h.html#afd8a4ae978d1068cb18f8e5fc03a1f0c" target="_top" xlink:title=" ">
<polygon fill="white" stroke="black" points="123,-38.5 123,-57.5 215,-57.5 215,-38.5 123,-38.5"/>
<text text-anchor="middle" x="169" y="-45.5" font-family="Helvetica,sans-Serif" font-size="10.00">wait_for_period</text>
</a>
</g>
</g>
<!-- Node1&#45;&gt;Node19 -->
<g id="edge19" class="edge">
<title>Node1&#45;&gt;Node19</title>
<path fill="none" stroke="midnightblue" d="M50.28,-114.35C63.93,-101.96 89.2,-80.46 114,-67 117.78,-64.95 121.83,-63.04 125.95,-61.3"/>
<polygon fill="midnightblue" stroke="midnightblue" points="127.55,-64.43 135.58,-57.52 124.99,-57.91 127.55,-64.43"/>
</g>
<!-- Node5 -->
<g id="node5" class="node">
<title>Node5</title>
<g id="a_node5"><a xlink:href="group__VehicleModule.html#gaafbbdba8ad9bfb6108f0238653806062" target="_top" xlink:title=" ">
<polygon fill="white" stroke="black" points="261,-223.5 261,-242.5 357,-242.5 357,-223.5 261,-223.5"/>
<text text-anchor="middle" x="309" y="-230.5" font-family="Helvetica,sans-Serif" font-size="10.00">check_collisions</text>
</a>
</g>
</g>
<!-- Node4&#45;&gt;Node5 -->
<g id="edge4" class="edge">
<title>Node4&#45;&gt;Node5</title>
<path fill="none" stroke="midnightblue" d="M208.89,-133.57C214.35,-136.04 219.59,-139.13 224,-143 250.6,-166.33 233.85,-190.16 260,-214 261.72,-215.57 263.59,-217.02 265.55,-218.35"/>
<polygon fill="midnightblue" stroke="midnightblue" points="264.22,-221.62 274.65,-223.49 267.67,-215.52 264.22,-221.62"/>
</g>
<!-- Node6 -->
<g id="node6" class="node">
<title>Node6</title>
<g id="a_node6"><a xlink:href="display_8c.html#a01a4e859fcc5ddef923afe9a8a674826" target="_top" xlink:title="Renders the car sprite rotated to its current angle.">
<polygon fill="white" stroke="black" points="278.5,-185.5 278.5,-204.5 339.5,-204.5 339.5,-185.5 278.5,-185.5"/>
<text text-anchor="middle" x="309" y="-192.5" font-family="Helvetica,sans-Serif" font-size="10.00">draw_car</text>
</a>
</g>
</g>
<!-- Node4&#45;&gt;Node6 -->
<g id="edge5" class="edge">
<title>Node4&#45;&gt;Node6</title>
<path fill="none" stroke="midnightblue" d="M202.72,-133.6C209.92,-136.24 217.37,-139.38 224,-143 241.79,-152.71 242.85,-160.19 260,-171 265.48,-174.46 271.53,-177.81 277.43,-180.85"/>
<polygon fill="midnightblue" stroke="midnightblue" points="275.97,-184.03 286.48,-185.36 279.09,-177.77 275.97,-184.03"/>
</g>
<!-- Node9 -->
<g id="node9" class="node">
<title>Node9</title>
<g id="a_node9"><a xlink:href="display_8c.html#a385702fb79f2c451da015c3147f80515" target="_top" xlink:title="Draws user control indicators.">
<polygon fill="white" stroke="black" points="266.5,-142.5 266.5,-161.5 351.5,-161.5 351.5,-142.5 266.5,-142.5"/>
<text text-anchor="middle" x="309" y="-149.5" font-family="Helvetica,sans-Serif" font-size="10.00">draw_controls</text>
</a>
</g>
</g>
<!-- Node4&#45;&gt;Node9 -->
<g id="edge8" class="edge">
<title>Node4&#45;&gt;Node9</title>
<path fill="none" stroke="midnightblue" d="M214.8,-133.09C227.97,-135.76 242.49,-138.71 256.07,-141.46"/>
<polygon fill="midnightblue" stroke="midnightblue" points="255.73,-144.97 266.23,-143.52 257.12,-138.11 255.73,-144.97"/>
</g>
<!-- Node12 -->
<g id="node12" class="node">
<title>Node12</title>
<g id="a_node12"><a xlink:href="display_8c.html#acd5437d29ba24cfc00dbd2f9f6b0cd28" target="_top" xlink:title="Renders the complete perception layer.">
<polygon fill="white" stroke="black" points="260,-95.5 260,-114.5 358,-114.5 358,-95.5 260,-95.5"/>
<text text-anchor="middle" x="309" y="-102.5" font-family="Helvetica,sans-Serif" font-size="10.00">draw_perception</text>
</a>
</g>
</g>
<!-- Node4&#45;&gt;Node12 -->
<g id="edge12" class="edge">
<title>Node4&#45;&gt;Node12</title>
<path fill="none" stroke="midnightblue" d="M214.8,-117.83C225.88,-116.31 237.91,-114.65 249.54,-113.05"/>
<polygon fill="midnightblue" stroke="midnightblue" points="250.18,-116.49 259.61,-111.66 249.23,-109.56 250.18,-116.49"/>
</g>
<!-- Node16 -->
<g id="node16" class="node">
<title>Node16</title>
<g id="a_node16"><a xlink:href="display_8c.html#a92e08b949df5d8a8e5edec1dd86bc360" target="_top" xlink:title="Draws the track.">
<polygon fill="white" stroke="black" points="273.5,-57.5 273.5,-76.5 344.5,-76.5 344.5,-57.5 273.5,-57.5"/>
<text text-anchor="middle" x="309" y="-64.5" font-family="Helvetica,sans-Serif" font-size="10.00">draw_track</text>
</a>
</g>
</g>
<!-- Node4&#45;&gt;Node16 -->
<g id="edge16" class="edge">
<title>Node4&#45;&gt;Node16</title>
<path fill="none" stroke="midnightblue" d="M199.73,-114.42C207.71,-111.61 216.26,-108.38 224,-105 240.58,-97.76 243.56,-93.56 260,-86 264.14,-84.09 268.53,-82.2 272.91,-80.38"/>
<polygon fill="midnightblue" stroke="midnightblue" points="274.42,-83.54 282.37,-76.55 271.79,-77.05 274.42,-83.54"/>
</g>
<!-- Node17 -->
<g id="node17" class="node">
<title>Node17</title>
<g id="a_node17"><a xlink:href="display_8c.html#a2d077fa92b741d504d6ef5c5f2fdd74c" target="_top" xlink:title="Draws the trajectory of the car.">
<polygon fill="white" stroke="black" points="262.5,-19.5 262.5,-38.5 355.5,-38.5 355.5,-19.5 262.5,-19.5"/>
<text text-anchor="middle" x="309" y="-26.5" font-family="Helvetica,sans-Serif" font-size="10.00">draw_trajectory</text>
</a>
</g>
</g>
<!-- Node4&#45;&gt;Node17 -->
<g id="edge17" class="edge">
<title>Node4&#45;&gt;Node17</title>
<path fill="none" stroke="midnightblue" d="M207.73,-114.42C213.53,-111.94 219.18,-108.84 224,-105 247.43,-86.33 236.93,-67.12 260,-48 262.02,-46.32 264.21,-44.78 266.5,-43.37"/>
<polygon fill="midnightblue" stroke="midnightblue" points="268.49,-46.27 275.7,-38.51 265.22,-40.08 268.49,-46.27"/>
</g>
<!-- Node7 -->
<g id="node7" class="node">
<title>Node7</title>
<g id="a_node7"><a xlink:href="utilities_8h.html#a33090597864cdfd30d87ff99c14eeecb" target="_top" xlink:title=" ">
<polygon fill="white" stroke="black" points="395,-190.5 395,-209.5 515,-209.5 515,-190.5 395,-190.5"/>
<text text-anchor="middle" x="455" y="-197.5" font-family="Helvetica,sans-Serif" font-size="10.00">angle_rotation_sprite</text>
</a>
</g>
</g>
<!-- Node6&#45;&gt;Node7 -->
<g id="edge6" class="edge">
<title>Node6&#45;&gt;Node7</title>
<path fill="none" stroke="midnightblue" d="M339.84,-196.04C352.88,-196.49 368.77,-197.04 384.5,-197.59"/>
<polygon fill="midnightblue" stroke="midnightblue" points="384.67,-201.09 394.79,-197.94 384.92,-194.1 384.67,-201.09"/>
</g>
<!-- Node8 -->
<g id="node8" class="node">
<title>Node8</title>
<g id="a_node8"><a xlink:href="display_8c.html#a264238ff7dcf301bbc2f190ea7dcea4c" target="_top" xlink:title="Draws a directional arrow representing the car&#39;s orientation.">
<polygon fill="white" stroke="black" points="409,-228.5 409,-247.5 501,-247.5 501,-228.5 409,-228.5"/>
<text text-anchor="middle" x="455" y="-235.5" font-family="Helvetica,sans-Serif" font-size="10.00">draw_dir_arrow</text>
</a>
</g>
</g>
<!-- Node6&#45;&gt;Node8 -->
<g id="edge7" class="edge">
<title>Node6&#45;&gt;Node8</title>
<path fill="none" stroke="midnightblue" d="M339.84,-203.91C360.81,-210.17 389.16,-218.64 412.36,-225.57"/>
<polygon fill="midnightblue" stroke="midnightblue" points="411.37,-228.92 421.95,-228.43 413.37,-222.21 411.37,-228.92"/>
</g>
<!-- Node9&#45;&gt;Node7 -->
<g id="edge9" class="edge">
<title>Node9&#45;&gt;Node7</title>
<path fill="none" stroke="midnightblue" d="M337.18,-161.58C353.6,-167.32 374.96,-174.7 394,-181 400.41,-183.12 407.23,-185.33 413.87,-187.45"/>
<polygon fill="midnightblue" stroke="midnightblue" points="412.84,-190.79 423.43,-190.49 414.96,-184.12 412.84,-190.79"/>
</g>
<!-- Node10 -->
<g id="node10" class="node">
<title>Node10</title>
<g id="a_node10"><a xlink:href="display_8c.html#abdb9fae5dfda6a7b08efb162b243c776" target="_top" xlink:title=" ">
<polygon fill="white" stroke="black" points="413,-152.5 413,-171.5 497,-171.5 497,-152.5 413,-152.5"/>
<text text-anchor="middle" x="455" y="-159.5" font-family="Helvetica,sans-Serif" font-size="10.00">display_pedal</text>
</a>
</g>
</g>
<!-- Node9&#45;&gt;Node10 -->
<g id="edge10" class="edge">
<title>Node9&#45;&gt;Node10</title>
<path fill="none" stroke="midnightblue" d="M351.65,-154.89C367.61,-156 386,-157.28 402.76,-158.44"/>
<polygon fill="midnightblue" stroke="midnightblue" points="402.72,-161.95 412.94,-159.15 403.21,-154.96 402.72,-161.95"/>
</g>
<!-- Node11 -->
<g id="node11" class="node">
<title>Node11</title>
<g id="a_node11"><a xlink:href="display_8c.html#a5bcee09191f66649a2968b6f2ba32935" target="_top" xlink:title=" ">
<polygon fill="white" stroke="black" points="416.5,-114.5 416.5,-133.5 493.5,-133.5 493.5,-114.5 416.5,-114.5"/>
<text text-anchor="middle" x="455" y="-121.5" font-family="Helvetica,sans-Serif" font-size="10.00">draw_button</text>
</a>
</g>
</g>
<!-- Node9&#45;&gt;Node11 -->
<g id="edge11" class="edge">
<title>Node9&#45;&gt;Node11</title>
<path fill="none" stroke="midnightblue" d="M351.65,-143.9C368.73,-140.58 388.6,-136.72 406.27,-133.28"/>
<polygon fill="midnightblue" stroke="midnightblue" points="407.23,-136.66 416.37,-131.32 405.89,-129.79 407.23,-136.66"/>
</g>
<!-- Node13 -->
<g id="node13" class="node">
<title>Node13</title>
<g id="a_node13"><a xlink:href="display_8c.html#aa45d316f5e50fa968e686d790d57457b" target="_top" xlink:title="Draws the cone map overlay.">
<polygon fill="white" stroke="black" points="407,-76.5 407,-95.5 503,-95.5 503,-76.5 407,-76.5"/>
<text text-anchor="middle" x="455" y="-83.5" font-family="Helvetica,sans-Serif" font-size="10.00">draw_cone_map</text>
</a>
</g>
</g>
<!-- Node12&#45;&gt;Node13 -->
<g id="edge13" class="edge">
<title>Node12&#45;&gt;Node13</title>
<path fill="none" stroke="midnightblue" d="M358.35,-98.62C370.73,-96.99 384.16,-95.22 396.93,-93.53"/>
<polygon fill="midnightblue" stroke="midnightblue" points="397.54,-96.98 407,-92.2 396.63,-90.04 397.54,-96.98"/>
</g>
<!-- Node14 -->
<g id="node14" class="node">
<title>Node14</title>
<g id="a_node14"><a xlink:href="display_8c.html#a298532c4740f2a6785e5c1b0ff7fea9a" target="_top" xlink:title="Renders the detected cones on the perception bitmap.">
<polygon fill="white" stroke="black" points="394,-38.5 394,-57.5 516,-57.5 516,-38.5 394,-38.5"/>
<text text-anchor="middle" x="455" y="-45.5" font-family="Helvetica,sans-Serif" font-size="10.00">draw_detected_cones</text>
</a>
</g>
</g>
<!-- Node12&#45;&gt;Node14 -->
<g id="edge14" class="edge">
<title>Node12&#45;&gt;Node14</title>
<path fill="none" stroke="midnightblue" d="M335.63,-95.45C342.92,-92.57 350.84,-89.3 358,-86 374.44,-78.44 377.31,-73.98 394,-67 399.36,-64.76 405.08,-62.63 410.78,-60.66"/>
<polygon fill="midnightblue" stroke="midnightblue" points="411.9,-63.98 420.29,-57.51 409.7,-57.33 411.9,-63.98"/>
</g>
<!-- Node15 -->
<g id="node15" class="node">
<title>Node15</title>
<g id="a_node15"><a xlink:href="display_8c.html#a5c07cb2dc1adb076383bced84f4a8154" target="_top" xlink:title="Draws the lidar/perception view.">
<polygon fill="white" stroke="black" points="421,-0.5 421,-19.5 489,-19.5 489,-0.5 421,-0.5"/>
<text text-anchor="middle" x="455" y="-7.5" font-family="Helvetica,sans-Serif" font-size="10.00">draw_lidar</text>
</a>
</g>
</g>
<!-- Node12&#45;&gt;Node15 -->
<g id="edge15" class="edge">
<title>Node12&#45;&gt;Node15</title>
<path fill="none" stroke="midnightblue" d="M342.3,-95.49C347.89,-92.96 353.38,-89.83 358,-86 381.07,-66.88 370.28,-47.3 394,-29 399.11,-25.06 405.06,-21.92 411.18,-19.43"/>
<polygon fill="midnightblue" stroke="midnightblue" points="412.58,-22.65 420.85,-16.03 410.26,-16.05 412.58,-22.65"/>
</g>
</g>
</svg>
