<?xml version="1.0" encoding="UTF-8" standalone="no"?>
<!DOCTYPE svg PUBLIC "-//W3C//DTD SVG 1.1//EN"
 "http://www.w3.org/Graphics/SVG/1.1/DTD/svg11.dtd">
<!-- Generated by graphviz version 2.43.0 (0)
 -->
<!-- Title: src/tasks.c Pages: 1 -->
<svg width="575pt" height="364pt"
 viewBox="0.00 0.00 574.58 364.00" xmlns="http://www.w3.org/2000/svg" xmlns:xlink="http://www.w3.org/1999/xlink">
<g id="graph0" class="graph" transform="scale(1 1) rotate(0) translate(4 360)">
<title>src/tasks.c</title>
<polygon fill="white" stroke="transparent" points="-4,4 -4,-360 570.58,-360 570.58,4 -4,4"/>
<!-- Node1 -->
<g id="node1" class="node">
<title>Node1</title>
<g id="a_node1"><a xlink:title="Contains periodic task functions for LiDAR perception, trajectory planning, vehicle control,...">
<polygon fill="#bfbfbf" stroke="black" points="212,-336.5 212,-355.5 280,-355.5 280,-336.5 212,-336.5"/>
<text text-anchor="middle" x="246" y="-343.5" font-family="Helvetica,sans-Serif" font-size="10.00">src/tasks.c</text>
</a>
</g>
</g>
<!-- Node2 -->
<g id="node2" class="node">
<title>Node2</title>
<g id="a_node2"><a xlink:title=" ">
<polygon fill="white" stroke="#bfbfbf" points="312,-224.5 312,-243.5 362,-243.5 362,-224.5 312,-224.5"/>
<text text-anchor="middle" x="337" y="-231.5" font-family="Helvetica,sans-Serif" font-size="10.00">stdio.h</text>
</a>
</g>
</g>
<!-- Node1&#45;&gt;Node2 -->
<g id="edge1" class="edge">
<title>Node1&#45;&gt;Node2</title>
<path fill="none" stroke="midnightblue" d="M258.12,-336.29C269.33,-327.85 286.02,-314.26 298,-300 310.28,-285.39 321.16,-266.47 328.29,-252.82"/>
<polygon fill="midnightblue" stroke="midnightblue" points="331.58,-254.06 332.97,-243.56 325.34,-250.9 331.58,-254.06"/>
</g>
<!-- Node3 -->
<g id="node3" class="node">
<title>Node3</title>
<g id="a_node3"><a xlink:href="globals_8h.html" target="_top" xlink:title="Global constants, variables, and structures for the simulation and visualization system.">
<polygon fill="white" stroke="black" points="120.5,-56.5 120.5,-75.5 181.5,-75.5 181.5,-56.5 120.5,-56.5"/>
<text text-anchor="middle" x="151" y="-63.5" font-family="Helvetica,sans-Serif" font-size="10.00">globals.h</text>
</a>
</g>
</g>
<!-- Node1&#45;&gt;Node3 -->
<g id="edge2" class="edge">
<title>Node1&#45;&gt;Node3</title>
<path fill="none" stroke="midnightblue" d="M211.79,-344.82C144.2,-342.46 0,-326.7 0,-235 0,-235 0,-235 0,-177 0,-122.12 65.97,-91.73 110.7,-77.43"/>
<polygon fill="midnightblue" stroke="midnightblue" points="111.9,-80.73 120.44,-74.46 109.86,-74.03 111.9,-80.73"/>
</g>
<!-- Node7 -->
<g id="node7" class="node">
<title>Node7</title>
<g id="a_node7"><a xlink:href="tasks_8h.html" target="_top" xlink:title="Declaration of task thread functions for the simulation.">
<polygon fill="white" stroke="black" points="86,-280.5 86,-299.5 138,-299.5 138,-280.5 86,-280.5"/>
<text text-anchor="middle" x="112" y="-287.5" font-family="Helvetica,sans-Serif" font-size="10.00">tasks.h</text>
</a>
</g>
</g>
<!-- Node1&#45;&gt;Node7 -->
<g id="edge6" class="edge">
<title>Node1&#45;&gt;Node7</title>
<path fill="none" stroke="midnightblue" d="M224.77,-336.44C202.62,-327.52 167.68,-313.44 142.56,-303.32"/>
<polygon fill="midnightblue" stroke="midnightblue" points="143.72,-300.01 133.13,-299.52 141.1,-306.5 143.72,-300.01"/>
</g>
<!-- Node9 -->
<g id="node9" class="node">
<title>Node9</title>
<g id="a_node9"><a xlink:href="perception_8h.html" target="_top" xlink:title="Header file for perception&#45;related types, constants, and function declarations.">
<polygon fill="white" stroke="black" points="146.5,-112.5 146.5,-131.5 223.5,-131.5 223.5,-112.5 146.5,-112.5"/>
<text text-anchor="middle" x="185" y="-119.5" font-family="Helvetica,sans-Serif" font-size="10.00">perception.h</text>
</a>
</g>
</g>
<!-- Node1&#45;&gt;Node9 -->
<g id="edge19" class="edge">
<title>Node1&#45;&gt;Node9</title>
<path fill="none" stroke="midnightblue" d="M250.42,-336.12C263.34,-308.83 298.08,-224.56 265,-168 256.14,-152.85 240.09,-142.41 224.69,-135.42"/>
<polygon fill="midnightblue" stroke="midnightblue" points="225.83,-132.11 215.25,-131.51 223.15,-138.57 225.83,-132.11"/>
</g>
<!-- Node11 -->
<g id="node11" class="node">
<title>Node11</title>
<g id="a_node11"><a xlink:href="control_8h.html" target="_top" xlink:title="Declarations for vehicle control functions and variables in the 2D simulator.">
<polygon fill="white" stroke="black" points="81.5,-224.5 81.5,-243.5 140.5,-243.5 140.5,-224.5 81.5,-224.5"/>
<text text-anchor="middle" x="111" y="-231.5" font-family="Helvetica,sans-Serif" font-size="10.00">control.h</text>
</a>
</g>
</g>
<!-- Node1&#45;&gt;Node11 -->
<g id="edge29" class="edge">
<title>Node1&#45;&gt;Node11</title>
<path fill="none" stroke="midnightblue" d="M235.41,-336.37C212.54,-317.73 158.29,-273.53 129.57,-250.13"/>
<polygon fill="midnightblue" stroke="midnightblue" points="131.51,-247.19 121.54,-243.59 127.09,-252.62 131.51,-247.19"/>
</g>
<!-- Node12 -->
<g id="node12" class="node">
<title>Node12</title>
<g id="a_node12"><a xlink:href="trajectory_8h.html" target="_top" xlink:title="Provides declarations for trajectory planning based on cone detection.">
<polygon fill="white" stroke="black" points="184.5,-168.5 184.5,-187.5 255.5,-187.5 255.5,-168.5 184.5,-168.5"/>
<text text-anchor="middle" x="220" y="-175.5" font-family="Helvetica,sans-Serif" font-size="10.00">trajectory.h</text>
</a>
</g>
</g>
<!-- Node1&#45;&gt;Node12 -->
<g id="edge20" class="edge">
<title>Node1&#45;&gt;Node12</title>
<path fill="none" stroke="midnightblue" d="M244.6,-336.08C240.51,-309.95 228.49,-233.21 222.91,-197.58"/>
<polygon fill="midnightblue" stroke="midnightblue" points="226.35,-196.91 221.34,-187.57 219.43,-197.99 226.35,-196.91"/>
</g>
<!-- Node13 -->
<g id="node13" class="node">
<title>Node13</title>
<g id="a_node13"><a xlink:href="display_8h.html" target="_top" xlink:title="Header file declaring display rendering functions.">
<polygon fill="white" stroke="black" points="158.5,-224.5 158.5,-243.5 217.5,-243.5 217.5,-224.5 158.5,-224.5"/>
<text text-anchor="middle" x="188" y="-231.5" font-family="Helvetica,sans-Serif" font-size="10.00">display.h</text>
</a>
</g>
</g>
<!-- Node1&#45;&gt;Node13 -->
<g id="edge22" class="edge">
<title>Node1&#45;&gt;Node13</title>
<path fill="none" stroke="midnightblue" d="M241.45,-336.37C231.96,-318.38 209.91,-276.55 197.29,-252.63"/>
<polygon fill="midnightblue" stroke="midnightblue" points="200.29,-250.8 192.53,-243.59 194.1,-254.07 200.29,-250.8"/>
</g>
<!-- Node14 -->
<g id="node14" class="node">
<title>Node14</title>
<g id="a_node14"><a xlink:href="vehicle_8h.html" target="_top" xlink:title=" ">
<polygon fill="white" stroke="black" points="434.5,-280.5 434.5,-299.5 495.5,-299.5 495.5,-280.5 434.5,-280.5"/>
<text text-anchor="middle" x="465" y="-287.5" font-family="Helvetica,sans-Serif" font-size="10.00">vehicle.h</text>
</a>
</g>
</g>
<!-- Node1&#45;&gt;Node14 -->
<g id="edge21" class="edge">
<title>Node1&#45;&gt;Node14</title>
<path fill="none" stroke="midnightblue" d="M280.22,-336.56C319.23,-326.94 382.94,-311.23 424.42,-301.01"/>
<polygon fill="midnightblue" stroke="midnightblue" points="425.33,-304.39 434.2,-298.59 423.66,-297.59 425.33,-304.39"/>
</g>
<!-- Node15 -->
<g id="node15" class="node">
<title>Node15</title>
<g id="a_node15"><a xlink:href="ptask_8h.html" target="_top" xlink:title="Interface for managing periodic tasks and time utilities.">
<polygon fill="white" stroke="black" points="363.5,-280.5 363.5,-299.5 416.5,-299.5 416.5,-280.5 363.5,-280.5"/>
<text text-anchor="middle" x="390" y="-287.5" font-family="Helvetica,sans-Serif" font-size="10.00">ptask.h</text>
</a>
</g>
</g>
<!-- Node1&#45;&gt;Node15 -->
<g id="edge23" class="edge">
<title>Node1&#45;&gt;Node15</title>
<path fill="none" stroke="midnightblue" d="M268.82,-336.44C292.83,-327.44 330.83,-313.19 357.87,-303.05"/>
<polygon fill="midnightblue" stroke="midnightblue" points="359.16,-306.3 367.29,-299.52 356.7,-299.75 359.16,-306.3"/>
</g>
<!-- Node4 -->
<g id="node4" class="node">
<title>Node4</title>
<g id="a_node4"><a xlink:title=" ">
<polygon fill="white" stroke="#bfbfbf" points="121.5,-0.5 121.5,-19.5 180.5,-19.5 180.5,-0.5 121.5,-0.5"/>
<text text-anchor="middle" x="151" y="-7.5" font-family="Helvetica,sans-Serif" font-size="10.00">allegro.h</text>
</a>
</g>
</g>
<!-- Node3&#45;&gt;Node4 -->
<g id="edge3" class="edge">
<title>Node3&#45;&gt;Node4</title>
<path fill="none" stroke="midnightblue" d="M151,-56.08C151,-49.01 151,-38.86 151,-29.99"/>
<polygon fill="midnightblue" stroke="midnightblue" points="154.5,-29.75 151,-19.75 147.5,-29.75 154.5,-29.75"/>
</g>
<!-- Node5 -->
<g id="node5" class="node">
<title>Node5</title>
<g id="a_node5"><a xlink:title=" ">
<polygon fill="white" stroke="#bfbfbf" points="445.5,-0.5 445.5,-19.5 508.5,-19.5 508.5,-0.5 445.5,-0.5"/>
<text text-anchor="middle" x="477" y="-7.5" font-family="Helvetica,sans-Serif" font-size="10.00">pthread.h</text>
</a>
</g>
</g>
<!-- Node3&#45;&gt;Node5 -->
<g id="edge4" class="edge">
<title>Node3&#45;&gt;Node5</title>
<path fill="none" stroke="midnightblue" d="M181.53,-57.91C184.72,-57.24 187.92,-56.59 191,-56 277.27,-39.53 379.02,-24.58 434.92,-16.74"/>
<polygon fill="midnightblue" stroke="midnightblue" points="435.72,-20.17 445.14,-15.32 434.75,-13.23 435.72,-20.17"/>
</g>
<!-- Node6 -->
<g id="node6" class="node">
<title>Node6</title>
<g id="a_node6"><a xlink:title=" ">
<polygon fill="white" stroke="#bfbfbf" points="258,-0.5 258,-19.5 338,-19.5 338,-0.5 258,-0.5"/>
<text text-anchor="middle" x="298" y="-7.5" font-family="Helvetica,sans-Serif" font-size="10.00">semaphore.h</text>
</a>
</g>
</g>
<!-- Node3&#45;&gt;Node6 -->
<g id="edge5" class="edge">
<title>Node3&#45;&gt;Node6</title>
<path fill="none" stroke="midnightblue" d="M174.29,-56.44C198.81,-47.44 237.6,-33.19 265.2,-23.05"/>
<polygon fill="midnightblue" stroke="midnightblue" points="266.64,-26.25 274.82,-19.52 264.22,-19.68 266.64,-26.25"/>
</g>
<!-- Node8 -->
<g id="node8" class="node">
<title>Node8</title>
<g id="a_node8"><a xlink:href="utilities_8h.html" target="_top" xlink:title="Utility function prototypes for cone management and runtime tasks.">
<polygon fill="white" stroke="black" points="28,-168.5 28,-187.5 90,-187.5 90,-168.5 28,-168.5"/>
<text text-anchor="middle" x="59" y="-175.5" font-family="Helvetica,sans-Serif" font-size="10.00">utilities.h</text>
</a>
</g>
</g>
<!-- Node7&#45;&gt;Node8 -->
<g id="edge7" class="edge">
<title>Node7&#45;&gt;Node8</title>
<path fill="none" stroke="midnightblue" d="M101.79,-280.45C92.53,-272.11 79.27,-258.6 72,-244 64.79,-229.51 61.57,-211.33 60.15,-197.88"/>
<polygon fill="midnightblue" stroke="midnightblue" points="63.63,-197.56 59.32,-187.88 56.66,-198.14 63.63,-197.56"/>
</g>
<!-- Node7&#45;&gt;Node11 -->
<g id="edge12" class="edge">
<title>Node7&#45;&gt;Node11</title>
<path fill="none" stroke="midnightblue" d="M111.83,-280.08C111.7,-273.01 111.52,-262.86 111.35,-253.99"/>
<polygon fill="midnightblue" stroke="midnightblue" points="114.85,-253.68 111.16,-243.75 107.85,-253.81 114.85,-253.68"/>
</g>
<!-- Node7&#45;&gt;Node13 -->
<g id="edge18" class="edge">
<title>Node7&#45;&gt;Node13</title>
<path fill="none" stroke="midnightblue" d="M124.21,-280.32C135.78,-272.11 153.38,-259.6 167.16,-249.81"/>
<polygon fill="midnightblue" stroke="midnightblue" points="169.44,-252.48 175.57,-243.83 165.39,-246.77 169.44,-252.48"/>
</g>
<!-- Node8&#45;&gt;Node3 -->
<g id="edge11" class="edge">
<title>Node8&#45;&gt;Node3</title>
<path fill="none" stroke="midnightblue" d="M64.3,-168.18C72.23,-155.29 87.96,-130.79 104,-112 112.87,-101.6 123.85,-90.99 132.97,-82.67"/>
<polygon fill="midnightblue" stroke="midnightblue" points="135.58,-85.04 140.7,-75.77 130.91,-79.82 135.58,-85.04"/>
</g>
<!-- Node8&#45;&gt;Node9 -->
<g id="edge8" class="edge">
<title>Node8&#45;&gt;Node9</title>
<path fill="none" stroke="midnightblue" d="M78.97,-168.44C99.61,-159.6 132.06,-145.69 155.63,-135.59"/>
<polygon fill="midnightblue" stroke="midnightblue" points="157.32,-138.67 165.13,-131.52 154.56,-132.24 157.32,-138.67"/>
</g>
<!-- Node9&#45;&gt;Node3 -->
<g id="edge10" class="edge">
<title>Node9&#45;&gt;Node3</title>
<path fill="none" stroke="midnightblue" d="M179.39,-112.08C174.63,-104.53 167.68,-93.49 161.85,-84.23"/>
<polygon fill="midnightblue" stroke="midnightblue" points="164.8,-82.35 156.51,-75.75 158.88,-86.08 164.8,-82.35"/>
</g>
<!-- Node10 -->
<g id="node10" class="node">
<title>Node10</title>
<g id="a_node10"><a xlink:title=" ">
<polygon fill="white" stroke="#bfbfbf" points="199.5,-56.5 199.5,-75.5 250.5,-75.5 250.5,-56.5 199.5,-56.5"/>
<text text-anchor="middle" x="225" y="-63.5" font-family="Helvetica,sans-Serif" font-size="10.00">math.h</text>
</a>
</g>
</g>
<!-- Node9&#45;&gt;Node10 -->
<g id="edge9" class="edge">
<title>Node9&#45;&gt;Node10</title>
<path fill="none" stroke="midnightblue" d="M191.61,-112.08C197.26,-104.46 205.54,-93.26 212.45,-83.94"/>
<polygon fill="midnightblue" stroke="midnightblue" points="215.38,-85.87 218.52,-75.75 209.75,-81.7 215.38,-85.87"/>
</g>
<!-- Node11&#45;&gt;Node3 -->
<g id="edge16" class="edge">
<title>Node11&#45;&gt;Node3</title>
<path fill="none" stroke="midnightblue" d="M112.72,-224.45C116.75,-204.6 127.28,-153.91 138,-112 140.27,-103.13 143.06,-93.35 145.47,-85.18"/>
<polygon fill="midnightblue" stroke="midnightblue" points="148.83,-86.17 148.35,-75.58 142.12,-84.16 148.83,-86.17"/>
</g>
<!-- Node11&#45;&gt;Node9 -->
<g id="edge17" class="edge">
<title>Node11&#45;&gt;Node9</title>
<path fill="none" stroke="midnightblue" d="M116.81,-224.37C129.02,-206.22 157.55,-163.8 173.57,-139.99"/>
<polygon fill="midnightblue" stroke="midnightblue" points="176.54,-141.84 179.22,-131.59 170.73,-137.94 176.54,-141.84"/>
</g>
<!-- Node11&#45;&gt;Node12 -->
<g id="edge13" class="edge">
<title>Node11&#45;&gt;Node12</title>
<path fill="none" stroke="midnightblue" d="M128.51,-224.32C146.07,-215.62 173.33,-202.12 193.53,-192.11"/>
<polygon fill="midnightblue" stroke="midnightblue" points="195.12,-195.23 202.53,-187.65 192.02,-188.96 195.12,-195.23"/>
</g>
<!-- Node12&#45;&gt;Node3 -->
<g id="edge15" class="edge">
<title>Node12&#45;&gt;Node3</title>
<path fill="none" stroke="midnightblue" d="M225.31,-168.36C232.6,-155.27 243.67,-130.02 233,-112 223.82,-96.49 207.19,-85.97 191.3,-79.03"/>
<polygon fill="midnightblue" stroke="midnightblue" points="192.15,-75.61 181.57,-75.16 189.56,-82.11 192.15,-75.61"/>
</g>
<!-- Node12&#45;&gt;Node9 -->
<g id="edge14" class="edge">
<title>Node12&#45;&gt;Node9</title>
<path fill="none" stroke="midnightblue" d="M214.22,-168.08C209.33,-160.53 202.17,-149.49 196.17,-140.23"/>
<polygon fill="midnightblue" stroke="midnightblue" points="199.05,-138.24 190.67,-131.75 193.17,-142.05 199.05,-138.24"/>
</g>
<!-- Node15&#45;&gt;Node2 -->
<g id="edge26" class="edge">
<title>Node15&#45;&gt;Node2</title>
<path fill="none" stroke="midnightblue" d="M381.25,-280.08C373.53,-272.22 362.1,-260.57 352.78,-251.08"/>
<polygon fill="midnightblue" stroke="midnightblue" points="355.09,-248.44 345.59,-243.75 350.1,-253.34 355.09,-248.44"/>
</g>
<!-- Node15&#45;&gt;Node5 -->
<g id="edge24" class="edge">
<title>Node15&#45;&gt;Node5</title>
<path fill="none" stroke="midnightblue" d="M416.7,-282.07C460.26,-270.65 542.29,-248.69 547,-244 568.34,-222.77 566,-209.1 566,-179 566,-179 566,-179 566,-121 566,-78.85 526.01,-43.78 499.64,-25.24"/>
<polygon fill="midnightblue" stroke="midnightblue" points="501.54,-22.3 491.3,-19.6 497.62,-28.1 501.54,-22.3"/>
</g>
<!-- Node15&#45;&gt;Node6 -->
<g id="edge25" class="edge">
<title>Node15&#45;&gt;Node6</title>
<path fill="none" stroke="midnightblue" d="M390,-280.44C390,-261.94 390,-216.81 390,-179 390,-179 390,-179 390,-121 390,-78.5 349.09,-43.77 321.83,-25.34"/>
<polygon fill="midnightblue" stroke="midnightblue" points="323.49,-22.24 313.19,-19.73 319.67,-28.11 323.49,-22.24"/>
</g>
<!-- Node16 -->
<g id="node16" class="node">
<title>Node16</title>
<g id="a_node16"><a xlink:title=" ">
<polygon fill="white" stroke="#bfbfbf" points="418,-224.5 418,-243.5 466,-243.5 466,-224.5 418,-224.5"/>
<text text-anchor="middle" x="442" y="-231.5" font-family="Helvetica,sans-Serif" font-size="10.00">time.h</text>
</a>
</g>
</g>
<!-- Node15&#45;&gt;Node16 -->
<g id="edge27" class="edge">
<title>Node15&#45;&gt;Node16</title>
<path fill="none" stroke="midnightblue" d="M398.59,-280.08C406.16,-272.22 417.38,-260.57 426.51,-251.08"/>
<polygon fill="midnightblue" stroke="midnightblue" points="429.16,-253.38 433.57,-243.75 424.12,-248.53 429.16,-253.38"/>
</g>
<!-- Node17 -->
<g id="node17" class="node">
<title>Node17</title>
<g id="a_node17"><a xlink:title=" ">
<polygon fill="white" stroke="#bfbfbf" points="484.5,-224.5 484.5,-243.5 537.5,-243.5 537.5,-224.5 484.5,-224.5"/>
<text text-anchor="middle" x="511" y="-231.5" font-family="Helvetica,sans-Serif" font-size="10.00">string.h</text>
</a>
</g>
</g>
<!-- Node15&#45;&gt;Node17 -->
<g id="edge28" class="edge">
<title>Node15&#45;&gt;Node17</title>
<path fill="none" stroke="midnightblue" d="M409.17,-280.44C428.91,-271.64 459.89,-257.81 482.49,-247.72"/>
<polygon fill="midnightblue" stroke="midnightblue" points="484.21,-250.79 491.92,-243.52 481.36,-244.4 484.21,-250.79"/>
</g>
</g>
</svg>
