<?xml version="1.0" encoding="UTF-8" standalone="no"?>
<!DOCTYPE svg PUBLIC "-//W3C//DTD SVG 1.1//EN"
 "http://www.w3.org/Graphics/SVG/1.1/DTD/svg11.dtd">
<!-- Generated by graphviz version 2.43.0 (0)
 -->
<!-- Title: control_task Pages: 1 -->
<svg width="361pt" height="218pt"
 viewBox="0.00 0.00 361.00 218.00" xmlns="http://www.w3.org/2000/svg" xmlns:xlink="http://www.w3.org/1999/xlink">
<g id="graph0" class="graph" transform="scale(1 1) rotate(0) translate(4 214)">
<title>control_task</title>
<polygon fill="white" stroke="transparent" points="-4,4 -4,-214 357,-214 357,4 -4,4"/>
<!-- Node1 -->
<g id="node1" class="node">
<title>Node1</title>
<g id="a_node1"><a xlink:title=" ">
<polygon fill="#bfbfbf" stroke="black" points="0,-95.5 0,-114.5 77,-114.5 77,-95.5 0,-95.5"/>
<text text-anchor="middle" x="38.5" y="-102.5" font-family="Helvetica,sans-Serif" font-size="10.00">control_task</text>
</a>
</g>
</g>
<!-- Node2 -->
<g id="node2" class="node">
<title>Node2</title>
<g id="a_node2"><a xlink:href="control_8h.html#ae3c1be6c75e99edd3ab89b0d2f6c4b0d" target="_top" xlink:title="Autonomous control routine using centerline waypoints.">
<polygon fill="white" stroke="black" points="113,-190.5 113,-209.5 229,-209.5 229,-190.5 113,-190.5"/>
<text text-anchor="middle" x="171" y="-197.5" font-family="Helvetica,sans-Serif" font-size="10.00">autonomous_control</text>
</a>
</g>
</g>
<!-- Node1&#45;&gt;Node2 -->
<g id="edge1" class="edge">
<title>Node1&#45;&gt;Node2</title>
<path fill="none" stroke="midnightblue" d="M46.31,-114.6C58.12,-130.59 83.95,-162.71 113,-181 116.19,-183.01 119.61,-184.83 123.14,-186.47"/>
<polygon fill="midnightblue" stroke="midnightblue" points="122.06,-189.81 132.64,-190.42 124.75,-183.35 122.06,-189.81"/>
</g>
<!-- Node4 -->
<g id="node4" class="node">
<title>Node4</title>
<g id="a_node4"><a xlink:href="ptask_8h.html#a55744cf37a298cca48b46a38ecd1cbd7" target="_top" xlink:title=" ">
<polygon fill="white" stroke="black" points="125.5,-152.5 125.5,-171.5 216.5,-171.5 216.5,-152.5 125.5,-152.5"/>
<text text-anchor="middle" x="171" y="-159.5" font-family="Helvetica,sans-Serif" font-size="10.00">get_task_index</text>
</a>
</g>
</g>
<!-- Node1&#45;&gt;Node4 -->
<g id="edge3" class="edge">
<title>Node1&#45;&gt;Node4</title>
<path fill="none" stroke="midnightblue" d="M56.08,-114.51C70.74,-122.7 92.88,-134.51 113,-143 118.05,-145.13 123.42,-147.19 128.77,-149.11"/>
<polygon fill="midnightblue" stroke="midnightblue" points="127.72,-152.45 138.32,-152.41 130.01,-145.83 127.72,-152.45"/>
</g>
<!-- Node5 -->
<g id="node5" class="node">
<title>Node5</title>
<g id="a_node5"><a xlink:href="control_8h.html#aa7d41004f6e6355c5dd871a9a8c8a59d" target="_top" xlink:title="Adjusts vehicle controls based on keyboard input.">
<polygon fill="white" stroke="black" points="120.5,-114.5 120.5,-133.5 221.5,-133.5 221.5,-114.5 120.5,-114.5"/>
<text text-anchor="middle" x="171" y="-121.5" font-family="Helvetica,sans-Serif" font-size="10.00">keyboard_control</text>
</a>
</g>
</g>
<!-- Node1&#45;&gt;Node5 -->
<g id="edge4" class="edge">
<title>Node1&#45;&gt;Node5</title>
<path fill="none" stroke="midnightblue" d="M77.25,-110.5C87.5,-111.99 98.87,-113.64 110.04,-115.27"/>
<polygon fill="midnightblue" stroke="midnightblue" points="109.79,-118.77 120.19,-116.75 110.8,-111.84 109.79,-118.77"/>
</g>
<!-- Node6 -->
<g id="node6" class="node">
<title>Node6</title>
<g id="a_node6"><a xlink:href="utilities_8h.html#a28b6717d007598c8d776ee5b8652be51" target="_top" xlink:title=" ">
<polygon fill="white" stroke="black" points="143.5,-76.5 143.5,-95.5 198.5,-95.5 198.5,-76.5 143.5,-76.5"/>
<text text-anchor="middle" x="171" y="-83.5" font-family="Helvetica,sans-Serif" font-size="10.00">runtime</text>
</a>
</g>
</g>
<!-- Node1&#45;&gt;Node6 -->
<g id="edge6" class="edge">
<title>Node1&#45;&gt;Node6</title>
<path fill="none" stroke="midnightblue" d="M77.25,-99.5C94.7,-96.96 115.37,-93.95 132.76,-91.42"/>
<polygon fill="midnightblue" stroke="midnightblue" points="133.72,-94.82 143.11,-89.92 132.71,-87.89 133.72,-94.82"/>
</g>
<!-- Node7 -->
<g id="node7" class="node">
<title>Node7</title>
<g id="a_node7"><a xlink:href="ptask_8h.html#ac5a989242ff00476f314f92395f23252" target="_top" xlink:title=" ">
<polygon fill="white" stroke="black" points="116,-38.5 116,-57.5 226,-57.5 226,-38.5 116,-38.5"/>
<text text-anchor="middle" x="171" y="-45.5" font-family="Helvetica,sans-Serif" font-size="10.00">wait_for_activation</text>
</a>
</g>
</g>
<!-- Node1&#45;&gt;Node7 -->
<g id="edge7" class="edge">
<title>Node1&#45;&gt;Node7</title>
<path fill="none" stroke="midnightblue" d="M56.08,-95.49C70.74,-87.3 92.88,-75.49 113,-67 118.05,-64.87 123.42,-62.81 128.77,-60.89"/>
<polygon fill="midnightblue" stroke="midnightblue" points="130.01,-64.17 138.32,-57.59 127.72,-57.55 130.01,-64.17"/>
</g>
<!-- Node8 -->
<g id="node8" class="node">
<title>Node8</title>
<g id="a_node8"><a xlink:href="ptask_8h.html#afd8a4ae978d1068cb18f8e5fc03a1f0c" target="_top" xlink:title=" ">
<polygon fill="white" stroke="black" points="125,-0.5 125,-19.5 217,-19.5 217,-0.5 125,-0.5"/>
<text text-anchor="middle" x="171" y="-7.5" font-family="Helvetica,sans-Serif" font-size="10.00">wait_for_period</text>
</a>
</g>
</g>
<!-- Node1&#45;&gt;Node8 -->
<g id="edge8" class="edge">
<title>Node1&#45;&gt;Node8</title>
<path fill="none" stroke="midnightblue" d="M46.31,-95.4C58.12,-79.41 83.95,-47.29 113,-29 116.19,-26.99 119.61,-25.17 123.14,-23.53"/>
<polygon fill="midnightblue" stroke="midnightblue" points="124.75,-26.65 132.64,-19.58 122.06,-20.19 124.75,-26.65"/>
</g>
<!-- Node3 -->
<g id="node3" class="node">
<title>Node3</title>
<g id="a_node3"><a xlink:href="group__VehicleModule.html#ga4a1f78c4260229ebd2850350d181cc86" target="_top" xlink:title="Simulates the vehicle&#39;s movement by updating its position and orientation.">
<polygon fill="white" stroke="black" points="265,-152.5 265,-171.5 353,-171.5 353,-152.5 265,-152.5"/>
<text text-anchor="middle" x="309" y="-159.5" font-family="Helvetica,sans-Serif" font-size="10.00">vehicle_model</text>
</a>
</g>
</g>
<!-- Node2&#45;&gt;Node3 -->
<g id="edge2" class="edge">
<title>Node2&#45;&gt;Node3</title>
<path fill="none" stroke="midnightblue" d="M206.32,-190.41C223.79,-185.53 245.24,-179.54 263.93,-174.32"/>
<polygon fill="midnightblue" stroke="midnightblue" points="265,-177.65 273.69,-171.59 263.12,-170.91 265,-177.65"/>
</g>
<!-- Node5&#45;&gt;Node3 -->
<g id="edge5" class="edge">
<title>Node5&#45;&gt;Node3</title>
<path fill="none" stroke="midnightblue" d="M206.32,-133.59C223.79,-138.47 245.24,-144.46 263.93,-149.68"/>
<polygon fill="midnightblue" stroke="midnightblue" points="263.12,-153.09 273.69,-152.41 265,-146.35 263.12,-153.09"/>
</g>
</g>
</svg>
