<?xml version="1.0" encoding="UTF-8" standalone="no"?>
<!DOCTYPE svg PUBLIC "-//W3C//DTD SVG 1.1//EN"
 "http://www.w3.org/Graphics/SVG/1.1/DTD/svg11.dtd">
<!-- Generated by graphviz version 2.43.0 (0)
 -->
<!-- Title: settings_task Pages: 1 -->
<svg width="253pt" height="180pt"
 viewBox="0.00 0.00 253.00 180.00" xmlns="http://www.w3.org/2000/svg" xmlns:xlink="http://www.w3.org/1999/xlink">
<g id="graph0" class="graph" transform="scale(1 1) rotate(0) translate(4 176)">
<title>settings_task</title>
<polygon fill="white" stroke="transparent" points="-4,4 -4,-176 249,-176 249,4 -4,4"/>
<!-- Node1 -->
<g id="node1" class="node">
<title>Node1</title>
<g id="a_node1"><a xlink:title=" ">
<polygon fill="#bfbfbf" stroke="black" points="0,-76.5 0,-95.5 82,-95.5 82,-76.5 0,-76.5"/>
<text text-anchor="middle" x="41" y="-83.5" font-family="Helvetica,sans-Serif" font-size="10.00">settings_task</text>
</a>
</g>
</g>
<!-- Node2 -->
<g id="node2" class="node">
<title>Node2</title>
<g id="a_node2"><a xlink:href="ptask_8h.html#a55744cf37a298cca48b46a38ecd1cbd7" target="_top" xlink:title=" ">
<polygon fill="white" stroke="black" points="136,-152.5 136,-171.5 227,-171.5 227,-152.5 136,-152.5"/>
<text text-anchor="middle" x="181.5" y="-159.5" font-family="Helvetica,sans-Serif" font-size="10.00">get_task_index</text>
</a>
</g>
</g>
<!-- Node1&#45;&gt;Node2 -->
<g id="edge1" class="edge">
<title>Node1&#45;&gt;Node2</title>
<path fill="none" stroke="midnightblue" d="M52.52,-95.8C66.49,-108.35 92.4,-130.02 118,-143 122.5,-145.28 127.32,-147.34 132.22,-149.19"/>
<polygon fill="midnightblue" stroke="midnightblue" points="131.07,-152.5 141.67,-152.49 133.38,-145.89 131.07,-152.5"/>
</g>
<!-- Node3 -->
<g id="node3" class="node">
<title>Node3</title>
<g id="a_node3"><a xlink:href="tasks_8c.html#af9fa55a7948b658713df46fd22608bfd" target="_top" xlink:title=" ">
<polygon fill="white" stroke="black" points="118,-114.5 118,-133.5 245,-133.5 245,-114.5 118,-114.5"/>
<text text-anchor="middle" x="181.5" y="-121.5" font-family="Helvetica,sans-Serif" font-size="10.00">is_mouse_over_button</text>
</a>
</g>
</g>
<!-- Node1&#45;&gt;Node3 -->
<g id="edge2" class="edge">
<title>Node1&#45;&gt;Node3</title>
<path fill="none" stroke="midnightblue" d="M76.95,-95.59C94.83,-100.49 116.79,-106.52 135.88,-111.76"/>
<polygon fill="midnightblue" stroke="midnightblue" points="134.99,-115.14 145.56,-114.41 136.84,-108.39 134.99,-115.14"/>
</g>
<!-- Node4 -->
<g id="node4" class="node">
<title>Node4</title>
<g id="a_node4"><a xlink:href="utilities_8h.html#a28b6717d007598c8d776ee5b8652be51" target="_top" xlink:title=" ">
<polygon fill="white" stroke="black" points="154,-76.5 154,-95.5 209,-95.5 209,-76.5 154,-76.5"/>
<text text-anchor="middle" x="181.5" y="-83.5" font-family="Helvetica,sans-Serif" font-size="10.00">runtime</text>
</a>
</g>
</g>
<!-- Node1&#45;&gt;Node4 -->
<g id="edge3" class="edge">
<title>Node1&#45;&gt;Node4</title>
<path fill="none" stroke="midnightblue" d="M82.06,-86C101.47,-86 124.63,-86 143.61,-86"/>
<polygon fill="midnightblue" stroke="midnightblue" points="143.67,-89.5 153.67,-86 143.67,-82.5 143.67,-89.5"/>
</g>
<!-- Node5 -->
<g id="node5" class="node">
<title>Node5</title>
<g id="a_node5"><a xlink:href="ptask_8h.html#ac5a989242ff00476f314f92395f23252" target="_top" xlink:title=" ">
<polygon fill="white" stroke="black" points="126.5,-38.5 126.5,-57.5 236.5,-57.5 236.5,-38.5 126.5,-38.5"/>
<text text-anchor="middle" x="181.5" y="-45.5" font-family="Helvetica,sans-Serif" font-size="10.00">wait_for_activation</text>
</a>
</g>
</g>
<!-- Node1&#45;&gt;Node5 -->
<g id="edge4" class="edge">
<title>Node1&#45;&gt;Node5</title>
<path fill="none" stroke="midnightblue" d="M76.95,-76.41C94.83,-71.51 116.79,-65.48 135.88,-60.24"/>
<polygon fill="midnightblue" stroke="midnightblue" points="136.84,-63.61 145.56,-57.59 134.99,-56.86 136.84,-63.61"/>
</g>
<!-- Node6 -->
<g id="node6" class="node">
<title>Node6</title>
<g id="a_node6"><a xlink:href="ptask_8h.html#afd8a4ae978d1068cb18f8e5fc03a1f0c" target="_top" xlink:title=" ">
<polygon fill="white" stroke="black" points="135.5,-0.5 135.5,-19.5 227.5,-19.5 227.5,-0.5 135.5,-0.5"/>
<text text-anchor="middle" x="181.5" y="-7.5" font-family="Helvetica,sans-Serif" font-size="10.00">wait_for_period</text>
</a>
</g>
</g>
<!-- Node1&#45;&gt;Node6 -->
<g id="edge5" class="edge">
<title>Node1&#45;&gt;Node6</title>
<path fill="none" stroke="midnightblue" d="M52.52,-76.2C66.49,-63.65 92.4,-41.98 118,-29 122.5,-26.72 127.32,-24.66 132.22,-22.81"/>
<polygon fill="midnightblue" stroke="midnightblue" points="133.38,-26.11 141.67,-19.51 131.07,-19.5 133.38,-26.11"/>
</g>
</g>
</svg>
