<?xml version="1.0" encoding="UTF-8" standalone="no"?>
<!DOCTYPE svg PUBLIC "-//W3C//DTD SVG 1.1//EN"
 "http://www.w3.org/Graphics/SVG/1.1/DTD/svg11.dtd">
<!-- Generated by graphviz version 2.43.0 (0)
 -->
<!-- Title: src/utilities.c Pages: 1 -->
<svg width="664pt" height="196pt"
 viewBox="0.00 0.00 664.00 196.00" xmlns="http://www.w3.org/2000/svg" xmlns:xlink="http://www.w3.org/1999/xlink">
<g id="graph0" class="graph" transform="scale(1 1) rotate(0) translate(4 192)">
<title>src/utilities.c</title>
<polygon fill="white" stroke="transparent" points="-4,4 -4,-192 660,-192 660,4 -4,4"/>
<!-- Node1 -->
<g id="node1" class="node">
<title>Node1</title>
<g id="a_node1"><a xlink:title="Utility functions for cone initialization, YAML cone loading, angle rotation conversion,...">
<polygon fill="#bfbfbf" stroke="black" points="229.5,-168.5 229.5,-187.5 308.5,-187.5 308.5,-168.5 229.5,-168.5"/>
<text text-anchor="middle" x="269" y="-175.5" font-family="Helvetica,sans-Serif" font-size="10.00">src/utilities.c</text>
</a>
</g>
</g>
<!-- Node2 -->
<g id="node2" class="node">
<title>Node2</title>
<g id="a_node2"><a xlink:title=" ">
<polygon fill="white" stroke="#bfbfbf" points="0,-112.5 0,-131.5 50,-131.5 50,-112.5 0,-112.5"/>
<text text-anchor="middle" x="25" y="-119.5" font-family="Helvetica,sans-Serif" font-size="10.00">stdio.h</text>
</a>
</g>
</g>
<!-- Node1&#45;&gt;Node2 -->
<g id="edge1" class="edge">
<title>Node1&#45;&gt;Node2</title>
<path fill="none" stroke="midnightblue" d="M229.67,-168.5C188.38,-159.54 121.59,-144.96 64,-132 62.74,-131.72 61.46,-131.43 60.17,-131.13"/>
<polygon fill="midnightblue" stroke="midnightblue" points="60.69,-127.66 50.17,-128.85 59.14,-134.49 60.69,-127.66"/>
</g>
<!-- Node3 -->
<g id="node3" class="node">
<title>Node3</title>
<g id="a_node3"><a xlink:title=" ">
<polygon fill="white" stroke="#bfbfbf" points="256.5,-56.5 256.5,-75.5 307.5,-75.5 307.5,-56.5 256.5,-56.5"/>
<text text-anchor="middle" x="282" y="-63.5" font-family="Helvetica,sans-Serif" font-size="10.00">math.h</text>
</a>
</g>
</g>
<!-- Node1&#45;&gt;Node3 -->
<g id="edge2" class="edge">
<title>Node1&#45;&gt;Node3</title>
<path fill="none" stroke="midnightblue" d="M229.22,-175.55C167.73,-171.84 60.31,-158.68 97,-112 115.22,-88.82 197.9,-76.09 246.34,-70.51"/>
<polygon fill="midnightblue" stroke="midnightblue" points="246.86,-73.97 256.41,-69.39 246.09,-67.01 246.86,-73.97"/>
</g>
<!-- Node4 -->
<g id="node4" class="node">
<title>Node4</title>
<g id="a_node4"><a xlink:title=" ">
<polygon fill="white" stroke="#bfbfbf" points="106.5,-112.5 106.5,-131.5 159.5,-131.5 159.5,-112.5 106.5,-112.5"/>
<text text-anchor="middle" x="133" y="-119.5" font-family="Helvetica,sans-Serif" font-size="10.00">string.h</text>
</a>
</g>
</g>
<!-- Node1&#45;&gt;Node4 -->
<g id="edge3" class="edge">
<title>Node1&#45;&gt;Node4</title>
<path fill="none" stroke="midnightblue" d="M247.45,-168.44C224.97,-159.52 189.51,-145.44 164.02,-135.32"/>
<polygon fill="midnightblue" stroke="midnightblue" points="165.03,-131.95 154.45,-131.52 162.45,-138.46 165.03,-131.95"/>
</g>
<!-- Node5 -->
<g id="node5" class="node">
<title>Node5</title>
<g id="a_node5"><a xlink:title=" ">
<polygon fill="white" stroke="#bfbfbf" points="178,-112.5 178,-131.5 226,-131.5 226,-112.5 178,-112.5"/>
<text text-anchor="middle" x="202" y="-119.5" font-family="Helvetica,sans-Serif" font-size="10.00">time.h</text>
</a>
</g>
</g>
<!-- Node1&#45;&gt;Node5 -->
<g id="edge4" class="edge">
<title>Node1&#45;&gt;Node5</title>
<path fill="none" stroke="midnightblue" d="M258.24,-168.32C248.23,-160.26 233.11,-148.08 221.07,-138.37"/>
<polygon fill="midnightblue" stroke="midnightblue" points="222.94,-135.38 212.96,-131.83 218.55,-140.83 222.94,-135.38"/>
</g>
<!-- Node6 -->
<g id="node6" class="node">
<title>Node6</title>
<g id="a_node6"><a xlink:title=" ">
<polygon fill="white" stroke="#bfbfbf" points="244,-112.5 244,-131.5 294,-131.5 294,-112.5 244,-112.5"/>
<text text-anchor="middle" x="269" y="-119.5" font-family="Helvetica,sans-Serif" font-size="10.00">yaml.h</text>
</a>
</g>
</g>
<!-- Node1&#45;&gt;Node6 -->
<g id="edge5" class="edge">
<title>Node1&#45;&gt;Node6</title>
<path fill="none" stroke="midnightblue" d="M269,-168.08C269,-161.01 269,-150.86 269,-141.99"/>
<polygon fill="midnightblue" stroke="midnightblue" points="272.5,-141.75 269,-131.75 265.5,-141.75 272.5,-141.75"/>
</g>
<!-- Node7 -->
<g id="node7" class="node">
<title>Node7</title>
<g id="a_node7"><a xlink:title=" ">
<polygon fill="white" stroke="#bfbfbf" points="312.5,-112.5 312.5,-131.5 363.5,-131.5 363.5,-112.5 312.5,-112.5"/>
<text text-anchor="middle" x="338" y="-119.5" font-family="Helvetica,sans-Serif" font-size="10.00">errno.h</text>
</a>
</g>
</g>
<!-- Node1&#45;&gt;Node7 -->
<g id="edge6" class="edge">
<title>Node1&#45;&gt;Node7</title>
<path fill="none" stroke="midnightblue" d="M280.09,-168.32C290.49,-160.18 306.26,-147.84 318.72,-138.09"/>
<polygon fill="midnightblue" stroke="midnightblue" points="320.99,-140.75 326.71,-131.83 316.68,-135.24 320.99,-140.75"/>
</g>
<!-- Node8 -->
<g id="node8" class="node">
<title>Node8</title>
<g id="a_node8"><a xlink:title=" ">
<polygon fill="white" stroke="#bfbfbf" points="381.5,-112.5 381.5,-131.5 436.5,-131.5 436.5,-112.5 381.5,-112.5"/>
<text text-anchor="middle" x="409" y="-119.5" font-family="Helvetica,sans-Serif" font-size="10.00">locale.h</text>
</a>
</g>
</g>
<!-- Node1&#45;&gt;Node8 -->
<g id="edge7" class="edge">
<title>Node1&#45;&gt;Node8</title>
<path fill="none" stroke="midnightblue" d="M291.18,-168.44C314.43,-159.48 351.15,-145.31 377.42,-135.18"/>
<polygon fill="midnightblue" stroke="midnightblue" points="378.85,-138.38 386.92,-131.52 376.33,-131.85 378.85,-138.38"/>
</g>
<!-- Node9 -->
<g id="node9" class="node">
<title>Node9</title>
<g id="a_node9"><a xlink:href="globals_8h.html" target="_top" xlink:title="Global constants, variables, and structures for the simulation and visualization system.">
<polygon fill="white" stroke="black" points="495.5,-56.5 495.5,-75.5 556.5,-75.5 556.5,-56.5 495.5,-56.5"/>
<text text-anchor="middle" x="526" y="-63.5" font-family="Helvetica,sans-Serif" font-size="10.00">globals.h</text>
</a>
</g>
</g>
<!-- Node1&#45;&gt;Node9 -->
<g id="edge8" class="edge">
<title>Node1&#45;&gt;Node9</title>
<path fill="none" stroke="midnightblue" d="M308.59,-176.47C376.72,-174.63 511.67,-166.59 541,-132 552.2,-118.8 545.2,-98.85 537.44,-84.53"/>
<polygon fill="midnightblue" stroke="midnightblue" points="540.29,-82.47 532.16,-75.68 534.28,-86.06 540.29,-82.47"/>
</g>
<!-- Node13 -->
<g id="node13" class="node">
<title>Node13</title>
<g id="a_node13"><a xlink:href="perception_8h.html" target="_top" xlink:title="Header file for perception&#45;related types, constants, and function declarations.">
<polygon fill="white" stroke="black" points="454.5,-112.5 454.5,-131.5 531.5,-131.5 531.5,-112.5 454.5,-112.5"/>
<text text-anchor="middle" x="493" y="-119.5" font-family="Helvetica,sans-Serif" font-size="10.00">perception.h</text>
</a>
</g>
</g>
<!-- Node1&#45;&gt;Node13 -->
<g id="edge12" class="edge">
<title>Node1&#45;&gt;Node13</title>
<path fill="none" stroke="midnightblue" d="M304.49,-168.44C343.32,-159.08 405.66,-144.06 447.92,-133.87"/>
<polygon fill="midnightblue" stroke="midnightblue" points="448.77,-137.26 457.67,-131.52 447.13,-130.46 448.77,-137.26"/>
</g>
<!-- Node10 -->
<g id="node10" class="node">
<title>Node10</title>
<g id="a_node10"><a xlink:title=" ">
<polygon fill="white" stroke="#bfbfbf" points="417.5,-0.5 417.5,-19.5 476.5,-19.5 476.5,-0.5 417.5,-0.5"/>
<text text-anchor="middle" x="447" y="-7.5" font-family="Helvetica,sans-Serif" font-size="10.00">allegro.h</text>
</a>
</g>
</g>
<!-- Node9&#45;&gt;Node10 -->
<g id="edge9" class="edge">
<title>Node9&#45;&gt;Node10</title>
<path fill="none" stroke="midnightblue" d="M513.31,-56.32C501.1,-47.98 482.42,-35.21 468,-25.35"/>
<polygon fill="midnightblue" stroke="midnightblue" points="469.89,-22.41 459.66,-19.65 465.94,-28.19 469.89,-22.41"/>
</g>
<!-- Node11 -->
<g id="node11" class="node">
<title>Node11</title>
<g id="a_node11"><a xlink:title=" ">
<polygon fill="white" stroke="#bfbfbf" points="494.5,-0.5 494.5,-19.5 557.5,-19.5 557.5,-0.5 494.5,-0.5"/>
<text text-anchor="middle" x="526" y="-7.5" font-family="Helvetica,sans-Serif" font-size="10.00">pthread.h</text>
</a>
</g>
</g>
<!-- Node9&#45;&gt;Node11 -->
<g id="edge10" class="edge">
<title>Node9&#45;&gt;Node11</title>
<path fill="none" stroke="midnightblue" d="M526,-56.08C526,-49.01 526,-38.86 526,-29.99"/>
<polygon fill="midnightblue" stroke="midnightblue" points="529.5,-29.75 526,-19.75 522.5,-29.75 529.5,-29.75"/>
</g>
<!-- Node12 -->
<g id="node12" class="node">
<title>Node12</title>
<g id="a_node12"><a xlink:title=" ">
<polygon fill="white" stroke="#bfbfbf" points="576,-0.5 576,-19.5 656,-19.5 656,-0.5 576,-0.5"/>
<text text-anchor="middle" x="616" y="-7.5" font-family="Helvetica,sans-Serif" font-size="10.00">semaphore.h</text>
</a>
</g>
</g>
<!-- Node9&#45;&gt;Node12 -->
<g id="edge11" class="edge">
<title>Node9&#45;&gt;Node12</title>
<path fill="none" stroke="midnightblue" d="M540.46,-56.32C554.5,-47.9 576.05,-34.97 592.54,-25.07"/>
<polygon fill="midnightblue" stroke="midnightblue" points="594.8,-27.8 601.58,-19.65 591.2,-21.8 594.8,-27.8"/>
</g>
<!-- Node13&#45;&gt;Node3 -->
<g id="edge13" class="edge">
<title>Node13&#45;&gt;Node3</title>
<path fill="none" stroke="midnightblue" d="M459.57,-112.44C420.76,-102.51 357.04,-86.21 317.41,-76.06"/>
<polygon fill="midnightblue" stroke="midnightblue" points="318.2,-72.65 307.64,-73.56 316.46,-79.43 318.2,-72.65"/>
</g>
<!-- Node13&#45;&gt;Node9 -->
<g id="edge14" class="edge">
<title>Node13&#45;&gt;Node9</title>
<path fill="none" stroke="midnightblue" d="M498.45,-112.08C503.01,-104.61 509.67,-93.72 515.29,-84.52"/>
<polygon fill="midnightblue" stroke="midnightblue" points="518.42,-86.11 520.65,-75.75 512.45,-82.46 518.42,-86.11"/>
</g>
</g>
</svg>
