<?xml version="1.0" encoding="UTF-8" standalone="no"?>
<!DOCTYPE svg PUBLIC "-//W3C//DTD SVG 1.1//EN"
 "http://www.w3.org/Graphics/SVG/1.1/DTD/svg11.dtd">
<!-- Generated by graphviz version 2.43.0 (0)
 -->
<!-- Title: angle_rotation_sprite Pages: 1 -->
<svg width="567pt" height="104pt"
 viewBox="0.00 0.00 567.00 104.00" xmlns="http://www.w3.org/2000/svg" xmlns:xlink="http://www.w3.org/1999/xlink">
<g id="graph0" class="graph" transform="scale(1 1) rotate(0) translate(4 100)">
<title>angle_rotation_sprite</title>
<polygon fill="white" stroke="transparent" points="-4,4 -4,-100 563,-100 563,4 -4,4"/>
<!-- Node1 -->
<g id="node1" class="node">
<title>Node1</title>
<g id="a_node1"><a xlink:title=" ">
<polygon fill="#bfbfbf" stroke="black" points="439,-38.5 439,-57.5 559,-57.5 559,-38.5 439,-38.5"/>
<text text-anchor="middle" x="499" y="-45.5" font-family="Helvetica,sans-Serif" font-size="10.00">angle_rotation_sprite</text>
</a>
</g>
</g>
<!-- Node2 -->
<g id="node2" class="node">
<title>Node2</title>
<g id="a_node2"><a xlink:href="display_8h.html#a01a4e859fcc5ddef923afe9a8a674826" target="_top" xlink:title="Draws a car shape on the display.">
<polygon fill="white" stroke="black" points="330,-76.5 330,-95.5 391,-95.5 391,-76.5 330,-76.5"/>
<text text-anchor="middle" x="360.5" y="-83.5" font-family="Helvetica,sans-Serif" font-size="10.00">draw_car</text>
</a>
</g>
</g>
<!-- Node1&#45;&gt;Node2 -->
<g id="edge1" class="edge">
<title>Node1&#45;&gt;Node2</title>
<path fill="none" stroke="midnightblue" d="M453.82,-60.3C433.36,-66 409.59,-72.61 391.3,-77.7"/>
<polygon fill="midnightblue" stroke="midnightblue" points="454.86,-63.64 463.56,-57.59 452.98,-56.9 454.86,-63.64"/>
</g>
<!-- Node6 -->
<g id="node6" class="node">
<title>Node6</title>
<g id="a_node6"><a xlink:href="display_8c.html#a385702fb79f2c451da015c3147f80515" target="_top" xlink:title="Draws user control indicators.">
<polygon fill="white" stroke="black" points="318,-38.5 318,-57.5 403,-57.5 403,-38.5 318,-38.5"/>
<text text-anchor="middle" x="360.5" y="-45.5" font-family="Helvetica,sans-Serif" font-size="10.00">draw_controls</text>
</a>
</g>
</g>
<!-- Node1&#45;&gt;Node6 -->
<g id="edge5" class="edge">
<title>Node1&#45;&gt;Node6</title>
<path fill="none" stroke="midnightblue" d="M428.77,-48C420.11,-48 411.46,-48 403.4,-48"/>
<polygon fill="midnightblue" stroke="midnightblue" points="428.92,-51.5 438.92,-48 428.92,-44.5 428.92,-51.5"/>
</g>
<!-- Node7 -->
<g id="node7" class="node">
<title>Node7</title>
<g id="a_node7"><a xlink:href="main_8c.html#a10da25e92e69613be93d099bb029feb2" target="_top" xlink:title=" ">
<polygon fill="white" stroke="black" points="192.5,-0.5 192.5,-19.5 280.5,-19.5 280.5,-0.5 192.5,-0.5"/>
<text text-anchor="middle" x="236.5" y="-7.5" font-family="Helvetica,sans-Serif" font-size="10.00">update_screen</text>
</a>
</g>
</g>
<!-- Node1&#45;&gt;Node7 -->
<g id="edge7" class="edge">
<title>Node1&#45;&gt;Node7</title>
<path fill="none" stroke="midnightblue" d="M444.12,-36.42C430.73,-33.76 416.37,-31.1 403,-29 361.72,-22.51 314.31,-17.3 280.84,-13.98"/>
<polygon fill="midnightblue" stroke="midnightblue" points="443.66,-39.89 454.15,-38.44 445.04,-33.03 443.66,-39.89"/>
</g>
<!-- Node3 -->
<g id="node3" class="node">
<title>Node3</title>
<g id="a_node3"><a xlink:href="display_8h.html#aa2eb9ba074b23fc3b4a91c98e0c83c8b" target="_top" xlink:title="Updates the display.">
<polygon fill="white" stroke="black" points="191,-38.5 191,-57.5 282,-57.5 282,-38.5 191,-38.5"/>
<text text-anchor="middle" x="236.5" y="-45.5" font-family="Helvetica,sans-Serif" font-size="10.00">update_display</text>
</a>
</g>
</g>
<!-- Node2&#45;&gt;Node3 -->
<g id="edge2" class="edge">
<title>Node2&#45;&gt;Node3</title>
<path fill="none" stroke="midnightblue" d="M320.34,-73.8C303.4,-68.53 283.87,-62.44 268.03,-57.51"/>
<polygon fill="midnightblue" stroke="midnightblue" points="319.38,-77.17 329.97,-76.8 321.46,-70.49 319.38,-77.17"/>
</g>
<!-- Node4 -->
<g id="node4" class="node">
<title>Node4</title>
<g id="a_node4"><a xlink:href="tasks_8h.html#a16cbac3bef85b555e76fe999965c1b7e" target="_top" xlink:title=" ">
<polygon fill="white" stroke="black" points="77,-38.5 77,-57.5 155,-57.5 155,-38.5 77,-38.5"/>
<text text-anchor="middle" x="116" y="-45.5" font-family="Helvetica,sans-Serif" font-size="10.00">display_task</text>
</a>
</g>
</g>
<!-- Node3&#45;&gt;Node4 -->
<g id="edge3" class="edge">
<title>Node3&#45;&gt;Node4</title>
<path fill="none" stroke="midnightblue" d="M180.43,-48C171.93,-48 163.31,-48 155.28,-48"/>
<polygon fill="midnightblue" stroke="midnightblue" points="180.7,-51.5 190.7,-48 180.7,-44.5 180.7,-51.5"/>
</g>
<!-- Node5 -->
<g id="node5" class="node">
<title>Node5</title>
<g id="a_node5"><a xlink:href="main_8c.html#a840291bc02cba5474a4cb46a9b9566fe" target="_top" xlink:title=" ">
<polygon fill="white" stroke="black" points="0,-19.5 0,-38.5 41,-38.5 41,-19.5 0,-19.5"/>
<text text-anchor="middle" x="20.5" y="-26.5" font-family="Helvetica,sans-Serif" font-size="10.00">main</text>
</a>
</g>
</g>
<!-- Node4&#45;&gt;Node5 -->
<g id="edge4" class="edge">
<title>Node4&#45;&gt;Node5</title>
<path fill="none" stroke="midnightblue" d="M67.03,-38.25C57.83,-36.38 48.69,-34.53 41.04,-32.97"/>
<polygon fill="midnightblue" stroke="midnightblue" points="66.47,-41.71 76.97,-40.27 67.87,-34.85 66.47,-41.71"/>
</g>
<!-- Node6&#45;&gt;Node3 -->
<g id="edge6" class="edge">
<title>Node6&#45;&gt;Node3</title>
<path fill="none" stroke="midnightblue" d="M307.71,-48C299.26,-48 290.56,-48 282.29,-48"/>
<polygon fill="midnightblue" stroke="midnightblue" points="307.86,-51.5 317.86,-48 307.86,-44.5 307.86,-51.5"/>
</g>
<!-- Node7&#45;&gt;Node5 -->
<g id="edge8" class="edge">
<title>Node7&#45;&gt;Node5</title>
<path fill="none" stroke="midnightblue" d="M182.37,-14.72C136.49,-18.79 72.73,-24.45 41.02,-27.27"/>
<polygon fill="midnightblue" stroke="midnightblue" points="182.8,-18.19 192.45,-13.82 182.18,-11.22 182.8,-18.19"/>
</g>
</g>
</svg>
