<?xml version="1.0" encoding="UTF-8" standalone="no"?>
<!DOCTYPE svg PUBLIC "-//W3C//DTD SVG 1.1//EN"
 "http://www.w3.org/Graphics/SVG/1.1/DTD/svg11.dtd">
<!-- Generated by graphviz version 2.43.0 (0)
 -->
<!-- Title: include/utilities.h Pages: 1 -->
<svg width="254pt" height="140pt"
 viewBox="0.00 0.00 253.50 140.00" xmlns="http://www.w3.org/2000/svg" xmlns:xlink="http://www.w3.org/1999/xlink">
<g id="graph0" class="graph" transform="scale(1 1) rotate(0) translate(4 136)">
<title>include/utilities.h</title>
<polygon fill="white" stroke="transparent" points="-4,4 -4,-136 249.5,-136 249.5,4 -4,4"/>
<!-- Node1 -->
<g id="node1" class="node">
<title>Node1</title>
<g id="a_node1"><a xlink:title="Utility function prototypes for cone management and runtime tasks.">
<polygon fill="#bfbfbf" stroke="black" points="56,-112.5 56,-131.5 157,-131.5 157,-112.5 56,-112.5"/>
<text text-anchor="middle" x="106.5" y="-119.5" font-family="Helvetica,sans-Serif" font-size="10.00">include/utilities.h</text>
</a>
</g>
</g>
<!-- Node2 -->
<g id="node2" class="node">
<title>Node2</title>
<g id="a_node2"><a xlink:href="tasks_8h.html" target="_top" xlink:title="Declaration of task thread functions for the simulation.">
<polygon fill="white" stroke="black" points="61.5,-56.5 61.5,-75.5 151.5,-75.5 151.5,-56.5 61.5,-56.5"/>
<text text-anchor="middle" x="106.5" y="-63.5" font-family="Helvetica,sans-Serif" font-size="10.00">include/tasks.h</text>
</a>
</g>
</g>
<!-- Node1&#45;&gt;Node2 -->
<g id="edge1" class="edge">
<title>Node1&#45;&gt;Node2</title>
<path fill="none" stroke="midnightblue" d="M106.5,-101.8C106.5,-92.91 106.5,-82.78 106.5,-75.75"/>
<polygon fill="midnightblue" stroke="midnightblue" points="103,-102.08 106.5,-112.08 110,-102.08 103,-102.08"/>
</g>
<!-- Node3 -->
<g id="node3" class="node">
<title>Node3</title>
<g id="a_node3"><a xlink:href="main_8c.html" target="_top" xlink:title="Main implementation of the 2D FSAE Simulation.">
<polygon fill="white" stroke="black" points="0,-0.5 0,-19.5 67,-19.5 67,-0.5 0,-0.5"/>
<text text-anchor="middle" x="33.5" y="-7.5" font-family="Helvetica,sans-Serif" font-size="10.00">src/main.c</text>
</a>
</g>
</g>
<!-- Node1&#45;&gt;Node3 -->
<g id="edge5" class="edge">
<title>Node1&#45;&gt;Node3</title>
<path fill="none" stroke="midnightblue" d="M83.75,-106.75C72.88,-98.89 60.52,-88.24 52.5,-76 40.77,-58.1 36.12,-32.8 34.4,-19.67"/>
<polygon fill="midnightblue" stroke="midnightblue" points="81.81,-109.67 92.04,-112.44 85.77,-103.89 81.81,-109.67"/>
</g>
<!-- Node5 -->
<g id="node5" class="node">
<title>Node5</title>
<g id="a_node5"><a xlink:href="display_8c.html" target="_top" xlink:title="Rendering and display update functions for the 2D simulation using Allegro.">
<polygon fill="white" stroke="black" points="169.5,-56.5 169.5,-75.5 245.5,-75.5 245.5,-56.5 169.5,-56.5"/>
<text text-anchor="middle" x="207.5" y="-63.5" font-family="Helvetica,sans-Serif" font-size="10.00">src/display.c</text>
</a>
</g>
</g>
<!-- Node1&#45;&gt;Node5 -->
<g id="edge4" class="edge">
<title>Node1&#45;&gt;Node5</title>
<path fill="none" stroke="midnightblue" d="M131.58,-107.59C150.26,-97.61 175.2,-84.27 191.31,-75.65"/>
<polygon fill="midnightblue" stroke="midnightblue" points="129.9,-104.52 122.73,-112.32 133.2,-110.7 129.9,-104.52"/>
</g>
<!-- Node2&#45;&gt;Node3 -->
<g id="edge2" class="edge">
<title>Node2&#45;&gt;Node3</title>
<path fill="none" stroke="midnightblue" d="M86.36,-50.1C73.22,-40.38 56.52,-28.03 45.44,-19.83"/>
<polygon fill="midnightblue" stroke="midnightblue" points="84.65,-53.19 94.77,-56.32 88.81,-47.56 84.65,-53.19"/>
</g>
<!-- Node4 -->
<g id="node4" class="node">
<title>Node4</title>
<g id="a_node4"><a xlink:href="tasks_8c.html" target="_top" xlink:title="Contains periodic task functions for LiDAR perception, trajectory planning, vehicle control,...">
<polygon fill="white" stroke="black" points="85.5,-0.5 85.5,-19.5 153.5,-19.5 153.5,-0.5 85.5,-0.5"/>
<text text-anchor="middle" x="119.5" y="-7.5" font-family="Helvetica,sans-Serif" font-size="10.00">src/tasks.c</text>
</a>
</g>
</g>
<!-- Node2&#45;&gt;Node4 -->
<g id="edge3" class="edge">
<title>Node2&#45;&gt;Node4</title>
<path fill="none" stroke="midnightblue" d="M111.05,-46.1C113.21,-37.14 115.68,-26.86 117.39,-19.75"/>
<polygon fill="midnightblue" stroke="midnightblue" points="107.58,-45.54 108.65,-56.08 114.39,-47.18 107.58,-45.54"/>
</g>
</g>
</svg>
