<?xml version="1.0" encoding="UTF-8" standalone="no"?>
<!DOCTYPE svg PUBLIC "-//W3C//DTD SVG 1.1//EN"
 "http://www.w3.org/Graphics/SVG/1.1/DTD/svg11.dtd">
<!-- Generated by graphviz version 2.43.0 (0)
 -->
<!-- Title: src/utilities.c Pages: 1 -->
<svg width="522pt" height="196pt"
 viewBox="0.00 0.00 522.00 196.00" xmlns="http://www.w3.org/2000/svg" xmlns:xlink="http://www.w3.org/1999/xlink">
<g id="graph0" class="graph" transform="scale(1 1) rotate(0) translate(4 192)">
<title>src/utilities.c</title>
<polygon fill="white" stroke="transparent" points="-4,4 -4,-192 518,-192 518,4 -4,4"/>
<!-- Node1 -->
<g id="node1" class="node">
<title>Node1</title>
<g id="a_node1"><a xlink:title="Utility functions for cone initialization, YAML cone loading, angle rotation conversion,...">
<polygon fill="#bfbfbf" stroke="black" points="162.5,-168.5 162.5,-187.5 241.5,-187.5 241.5,-168.5 162.5,-168.5"/>
<text text-anchor="middle" x="202" y="-175.5" font-family="Helvetica,sans-Serif" font-size="10.00">src/utilities.c</text>
</a>
</g>
</g>
<!-- Node2 -->
<g id="node2" class="node">
<title>Node2</title>
<g id="a_node2"><a xlink:title=" ">
<polygon fill="white" stroke="#bfbfbf" points="0,-112.5 0,-131.5 50,-131.5 50,-112.5 0,-112.5"/>
<text text-anchor="middle" x="25" y="-119.5" font-family="Helvetica,sans-Serif" font-size="10.00">stdio.h</text>
</a>
</g>
</g>
<!-- Node1&#45;&gt;Node2 -->
<g id="edge1" class="edge">
<title>Node1&#45;&gt;Node2</title>
<path fill="none" stroke="midnightblue" d="M173.95,-168.44C143.03,-159.01 93.26,-143.82 59.85,-133.63"/>
<polygon fill="midnightblue" stroke="midnightblue" points="60.64,-130.21 50.05,-130.64 58.6,-136.91 60.64,-130.21"/>
</g>
<!-- Node3 -->
<g id="node3" class="node">
<title>Node3</title>
<g id="a_node3"><a xlink:title=" ">
<polygon fill="white" stroke="#bfbfbf" points="185.5,-56.5 185.5,-75.5 236.5,-75.5 236.5,-56.5 185.5,-56.5"/>
<text text-anchor="middle" x="211" y="-63.5" font-family="Helvetica,sans-Serif" font-size="10.00">math.h</text>
</a>
</g>
</g>
<!-- Node1&#45;&gt;Node3 -->
<g id="edge2" class="edge">
<title>Node1&#45;&gt;Node3</title>
<path fill="none" stroke="midnightblue" d="M162.37,-168.85C124.99,-159.23 77.4,-140.8 97,-112 114.33,-86.53 148.52,-75.48 174.96,-70.68"/>
<polygon fill="midnightblue" stroke="midnightblue" points="175.69,-74.11 185.02,-69.08 174.59,-67.19 175.69,-74.11"/>
</g>
<!-- Node4 -->
<g id="node4" class="node">
<title>Node4</title>
<g id="a_node4"><a xlink:title=" ">
<polygon fill="white" stroke="#bfbfbf" points="106.5,-112.5 106.5,-131.5 159.5,-131.5 159.5,-112.5 106.5,-112.5"/>
<text text-anchor="middle" x="133" y="-119.5" font-family="Helvetica,sans-Serif" font-size="10.00">string.h</text>
</a>
</g>
</g>
<!-- Node1&#45;&gt;Node4 -->
<g id="edge3" class="edge">
<title>Node1&#45;&gt;Node4</title>
<path fill="none" stroke="midnightblue" d="M190.91,-168.32C180.51,-160.18 164.74,-147.84 152.28,-138.09"/>
<polygon fill="midnightblue" stroke="midnightblue" points="154.32,-135.24 144.29,-131.83 150.01,-140.75 154.32,-135.24"/>
</g>
<!-- Node5 -->
<g id="node5" class="node">
<title>Node5</title>
<g id="a_node5"><a xlink:title=" ">
<polygon fill="white" stroke="#bfbfbf" points="178,-112.5 178,-131.5 226,-131.5 226,-112.5 178,-112.5"/>
<text text-anchor="middle" x="202" y="-119.5" font-family="Helvetica,sans-Serif" font-size="10.00">time.h</text>
</a>
</g>
</g>
<!-- Node1&#45;&gt;Node5 -->
<g id="edge4" class="edge">
<title>Node1&#45;&gt;Node5</title>
<path fill="none" stroke="midnightblue" d="M202,-168.08C202,-161.01 202,-150.86 202,-141.99"/>
<polygon fill="midnightblue" stroke="midnightblue" points="205.5,-141.75 202,-131.75 198.5,-141.75 205.5,-141.75"/>
</g>
<!-- Node6 -->
<g id="node6" class="node">
<title>Node6</title>
<g id="a_node6"><a xlink:title=" ">
<polygon fill="white" stroke="#bfbfbf" points="244,-112.5 244,-131.5 294,-131.5 294,-112.5 244,-112.5"/>
<text text-anchor="middle" x="269" y="-119.5" font-family="Helvetica,sans-Serif" font-size="10.00">yaml.h</text>
</a>
</g>
</g>
<!-- Node1&#45;&gt;Node6 -->
<g id="edge5" class="edge">
<title>Node1&#45;&gt;Node6</title>
<path fill="none" stroke="midnightblue" d="M212.76,-168.32C222.77,-160.26 237.89,-148.08 249.93,-138.37"/>
<polygon fill="midnightblue" stroke="midnightblue" points="252.45,-140.83 258.04,-131.83 248.06,-135.38 252.45,-140.83"/>
</g>
<!-- Node7 -->
<g id="node7" class="node">
<title>Node7</title>
<g id="a_node7"><a xlink:href="globals_8h.html" target="_top" xlink:title="Global constants, variables, and structures for the simulation and visualization system.">
<polygon fill="white" stroke="black" points="353.5,-56.5 353.5,-75.5 414.5,-75.5 414.5,-56.5 353.5,-56.5"/>
<text text-anchor="middle" x="384" y="-63.5" font-family="Helvetica,sans-Serif" font-size="10.00">globals.h</text>
</a>
</g>
</g>
<!-- Node1&#45;&gt;Node7 -->
<g id="edge6" class="edge">
<title>Node1&#45;&gt;Node7</title>
<path fill="none" stroke="midnightblue" d="M241.61,-173.68C293.37,-168.43 379.7,-156.21 399,-132 409.79,-118.46 402.87,-98.57 395.23,-84.36"/>
<polygon fill="midnightblue" stroke="midnightblue" points="398.14,-82.41 390.04,-75.58 392.12,-85.97 398.14,-82.41"/>
</g>
<!-- Node11 -->
<g id="node11" class="node">
<title>Node11</title>
<g id="a_node11"><a xlink:href="perception_8h.html" target="_top" xlink:title="Header file for perception&#45;related types, constants, and function declarations.">
<polygon fill="white" stroke="black" points="312.5,-112.5 312.5,-131.5 389.5,-131.5 389.5,-112.5 312.5,-112.5"/>
<text text-anchor="middle" x="351" y="-119.5" font-family="Helvetica,sans-Serif" font-size="10.00">perception.h</text>
</a>
</g>
</g>
<!-- Node1&#45;&gt;Node11 -->
<g id="edge10" class="edge">
<title>Node1&#45;&gt;Node11</title>
<path fill="none" stroke="midnightblue" d="M225.61,-168.44C250.46,-159.44 289.77,-145.19 317.75,-135.05"/>
<polygon fill="midnightblue" stroke="midnightblue" points="319.29,-138.21 327.5,-131.52 316.91,-131.63 319.29,-138.21"/>
</g>
<!-- Node8 -->
<g id="node8" class="node">
<title>Node8</title>
<g id="a_node8"><a xlink:title=" ">
<polygon fill="white" stroke="#bfbfbf" points="275.5,-0.5 275.5,-19.5 334.5,-19.5 334.5,-0.5 275.5,-0.5"/>
<text text-anchor="middle" x="305" y="-7.5" font-family="Helvetica,sans-Serif" font-size="10.00">allegro.h</text>
</a>
</g>
</g>
<!-- Node7&#45;&gt;Node8 -->
<g id="edge7" class="edge">
<title>Node7&#45;&gt;Node8</title>
<path fill="none" stroke="midnightblue" d="M371.31,-56.32C359.1,-47.98 340.42,-35.21 326,-25.35"/>
<polygon fill="midnightblue" stroke="midnightblue" points="327.89,-22.41 317.66,-19.65 323.94,-28.19 327.89,-22.41"/>
</g>
<!-- Node9 -->
<g id="node9" class="node">
<title>Node9</title>
<g id="a_node9"><a xlink:title=" ">
<polygon fill="white" stroke="#bfbfbf" points="352.5,-0.5 352.5,-19.5 415.5,-19.5 415.5,-0.5 352.5,-0.5"/>
<text text-anchor="middle" x="384" y="-7.5" font-family="Helvetica,sans-Serif" font-size="10.00">pthread.h</text>
</a>
</g>
</g>
<!-- Node7&#45;&gt;Node9 -->
<g id="edge8" class="edge">
<title>Node7&#45;&gt;Node9</title>
<path fill="none" stroke="midnightblue" d="M384,-56.08C384,-49.01 384,-38.86 384,-29.99"/>
<polygon fill="midnightblue" stroke="midnightblue" points="387.5,-29.75 384,-19.75 380.5,-29.75 387.5,-29.75"/>
</g>
<!-- Node10 -->
<g id="node10" class="node">
<title>Node10</title>
<g id="a_node10"><a xlink:title=" ">
<polygon fill="white" stroke="#bfbfbf" points="434,-0.5 434,-19.5 514,-19.5 514,-0.5 434,-0.5"/>
<text text-anchor="middle" x="474" y="-7.5" font-family="Helvetica,sans-Serif" font-size="10.00">semaphore.h</text>
</a>
</g>
</g>
<!-- Node7&#45;&gt;Node10 -->
<g id="edge9" class="edge">
<title>Node7&#45;&gt;Node10</title>
<path fill="none" stroke="midnightblue" d="M398.46,-56.32C412.5,-47.9 434.05,-34.97 450.54,-25.07"/>
<polygon fill="midnightblue" stroke="midnightblue" points="452.8,-27.8 459.58,-19.65 449.2,-21.8 452.8,-27.8"/>
</g>
<!-- Node11&#45;&gt;Node3 -->
<g id="edge11" class="edge">
<title>Node11&#45;&gt;Node3</title>
<path fill="none" stroke="midnightblue" d="M328.82,-112.44C305.57,-103.48 268.85,-89.31 242.58,-79.18"/>
<polygon fill="midnightblue" stroke="midnightblue" points="243.67,-75.85 233.08,-75.52 241.15,-82.38 243.67,-75.85"/>
</g>
<!-- Node11&#45;&gt;Node7 -->
<g id="edge12" class="edge">
<title>Node11&#45;&gt;Node7</title>
<path fill="none" stroke="midnightblue" d="M356.45,-112.08C361.01,-104.61 367.67,-93.72 373.29,-84.52"/>
<polygon fill="midnightblue" stroke="midnightblue" points="376.42,-86.11 378.65,-75.75 370.45,-82.46 376.42,-86.11"/>
</g>
</g>
</svg>
