<?xml version="1.0" encoding="UTF-8" standalone="no"?>
<!DOCTYPE svg PUBLIC "-//W3C//DTD SVG 1.1//EN"
 "http://www.w3.org/Graphics/SVG/1.1/DTD/svg11.dtd">
<!-- Generated by graphviz version 2.43.0 (0)
 -->
<!-- Title: angle_rotation_sprite Pages: 1 -->
<svg width="567pt" height="66pt"
 viewBox="0.00 0.00 567.00 66.00" xmlns="http://www.w3.org/2000/svg" xmlns:xlink="http://www.w3.org/1999/xlink">
<g id="graph0" class="graph" transform="scale(1 1) rotate(0) translate(4 62)">
<title>angle_rotation_sprite</title>
<polygon fill="white" stroke="transparent" points="-4,4 -4,-62 563,-62 563,4 -4,4"/>
<!-- Node1 -->
<g id="node1" class="node">
<title>Node1</title>
<g id="a_node1"><a xlink:title=" ">
<polygon fill="#bfbfbf" stroke="black" points="439,-19.5 439,-38.5 559,-38.5 559,-19.5 439,-19.5"/>
<text text-anchor="middle" x="499" y="-26.5" font-family="Helvetica,sans-Serif" font-size="10.00">angle_rotation_sprite</text>
</a>
</g>
</g>
<!-- Node2 -->
<g id="node2" class="node">
<title>Node2</title>
<g id="a_node2"><a xlink:href="display_8h.html#a01a4e859fcc5ddef923afe9a8a674826" target="_top" xlink:title="Draws a car shape on the display.">
<polygon fill="white" stroke="black" points="330,-38.5 330,-57.5 391,-57.5 391,-38.5 330,-38.5"/>
<text text-anchor="middle" x="360.5" y="-45.5" font-family="Helvetica,sans-Serif" font-size="10.00">draw_car</text>
</a>
</g>
</g>
<!-- Node1&#45;&gt;Node2 -->
<g id="edge1" class="edge">
<title>Node1&#45;&gt;Node2</title>
<path fill="none" stroke="midnightblue" d="M428.77,-38.64C415.45,-40.49 402.19,-42.34 391.01,-43.89"/>
<polygon fill="midnightblue" stroke="midnightblue" points="429.5,-42.07 438.92,-37.22 428.54,-35.14 429.5,-42.07"/>
</g>
<!-- Node6 -->
<g id="node6" class="node">
<title>Node6</title>
<g id="a_node6"><a xlink:href="display_8c.html#a385702fb79f2c451da015c3147f80515" target="_top" xlink:title="Draws user control indicators.">
<polygon fill="white" stroke="black" points="318,-0.5 318,-19.5 403,-19.5 403,-0.5 318,-0.5"/>
<text text-anchor="middle" x="360.5" y="-7.5" font-family="Helvetica,sans-Serif" font-size="10.00">draw_controls</text>
</a>
</g>
</g>
<!-- Node1&#45;&gt;Node6 -->
<g id="edge6" class="edge">
<title>Node1&#45;&gt;Node6</title>
<path fill="none" stroke="midnightblue" d="M428.77,-19.36C420.11,-18.16 411.46,-16.95 403.4,-15.83"/>
<polygon fill="midnightblue" stroke="midnightblue" points="428.54,-22.86 438.92,-20.78 429.5,-15.93 428.54,-22.86"/>
</g>
<!-- Node3 -->
<g id="node3" class="node">
<title>Node3</title>
<g id="a_node3"><a xlink:href="display_8h.html#aa2eb9ba074b23fc3b4a91c98e0c83c8b" target="_top" xlink:title="Updates the display.">
<polygon fill="white" stroke="black" points="191,-19.5 191,-38.5 282,-38.5 282,-19.5 191,-19.5"/>
<text text-anchor="middle" x="236.5" y="-26.5" font-family="Helvetica,sans-Serif" font-size="10.00">update_display</text>
</a>
</g>
</g>
<!-- Node2&#45;&gt;Node3 -->
<g id="edge2" class="edge">
<title>Node2&#45;&gt;Node3</title>
<path fill="none" stroke="midnightblue" d="M319.75,-41.81C307.69,-39.93 294.36,-37.86 282.01,-35.93"/>
<polygon fill="midnightblue" stroke="midnightblue" points="319.55,-45.32 329.97,-43.4 320.62,-38.4 319.55,-45.32"/>
</g>
<!-- Node4 -->
<g id="node4" class="node">
<title>Node4</title>
<g id="a_node4"><a xlink:href="tasks_8h.html#a16cbac3bef85b555e76fe999965c1b7e" target="_top" xlink:title=" ">
<polygon fill="white" stroke="black" points="77,-38.5 77,-57.5 155,-57.5 155,-38.5 77,-38.5"/>
<text text-anchor="middle" x="116" y="-45.5" font-family="Helvetica,sans-Serif" font-size="10.00">display_task</text>
</a>
</g>
</g>
<!-- Node3&#45;&gt;Node4 -->
<g id="edge3" class="edge">
<title>Node3&#45;&gt;Node4</title>
<path fill="none" stroke="midnightblue" d="M180.71,-37.78C172.12,-39.16 163.39,-40.56 155.28,-41.86"/>
<polygon fill="midnightblue" stroke="midnightblue" points="181.38,-41.22 190.7,-36.18 180.27,-34.31 181.38,-41.22"/>
</g>
<!-- Node5 -->
<g id="node5" class="node">
<title>Node5</title>
<g id="a_node5"><a xlink:href="main_8c.html#a840291bc02cba5474a4cb46a9b9566fe" target="_top" xlink:title=" ">
<polygon fill="white" stroke="black" points="0,-19.5 0,-38.5 41,-38.5 41,-19.5 0,-19.5"/>
<text text-anchor="middle" x="20.5" y="-26.5" font-family="Helvetica,sans-Serif" font-size="10.00">main</text>
</a>
</g>
</g>
<!-- Node3&#45;&gt;Node5 -->
<g id="edge5" class="edge">
<title>Node3&#45;&gt;Node5</title>
<path fill="none" stroke="midnightblue" d="M180.85,-29C135.21,-29 72.7,-29 41.26,-29"/>
<polygon fill="midnightblue" stroke="midnightblue" points="180.9,-32.5 190.9,-29 180.9,-25.5 180.9,-32.5"/>
</g>
<!-- Node4&#45;&gt;Node5 -->
<g id="edge4" class="edge">
<title>Node4&#45;&gt;Node5</title>
<path fill="none" stroke="midnightblue" d="M67.03,-38.25C57.83,-36.38 48.69,-34.53 41.04,-32.97"/>
<polygon fill="midnightblue" stroke="midnightblue" points="66.47,-41.71 76.97,-40.27 67.87,-34.85 66.47,-41.71"/>
</g>
<!-- Node6&#45;&gt;Node3 -->
<g id="edge7" class="edge">
<title>Node6&#45;&gt;Node3</title>
<path fill="none" stroke="midnightblue" d="M307.71,-18.07C299.26,-19.38 290.56,-20.74 282.29,-22.02"/>
<polygon fill="midnightblue" stroke="midnightblue" points="308.51,-21.48 317.86,-16.49 307.44,-14.57 308.51,-21.48"/>
</g>
</g>
</svg>
