<?xml version="1.0" encoding="UTF-8" standalone="no"?>
<!DOCTYPE svg PUBLIC "-//W3C//DTD SVG 1.1//EN"
 "http://www.w3.org/Graphics/SVG/1.1/DTD/svg11.dtd">
<!-- Generated by graphviz version 2.43.0 (0)
 -->
<!-- Title: src/vehicle.c Pages: 1 -->
<svg width="386pt" height="140pt"
 viewBox="0.00 0.00 385.50 140.00" xmlns="http://www.w3.org/2000/svg" xmlns:xlink="http://www.w3.org/1999/xlink">
<g id="graph0" class="graph" transform="scale(1 1) rotate(0) translate(4 136)">
<title>src/vehicle.c</title>
<polygon fill="white" stroke="transparent" points="-4,4 -4,-136 381.5,-136 381.5,4 -4,4"/>
<!-- Node1 -->
<g id="node1" class="node">
<title>Node1</title>
<g id="a_node1"><a xlink:title=" ">
<polygon fill="#bfbfbf" stroke="black" points="93,-112.5 93,-131.5 170,-131.5 170,-112.5 93,-112.5"/>
<text text-anchor="middle" x="131.5" y="-119.5" font-family="Helvetica,sans-Serif" font-size="10.00">src/vehicle.c</text>
</a>
</g>
</g>
<!-- Node2 -->
<g id="node2" class="node">
<title>Node2</title>
<g id="a_node2"><a xlink:title=" ">
<polygon fill="white" stroke="#bfbfbf" points="0,-56.5 0,-75.5 51,-75.5 51,-56.5 0,-56.5"/>
<text text-anchor="middle" x="25.5" y="-63.5" font-family="Helvetica,sans-Serif" font-size="10.00">math.h</text>
</a>
</g>
</g>
<!-- Node1&#45;&gt;Node2 -->
<g id="edge1" class="edge">
<title>Node1&#45;&gt;Node2</title>
<path fill="none" stroke="midnightblue" d="M114.47,-112.32C97.47,-103.66 71.12,-90.24 51.51,-80.25"/>
<polygon fill="midnightblue" stroke="midnightblue" points="52.99,-77.08 42.49,-75.65 49.81,-83.31 52.99,-77.08"/>
</g>
<!-- Node3 -->
<g id="node3" class="node">
<title>Node3</title>
<g id="a_node3"><a xlink:title=" ">
<polygon fill="white" stroke="#bfbfbf" points="69.5,-56.5 69.5,-75.5 119.5,-75.5 119.5,-56.5 69.5,-56.5"/>
<text text-anchor="middle" x="94.5" y="-63.5" font-family="Helvetica,sans-Serif" font-size="10.00">stdio.h</text>
</a>
</g>
</g>
<!-- Node1&#45;&gt;Node3 -->
<g id="edge2" class="edge">
<title>Node1&#45;&gt;Node3</title>
<path fill="none" stroke="midnightblue" d="M125.39,-112.08C120.22,-104.53 112.65,-93.49 106.31,-84.23"/>
<polygon fill="midnightblue" stroke="midnightblue" points="109.04,-82.02 100.5,-75.75 103.26,-85.98 109.04,-82.02"/>
</g>
<!-- Node4 -->
<g id="node4" class="node">
<title>Node4</title>
<g id="a_node4"><a xlink:href="vehicle_8h.html" target="_top" xlink:title=" ">
<polygon fill="white" stroke="black" points="138,-56.5 138,-75.5 199,-75.5 199,-56.5 138,-56.5"/>
<text text-anchor="middle" x="168.5" y="-63.5" font-family="Helvetica,sans-Serif" font-size="10.00">vehicle.h</text>
</a>
</g>
</g>
<!-- Node1&#45;&gt;Node4 -->
<g id="edge3" class="edge">
<title>Node1&#45;&gt;Node4</title>
<path fill="none" stroke="midnightblue" d="M137.61,-112.08C142.78,-104.53 150.35,-93.49 156.69,-84.23"/>
<polygon fill="midnightblue" stroke="midnightblue" points="159.74,-85.98 162.5,-75.75 153.96,-82.02 159.74,-85.98"/>
</g>
<!-- Node5 -->
<g id="node5" class="node">
<title>Node5</title>
<g id="a_node5"><a xlink:href="globals_8h.html" target="_top" xlink:title="Global constants, variables, and structures for the simulation and visualization system.">
<polygon fill="white" stroke="black" points="217,-56.5 217,-75.5 278,-75.5 278,-56.5 217,-56.5"/>
<text text-anchor="middle" x="247.5" y="-63.5" font-family="Helvetica,sans-Serif" font-size="10.00">globals.h</text>
</a>
</g>
</g>
<!-- Node1&#45;&gt;Node5 -->
<g id="edge4" class="edge">
<title>Node1&#45;&gt;Node5</title>
<path fill="none" stroke="midnightblue" d="M149.88,-112.44C168.72,-103.68 198.23,-89.94 219.88,-79.86"/>
<polygon fill="midnightblue" stroke="midnightblue" points="221.62,-82.91 229.21,-75.52 218.66,-76.56 221.62,-82.91"/>
</g>
<!-- Node6 -->
<g id="node6" class="node">
<title>Node6</title>
<g id="a_node6"><a xlink:title=" ">
<polygon fill="white" stroke="#bfbfbf" points="139,-0.5 139,-19.5 198,-19.5 198,-0.5 139,-0.5"/>
<text text-anchor="middle" x="168.5" y="-7.5" font-family="Helvetica,sans-Serif" font-size="10.00">allegro.h</text>
</a>
</g>
</g>
<!-- Node5&#45;&gt;Node6 -->
<g id="edge5" class="edge">
<title>Node5&#45;&gt;Node6</title>
<path fill="none" stroke="midnightblue" d="M234.81,-56.32C222.6,-47.98 203.92,-35.21 189.5,-25.35"/>
<polygon fill="midnightblue" stroke="midnightblue" points="191.39,-22.41 181.16,-19.65 187.44,-28.19 191.39,-22.41"/>
</g>
<!-- Node7 -->
<g id="node7" class="node">
<title>Node7</title>
<g id="a_node7"><a xlink:title=" ">
<polygon fill="white" stroke="#bfbfbf" points="216,-0.5 216,-19.5 279,-19.5 279,-0.5 216,-0.5"/>
<text text-anchor="middle" x="247.5" y="-7.5" font-family="Helvetica,sans-Serif" font-size="10.00">pthread.h</text>
</a>
</g>
</g>
<!-- Node5&#45;&gt;Node7 -->
<g id="edge6" class="edge">
<title>Node5&#45;&gt;Node7</title>
<path fill="none" stroke="midnightblue" d="M247.5,-56.08C247.5,-49.01 247.5,-38.86 247.5,-29.99"/>
<polygon fill="midnightblue" stroke="midnightblue" points="251,-29.75 247.5,-19.75 244,-29.75 251,-29.75"/>
</g>
<!-- Node8 -->
<g id="node8" class="node">
<title>Node8</title>
<g id="a_node8"><a xlink:title=" ">
<polygon fill="white" stroke="#bfbfbf" points="297.5,-0.5 297.5,-19.5 377.5,-19.5 377.5,-0.5 297.5,-0.5"/>
<text text-anchor="middle" x="337.5" y="-7.5" font-family="Helvetica,sans-Serif" font-size="10.00">semaphore.h</text>
</a>
</g>
</g>
<!-- Node5&#45;&gt;Node8 -->
<g id="edge7" class="edge">
<title>Node5&#45;&gt;Node8</title>
<path fill="none" stroke="midnightblue" d="M261.96,-56.32C276,-47.9 297.55,-34.97 314.04,-25.07"/>
<polygon fill="midnightblue" stroke="midnightblue" points="316.3,-27.8 323.08,-19.65 312.7,-21.8 316.3,-27.8"/>
</g>
</g>
</svg>
