<?xml version="1.0" encoding="UTF-8" standalone="no"?>
<!DOCTYPE svg PUBLIC "-//W3C//DTD SVG 1.1//EN"
 "http://www.w3.org/Graphics/SVG/1.1/DTD/svg11.dtd">
<!-- Generated by graphviz version 2.43.0 (0)
 -->
<!-- Title: vehicle_model Pages: 1 -->
<svg width="438pt" height="66pt"
 viewBox="0.00 0.00 438.00 66.00" xmlns="http://www.w3.org/2000/svg" xmlns:xlink="http://www.w3.org/1999/xlink">
<g id="graph0" class="graph" transform="scale(1 1) rotate(0) translate(4 62)">
<title>vehicle_model</title>
<polygon fill="white" stroke="transparent" points="-4,4 -4,-62 434,-62 434,4 -4,4"/>
<!-- Node1 -->
<g id="node1" class="node">
<title>Node1</title>
<g id="a_node1"><a xlink:title="Simulates the vehicle&#39;s movement by updating its position and orientation.">
<polygon fill="#bfbfbf" stroke="black" points="342,-19.5 342,-38.5 430,-38.5 430,-19.5 342,-19.5"/>
<text text-anchor="middle" x="386" y="-26.5" font-family="Helvetica,sans-Serif" font-size="10.00">vehicle_model</text>
</a>
</g>
</g>
<!-- Node2 -->
<g id="node2" class="node">
<title>Node2</title>
<g id="a_node2"><a xlink:href="control_8h.html#ae3c1be6c75e99edd3ab89b0d2f6c4b0d" target="_top" xlink:title="Autonomous control routine using centerline waypoints.">
<polygon fill="white" stroke="black" points="190,-38.5 190,-57.5 306,-57.5 306,-38.5 190,-38.5"/>
<text text-anchor="middle" x="248" y="-45.5" font-family="Helvetica,sans-Serif" font-size="10.00">autonomous_control</text>
</a>
</g>
</g>
<!-- Node1&#45;&gt;Node2 -->
<g id="edge1" class="edge">
<title>Node1&#45;&gt;Node2</title>
<path fill="none" stroke="midnightblue" d="M331.88,-36.42C323.45,-37.6 314.7,-38.82 306.18,-40.01"/>
<polygon fill="midnightblue" stroke="midnightblue" points="332.55,-39.86 341.97,-35.01 331.58,-32.93 332.55,-39.86"/>
</g>
<!-- Node5 -->
<g id="node5" class="node">
<title>Node5</title>
<g id="a_node5"><a xlink:href="control_8h.html#aa7d41004f6e6355c5dd871a9a8c8a59d" target="_top" xlink:title="Adjusts vehicle controls based on keyboard input.">
<polygon fill="white" stroke="black" points="197.5,-0.5 197.5,-19.5 298.5,-19.5 298.5,-0.5 197.5,-0.5"/>
<text text-anchor="middle" x="248" y="-7.5" font-family="Helvetica,sans-Serif" font-size="10.00">keyboard_control</text>
</a>
</g>
</g>
<!-- Node1&#45;&gt;Node5 -->
<g id="edge4" class="edge">
<title>Node1&#45;&gt;Node5</title>
<path fill="none" stroke="midnightblue" d="M331.78,-21.56C320.94,-20.05 309.58,-18.46 298.87,-16.97"/>
<polygon fill="midnightblue" stroke="midnightblue" points="331.58,-25.07 341.97,-22.99 332.55,-18.14 331.58,-25.07"/>
</g>
<!-- Node3 -->
<g id="node3" class="node">
<title>Node3</title>
<g id="a_node3"><a xlink:href="tasks_8h.html#a91e3918bad881fbf7304d534268de11d" target="_top" xlink:title=" ">
<polygon fill="white" stroke="black" points="77,-19.5 77,-38.5 154,-38.5 154,-19.5 77,-19.5"/>
<text text-anchor="middle" x="115.5" y="-26.5" font-family="Helvetica,sans-Serif" font-size="10.00">control_task</text>
</a>
</g>
</g>
<!-- Node2&#45;&gt;Node3 -->
<g id="edge2" class="edge">
<title>Node2&#45;&gt;Node3</title>
<path fill="none" stroke="midnightblue" d="M179.82,-38.22C171.01,-36.94 162.25,-35.66 154.17,-34.48"/>
<polygon fill="midnightblue" stroke="midnightblue" points="179.36,-41.69 189.76,-39.67 180.37,-34.76 179.36,-41.69"/>
</g>
<!-- Node4 -->
<g id="node4" class="node">
<title>Node4</title>
<g id="a_node4"><a xlink:href="main_8c.html#a840291bc02cba5474a4cb46a9b9566fe" target="_top" xlink:title=" ">
<polygon fill="white" stroke="black" points="0,-19.5 0,-38.5 41,-38.5 41,-19.5 0,-19.5"/>
<text text-anchor="middle" x="20.5" y="-26.5" font-family="Helvetica,sans-Serif" font-size="10.00">main</text>
</a>
</g>
</g>
<!-- Node3&#45;&gt;Node4 -->
<g id="edge3" class="edge">
<title>Node3&#45;&gt;Node4</title>
<path fill="none" stroke="midnightblue" d="M66.73,-29C57.65,-29 48.63,-29 41.06,-29"/>
<polygon fill="midnightblue" stroke="midnightblue" points="66.94,-32.5 76.94,-29 66.94,-25.5 66.94,-32.5"/>
</g>
<!-- Node5&#45;&gt;Node3 -->
<g id="edge5" class="edge">
<title>Node5&#45;&gt;Node3</title>
<path fill="none" stroke="midnightblue" d="M187.13,-18.72C175.96,-20.34 164.57,-22 154.3,-23.5"/>
<polygon fill="midnightblue" stroke="midnightblue" points="187.9,-22.14 197.29,-17.24 186.89,-15.21 187.9,-22.14"/>
</g>
</g>
</svg>
